<svg width="42" height="42" viewBox="0 0 42 42" fill="none" xmlns="http://www.w3.org/2000/svg">
    <path d="M6.5625 18.3753C6.2144 18.3753 5.88056 18.237 5.63442 17.9909C5.38828 17.7447 5.25 17.4109 5.25 17.0628V6.56543C5.25 6.21733 5.38828 5.88349 5.63442 5.63735C5.88056 5.39121 6.2144 5.25293 6.5625 5.25293H17.0625C17.4106 5.25293 17.7444 5.39121 17.9906 5.63735C18.2367 5.88349 18.375 6.21733 18.375 6.56543V17.0628C18.375 17.4109 18.2367 17.7447 17.9906 17.9909C17.7444 18.237 17.4106 18.3753 17.0625 18.3753H6.5625ZM24.9375 18.3753C24.5894 18.3753 24.2556 18.237 24.0094 17.9909C23.7633 17.7447 23.625 17.4109 23.625 17.0628V6.56543C23.625 6.21733 23.7633 5.88349 24.0094 5.63735C24.2556 5.39121 24.5894 5.25293 24.9375 5.25293H35.4349C35.783 5.25293 36.1168 5.39121 36.363 5.63735C36.6091 5.88349 36.7474 6.21733 36.7474 6.56543V17.0628C36.7474 17.4109 36.6091 17.7447 36.363 17.9909C36.1168 18.237 35.783 18.3753 35.4349 18.3753H24.9375ZM6.5625 36.7503C6.2144 36.7503 5.88056 36.612 5.63442 36.3659C5.38828 36.1197 5.25 35.7859 5.25 35.4378V24.9378C5.25 24.5897 5.38828 24.2559 5.63442 24.0097C5.88056 23.7636 6.2144 23.6253 6.5625 23.6253H17.0625C17.4106 23.6253 17.7444 23.7636 17.9906 24.0097C18.2367 24.2559 18.375 24.5897 18.375 24.9378V35.4378C18.375 35.7859 18.2367 36.1197 17.9906 36.3659C17.7444 36.612 17.4106 36.7503 17.0625 36.7503H6.5625ZM24.9375 36.7503C24.5894 36.7503 24.2556 36.612 24.0094 36.3659C23.7633 36.1197 23.625 35.7859 23.625 35.4378V24.9378C23.625 24.5897 23.7633 24.2559 24.0094 24.0097C24.2556 23.7636 24.5894 23.6253 24.9375 23.6253H35.4349C35.783 23.6253 36.1168 23.7636 36.363 24.0097C36.6091 24.2559 36.7474 24.5897 36.7474 24.9378V35.4378C36.7474 35.7859 36.6091 36.1197 36.363 36.3659C36.1168 36.612 35.783 36.7503 35.4349 36.7503H24.9375Z" fill="white"/>
    </svg>
    