<svg width="941" height="132" viewBox="0 0 941 132" fill="none" xmlns="http://www.w3.org/2000/svg">
<path d="M1 64L853.011 65.9922" stroke="#E2E2E2" stroke-width="50"/>
<path d="M842 6.60397V125.407C842.004 126.61 842.336 127.789 842.961 128.817C843.586 129.846 844.481 130.684 845.548 131.243C846.615 131.802 847.814 132.06 849.017 131.988C850.22 131.917 851.38 131.52 852.374 130.839L938.327 71.4376C941.891 68.9757 941.891 63.0488 938.327 60.5803L852.374 1.17862C851.383 0.491044 850.221 0.0878345 849.016 0.0127973C847.812 -0.06224 846.609 0.193766 845.54 0.753C844.471 1.31223 843.575 2.15331 842.951 3.18484C842.327 4.21637 841.998 5.39891 842 6.60397Z" fill="#E2E2E2"/>
</svg>
