<svg version="1.1" xmlns="http://www.w3.org/2000/svg" xmlns:xlink="http://www.w3.org/1999/xlink" width="941" height="132" viewBox="0,0,256,35.90625"><g fill="none" fill-rule="nonzero" stroke="none" stroke-width="none" stroke-linecap="butt" stroke-linejoin="miter" stroke-miterlimit="10" stroke-dasharray="" stroke-dashoffset="0" font-family="none" font-weight="none" font-size="none" text-anchor="none" style="mix-blend-mode: normal"><g transform="translate(-0.13603,-0.00222) scale(0.27205,0.27205)"><path d="M1,64l852.011,1.9922" fill="none" stroke="#393939" stroke-width="50"></path><path d="M842,6.60397v118.80303c0.004,1.203 0.336,2.382 0.961,3.41c0.625,1.029 1.52,1.867 2.587,2.426c1.067,0.559 2.266,0.817 3.469,0.745c1.203,-0.071 2.363,-0.468 3.357,-1.149l85.953,-59.4014c3.564,-2.4619 3.564,-8.3888 0,-10.8573l-85.953,-59.40168c-0.991,-0.68758 -2.153,-1.09079 -3.358,-1.16582c-1.204,-0.07504 -2.407,0.18097 -3.476,0.7402c-1.069,0.55923 -1.965,1.40031 -2.589,2.43184c-0.624,1.03153 -0.953,2.21407 -0.951,3.41913z" fill="#393939" stroke="none" stroke-width="1"></path></g></g></svg>