<svg width="270" height="138" viewBox="0 0 270 138" fill="none" xmlns="http://www.w3.org/2000/svg">
<path d="M0 5C0 2.23858 2.23858 0 5 0H265C267.761 0 270 2.23858 270 5V138H0V5Z" fill="#CADEFC"/>
<path d="M120.732 117.968H130.515H147.633C154.209 117.968 160.318 114.561 163.78 108.963L168.113 101.958C171.657 96.2283 169.531 88.6891 163.518 85.6614C158.079 82.923 155.727 76.4057 158.161 70.819L159.894 66.8421C162.455 60.9637 161.277 54.1234 156.898 49.4427L149.298 41.3182C141.26 32.7254 127.713 32.5038 119.399 40.8292L109.913 50.3277C108.681 51.5615 106.765 51.7896 105.279 50.8796C102.892 49.4186 99.8028 50.9762 99.5542 53.7662L98.3772 66.9739C98.1182 69.8797 96.8045 72.5868 94.4758 74.3401C89.8824 77.7986 83.546 82.0593 82.3868 84.8944C74.217 104.875 99.169 117.968 120.732 117.968Z" fill="#E7E8FF"/>
<path d="M112.205 38.8937C112.205 37.7702 113.116 36.8594 114.239 36.8594H174.507C175.631 36.8594 176.541 37.7702 176.541 38.8937V92.1486C176.541 93.2721 175.631 94.1829 174.507 94.1829H114.239C113.116 94.1829 112.205 93.2721 112.205 92.1486V38.8937Z" fill="white"/>
<path fill-rule="evenodd" clip-rule="evenodd" d="M111.9 38.8939C111.9 37.602 112.947 36.5547 114.239 36.5547H174.507C175.799 36.5547 176.846 37.602 176.846 38.8939V92.1488C176.846 93.4407 175.799 94.488 174.507 94.488H114.239C112.947 94.488 111.9 93.4407 111.9 92.1488V38.8939ZM114.239 37.1645C113.284 37.1645 112.51 37.9388 112.51 38.8939V92.1488C112.51 93.1039 113.284 93.8782 114.239 93.8782H174.507C175.462 93.8782 176.236 93.1039 176.236 92.1488V38.8939C176.236 37.9388 175.462 37.1645 174.507 37.1645H114.239Z" fill="#032068"/>
<path d="M117.083 48.1413C117.083 47.6361 117.493 47.2266 117.998 47.2266H133.244C133.749 47.2266 134.159 47.6361 134.159 48.1413C134.159 48.6465 133.749 49.056 133.244 49.056H117.998C117.493 49.056 117.083 48.6465 117.083 48.1413Z" fill="#032068"/>
<path d="M112.205 38.8937C112.205 37.7702 113.116 36.8594 114.239 36.8594H174.507C175.631 36.8594 176.541 37.7702 176.541 38.8937V43.8724H112.205V38.8937Z" fill="#032068"/>
<path d="M118.641 40.4148C118.641 41.2566 117.958 41.939 117.116 41.939C116.275 41.939 115.592 41.2566 115.592 40.4148C115.592 39.573 116.275 38.8906 117.116 38.8906C117.958 38.8906 118.641 39.573 118.641 40.4148Z" fill="white"/>
<path d="M123.721 40.4148C123.721 41.2566 123.039 41.939 122.197 41.939C121.356 41.939 120.673 41.2566 120.673 40.4148C120.673 39.573 121.356 38.8906 122.197 38.8906C123.039 38.8906 123.721 39.573 123.721 40.4148Z" fill="white"/>
<path d="M128.802 40.4148C128.802 41.2566 128.119 41.939 127.278 41.939C126.436 41.939 125.753 41.2566 125.753 40.4148C125.753 39.573 126.436 38.8906 127.278 38.8906C128.119 38.8906 128.802 39.573 128.802 40.4148Z" fill="white"/>
<path d="M114.949 84.5785C114.949 84.3259 115.154 84.1211 115.406 84.1211H173.34C173.592 84.1211 173.797 84.3259 173.797 84.5785C173.797 84.8311 173.592 85.0358 173.34 85.0358H115.406C115.154 85.0358 114.949 84.8311 114.949 84.5785Z" fill="#E7E8FF"/>
<path d="M114.949 87.016C114.949 86.7634 115.154 86.5586 115.406 86.5586H173.34C173.592 86.5586 173.797 86.7634 173.797 87.016C173.797 87.2686 173.592 87.4733 173.34 87.4733H115.406C115.154 87.4733 114.949 87.2686 114.949 87.016Z" fill="#E7E8FF"/>
<path d="M114.949 87.016C114.949 86.7634 115.154 86.5586 115.406 86.5586H149.252C149.504 86.5586 149.709 86.7634 149.709 87.016C149.709 87.2686 149.504 87.4733 149.252 87.4733H115.406C115.154 87.4733 114.949 87.2686 114.949 87.016Z" fill="#032068"/>
<path d="M150.624 87.0164C150.624 87.6058 150.146 88.0836 149.556 88.0836C148.967 88.0836 148.489 87.6058 148.489 87.0164C148.489 86.427 148.967 85.9492 149.556 85.9492C150.146 85.9492 150.624 86.427 150.624 87.0164Z" fill="#032068"/>
<path d="M123.487 90.9797L120.971 92.432L120.971 89.5273L123.487 90.9797Z" fill="#032068"/>
<path fill-rule="evenodd" clip-rule="evenodd" d="M127.527 90.6276V89.6076H128.136V90.9797V92.3518H127.527V91.3318L125.621 92.432V89.5273L127.527 90.6276Z" fill="#032068"/>
<path fill-rule="evenodd" clip-rule="evenodd" d="M116.778 90.6276V89.6076H116.169V90.9797V92.3518H116.778V91.3318L118.684 92.432V89.5273L116.778 90.6276Z" fill="#032068"/>
<path fill-rule="evenodd" clip-rule="evenodd" d="M167.699 90.219H164.65L164.65 92.0485H167.699V90.219ZM164.65 89.9141C164.481 89.9141 164.345 90.0506 164.345 90.219V92.0485C164.345 92.2168 164.481 92.3534 164.65 92.3534H167.699C167.867 92.3534 168.004 92.2168 168.004 92.0485V90.219C168.004 90.0506 167.867 89.9141 167.699 89.9141H164.65Z" fill="#E7E8FF"/>
<path fill-rule="evenodd" clip-rule="evenodd" d="M173.797 90.219H170.748L170.748 92.0485H173.797V90.219ZM170.748 89.9141C170.58 89.9141 170.443 90.0506 170.443 90.219V92.0485C170.443 92.2168 170.58 92.3534 170.748 92.3534H173.797C173.966 92.3534 174.102 92.2168 174.102 92.0485V90.219C174.102 90.0506 173.966 89.9141 173.797 89.9141H170.748Z" fill="#E7E8FF"/>
<path d="M161.906 91.1339C161.906 91.9759 161.223 92.6585 160.381 92.6585C159.539 92.6585 158.856 91.9759 158.856 91.1339C158.856 90.2919 159.539 89.6094 160.381 89.6094C161.223 89.6094 161.906 90.2919 161.906 91.1339Z" fill="#E7E8FF"/>
<path d="M154.588 67.6559C154.588 73.213 150.083 77.718 144.525 77.718C138.968 77.718 134.463 73.213 134.463 67.6559C134.463 62.0987 138.968 57.5938 144.525 57.5938C150.083 57.5938 154.588 62.0987 154.588 67.6559Z" fill="#E7E8FF"/>
<path d="M132.024 91.3329V90.4023C132.024 90.2684 132.111 90.1502 132.239 90.1109L133.381 89.7597C133.535 89.7121 133.701 89.7932 133.751 89.9473C133.991 90.6988 133.957 91.1653 133.752 91.7885C133.702 91.942 133.536 92.0232 133.381 91.9756L132.239 91.6243C132.111 91.585 132.024 91.4668 132.024 91.3329Z" fill="#E7E8FF"/>
<path fill-rule="evenodd" clip-rule="evenodd" d="M134.535 92.3118C134.411 92.2498 134.362 92.0992 134.415 91.971C134.74 91.1816 134.74 90.3417 134.43 89.6471C134.374 89.5205 134.415 89.3675 134.535 89.2987C134.655 89.2298 134.81 89.2713 134.868 89.3971C135.265 90.2487 135.258 91.2665 134.865 92.1961C134.811 92.3238 134.659 92.3738 134.535 92.3118Z" fill="#E7E8FF"/>
<path fill-rule="evenodd" clip-rule="evenodd" d="M135.79 90.8441C135.802 90.3389 135.69 89.8114 135.409 89.1278C135.356 88.9996 135.413 88.8513 135.54 88.7951C135.666 88.7388 135.815 88.7959 135.868 88.924C136.17 89.6549 136.306 90.2567 136.292 90.8558C136.278 91.445 136.12 92.012 135.865 92.6731C135.815 92.8025 135.668 92.8646 135.54 92.8126C135.411 92.7607 135.349 92.6143 135.399 92.4849C135.643 91.8496 135.778 91.348 135.79 90.8441Z" fill="#E7E8FF"/>
<path d="M150.624 67.5047L141.705 72.6539L141.705 62.3555L150.624 67.5047Z" fill="#032068"/>
<path d="M155.96 76.1798C155.96 75.2607 156.711 74.5156 157.638 74.5156H178.37C179.296 74.5156 180.048 75.2607 180.048 76.1798V116.151C180.048 117.07 179.296 117.815 178.37 117.815H157.638C156.711 117.815 155.96 117.07 155.96 116.151V76.1798Z" fill="white"/>
<path fill-rule="evenodd" clip-rule="evenodd" d="M155.807 76.1787C155.807 75.1761 156.627 74.3633 157.638 74.3633H178.37C179.381 74.3633 180.2 75.1761 180.2 76.1787V116.15C180.2 117.153 179.381 117.966 178.37 117.966H157.638C156.627 117.966 155.807 117.153 155.807 116.15V76.1787ZM157.638 74.6659C156.795 74.6659 156.112 75.3432 156.112 76.1787V116.15C156.112 116.986 156.795 117.663 157.638 117.663H178.37C179.212 117.663 179.895 116.986 179.895 116.15V76.1787C179.895 75.3432 179.212 74.6659 178.37 74.6659H157.638Z" fill="#032068"/>
<path d="M163.207 75.9543L162.433 74.5156H173.574L172.663 76.0208C172.387 76.4765 171.891 76.7553 171.355 76.7553H164.553C163.989 76.7553 163.472 76.4473 163.207 75.9543Z" fill="#032068"/>
<path d="M179.752 75.4102H156.101C156.884 74.6338 157.632 74.4894 157.908 74.5143H177.945C178.909 74.5143 179.551 75.1115 179.752 75.4102Z" fill="#032068"/>
<path d="M179.741 116.966H156.267C157.08 117.755 157.55 117.902 157.837 117.876H178.17C179.171 117.876 179.532 117.269 179.741 116.966Z" fill="#032068"/>
<path d="M158.061 79.8784C158.061 79.6277 158.266 79.4219 158.518 79.4219H166.195C166.448 79.4219 166.653 79.6277 166.653 79.8784C166.653 80.129 166.448 80.3349 166.195 80.3349H158.518C158.266 80.3349 158.061 80.129 158.061 79.8784Z" fill="#032068"/>
<path d="M158.061 103.681C158.061 103.434 158.262 103.234 158.511 103.234H171.866C172.115 103.234 172.317 103.434 172.317 103.681C172.317 103.927 172.115 104.127 171.866 104.127H158.511C158.262 104.127 158.061 103.927 158.061 103.681Z" fill="#032068"/>
<path d="M158.061 106.371C158.061 106.12 158.266 105.914 158.518 105.914H166.195C166.448 105.914 166.653 106.12 166.653 106.371C166.653 106.621 166.448 106.827 166.195 106.827H158.518C158.266 106.827 158.061 106.621 158.061 106.371Z" fill="#032068"/>
<path fill-rule="evenodd" clip-rule="evenodd" d="M157.908 83.3005C157.908 82.9662 158.181 82.6953 158.518 82.6953H177.411C177.748 82.6953 178.021 82.9662 178.021 83.3005V100.55C178.021 100.884 177.748 101.155 177.411 101.155H158.518C158.181 101.155 157.908 100.884 157.908 100.55V83.3005ZM158.518 82.9979C158.35 82.9979 158.213 83.1334 158.213 83.3005V100.55C158.213 100.717 158.35 100.852 158.518 100.852H177.411C177.58 100.852 177.716 100.717 177.716 100.55V83.3005C177.716 83.1334 177.58 82.9979 177.411 82.9979H158.518Z" fill="#E7E8FF"/>
<path d="M172.917 91.923C172.917 94.6354 170.699 96.8342 167.964 96.8342C165.23 96.8342 163.012 94.6354 163.012 91.923C163.012 89.2106 165.23 87.0117 167.964 87.0117C170.699 87.0117 172.917 89.2106 172.917 91.923Z" fill="#E7E8FF"/>
<path d="M168.464 94.0066L168.464 89.9883L169.915 89.9883L169.915 94.0066L168.464 94.0066ZM166.014 94.0066L166.014 89.9883L167.465 89.9883L167.465 94.0066L166.014 94.0066Z" fill="#032068"/>
<path d="M169.653 111.795L166.839 113.277L166.839 110.312L169.653 111.795Z" fill="#E7E8FF"/>
<path fill-rule="evenodd" clip-rule="evenodd" d="M173.938 111.413V110.306H174.605V113.283H173.938V112.176L171.853 113.37V110.219L173.938 111.413Z" fill="#E7E8FF"/>
<path fill-rule="evenodd" clip-rule="evenodd" d="M162.179 111.413V110.306H161.512V113.283H162.179V112.176L164.264 113.37L164.264 110.219L162.179 111.413Z" fill="#E7E8FF"/>
<path d="M185.039 60.9206L184.325 62.4037C184.281 62.4939 184.192 62.5519 184.092 62.554L182.827 62.5808C182.555 62.5865 182.467 62.9526 182.706 63.0853L183.838 63.7136C183.921 63.7595 183.973 63.8459 183.977 63.9409L184.027 65.3611C184.036 65.6281 184.383 65.7212 184.52 65.4935L185.28 64.2334C185.324 64.1594 185.401 64.1118 185.487 64.1057L186.657 64.0218C186.92 64.003 186.997 63.6496 186.766 63.5189L185.763 62.9517C185.682 62.9061 185.631 62.8219 185.626 62.7289L185.545 61.0275C185.531 60.7492 185.16 60.6706 185.039 60.9206Z" fill="#E7E8FF"/>
<path d="M104.771 42.7032L102.833 44.0045C102.715 44.0837 102.564 44.0902 102.44 44.0214L100.874 43.1465C100.537 42.9583 100.167 43.3433 100.365 43.6771L101.298 45.2574C101.366 45.3728 101.368 45.5163 101.304 45.6349L100.346 47.4076C100.166 47.7409 100.524 48.1037 100.855 47.9237L102.688 46.9273C102.796 46.8687 102.924 46.866 103.033 46.92L104.524 47.6565C104.86 47.8224 105.207 47.4452 105.018 47.1197L104.199 45.7064C104.133 45.5929 104.13 45.4527 104.191 45.3358L105.312 43.1965C105.496 42.8466 105.097 42.4838 104.771 42.7032Z" fill="#E7E8FF"/>
<path d="M93.1056 55.7239L93.188 56.7741C93.193 56.838 93.1621 56.899 93.1077 56.9322L92.4167 57.3543C92.268 57.4451 92.3375 57.6758 92.5125 57.6722L93.3406 57.6553C93.4011 57.6541 93.458 57.6849 93.4905 57.7364L93.9753 58.5057C94.0664 58.6503 94.2883 58.59 94.2909 58.42L94.3051 57.4786C94.306 57.4233 94.3334 57.3721 94.3788 57.3412L94.9986 56.9182C95.1382 56.8229 95.0669 56.6028 94.8971 56.6049L94.1598 56.6142C94.1006 56.6149 94.0448 56.585 94.0124 56.535L93.4196 55.6203C93.3226 55.4707 93.0918 55.5469 93.1056 55.7239Z" fill="#E7E8FF"/>
<path d="M103.074 64.3896C99.305 67.044 100.889 71.7627 101.599 73.5913L101.288 77.3225C101.61 78.4972 102.779 80.8464 104.877 80.8464C106.975 80.8464 107.936 78.841 108.155 77.8382L107.827 75.0069C110.285 74.1221 110.449 70.5831 110.285 67.7518C110.09 64.3896 106.394 62.0516 103.074 64.3896Z" fill="white"/>
<path fill-rule="evenodd" clip-rule="evenodd" d="M107.744 64.1374C106.459 63.4658 104.798 63.4582 103.208 64.578C101.402 65.8499 100.875 67.6112 100.888 69.2984C100.902 70.9948 101.462 72.5992 101.815 73.5082L101.834 73.5577L101.522 77.3006C101.682 77.8637 102.039 78.6918 102.597 79.3803C103.167 80.0842 103.924 80.616 104.877 80.616C105.842 80.616 106.546 80.158 107.043 79.57C107.532 78.9921 107.811 78.2975 107.92 77.826L107.576 74.8522L107.748 74.7902C108.871 74.3859 109.495 73.3707 109.814 72.0552C110.133 70.7403 110.135 69.1757 110.054 67.7652C109.961 66.1655 109.036 64.8126 107.744 64.1374ZM101.057 77.3013L101.364 73.625C101.005 72.6959 100.439 71.0542 100.425 69.302C100.411 67.5092 100.977 65.5839 102.94 64.2015C104.67 62.9833 106.517 62.9756 107.959 63.7291C109.394 64.479 110.414 65.9762 110.516 67.7386C110.598 69.1593 110.6 70.78 110.264 72.1636C109.943 73.4861 109.3 74.6382 108.077 75.1567L108.389 77.8499L108.381 77.8872C108.265 78.4183 107.956 79.2066 107.398 79.867C106.835 80.5323 106.01 81.0771 104.877 81.0771C103.732 81.0771 102.856 80.4343 102.236 79.6698C101.645 78.9396 101.267 78.0745 101.088 77.4657L101.041 77.4609L101.057 77.3013Z" fill="#032068"/>
<path d="M101.718 72.6681L101.391 75.8766C101.282 75.6389 101.032 74.9497 100.901 74.0941C100.738 73.0246 98.1257 68.9248 98.942 65.8946C99.5951 63.4704 101.391 63.5773 102.207 63.9338C102.697 63.0426 105.636 60.0124 109.881 60.3689C114.126 60.7254 114.616 66.7858 111.187 67.6771C108.444 68.3901 105.364 67.9742 104.167 67.6771C104.058 67.9148 103.742 68.7109 103.35 69.9943C102.861 71.5986 102.861 71.9551 102.697 70.8856C102.534 69.8161 101.881 67.8553 101.065 69.8161C100.411 71.3847 101.228 72.371 101.718 72.6681Z" fill="#032068"/>
<path d="M104.089 74.9453C105.213 75.604 106.95 75.2198 107.678 74.9453L107.834 76.0981C106.211 76.4933 104.661 75.4942 104.089 74.9453Z" fill="#032068"/>
<path d="M104.732 79.1711C107.023 79.1711 108.239 77.9212 108.631 77.1821C108.674 77.1005 108.758 77.0449 108.851 77.0464C116.054 77.1637 121.064 85.4994 122.704 89.7406C122.719 89.7809 122.722 89.823 122.714 89.8654L120.752 99.7821C120.747 99.8089 120.746 99.8352 120.751 99.8621C121.463 104.281 122.694 113.464 121.964 115.159C121.232 116.86 114.339 118.045 108.697 118.045C98.937 118.045 86.3407 117.802 84.7547 116.222C82.7722 114.248 85.3647 89.6487 89.7872 83.4229C93.247 78.5521 98.4959 76.9634 100.77 77.0376C100.862 77.0406 100.938 77.1014 100.977 77.1846C101.317 77.9241 102.443 79.1711 104.732 79.1711Z" fill="white"/>
<path fill-rule="evenodd" clip-rule="evenodd" d="M95.6209 78.1653C97.6746 77.1564 99.5933 76.7647 100.778 76.8034C100.974 76.8098 101.12 76.9385 101.187 77.0847C101.493 77.7478 102.54 78.9367 104.732 78.9367C106.929 78.9367 108.07 77.7419 108.426 77.0706C108.505 76.9221 108.664 76.809 108.854 76.8121C112.549 76.8722 115.658 79.0387 118.036 81.6897C120.416 84.3431 122.092 87.5128 122.92 89.6539C122.952 89.737 122.957 89.8235 122.941 89.9062L120.98 99.8229C121.336 102.035 121.823 105.44 122.129 108.505C122.282 110.038 122.39 111.49 122.414 112.667C122.426 113.255 122.417 113.779 122.382 114.212C122.346 114.638 122.284 114.999 122.177 115.246C122.063 115.512 121.838 115.747 121.552 115.954C121.263 116.163 120.894 116.357 120.466 116.536C119.609 116.895 118.486 117.206 117.218 117.462C114.681 117.974 111.532 118.271 108.697 118.271C103.816 118.271 98.2218 118.211 93.6476 117.952C91.3611 117.823 89.324 117.644 87.7563 117.397C86.9728 117.274 86.3005 117.133 85.7706 116.971C85.2502 116.811 84.8322 116.622 84.5911 116.382C84.4264 116.218 84.3067 115.962 84.2146 115.661C84.1204 115.353 84.0467 114.971 83.9907 114.527C83.8787 113.638 83.8346 112.479 83.8513 111.133C83.8848 108.441 84.1622 104.977 84.6396 101.383C85.1171 97.7889 85.7954 94.059 86.6323 90.8352C87.4669 87.6199 88.4664 84.8793 89.5982 83.2859C91.3535 80.8149 93.5624 79.1765 95.6209 78.1653ZM95.8258 78.5788C93.8263 79.5611 91.6809 81.1525 89.9763 83.5522C88.8969 85.0717 87.9139 87.7408 87.0806 90.9506C86.2496 94.1519 85.5744 97.8626 85.0988 101.443C84.6231 105.024 84.3476 108.47 84.3144 111.139C84.2978 112.475 84.3419 113.61 84.4502 114.469C84.5044 114.899 84.574 115.253 84.6575 115.526C84.743 115.805 84.8355 115.973 84.9186 116.056C85.074 116.21 85.3965 116.374 85.9067 116.53C86.4073 116.683 87.0556 116.82 87.8285 116.942C89.3736 117.185 91.3929 117.363 93.6738 117.492C98.2342 117.749 103.818 117.81 108.697 117.81C111.504 117.81 114.623 117.515 117.126 117.01C118.379 116.757 119.469 116.453 120.286 116.111C120.695 115.94 121.029 115.763 121.279 115.581C121.532 115.399 121.683 115.224 121.751 115.065C121.827 114.889 121.886 114.591 121.92 114.174C121.954 113.763 121.963 113.256 121.951 112.676C121.928 111.517 121.821 110.079 121.668 108.551C121.363 105.497 120.878 102.101 120.522 99.8949C120.513 99.8399 120.515 99.7861 120.525 99.7338L122.487 89.8173C121.675 87.7173 120.026 84.5999 117.691 81.9969C115.353 79.3904 112.356 77.3303 108.847 77.2732C108.849 77.2732 108.849 77.2724 108.846 77.2742C108.843 77.2761 108.839 77.2801 108.836 77.286C108.408 78.0929 107.118 79.3978 104.732 79.3978C102.347 79.3978 101.142 78.0927 100.766 77.2769C100.765 77.2728 100.762 77.2695 100.76 77.267C100.759 77.2658 100.758 77.2648 100.758 77.2641C99.6674 77.2298 97.8271 77.5957 95.8258 78.5788Z" fill="#032068"/>
<path d="M93.7521 112.575C91.5561 110.267 88.5671 103.009 87.3472 99.668C87.6522 104.274 91.7696 114.701 93.7521 114.701C98.144 115.673 108.9 108.627 113.729 104.983C107.985 108.475 95.948 114.883 93.7521 112.575Z" fill="#032068"/>
<path d="M116.932 86.7617L118.457 91.3172H119.524L116.932 86.7617Z" fill="#032068"/>
<path d="M100.004 112.425C96.3444 109.388 92.3795 108.832 90.8545 108.933C91.2612 110.299 92.9285 112.972 94.5144 113.336C96.1004 113.701 98.6827 112.932 100.004 112.425Z" fill="#032068"/>
<path d="M101.529 98.9113L99.852 90.8633L103.207 98.4558C106.257 97.6965 109.561 97.6965 111.289 97.6965C104.274 98.9113 100.919 100.278 97.717 101.189L101.529 98.9113Z" fill="#032068"/>
<path d="M114.644 97.0868C113.912 97.4513 112.713 98.5547 112.204 99.0609L113.119 103.009C113.851 102.887 115.763 102.351 116.627 102.098L116.932 94.9609C115.407 95.4165 115.559 96.6313 114.644 97.0868Z" fill="white"/>
<path fill-rule="evenodd" clip-rule="evenodd" d="M117.177 94.6484L116.851 102.274L116.692 102.321C115.833 102.572 113.906 103.114 113.157 103.238L112.943 103.274L111.95 98.9897L112.04 98.8993C112.298 98.6424 112.73 98.2357 113.19 97.8464C113.646 97.4612 114.147 97.0778 114.541 96.8821C114.857 96.7243 115.014 96.4682 115.223 96.1282C115.267 96.0563 115.313 95.9808 115.364 95.9016C115.648 95.4573 116.03 94.9909 116.865 94.7416L117.177 94.6484ZM115.638 96.3381C115.43 96.683 115.195 97.0721 114.748 97.2945C114.409 97.4632 113.944 97.8138 113.49 98.1979C113.091 98.5352 112.714 98.8867 112.459 99.1357L113.295 102.743C114.069 102.584 115.565 102.167 116.402 101.924L116.685 95.2985C116.209 95.5122 115.963 95.823 115.755 96.1491C115.716 96.2096 115.677 96.2731 115.638 96.3381Z" fill="#032068"/>
<path d="M117.224 91.0395L116.191 105.877C116.181 106.035 116.329 106.156 116.482 106.116L129.743 102.594C129.834 102.57 129.902 102.494 129.913 102.401L131.684 88.4432C131.704 88.2879 131.566 88.1586 131.411 88.1877L117.412 90.8289C117.309 90.8484 117.231 90.9349 117.224 91.0395Z" fill="white"/>
<path fill-rule="evenodd" clip-rule="evenodd" d="M131.368 87.9614C131.677 87.9031 131.953 88.1617 131.914 88.4723L130.143 102.43C130.12 102.616 129.985 102.769 129.803 102.817L116.542 106.339C116.235 106.42 115.939 106.177 115.961 105.861L116.993 91.0238C117.008 90.8146 117.162 90.6416 117.369 90.6026L131.368 87.9614L131.411 88.1879L131.368 87.9614ZM131.454 88.4145L117.455 91.0556L116.423 105.893L129.684 102.372L131.454 88.4145Z" fill="#032068"/>
<path d="M125.981 97.6199C125.547 99.2405 124.404 100.344 123.427 100.085C122.451 99.8251 122.011 98.301 122.445 96.6804C122.879 95.0598 124.023 93.9564 125 94.2158C125.976 94.4752 126.416 95.9993 125.981 97.6199Z" fill="#032068"/>
<path d="M128.827 97.3907C128.94 95.5755 130.127 94.6786 130.822 94.403C130.906 94.3696 130.969 94.2965 130.981 94.2072L131.235 92.3121C131.252 92.1829 131.375 92.0919 131.495 92.1437C132.303 92.4916 132.918 93.9521 132.639 96.1759C132.334 98.6055 130.961 99.6684 130.351 99.6684C129.741 99.6684 128.674 99.8203 128.827 97.3907Z" fill="white"/>
<path fill-rule="evenodd" clip-rule="evenodd" d="M131.005 92.2839C131.037 92.0459 131.289 91.8058 131.587 91.9343C132.077 92.1456 132.465 92.6702 132.695 93.3886C132.927 94.1139 133.011 95.0697 132.869 96.2068C132.711 97.46 132.277 98.374 131.79 98.9796C131.548 99.2818 131.291 99.5087 131.047 99.6617C130.808 99.8118 130.564 99.9013 130.352 99.9013C130.323 99.9013 130.291 99.9019 130.257 99.9025C129.973 99.9077 129.516 99.9161 129.156 99.6209C128.741 99.2805 128.518 98.6091 128.595 97.3786C128.716 95.4546 129.979 94.4916 130.736 94.1911C130.743 94.1884 130.747 94.1846 130.75 94.1818C130.751 94.1803 130.752 94.1794 130.752 94.179L131.005 92.2839ZM131.464 92.3445C131.464 92.3445 131.464 92.3446 131.464 92.3448L131.459 92.3842C131.44 92.3745 131.422 92.3656 131.403 92.3576C131.41 92.3606 131.421 92.3627 131.433 92.3614C131.444 92.3601 131.452 92.3562 131.457 92.353C131.462 92.3491 131.464 92.3459 131.464 92.3448C131.464 92.3446 131.464 92.3445 131.464 92.3445ZM131.459 92.3842L131.211 94.24C131.186 94.4211 131.06 94.5589 130.908 94.6195C130.276 94.8701 129.165 95.701 129.058 97.4073C128.982 98.6064 129.217 99.0738 129.45 99.2649C129.67 99.4451 129.945 99.443 130.247 99.4407C130.282 99.4404 130.316 99.4401 130.352 99.4401C130.444 99.4401 130.601 99.3967 130.8 99.2716C130.995 99.1494 131.214 98.9587 131.429 98.6915C131.857 98.1581 132.261 97.3259 132.409 96.1496C132.546 95.0628 132.461 94.1765 132.254 93.5287C132.057 92.9123 131.758 92.5398 131.459 92.3842Z" fill="#032068"/>
</svg>
