<svg width="270" height="138" viewBox="0 0 270 138" fill="none" xmlns="http://www.w3.org/2000/svg">
<path d="M0 5C0 2.23858 2.23858 0 5 0H265C267.761 0 270 2.23858 270 5V138H0V5Z" fill="#8DC4F8"/>
<path d="M91.0079 123.615H139.762H169.429C172.612 123.615 175.717 122.621 178.312 120.771L181.578 118.442C188.342 113.62 188.545 103.614 181.982 98.52C175.582 93.5518 175.586 83.8566 181.989 78.8932L184.28 77.1181C190.949 71.9485 191.883 62.203 186.318 55.8527L175.894 43.9576C168.667 35.7104 155.918 35.539 148.473 43.589C141.791 50.8137 130.642 51.5299 123.097 45.2192L120.665 43.1853C114.756 38.2432 106.629 36.932 99.4729 39.7663C89.0199 43.9066 83.6572 55.5595 87.2954 66.2274L91.9651 79.9201C94.2203 86.5329 91.1172 93.7848 84.7854 96.6989C79.965 98.9174 76.875 103.75 76.875 109.071V109.435C76.875 117.266 83.2025 123.615 91.0079 123.615Z" fill="#E7E8FF"/>
<path d="M102.772 80.8272L102.089 84.4201L102.772 88.1841C104.534 88.4123 108.127 88.8685 108.4 88.8685C108.673 88.8685 110.674 87.1576 111.64 86.3021L110.617 80.8272C113.482 79.8691 114.426 75.6374 114.54 73.6413C115.222 65.4289 109.764 64.4023 108.741 64.4023C107.718 64.4023 101.237 64.4023 100.384 71.246C99.7017 76.721 101.691 79.9147 102.772 80.8272Z" fill="white"/>
<path fill-rule="evenodd" clip-rule="evenodd" d="M104.636 65.5598C102.872 66.3734 101.121 67.9937 100.71 71.289C100.039 76.6747 102.004 79.7493 102.983 80.5767L103.131 80.7011L102.424 84.4235L103.052 87.8896C103.925 88.0021 105.132 88.1561 106.184 88.2862C106.76 88.3575 107.289 88.4215 107.69 88.4677C107.891 88.4908 108.059 88.5093 108.185 88.522C108.248 88.5284 108.299 88.5331 108.337 88.5363C108.346 88.537 108.354 88.5376 108.361 88.5381C108.374 88.5318 108.39 88.5227 108.412 88.5102C108.481 88.4695 108.576 88.4062 108.693 88.3217C108.926 88.1537 109.226 87.918 109.552 87.652C110.142 87.1703 110.805 86.6001 111.282 86.1803L110.24 80.6071L110.513 80.516C111.814 80.081 112.714 78.8882 113.307 77.4957C113.898 76.1106 114.156 74.5926 114.211 73.6245L114.211 73.6202L114.211 73.6159C114.546 69.5907 113.375 67.3895 112.058 66.1885C110.723 64.9711 109.188 64.7345 108.741 64.7345C108.236 64.7345 106.421 64.7361 104.636 65.5598ZM108.334 88.5501C108.334 88.55 108.336 88.5494 108.339 88.5485C108.336 88.5497 108.334 88.5502 108.334 88.5501ZM108.738 64.0742H108.741C109.317 64.0742 111.022 64.3509 112.501 65.6999C113.998 67.0648 115.214 69.4819 114.868 73.6665C114.809 74.6946 114.538 76.2881 113.913 77.7553C113.326 79.1312 112.402 80.4541 110.991 81.0411L111.998 86.4276L111.858 86.5517C111.373 86.9812 110.627 87.6259 109.967 88.1642C109.638 88.433 109.326 88.6784 109.077 88.8579C108.953 88.9472 108.839 89.0243 108.743 89.0804C108.696 89.1083 108.647 89.1346 108.599 89.1549C108.561 89.1712 108.486 89.2007 108.4 89.2007C108.307 89.2007 108.005 89.1684 107.615 89.1237C107.211 89.0772 106.68 89.0129 106.104 88.9415C104.95 88.7989 103.611 88.6277 102.729 88.5136L102.491 88.4827L101.755 84.4207L102.413 80.9504C101.221 79.8145 99.3917 76.5479 100.057 71.2071C100.499 67.6586 102.415 65.8572 104.361 64.9599C106.281 64.0742 108.215 64.0742 108.738 64.0742Z" fill="#032068"/>
<path d="M86.2279 123.258H113.004L146.944 123.087C149.044 121.713 149.632 119.496 149.637 117.616C149.642 116.075 148.535 114.836 147.152 114.167C141.656 111.509 133.314 107.396 131.765 106.32C129.548 104.78 127.501 96.3963 123.408 89.8948C120.133 84.6936 113.971 83.5074 111.469 83.5644C111.242 84.591 110.275 86.6441 106.864 86.6441C103.453 86.6441 102.032 84.591 101.577 83.5644C99.8151 83.5644 94.926 84.5225 90.8328 88.355C85.7198 93.1423 83.5022 104.08 81.4568 114.169L81.4525 114.19C79.8152 122.265 83.9539 123.486 86.2279 123.258Z" fill="white"/>
<path fill-rule="evenodd" clip-rule="evenodd" d="M111.724 83.8951C111.565 84.4353 111.233 85.1356 110.583 85.7344C109.818 86.4393 108.641 86.9762 106.865 86.9762C103.491 86.9762 101.948 85.0494 101.371 83.9007C99.5226 83.9717 94.9286 84.9737 91.0573 88.5984C88.5659 90.9311 86.7539 94.7929 85.3082 99.3755C83.8653 103.95 82.8028 109.188 81.7793 114.237L81.775 114.258C80.9657 118.25 81.6043 120.449 82.6219 121.623C83.6416 122.8 85.121 123.039 86.1952 122.931L86.2115 122.93H113.004L146.844 122.759C148.751 121.466 149.303 119.412 149.308 117.617C149.312 116.249 148.326 115.103 147.009 114.466C144.26 113.137 140.799 111.443 137.831 109.947C134.876 108.458 132.376 107.148 131.578 106.593C130.949 106.156 130.374 105.274 129.807 104.171C129.232 103.054 128.636 101.646 127.987 100.098C127.943 99.9931 127.898 99.8876 127.854 99.7815C126.58 96.7422 125.091 93.1877 123.13 90.0731C121.538 87.5442 119.24 85.9855 117.023 85.0648C114.947 84.2029 112.959 83.9075 111.724 83.8951ZM117.275 84.4548C119.583 85.4133 122.004 87.0482 123.686 89.7206C125.677 92.8825 127.185 96.4816 128.454 99.5102C128.501 99.6216 128.547 99.7321 128.593 99.8419C129.245 101.395 129.831 102.778 130.392 103.869C130.96 104.974 131.472 105.717 131.952 106.05C132.703 106.572 135.149 107.856 138.126 109.357C141.09 110.851 144.548 112.543 147.295 113.871C148.744 114.572 149.972 115.905 149.966 117.619C149.961 119.559 149.352 121.907 147.124 123.365L147.042 123.418L113.006 123.59L113.004 123.59H86.2441C85.045 123.706 83.3283 123.445 82.1251 122.056C80.9142 120.659 80.3021 118.21 81.1301 114.126L81.1364 114.095C82.1577 109.058 83.2263 103.787 84.6807 99.1763C86.1335 94.571 87.9868 90.5702 90.6083 88.1157C94.7705 84.2186 99.7435 83.2363 101.577 83.2363H101.791L101.878 83.4324C102.297 84.3779 103.621 86.316 106.865 86.316C108.499 86.316 109.511 85.8263 110.138 85.2481C110.772 84.6641 111.045 83.9617 111.148 83.4948L111.204 83.2423L111.462 83.2364C112.759 83.2068 114.97 83.4977 117.275 84.4548Z" fill="#032068"/>
<path d="M97.6548 110.085L100.213 99.6484L99.7014 110.085L111.351 112.935C112.846 113.301 114.245 114.234 114.528 115.753C115.033 118.461 114.026 121.341 112.834 122.404C113.857 120.935 113.857 115.389 112.663 114.533C111.708 113.849 99.8719 111.625 94.0732 110.598L97.6548 110.085Z" fill="#032068"/>
<path d="M123.067 96.9102L129.377 123.258H132.106L123.067 96.9102Z" fill="#032068"/>
<path d="M104.647 77.4058C103.965 81.3751 102.998 81.7972 102.6 81.512C97.825 78.4324 97.9402 68.5929 100.895 65.2583C103.624 62.1786 105.67 63.3763 111.298 62.0075C116.927 60.6388 118.803 63.0341 117.779 66.1137C116.306 70.547 111.64 68.1668 110.446 68.6801C109.252 69.1934 107.717 70.5621 107.035 73.2996C106.352 76.0371 106.011 75.5238 105.5 73.984C104.988 72.4441 103.624 70.2199 102.6 72.9574C101.782 75.1474 103.624 76.8355 104.647 77.4058Z" fill="#032068"/>
<path d="M124.772 123.257C124.772 118.603 117.893 117.212 114.539 117.098C114.539 119.425 113.118 122.173 112.322 123.257H124.772Z" fill="white"/>
<path fill-rule="evenodd" clip-rule="evenodd" d="M114.21 116.758L114.55 116.769C116.254 116.827 118.857 117.209 121.046 118.174C123.225 119.136 125.101 120.732 125.101 123.259V123.589H111.671L112.057 123.063C112.437 122.546 112.978 121.612 113.424 120.52C113.871 119.426 114.21 118.202 114.21 117.099V116.758ZM114.859 117.444C114.798 118.567 114.453 119.743 114.033 120.77C113.691 121.608 113.293 122.363 112.94 122.929H124.43C124.277 120.983 122.769 119.656 120.781 118.779C118.827 117.917 116.502 117.536 114.859 117.444Z" fill="#032068"/>
<path d="M157.921 122.945C157.921 118.809 152.47 117.93 149.529 117.828C149.529 119.896 147.703 121.982 147.006 122.945H157.921Z" fill="white"/>
<path fill-rule="evenodd" clip-rule="evenodd" d="M149.2 117.484L149.54 117.496C151.027 117.547 153.173 117.795 154.958 118.568C156.748 119.344 158.25 120.687 158.25 122.943V123.273H146.36L146.739 122.749C146.837 122.614 146.953 122.462 147.08 122.296C147.426 121.841 147.856 121.276 148.248 120.628C148.781 119.745 149.2 118.77 149.2 117.826V117.484ZM149.843 118.17C149.757 119.174 149.308 120.146 148.81 120.97C148.431 121.598 148.004 122.169 147.667 122.613H157.579C157.444 120.925 156.268 119.855 154.697 119.174C153.143 118.501 151.267 118.244 149.843 118.17Z" fill="#032068"/>
<path fill-rule="evenodd" clip-rule="evenodd" d="M81.0877 117.084C81.007 120.387 82.1615 123.26 85.6844 123.26H88.7868C87.9682 117.785 83.638 114.477 81.5913 113.508C81.5464 113.729 81.5016 113.95 81.4568 114.171L81.4526 114.192C81.2344 115.268 81.1188 116.228 81.0877 117.084Z" fill="#032068"/>
<path d="M107.343 80.7773C108.932 81.3085 110.032 80.9987 110.584 80.7773L111.095 83.1726C108.978 82.9071 107.785 81.386 107.343 80.7773Z" fill="#032068"/>
<path d="M132.918 27.5663C132.918 26.1533 134.063 25.0078 135.476 25.0078H190.183C191.596 25.0078 192.742 26.1533 192.742 27.5663V82.2732C192.742 83.6863 191.596 84.8317 190.183 84.8317H135.476C134.063 84.8317 132.918 83.6863 132.918 82.2732V27.5663Z" fill="white"/>
<path fill-rule="evenodd" clip-rule="evenodd" d="M132.534 27.567C132.534 25.9422 133.851 24.625 135.476 24.625H190.183C191.808 24.625 193.125 25.9422 193.125 27.567V82.2739C193.125 83.8987 191.808 85.2159 190.183 85.2159H135.476C133.851 85.2159 132.534 83.8987 132.534 82.2739V27.567ZM135.476 25.392C134.275 25.392 133.301 26.3658 133.301 27.567V82.2739C133.301 83.4751 134.275 84.4489 135.476 84.4489H190.183C191.384 84.4489 192.358 83.4751 192.358 82.2739V27.567C192.358 26.3658 191.384 25.392 190.183 25.392H135.476Z" fill="#032068"/>
<path d="M132.918 27.5663C132.918 26.1533 134.063 25.0078 135.476 25.0078H190.183C191.596 25.0078 192.742 26.1533 192.742 27.5663V33.828H132.918V27.5663Z" fill="#032068"/>
<path d="M141.012 29.4795C141.012 30.5382 140.154 31.3965 139.095 31.3965C138.036 31.3965 137.178 30.5382 137.178 29.4795C137.178 28.4208 138.036 27.5625 139.095 27.5625C140.154 27.5625 141.012 28.4208 141.012 29.4795Z" fill="white"/>
<path d="M147.402 29.4795C147.402 30.5382 146.544 31.3965 145.485 31.3965C144.427 31.3965 143.568 30.5382 143.568 29.4795C143.568 28.4208 144.427 27.5625 145.485 27.5625C146.544 27.5625 147.402 28.4208 147.402 29.4795Z" fill="white"/>
<path d="M153.791 29.4795C153.791 30.5382 152.933 31.3965 151.874 31.3965C150.816 31.3965 149.957 30.5382 149.957 29.4795C149.957 28.4208 150.816 27.5625 151.874 27.5625C152.933 27.5625 153.791 28.4208 153.791 29.4795Z" fill="white"/>
<path d="M103.901 48.8149C103.318 49.9882 101.596 50.3724 100.809 50.4178L100.723 55.3902C100.91 55.5606 101.406 56.0444 101.895 56.6161C102.18 57.0646 105.984 56.9991 107.85 56.9103C108.262 56.8116 109.116 56.5637 109.24 56.3615C109.396 56.1089 110.661 51.4996 109.95 50.3784C109.381 49.4814 107.148 49.6151 106.102 49.794C106.757 48.8961 106.715 47.383 106.515 46.2049C106.409 45.577 105.715 45.2788 105.137 45.5595C104.746 45.7498 104.516 46.1611 104.486 46.5913C104.442 47.2018 104.291 48.0311 103.901 48.8149Z" fill="white"/>
<path d="M96.9563 49.7782C96.9553 49.3635 97.2948 49.0266 97.7145 49.0257L100.455 49.0197C100.874 49.0188 101.215 49.3543 101.216 49.769L101.23 56.2177C101.231 56.6324 100.892 56.9693 100.472 56.9702L97.7322 56.9762C97.3125 56.9771 96.9716 56.6416 96.9706 56.2269L96.9563 49.7782Z" fill="#032068"/>
<path d="M119.533 33.4929L119.704 35.0162C119.714 35.1089 119.672 35.1984 119.595 35.2484L118.613 35.8837C118.401 36.0204 118.513 36.3532 118.767 36.3425L119.968 36.2917C120.056 36.288 120.14 36.3309 120.19 36.4047L120.931 37.5071C121.071 37.7144 121.39 37.6198 121.385 37.3725L121.36 36.0043C121.359 35.924 121.396 35.8487 121.46 35.8023L122.339 35.1681C122.538 35.0252 122.423 34.7076 122.177 34.7161L121.107 34.7529C121.021 34.7559 120.939 34.7141 120.889 34.6425L119.984 33.3323C119.836 33.1181 119.504 33.2361 119.533 33.4929Z" fill="#E7E8FF"/>
<path d="M85.4339 79.2041L85.0093 79.7718C84.9834 79.8064 84.9409 79.8233 84.8991 79.8157L84.3667 79.7188C84.2521 79.698 84.1846 79.8457 84.2735 79.9225L84.6947 80.2857C84.7255 80.3122 84.7403 80.3533 84.7336 80.3939L84.6346 81.0003C84.616 81.1144 84.7536 81.1835 84.8303 81.0987L85.2549 80.6293C85.2799 80.6018 85.3162 80.5882 85.3527 80.5929L85.8499 80.6574C85.9619 80.6719 86.0238 80.5286 85.9381 80.4535L85.5656 80.1272C85.5357 80.101 85.5212 80.0608 85.5272 80.021L85.6366 79.2926C85.6546 79.1735 85.5054 79.1084 85.4339 79.2041Z" fill="#E7E8FF"/>
<path d="M142.146 98.4682L132.908 119.39C132.445 120.441 133.216 121.62 134.367 121.62H162.555C163.202 121.62 163.785 121.229 164.03 120.632L172.594 99.7093C173.022 98.664 172.251 97.5195 171.119 97.5195H143.604C142.973 97.5195 142.401 97.8917 142.146 98.4682Z" fill="white"/>
<path fill-rule="evenodd" clip-rule="evenodd" d="M143.604 97.8515C143.104 97.8515 142.651 98.1463 142.449 98.6031L133.211 119.525C132.844 120.358 133.455 121.292 134.367 121.292H162.555C163.068 121.292 163.53 120.982 163.724 120.509L172.288 99.5865C172.627 98.7583 172.016 97.8515 171.119 97.8515H143.604ZM141.843 98.3371C142.151 97.6408 142.842 97.1914 143.604 97.1914H171.119C172.486 97.1914 173.418 98.5735 172.901 99.836L164.337 120.758C164.041 121.48 163.337 121.952 162.555 121.952H134.367C132.977 121.952 132.045 120.528 132.606 119.259L141.843 98.3371Z" fill="#032068"/>
<path d="M150.756 107.896C151.274 106.698 152.457 105.922 153.766 105.922C156.122 105.922 157.708 108.327 156.775 110.485L156.543 111.023C156.025 112.221 154.842 112.997 153.533 112.997C151.177 112.997 149.591 110.592 150.524 108.434L150.756 107.896Z" fill="#032068"/>
<path d="M162.113 123.613H113.191C112.395 123.613 111.75 122.969 111.75 122.175C111.75 121.382 112.395 120.738 113.191 120.738H162.113C163.145 120.738 163.843 121.79 163.439 122.737C163.213 123.268 162.691 123.613 162.113 123.613Z" fill="#032068"/>
<path d="M173.615 108.344C171.905 109.322 174.418 114.033 175.946 116.354C176 116.436 176.1 116.471 176.194 116.442L177.965 115.904C178.073 115.872 178.14 115.765 178.123 115.653C177.488 111.566 175.763 107.116 173.615 108.344Z" fill="#032068"/>
<path d="M178.874 95.6872C173.68 96.8991 175.118 109.491 176.529 115.86C176.557 115.987 176.685 116.059 176.81 116.021L180.996 114.749C181.075 114.725 181.135 114.662 181.152 114.581C182.584 107.691 184.098 94.4682 178.874 95.6872Z" fill="white"/>
<path fill-rule="evenodd" clip-rule="evenodd" d="M176.747 115.803L180.932 114.531C181.647 111.094 182.379 106.087 182.284 102.099C182.237 100.099 181.981 98.3861 181.433 97.2558C181.161 96.6938 180.823 96.2924 180.42 96.0634C180.02 95.837 179.531 95.7654 178.923 95.9072C177.725 96.1869 176.885 97.1245 176.327 98.5369C175.767 99.9513 175.506 101.807 175.449 103.844C175.337 107.911 176.044 112.628 176.747 115.803ZM175.909 98.371C176.498 96.8827 177.426 95.7919 178.824 95.4657C179.523 95.3027 180.129 95.3777 180.641 95.668C181.149 95.9557 181.539 96.4411 181.837 97.0549C182.429 98.2763 182.686 100.071 182.733 102.086C182.829 106.125 182.089 111.172 181.371 114.625C181.337 114.791 181.215 114.918 181.06 114.965L176.873 116.237C176.631 116.311 176.367 116.171 176.309 115.909C175.602 112.715 174.886 107.955 175 103.834C175.057 101.775 175.322 99.8574 175.909 98.371Z" fill="#032068"/>
<path d="M183.777 102.927C180.678 103.408 180.122 110.982 180.221 114.934C180.225 115.082 180.367 115.182 180.507 115.14L182.774 114.451C182.839 114.431 182.891 114.384 182.917 114.321C184.548 110.29 186.929 102.437 183.777 102.927Z" fill="#032068"/>
<path fill-rule="evenodd" clip-rule="evenodd" d="M179.236 100.872L179.284 97.486L178.835 97.4819L178.735 104.413L177.008 102.745L176.696 103.073L178.726 105.034L178.628 111.855L177.115 110.584L176.826 110.933L178.62 112.439L178.577 115.418L179.026 115.422L179.114 109.343L180.912 107.567L180.598 107.244L179.123 108.701L179.226 101.535L180.713 99.9703L180.389 99.6576L179.236 100.872Z" fill="#032068"/>
<path d="M172.909 114.526C172.819 114.102 173.138 113.703 173.566 113.703H183.823C184.241 113.703 184.558 114.086 184.485 114.503L182.976 123.052C182.919 123.377 182.64 123.613 182.314 123.613H175.376C175.059 123.613 174.785 123.389 174.719 123.075L172.909 114.526Z" fill="#032068"/>
<path d="M128.874 58.2443C128.506 59.2706 129.27 60.5086 129.698 60.9994L126.606 64.5668C126.396 64.5556 125.879 63.6636 124.938 63.4234C123.997 63.1831 123.156 62.4836 122.131 61.3318C121.952 61.0318 121.168 60.0666 121.282 59.0425C121.397 58.0184 123.352 55.821 124.437 55.5881C125.306 55.4017 126.779 56.6439 127.276 57.3642C127.489 56.7011 127.808 56.3241 128.433 55.677C128.872 55.3746 129.652 55.3244 129.818 55.8285C129.93 56.17 129.815 56.5444 129.574 56.8126C129.232 57.1933 129.12 57.5587 128.874 58.2443Z" fill="white"/>
<path fill-rule="evenodd" clip-rule="evenodd" d="M129.24 55.2056C128.915 55.1904 128.556 55.2941 128.292 55.476L128.271 55.4901L128.254 55.5079C127.756 56.0234 127.43 56.3887 127.202 56.8761C126.92 56.5605 126.541 56.2171 126.139 55.936C125.859 55.7399 125.559 55.5679 125.266 55.4568C124.977 55.3472 124.669 55.2878 124.385 55.3486C124.061 55.4183 123.7 55.6254 123.353 55.8873C123 56.1533 122.639 56.493 122.312 56.8554C121.984 57.2178 121.685 57.6079 121.459 57.977C121.238 58.3392 121.071 58.7061 121.036 59.0166C120.971 59.5965 121.161 60.1442 121.375 60.5697C121.528 60.8742 121.716 61.155 121.83 61.3249C121.87 61.384 121.901 61.4296 121.918 61.4582L121.93 61.4783L121.945 61.4959C122.975 62.6522 123.857 63.4027 124.876 63.6627C125.287 63.7675 125.614 64.0172 125.877 64.2615C125.96 64.3393 126.025 64.4043 126.087 64.4664C126.13 64.5097 126.171 64.5516 126.217 64.5953C126.265 64.6415 126.317 64.6882 126.368 64.7248C126.411 64.756 126.492 64.8081 126.593 64.8135L126.715 64.82L130.025 60.9997L129.885 60.8392C129.687 60.6117 129.405 60.2029 129.218 59.7331C129.03 59.2601 128.952 58.7609 129.108 58.3277C129.127 58.2741 129.145 58.2228 129.163 58.1735C129.376 57.5779 129.479 57.2884 129.759 56.9773C130.045 56.6582 130.198 56.1949 130.053 55.7531C129.926 55.3652 129.565 55.2208 129.24 55.2056ZM129.216 55.6971C129.432 55.7072 129.544 55.7898 129.582 55.906C129.661 56.1472 129.585 56.4326 129.389 56.65C129.042 57.0364 128.906 57.4184 128.703 57.9883C128.683 58.0446 128.663 58.1028 128.641 58.163C128.428 58.7561 128.548 59.3891 128.757 59.9143C128.928 60.3447 129.168 60.7267 129.375 60.9959L126.562 64.2419C126.562 64.2417 126.562 64.2414 126.562 64.2412C126.534 64.2149 126.498 64.1787 126.457 64.1374C126.385 64.0662 126.299 63.9799 126.216 63.9025C125.932 63.6379 125.531 63.3216 125 63.1861C124.14 62.9668 123.346 62.3235 122.332 61.1865C122.298 61.1318 122.257 61.0709 122.211 61.0026C122.099 60.8361 121.957 60.6251 121.819 60.3498C121.624 59.9616 121.479 59.5147 121.529 59.0705C121.551 58.869 121.672 58.577 121.883 58.232C122.09 57.8937 122.369 57.528 122.68 57.1839C122.991 56.8397 123.33 56.5225 123.652 56.2789C123.981 56.0313 124.272 55.8764 124.489 55.8296C124.64 55.7973 124.842 55.8232 125.089 55.9166C125.332 56.0086 125.594 56.1572 125.853 56.3383C126.374 56.7025 126.843 57.1733 127.072 57.5044L127.358 57.92L127.512 57.4396C127.705 56.8398 127.985 56.498 128.593 55.8672C128.767 55.7545 129.008 55.6874 129.216 55.6971ZM126.672 64.3347C126.672 64.3346 126.671 64.334 126.669 64.3331C126.671 64.3343 126.672 64.3348 126.672 64.3347Z" fill="#032068"/>
<path d="M157.571 49.2583L156.738 52.291C156.322 53.8073 157.571 55.5994 161.04 55.5994C163.816 55.5994 164.232 53.0262 164.093 51.7396L163.4 48.2934C164.093 47.6042 164.649 47.1906 164.649 43.8823C164.649 39.7468 162.428 38.2305 159.791 38.2305C157.155 38.2305 154.934 40.4337 154.934 44.4336C154.934 47.8799 156.785 48.9826 157.571 49.2583Z" fill="white"/>
<path fill-rule="evenodd" clip-rule="evenodd" d="M156.564 39.9899C155.724 40.9871 155.182 42.4779 155.182 44.4336C155.182 46.1106 155.631 47.1942 156.155 47.887C156.682 48.5825 157.297 48.9015 157.653 49.0263L157.87 49.1024L156.977 52.3557C156.794 53.0229 156.972 53.7561 157.6 54.3331C158.234 54.9151 159.344 55.3533 161.04 55.3533C162.332 55.3533 163.048 54.7642 163.441 54.0357C163.842 53.2924 163.912 52.3875 163.848 51.7767L163.131 48.2125L163.224 48.1194C163.251 48.0929 163.277 48.0671 163.303 48.0418C163.616 47.7324 163.863 47.4886 164.052 46.9843C164.262 46.4236 164.401 45.5292 164.401 43.8822C164.401 41.8569 163.858 40.5142 163.032 39.6778C162.206 38.8415 161.063 38.4765 159.791 38.4765C158.546 38.4765 157.402 38.9949 156.564 39.9899ZM156.184 39.6742C157.116 38.5676 158.399 37.9844 159.791 37.9844C161.156 37.9844 162.442 38.3776 163.386 39.3332C164.329 40.2889 164.896 41.7721 164.896 43.8822C164.896 45.5436 164.758 46.5102 164.516 47.1557C164.292 47.7559 163.981 48.0673 163.668 48.3748L164.338 51.7023L164.34 51.7134C164.413 52.3891 164.342 53.4076 163.878 54.2681C163.404 55.1479 162.524 55.8454 161.04 55.8454C159.267 55.8454 158.018 55.3875 157.264 54.6944C156.504 53.9963 156.266 53.0754 156.499 52.2262L157.274 49.4053C156.846 49.2168 156.264 48.8492 155.759 48.1828C155.162 47.3938 154.686 46.2028 154.686 44.4336C154.686 42.3894 155.254 40.7786 156.184 39.6742Z" fill="#032068"/>
<path d="M160.068 54.0837C162.622 54.0837 163.908 52.4295 164.232 51.6024L164.245 51.6024C166.698 51.6024 170.694 51.6024 174.778 55.3243C178.87 59.053 182.287 64.2845 185.379 73.5981C186.589 77.2464 186.725 82.2887 186.355 84.2645H144.541C139.822 84.2645 136.08 83.4271 134.778 81.8403C131.725 78.1184 125.227 66.896 125.504 65.5175C125.782 64.139 129.251 59.7707 130.223 60.1843C131 60.5151 134.941 63.4165 139.008 66.4871C143.727 54.0837 153.407 51.4186 156.599 51.6024C156.691 52.4295 157.515 54.0837 160.068 54.0837Z" fill="white"/>
<path fill-rule="evenodd" clip-rule="evenodd" d="M138.896 66.0928C143.694 53.8509 153.341 51.1683 156.613 51.3567L156.822 51.3687L156.845 51.5752C156.886 51.9359 157.091 52.5021 157.583 52.9765C158.07 53.445 158.85 53.8376 160.068 53.8376C162.5 53.8376 163.706 52.2659 164.001 51.5132L164.062 51.3563L164.247 51.3563C166.713 51.3563 170.79 51.3563 174.946 55.1429C179.078 58.9082 182.514 64.1808 185.614 73.521C186.228 75.371 186.567 77.5655 186.707 79.5412C186.846 81.5138 186.789 83.292 186.598 84.3095L186.561 84.5105H144.541C142.169 84.5105 140.033 84.3002 138.32 83.8865C136.618 83.4754 135.29 82.8534 134.586 81.9957C133.046 80.1181 130.65 76.3671 128.677 72.9217C127.69 71.1972 126.805 69.5428 126.183 68.2308C125.873 67.5754 125.625 67.0007 125.464 66.5432C125.384 66.3146 125.323 66.1103 125.287 65.9369C125.252 65.7703 125.234 65.6056 125.262 65.4692C125.341 65.0756 125.633 64.5102 126.013 63.913C126.399 63.3058 126.896 62.6346 127.414 62.0207C127.931 61.4082 128.476 60.8445 128.959 60.4576C129.2 60.2648 129.436 60.1079 129.653 60.013C129.86 59.922 130.102 59.8652 130.32 59.958C130.541 60.052 130.954 60.3106 131.491 60.6733C132.036 61.042 132.731 61.5334 133.528 62.1093C135.052 63.2116 136.952 64.6273 138.896 66.0928ZM156.388 51.8407C153.111 51.7807 143.825 54.5228 139.24 66.5741L139.123 66.8825L138.859 66.683C136.825 65.148 134.825 63.6562 133.236 62.5072C132.441 61.9325 131.751 61.4446 131.212 61.0802C130.664 60.7099 130.293 60.4818 130.125 60.4104C130.1 60.3998 130.022 60.3891 129.853 60.4632C129.692 60.5334 129.495 60.6607 129.27 60.8409C128.822 61.1997 128.3 61.7367 127.793 62.3369C127.288 62.9357 126.805 63.5892 126.432 64.1758C126.052 64.7724 125.807 65.27 125.748 65.5657C125.74 65.6015 125.741 65.686 125.772 65.8371C125.802 65.9813 125.855 66.1631 125.932 66.3807C126.085 66.8152 126.324 67.3725 126.631 68.0212C127.246 69.3175 128.124 70.9598 129.108 72.6784C131.078 76.1193 133.458 79.8406 134.97 81.6848C135.569 82.4139 136.763 83.004 138.437 83.4083C140.1 83.81 142.194 84.0184 144.541 84.0184H186.145C186.298 83.0301 186.342 81.4004 186.212 79.5757C186.074 77.6242 185.74 75.4733 185.143 73.6751C182.061 64.388 178.663 59.1976 174.611 55.5056C170.68 51.9231 166.842 51.8499 164.395 51.8485C163.955 52.78 162.596 54.3297 160.068 54.3297C158.733 54.3297 157.825 53.8952 157.238 53.3298C156.74 52.8501 156.484 52.2858 156.388 51.8407Z" fill="#032068"/>
<path d="M150.77 46.3646C148.661 48.5702 148.781 52.4299 149.105 54.0841C152.991 51.7682 155.905 51.465 156.876 51.6028L157.57 49.2594C156.044 48.8458 155.072 47.4674 154.934 44.2969C154.823 41.7605 156.09 40.0236 156.738 39.4722C158.958 39.3343 160.068 42.0913 160.762 43.1941C161.317 44.0763 161.734 43.9293 161.872 43.7455C162.566 42.0913 163.815 41.9534 164.093 43.7455C164.315 45.1791 163.26 45.9051 162.705 46.0889L164.093 51.6028C166.868 51.4925 170.06 52.4759 171.309 52.9813C171.726 48.5702 168.256 47.0538 167.146 44.2969C166.036 41.5399 167.562 40.1614 166.452 38.3694C165.629 37.0412 164.093 36.853 163.121 36.5774C162.15 36.3017 161.595 35.1989 160.485 34.6475C158.542 33.9582 156.691 35.6584 156.183 36.853C155.859 36.8071 154.934 36.9358 153.823 37.818C150.632 40.0236 153.407 43.6076 150.77 46.3646Z" fill="#032068"/>
<path d="M173.013 67.457C174.315 73.5983 175.814 82.272 175.617 84.2647H177.569C177.639 80.4199 174.152 69.558 173.013 67.457Z" fill="#032068"/>
<path d="M160.485 49.1211C158.819 49.5622 157.848 49.3968 157.57 49.2589L157.154 50.7753C158.93 50.9958 160.115 49.7644 160.485 49.1211Z" fill="#032068"/>
<path d="M145.354 65.6797C144.183 70.5927 143.456 80.1171 143.239 84.2651H141.938C142.198 77.542 144.324 69.0735 145.354 65.6797Z" fill="#032068"/>
<path d="M135.267 82.1649C139.562 81.1305 141.829 81.7339 142.426 82.1649L142.1 84.2658C138.846 84.2658 136.189 82.8652 135.267 82.1649Z" fill="#032068"/>
</svg>
