<svg width="270" height="138" viewBox="0 0 270 138" fill="none" xmlns="http://www.w3.org/2000/svg">
<path d="M0 5C0 2.23858 2.23858 0 5 0H265C267.761 0 270 2.23858 270 5V138H0V5Z" fill="#E2E2E2"/>
<path d="M159.613 46.6255C159.613 48.4097 156.015 48.1705 153.524 47.4682C149.926 46.6255 147.434 44.9399 148.265 41.288C148.265 38.3383 151.171 38.8265 154.631 40.1643C157.537 41.288 159.613 44.8412 159.613 46.6255Z" fill="#E7E8FF"/>
<path d="M76.0929 95.221C76.0929 99.1172 77.8795 102.92 80.0743 106.066C83.4856 110.956 89.5485 112.813 95.5082 112.813H166.576C170.706 112.813 173.441 106.976 173.577 102.845C173.778 96.7056 177.286 89.75 176.262 79.418C174.667 63.3168 163.821 58.3969 152.496 52.2844C141.171 46.1719 148.508 37.2268 129.049 31.8598C109.589 26.4927 89.0128 44.2338 89.6509 60.7823C90.2889 77.3308 76.0929 79.7161 76.0929 95.221Z" fill="#E7E8FF"/>
<path d="M121.02 112.814H134.95C142.505 110.065 150.059 97.3997 143.095 98.7141C136.13 100.028 129.283 99.431 138.373 94.8905C147.462 90.3499 142.505 86.8848 138.373 87.2432C134.241 87.6017 134.95 84.734 136.602 79.2376C138.255 73.7411 136.602 68.7227 131.998 68.7227C127.395 68.7227 131.054 82.3443 127.395 83.3002C123.735 84.2561 125.506 77.9232 121.02 79.2376C116.534 80.5519 123.853 96.2048 121.02 94.8905C118.187 93.5761 118.541 87.2433 113.465 92.0228C109.404 95.8464 116.81 107.477 121.02 112.814Z" fill="white"/>
<path d="M105.706 33.4062C105.706 32.1938 106.689 31.2109 107.902 31.2109H146.749C147.961 31.2109 148.944 32.1938 148.944 33.4062V83.2402C148.944 84.4526 147.961 85.4354 146.749 85.4354H107.902C106.689 85.4354 105.706 84.4526 105.706 83.2402V33.4062Z" fill="white"/>
<path fill-rule="evenodd" clip-rule="evenodd" d="M105.377 33.4071C105.377 32.013 106.507 30.8828 107.901 30.8828H146.749C148.143 30.8828 149.273 32.013 149.273 33.4071V83.2411C149.273 84.6352 148.143 85.7654 146.749 85.7654H107.901C106.507 85.7654 105.377 84.6352 105.377 83.2411V33.4071ZM107.901 31.5409C106.871 31.5409 106.035 32.3764 106.035 33.4071V83.2411C106.035 84.2718 106.871 85.1073 107.901 85.1073H146.749C147.78 85.1073 148.615 84.2718 148.615 83.2411V33.4071C148.615 32.3764 147.78 31.5409 146.749 31.5409H107.901Z" fill="#032068"/>
<path d="M105.706 33.4062C105.706 32.1938 106.689 31.2109 107.902 31.2109H146.749C147.961 31.2109 148.944 32.1938 148.944 33.4062V38.6535H105.706V33.4062Z" fill="#032068"/>
<path d="M112.44 34.9347C112.44 35.8155 111.726 36.5295 110.845 36.5295C109.964 36.5295 109.25 35.8155 109.25 34.9347C109.25 34.0539 109.964 33.3398 110.845 33.3398C111.726 33.3398 112.44 34.0539 112.44 34.9347Z" fill="white"/>
<path d="M117.757 34.9347C117.757 35.8155 117.043 36.5295 116.162 36.5295C115.281 36.5295 114.567 35.8155 114.567 34.9347C114.567 34.0539 115.281 33.3398 116.162 33.3398C117.043 33.3398 117.757 34.0539 117.757 34.9347Z" fill="white"/>
<path d="M123.072 34.9347C123.072 35.8155 122.358 36.5295 121.478 36.5295C120.597 36.5295 119.883 35.8155 119.883 34.9347C119.883 34.0539 120.597 33.3398 121.478 33.3398C122.358 33.3398 123.072 34.0539 123.072 34.9347Z" fill="white"/>
<path fill-rule="evenodd" clip-rule="evenodd" d="M134.413 44.6542H111.908V43.9961H134.413V44.6542Z" fill="#E7E8FF"/>
<path fill-rule="evenodd" clip-rule="evenodd" d="M134.413 67.6893H111.908V67.0312H134.413V67.6893Z" fill="#E7E8FF"/>
<path fill-rule="evenodd" clip-rule="evenodd" d="M134.413 74.0682H111.908V73.4102H134.413V74.0682Z" fill="#E7E8FF"/>
<path fill-rule="evenodd" clip-rule="evenodd" d="M112.111 51.4813C112.111 50.0872 113.241 48.957 114.635 48.957H136.471C137.865 48.957 138.995 50.0872 138.995 51.4813V59.8495C138.995 61.2437 137.865 62.3738 136.471 62.3738H114.635C113.241 62.3738 112.111 61.2437 112.111 59.8495V51.4813ZM114.635 49.6151C113.605 49.6151 112.769 50.4506 112.769 51.4813V59.8495C112.769 60.8802 113.605 61.7157 114.635 61.7157H136.471C137.502 61.7157 138.337 60.8802 138.337 59.8495V51.4813C138.337 50.4506 137.502 49.6151 136.471 49.6151H114.635Z" fill="#032068"/>
<path d="M125.199 79.4804C125.199 78.268 126.182 77.2852 127.394 77.2852H127.611C128.824 77.2852 129.807 78.268 129.807 79.4804V79.6972C129.807 80.9096 128.824 81.8925 127.611 81.8925H127.394C126.182 81.8925 125.199 80.9096 125.199 79.6972V79.4804Z" fill="#032068"/>
<path fill-rule="evenodd" clip-rule="evenodd" d="M133.376 79.4813C133.376 78.0872 134.506 76.957 135.9 76.957H136.117C137.511 76.957 138.641 78.0872 138.641 79.4813V79.6981C138.641 81.0923 137.511 82.2224 136.117 82.2224H135.9C134.506 82.2224 133.376 81.0923 133.376 79.6981V79.4813ZM135.9 77.6151C134.87 77.6151 134.034 78.4506 134.034 79.4813V79.6981C134.034 80.7288 134.87 81.5643 135.9 81.5643H136.117C137.148 81.5643 137.983 80.7288 137.983 79.6981V79.4813C137.983 78.4506 137.148 77.6151 136.117 77.6151H135.9Z" fill="#E7E8FF"/>
<path fill-rule="evenodd" clip-rule="evenodd" d="M121.825 52.7069C121.429 52.082 120.512 52.0983 120.138 52.7369L117.359 57.4855C117.063 57.99 116.522 58.3 115.938 58.3H112.44V57.642H115.938C116.289 57.642 116.613 57.4559 116.791 57.153L119.57 52.4044C120.193 51.3406 121.721 51.3134 122.381 52.3544L124.839 56.2295C125.203 56.8038 126.025 56.8472 126.447 56.3144L128.429 53.8158C129.051 53.0317 130.223 52.9793 130.912 53.7049L132.845 55.7396C133.032 55.9359 133.29 56.0471 133.561 56.0471H138.489V56.7052H133.561C133.11 56.7052 132.679 56.52 132.368 56.1928L130.435 54.1582C130.021 53.7226 129.318 53.7541 128.944 54.2247L126.963 56.7233C126.259 57.6109 124.89 57.5387 124.283 56.582L121.825 52.7069Z" fill="#032068"/>
<path d="M184.939 97.6797H123.626C122.452 97.6797 121.5 98.6317 121.5 99.8061C121.5 100.981 122.452 101.933 123.626 101.933H184.939C186.114 101.933 187.066 100.981 187.066 99.8061C187.066 98.6317 186.114 97.6797 184.939 97.6797Z" fill="white"/>
<path fill-rule="evenodd" clip-rule="evenodd" d="M121.171 99.8071C121.171 98.4509 122.27 97.3516 123.626 97.3516H184.939C186.295 97.3516 187.395 98.4509 187.395 99.8071C187.395 101.163 186.295 102.263 184.939 102.263H123.626C122.27 102.263 121.171 101.163 121.171 99.8071ZM123.626 98.0096C122.634 98.0096 121.829 98.8144 121.829 99.8071C121.829 100.8 122.634 101.604 123.626 101.604H184.939C185.932 101.604 186.736 100.8 186.736 99.8071C186.736 98.8144 185.932 98.0096 184.939 98.0096H123.626Z" fill="#032068"/>
<path d="M128.12 111.679L130.381 102.137H136.017L131.819 111.679H128.12Z" fill="white"/>
<path fill-rule="evenodd" clip-rule="evenodd" d="M130.121 101.809H136.521L132.034 112.009H127.704L130.121 101.809ZM130.641 102.467L128.536 111.351H131.604L135.513 102.467H130.641Z" fill="#032068"/>
<path d="M179.779 111.679L177.625 102.137H171.882L176.01 111.679H179.779Z" fill="white"/>
<path fill-rule="evenodd" clip-rule="evenodd" d="M177.976 101.699H171.214L175.722 112.119H180.328L177.976 101.699ZM177.274 102.577L179.23 111.241H176.298L172.55 102.577H177.274Z" fill="#032068"/>
<path d="M94.9463 30.2448L93.698 31.9188C93.6221 32.0207 93.4982 32.0697 93.3769 32.0459L91.834 31.7432C91.5021 31.6781 91.3018 32.1149 91.558 32.3453L92.7706 33.4358C92.8591 33.5155 92.9009 33.6381 92.8806 33.7584L92.5764 35.5566C92.5192 35.8947 92.9167 36.1039 93.1417 35.8542L94.3873 34.4723C94.4605 34.3912 94.5665 34.352 94.6721 34.367L96.1136 34.5726C96.4384 34.6189 96.6223 34.1951 96.3753 33.9695L95.3033 32.9899C95.2172 32.9113 95.1761 32.7916 95.1945 32.6735L95.5325 30.5135C95.5878 30.1602 95.1568 29.9626 94.9463 30.2448Z" fill="#E7E8FF"/>
<path d="M154.929 30.0469L154.44 30.6495C154.411 30.6862 154.362 30.7038 154.315 30.6953L153.711 30.5863C153.581 30.5629 153.503 30.7201 153.603 30.8031L154.077 31.1957C154.112 31.2243 154.128 31.2685 154.121 31.3118L154.001 31.9591C153.979 32.0808 154.135 32.1562 154.223 32.0663L154.71 31.5688C154.739 31.5396 154.78 31.5255 154.822 31.5309L155.386 31.6049C155.513 31.6216 155.585 31.469 155.488 31.3878L155.069 31.0351C155.035 31.0068 155.019 30.9637 155.026 30.9212L155.158 30.1436C155.18 30.0164 155.011 29.9453 154.929 30.0469Z" fill="#E7E8FF"/>
<path d="M166.01 47.3672L165.301 50.7341V52.8605L166.896 54.2781L171.68 53.7465V50.5568L171.503 46.8355C173.452 44.3547 174.161 39.5702 172.035 37.0893C169.908 34.6085 164.415 34.2541 163.352 40.1018C162.501 44.78 164.769 46.8946 166.01 47.3672Z" fill="white"/>
<path fill-rule="evenodd" clip-rule="evenodd" d="M167.355 35.7967C165.735 36.1006 164.186 37.3539 163.676 40.1616C162.85 44.7009 165.05 46.6504 166.127 47.0606L166.39 47.1607L165.63 50.7692V52.7136L167.005 53.9358L171.351 53.4529V50.5656L171.169 46.7296L171.245 46.6331C172.173 45.4512 172.819 43.6988 172.97 41.9353C173.12 40.1685 172.77 38.4533 171.785 37.3044C170.799 36.1539 169.013 35.4859 167.355 35.7967ZM167.234 35.1499C169.121 34.7961 171.144 35.5457 172.285 36.8761C173.426 38.208 173.785 40.1255 173.625 41.9913C173.47 43.8139 172.816 45.647 171.838 46.9415L172.01 50.5499V54.0419L166.787 54.6222L164.972 53.0091V50.7007L165.633 47.5613C164.222 46.8602 162.205 44.5742 163.028 40.0439C163.581 37.0038 165.311 35.5105 167.234 35.1499Z" fill="#032068"/>
<path d="M154.491 112.933L156.307 93.0859H181.72L184.262 112.933H154.491Z" fill="#032068"/>
<path d="M137.48 56.05C137.48 56.6171 138.071 57.5858 138.366 57.9992L138.012 60.1257L135.354 60.4801C134.645 59.5941 132.518 59.2397 131.987 57.822C131.561 56.6879 132.755 55.4593 133.404 55.164L131.202 52.0804C130.944 51.7194 131.004 51.2214 131.341 50.9327C131.698 50.6265 132.236 50.6659 132.544 51.0209L135.531 54.4552C135.531 54.5733 135.637 54.5615 136.062 53.5691C136.594 52.3287 137.126 52.8603 137.48 53.0375C137.834 53.2147 137.48 55.3412 137.48 56.05Z" fill="white"/>
<path fill-rule="evenodd" clip-rule="evenodd" d="M131.127 50.6838C131.622 50.2599 132.365 50.3145 132.793 50.806L135.528 53.9515C135.589 53.8277 135.665 53.6613 135.76 53.4404C136.038 52.7912 136.385 52.4436 136.838 52.4436C137.037 52.4436 137.209 52.5155 137.334 52.5795C137.397 52.6118 137.456 52.6465 137.504 52.6748L137.506 52.6758C137.558 52.7064 137.595 52.7279 137.627 52.7441C137.795 52.8283 137.864 52.9923 137.895 53.0903C137.931 53.2027 137.949 53.3326 137.958 53.4611C137.976 53.7205 137.963 54.0442 137.941 54.368C137.923 54.6335 137.897 54.9107 137.873 55.1658C137.868 55.2238 137.863 55.2808 137.857 55.3362C137.829 55.6421 137.809 55.8918 137.809 56.0509C137.809 56.2492 137.922 56.5715 138.106 56.9346C138.282 57.2821 138.494 57.6134 138.634 57.8089L138.713 57.9198L138.296 60.4206L135.213 60.8317L135.097 60.6866C134.958 60.5139 134.736 60.3504 134.437 60.1752C134.254 60.0684 134.066 59.9695 133.867 59.8646C133.732 59.7938 133.592 59.7204 133.445 59.6398C132.76 59.2641 131.991 58.7717 131.679 57.9385C131.413 57.2293 131.665 56.5237 132.019 55.9959C132.276 55.6128 132.613 55.2833 132.928 55.0637L130.934 52.2725C130.577 51.7729 130.661 51.0834 131.127 50.6838ZM135.86 54.4561V54.4533C135.86 54.4547 135.86 54.4557 135.86 54.4561ZM132.296 51.2378C132.106 51.0192 131.775 50.9949 131.555 51.1834C131.348 51.3612 131.311 51.6678 131.469 51.89L133.904 55.299L133.54 55.4644C133.28 55.5827 132.864 55.9187 132.565 56.3629C132.267 56.8067 132.135 57.2825 132.295 57.7074C132.514 58.2918 133.074 58.6855 133.762 59.0628C133.885 59.1305 134.017 59.1997 134.149 59.2694C134.362 59.3817 134.579 59.4956 134.769 59.6073C135.027 59.7581 135.28 59.9277 135.482 60.1319L137.727 59.8326L138.019 58.0782C137.871 57.8594 137.681 57.5534 137.519 57.2317C137.333 56.8653 137.151 56.4196 137.151 56.0509C137.151 55.8556 137.175 55.5737 137.202 55.276C137.207 55.2187 137.213 55.1605 137.218 55.1015C137.242 54.8468 137.267 54.5796 137.285 54.3227C137.307 54.0041 137.316 53.7186 137.301 53.5074C137.294 53.4097 137.283 53.3421 137.271 53.3002C137.238 53.282 137.206 53.2632 137.178 53.2465L137.172 53.2432C137.122 53.2135 137.078 53.1878 137.034 53.1651C136.942 53.1184 136.882 53.1017 136.838 53.1017C136.803 53.1017 136.618 53.1085 136.365 53.6997C136.153 54.1949 136.008 54.4759 135.905 54.6201C135.879 54.6573 135.846 54.6983 135.807 54.7336C135.781 54.7571 135.691 54.8361 135.554 54.8361C135.361 54.8361 135.264 54.6948 135.232 54.6183C135.231 54.6157 135.23 54.613 135.229 54.6104L132.296 51.2378ZM137.259 53.2667C137.259 53.2665 137.26 53.2682 137.262 53.272C137.26 53.2688 137.259 53.2669 137.259 53.2667Z" fill="#032068"/>
<path d="M168.136 52.5071C165.726 52.5071 165.124 50.617 165.124 49.6719C163.423 49.6719 162.309 50.5025 161.954 50.7387L159.099 58.8865L158.567 93.2641C164.521 95.1071 172.035 94.032 175.047 93.2641L176.997 50.9123C175.825 50.1669 174.114 49.8414 172.884 49.7256C172.283 49.6689 171.765 50.0949 171.457 50.6153C170.923 51.5196 169.878 52.5071 168.136 52.5071Z" fill="white"/>
<path fill-rule="evenodd" clip-rule="evenodd" d="M162.229 50.9512L159.427 58.9459L158.9 93.0218C164.582 94.6951 171.644 93.7496 174.73 93.0047L176.659 51.0932C175.561 50.4589 174.013 50.1633 172.853 50.0541C172.436 50.0148 172.019 50.3126 171.741 50.7836C171.165 51.7585 170.026 52.8371 168.136 52.8371C166.832 52.8371 165.981 52.3195 165.465 51.6448C165.06 51.1151 164.873 50.5054 164.815 50.0116C163.512 50.0946 162.622 50.6842 162.229 50.9512ZM161.843 50.4174C162.267 50.1287 163.421 49.3438 165.124 49.3438H165.453V49.6728C165.453 50.0885 165.588 50.7228 165.988 51.2449C166.375 51.7516 167.031 52.179 168.136 52.179C169.731 52.179 170.681 51.2826 171.174 50.4488C171.511 49.8791 172.129 49.3249 172.915 49.3989C174.157 49.5159 175.934 49.8467 177.173 50.6356L177.334 50.7379L175.365 93.5237L175.129 93.5839C172.092 94.3579 164.509 95.4485 158.47 93.5794L158.235 93.5065L158.771 58.829L161.68 50.5269L161.772 50.4659C161.793 50.4519 161.817 50.4357 161.843 50.4174Z" fill="#032068"/>
<path d="M161.934 68.1002C162.182 63.7619 163.532 55.9465 164.42 51.2872C164.588 50.4041 163.844 49.6103 162.98 49.8586C154.574 52.2743 152.54 63.3269 149.884 63.4929C147.993 63.6111 143.427 60.4541 140.454 58.1684C139.56 57.4809 138.29 57.5436 137.493 58.3411L135.592 60.2414C135.01 60.8233 134.794 61.6824 135.117 62.4394C137.312 67.5864 143.486 75.7104 147.403 77.6692C150.806 79.3704 153.546 76.9604 154.491 75.5428C154.432 80.091 154.35 89.79 154.491 92.2C154.669 95.2125 154.491 97.6933 156.618 98.0477C158.744 98.4021 162.82 97.6933 162.82 96.9845C162.82 96.2757 161.58 74.3024 161.934 68.1002Z" fill="white"/>
<path fill-rule="evenodd" clip-rule="evenodd" d="M162.889 49.5414C164.032 49.2129 164.948 50.2693 164.743 51.3478C163.854 56.01 162.509 63.8046 162.262 68.118C162.086 71.199 162.307 78.2239 162.573 84.5876C162.738 88.5304 162.92 92.2222 163.035 94.538C163.105 95.9467 163.149 96.8462 163.149 96.9835C163.149 97.2345 162.974 97.4086 162.838 97.5106C162.688 97.6231 162.488 97.7204 162.269 97.8054C161.825 97.9769 161.225 98.1254 160.572 98.2381C159.27 98.4627 157.678 98.557 156.564 98.3713C155.964 98.2713 155.505 98.0153 155.165 97.6225C154.831 97.2372 154.632 96.7425 154.503 96.1946C154.311 95.3728 154.264 94.3481 154.215 93.2551C154.199 92.9148 154.183 92.5678 154.163 92.2183C154.03 89.9526 154.093 81.3234 154.151 76.4961C153.617 77.0712 152.888 77.6664 152.007 78.0733C150.7 78.6765 149.058 78.8636 147.256 77.9625C145.227 76.9481 142.666 74.3757 140.356 71.4529C138.037 68.5195 135.927 65.1764 134.814 62.5675C134.432 61.6719 134.695 60.6726 135.36 60.0077L135.592 60.2404L135.36 60.0077L137.26 58.1074C138.178 57.1893 139.634 57.1217 140.654 57.9065C142.136 59.0457 144.01 60.3983 145.745 61.4497C146.613 61.9756 147.439 62.4219 148.16 62.7284C148.892 63.0399 149.472 63.188 149.864 63.1635C150.08 63.1499 150.331 63.0223 150.633 62.7236C150.933 62.4273 151.247 61.9977 151.591 61.455C151.934 60.9144 152.295 60.2794 152.692 59.5794L152.707 59.5545C153.099 58.8639 153.525 58.1141 153.995 57.3464C155.895 54.2471 158.561 50.7853 162.889 49.5414ZM164.096 51.2246C164.228 50.5368 163.656 50.0057 163.071 50.1739C158.993 51.3456 156.439 54.618 154.556 57.6903C154.092 58.4486 153.67 59.1904 153.277 59.8832L153.265 59.9044C152.869 60.6008 152.5 61.2507 152.147 61.8074C151.795 62.362 151.449 62.8419 151.096 63.1913C150.745 63.5383 150.352 63.7923 149.905 63.8203C149.351 63.8549 148.651 63.6526 147.902 63.334C147.142 63.0104 146.286 62.5467 145.404 62.0125C143.64 60.9435 141.744 59.5747 140.253 58.4282C139.486 57.8381 138.402 57.896 137.725 58.5728L135.825 60.473C135.326 60.9721 135.156 61.6908 135.419 62.3093C136.502 64.8473 138.576 68.1398 140.872 71.0448C143.177 73.9605 145.662 76.4296 147.55 77.3739C149.15 78.174 150.581 78.0067 151.731 77.4758C152.894 76.9388 153.772 76.0275 154.218 75.3593L154.835 74.4334L154.82 75.5461C154.761 80.102 154.679 89.7848 154.82 92.1797C154.842 92.5592 154.859 92.9254 154.875 93.2767C154.924 94.3514 154.967 95.2877 155.144 96.0446C155.259 96.5378 155.425 96.9181 155.662 97.1918C155.893 97.458 156.209 97.645 156.672 97.7222C157.684 97.8908 159.194 97.808 160.46 97.5896C161.092 97.4807 161.644 97.3412 162.031 97.1916C162.227 97.116 162.363 97.0444 162.444 96.9838C162.467 96.9665 162.481 96.9532 162.49 96.9441C162.485 96.7283 162.444 95.9006 162.381 94.647C162.268 92.351 162.083 88.6265 161.915 84.6151C161.65 78.2644 161.427 71.2015 161.605 68.0804C161.855 63.7172 163.209 55.881 164.096 51.2246ZM162.503 96.9293C162.503 96.9293 162.503 96.93 162.502 96.9312C162.502 96.93 162.503 96.9293 162.503 96.9293Z" fill="#032068"/>
<path d="M170.44 67.9233C170.57 64.6649 172.209 55.8645 173.206 50.8863C173.343 50.2021 173.995 49.7417 174.667 49.9285C183.851 52.4806 191.143 68.1978 190.464 74.4799C189.897 79.7251 185.739 88.0065 183.73 91.4915C183.848 93.6179 183.872 97.9417 183.022 98.2252C181.958 98.5797 172.744 98.2252 172.212 97.162C171.68 96.0988 170.263 72.3534 170.44 67.9233Z" fill="white"/>
<path fill-rule="evenodd" clip-rule="evenodd" d="M174.579 50.2434C174.115 50.1146 173.634 50.426 173.529 50.9488C172.529 55.9383 170.898 64.7082 170.769 67.9343C170.681 70.129 170.989 77.1538 171.389 83.7833C171.588 87.0933 171.809 90.2969 172.014 92.7382C172.116 93.9593 172.214 94.9872 172.303 95.7415C172.347 96.1191 172.389 96.4245 172.427 96.6499C172.446 96.7629 172.464 96.852 172.48 96.9183C172.493 96.9759 172.503 97.003 172.506 97.0106C172.509 97.015 172.529 97.0373 172.584 97.0723C172.654 97.1162 172.757 97.1651 172.898 97.216C173.178 97.3178 173.565 97.4136 174.036 97.5008C174.974 97.6748 176.195 97.8066 177.441 97.8948C178.685 97.9829 179.945 98.0269 180.959 98.0269C181.466 98.0269 181.907 98.0159 182.253 97.9943C182.61 97.9721 182.828 97.9402 182.915 97.9116C182.915 97.9112 182.953 97.8914 183.011 97.7835C183.073 97.6692 183.133 97.4994 183.188 97.2731C183.297 96.8225 183.368 96.2114 183.411 95.5269C183.495 94.1619 183.46 92.5632 183.402 91.5075L183.396 91.4098L183.445 91.325C184.444 89.5923 185.979 86.6621 187.335 83.5134C188.695 80.3571 189.859 77.0133 190.137 74.4423C190.3 72.9361 189.985 70.8254 189.259 68.4462C188.535 66.0744 187.41 63.4636 185.979 60.9669C183.104 55.9541 179.042 51.4836 174.579 50.2434ZM172.884 50.8194C173.053 49.9737 173.874 49.3645 174.755 49.6093C179.476 50.9212 183.652 55.5853 186.55 60.6396C188.004 63.1765 189.149 65.8325 189.888 68.2541C190.625 70.6685 190.968 72.8782 190.791 74.513C190.502 77.1873 189.304 80.6067 187.94 83.7737C186.595 86.8976 185.074 89.8069 184.064 91.5688C184.12 92.6391 184.152 94.2101 184.067 95.5676C184.024 96.2653 183.95 96.9212 183.827 97.4276C183.767 97.6797 183.69 97.9107 183.591 98.0955C183.495 98.2725 183.35 98.4603 183.125 98.5352C182.946 98.595 182.644 98.6293 182.294 98.6511C181.93 98.6738 181.473 98.685 180.959 98.685C179.929 98.685 178.653 98.6404 177.394 98.5513C176.137 98.4623 174.888 98.3283 173.916 98.1479C173.431 98.0579 173.003 97.9543 172.673 97.8346C172.509 97.7748 172.358 97.7073 172.234 97.6295C172.115 97.5548 171.99 97.4515 171.918 97.307C171.883 97.2377 171.859 97.1508 171.84 97.0716C171.819 96.9854 171.798 96.8804 171.778 96.7599C171.737 96.5185 171.694 96.2004 171.649 95.8183C171.559 95.0532 171.461 94.017 171.358 92.7932C171.153 90.3448 170.931 87.1358 170.732 83.8228C170.333 77.2063 170.022 70.1433 170.111 67.908C170.243 64.6172 171.888 55.7863 172.884 50.8194Z" fill="#032068"/>
<path d="M172.455 91.8901C171.342 91.4093 170.83 90.1173 171.311 89.0043L174.801 80.9238C175.282 79.8109 176.574 79.2984 177.687 79.7792L189.552 84.9049C190.665 85.3857 191.178 86.6777 190.697 87.7907L187.206 95.8712C186.725 96.9842 185.433 97.4966 184.32 97.0158L172.455 91.8901Z" fill="white"/>
<path fill-rule="evenodd" clip-rule="evenodd" d="M172.325 92.1925C171.045 91.6396 170.456 90.1539 171.009 88.8741L174.499 80.7937C175.052 79.5139 176.538 78.9246 177.818 79.4774L189.683 84.6032C190.963 85.156 191.552 86.6417 190.999 87.9215L187.508 96.002C186.955 97.2818 185.47 97.8711 184.19 97.3182L172.325 92.1925ZM171.613 89.1351C171.204 90.0813 171.64 91.1796 172.586 91.5884L184.451 96.7141C185.397 97.1228 186.495 96.6872 186.904 95.741L190.395 87.6605C190.804 86.7144 190.368 85.616 189.422 85.2073L177.557 80.0815C176.611 79.6728 175.512 80.1085 175.104 81.0546L171.613 89.1351Z" fill="#032068"/>
<path d="M189.578 68.1016C188.456 69.8736 186.743 74.7644 188.869 80.1515C189.932 78.1431 191.563 72.9215 189.578 68.1016Z" fill="#032068"/>
<path d="M144.037 75.0104C145.75 74.597 150.062 74.3371 153.606 76.6053C152.188 78.2001 148.29 80.114 144.037 75.0104Z" fill="#032068"/>
<path d="M155.377 65.6211C155.023 68.8108 154.668 72.8865 154.491 75.8989C153.641 76.8913 151.538 77.8482 150.593 78.2026C153.003 75.5091 154.314 69.5196 155.377 65.6211Z" fill="#032068"/>
<path d="M175.779 92.7828C175.921 92.3575 177.374 90.9517 178.083 90.3019C179.559 90.1247 182.406 90.3019 181.981 92.4284C181.449 95.0865 180.918 97.2129 178.083 96.3269C175.814 95.6181 176.074 94.1414 176.488 93.4916C176.192 93.4326 175.637 93.2081 175.779 92.7828Z" fill="white"/>
<path fill-rule="evenodd" clip-rule="evenodd" d="M182.024 90.98C182.317 91.3781 182.425 91.8852 182.304 92.4938C182.171 93.1577 182.035 93.8033 181.861 94.3795C181.688 94.9543 181.47 95.4824 181.161 95.9025C180.847 96.3294 180.437 96.6469 179.894 96.7851C179.359 96.9214 178.729 96.8745 177.984 96.6419C176.785 96.2671 176.174 95.6609 175.965 94.9853C175.818 94.5106 175.885 94.049 176.025 93.6858C175.939 93.6464 175.853 93.5982 175.774 93.5402C175.667 93.461 175.555 93.3504 175.488 93.2004C175.417 93.0418 175.406 92.8627 175.467 92.6797C175.499 92.5824 175.558 92.4837 175.617 92.3966C175.68 92.3045 175.758 92.2034 175.846 92.0981C176.02 91.8871 176.244 91.6444 176.481 91.3988C176.957 90.9069 177.502 90.3882 177.86 90.0603L177.938 89.9888L178.043 89.9762C178.805 89.8848 179.942 89.8803 180.851 90.1908C181.308 90.3469 181.739 90.5932 182.024 90.98ZM178.226 90.6179C178.934 90.5448 179.899 90.5609 180.639 90.8136C181.025 90.9455 181.318 91.1311 181.494 91.37C181.661 91.5978 181.749 91.9102 181.658 92.3648C181.525 93.0299 181.395 93.6469 181.231 94.1893C181.067 94.7331 180.875 95.1797 180.631 95.5127C180.391 95.8388 180.103 96.053 179.732 96.1474C179.353 96.2437 178.854 96.2241 178.181 96.0137C177.112 95.6797 176.718 95.1931 176.594 94.7907C176.463 94.3698 176.594 93.9385 176.765 93.6692L177.023 93.2641L176.552 93.1699C176.432 93.1458 176.27 93.0887 176.165 93.0108C176.114 92.9732 176.094 92.9444 176.088 92.9308C176.088 92.9305 176.088 92.9303 176.088 92.93C176.086 92.925 176.082 92.916 176.091 92.8878C176.091 92.8877 176.091 92.8869 176.092 92.8853C176.093 92.8835 176.094 92.8811 176.095 92.8779C176.098 92.8713 176.102 92.8626 176.109 92.8515C176.121 92.8291 176.138 92.8009 176.161 92.7667C176.208 92.698 176.272 92.6144 176.352 92.518C176.512 92.3255 176.722 92.0964 176.955 91.8561C177.385 91.411 177.877 90.9406 178.226 90.6179Z" fill="#032068"/>
<path d="M168.976 112.924L167.315 103.297V112.924H168.976Z" fill="white"/>
<path d="M171.326 43.2916L171.503 46.4813L171.681 49.6709C174.941 49.5291 177.646 51.0294 178.591 51.7973C179.832 46.6584 175.579 43.2916 175.579 41.3423C175.579 39.3931 174.693 33.3682 168.668 33.191C164.149 33.0581 162.912 36.7573 162.823 39.4104C162.814 39.6802 163.061 39.8786 163.314 39.7852C164.528 39.3373 166.079 38.0912 167.002 37.1119C167.259 36.8395 167.788 36.9267 167.955 37.2615C168.382 38.1161 169.006 38.9074 169.453 39.4482C169.518 39.5274 169.554 39.6258 169.556 39.7285C169.565 40.2309 169.618 40.9127 169.698 41.586C169.755 42.0582 170.411 42.0565 170.56 41.6046C170.727 41.0966 170.928 40.6107 171.149 40.2791C171.858 39.2159 172.921 40.1019 172.921 41.3423C172.921 42.3347 171.858 43.0553 171.326 43.2916Z" fill="#032068"/>
<path d="M161.757 50.3798C162.466 49.671 163.234 46.186 163.529 44.5321C163.813 45.9497 165.301 47.0129 166.01 47.3673L165.478 49.4938C164.061 49.4938 162.407 50.0844 161.757 50.3798Z" fill="#032068"/>
<path d="M181.264 91.9306L178.696 90.9193C177.711 90.5313 177.144 89.496 177.343 88.4563C177.897 85.5718 178.604 81.7837 179.123 78.75L187.983 82.6299C186.991 85.3234 185.089 89.0683 184.262 90.6041L183.844 91.1793C183.255 91.9883 182.194 92.2973 181.264 91.9306Z" fill="white"/>
<path d="M179.832 73.7704C179.832 72.211 177.056 67.6273 175.756 64.9102C178.611 73.3974 178.777 75.3908 177.448 88.0154C178.278 83.8626 179.832 74.5145 179.832 73.7704Z" fill="#032068"/>
<path d="M168.81 47.3164C167.614 47.848 166.429 47.5379 165.986 47.3164L165.654 48.9775C167.249 48.9775 168.423 47.8701 168.81 47.3164Z" fill="#032068"/>
<path d="M126.408 112.317C124.281 108.49 114.89 105.839 110.459 104.953L106.73 112.317H126.408Z" fill="#032068"/>
<path d="M94.4315 62.5393L93.4186 65.7109L99.4334 67.9586L100.262 63.3815C101.229 63.4926 103.441 62.8206 104.543 59.2441C105.922 54.7734 104.105 49.1141 100.277 48.5449C96.4491 47.9758 93.6562 51.2026 92.9575 55.4052C92.3986 58.7673 93.7073 61.5621 94.4315 62.5393Z" fill="white"/>
<path fill-rule="evenodd" clip-rule="evenodd" d="M95.6761 50.4192C94.4708 51.6215 93.6227 53.4107 93.282 55.4597C92.7405 58.7173 94.0138 61.4238 94.6958 62.344L94.7962 62.4794L93.8273 65.5129L99.1797 67.5131L99.9926 63.0201L100.299 63.0552C101.077 63.1446 103.163 62.6061 104.229 59.1477C104.896 56.9828 104.79 54.5247 104.054 52.5467C103.317 50.5629 101.978 49.1311 100.229 48.871C98.4286 48.6033 96.8747 49.2236 95.6761 50.4192ZM95.2114 49.9533C96.5409 48.6271 98.2976 47.9186 100.326 48.2201C102.404 48.5291 103.888 50.2115 104.671 52.3174C105.456 54.429 105.569 57.0359 104.858 59.3416C103.813 62.7304 101.76 63.6886 100.534 63.7216L99.687 68.4053L93.0097 65.9099L94.068 62.5963C93.2915 61.4593 92.0807 58.6733 92.6329 55.3518C92.9909 53.1982 93.8885 51.2728 95.2114 49.9533Z" fill="#032068"/>
<path d="M94.4084 62.365C95.0261 62.7127 97.5693 62.8431 98.7636 62.8648C99.6421 62.7494 100.077 61.9772 100.618 60.655C101.051 59.5972 100.364 58.7224 99.9663 58.4172C97.5346 56.2346 100.032 54.1191 100.818 54.0158C101.616 53.9108 101.727 55.4549 101.747 56.855C101.753 57.3182 102.285 57.4066 102.463 56.979C102.867 56.0109 103.327 55.0011 103.705 54.2467C104.053 53.5536 104.7 53.099 105.4 52.7675C109.057 51.0381 108.848 47.7014 107.938 47.0029C106.944 46.2399 106.403 47.5622 102.857 46.4198C99.3113 45.2774 94.1701 45.5958 91.8992 51.4349C89.6284 57.274 93.6364 61.9303 94.4084 62.365Z" fill="#032068"/>
<path d="M139.344 97.5097C138.425 93.5774 133.273 92.8057 130.812 92.9114L130.483 97.5097H139.344Z" fill="white"/>
<path fill-rule="evenodd" clip-rule="evenodd" d="M131.119 93.2331L130.837 97.1815H138.909C138.382 95.5988 137.066 94.604 135.536 94.0035C134.008 93.4039 132.312 93.2182 131.119 93.2331ZM135.776 93.3909C137.541 94.0833 139.17 95.3232 139.664 97.4357L139.758 97.8396H130.13L130.504 92.5962L130.798 92.5836C132.062 92.5293 134.013 92.699 135.776 93.3909Z" fill="#032068"/>
<path d="M90.967 64.7265C87.9899 66.9947 84.284 73.1916 82.9759 77.6766C79.723 88.8295 75.3796 110.588 86.7965 112.316C96.4975 112.328 104.571 112.321 107.395 112.316C108.714 110.326 111.157 105.775 110.371 103.18L109.928 99.2814C115.113 101.558 124.445 99.9605 129.795 98.5409C130.818 98.2696 131.458 97.2788 131.336 96.228L130.875 92.2597C130.751 91.1976 129.873 90.3836 128.808 90.2935C117.237 89.3143 114.219 85.446 111.523 81.7381C108.687 77.8396 103.371 69.3338 101.068 67.3845C98.764 65.4353 94.6883 61.8912 90.967 64.7265Z" fill="white"/>
<path fill-rule="evenodd" clip-rule="evenodd" d="M96.417 64.5636C94.714 63.8185 92.9014 63.6671 91.1663 64.989C89.7264 66.0861 88.0811 68.1611 86.6263 70.5426C85.175 72.9183 83.9356 75.562 83.2917 77.7696C81.668 83.3365 79.7789 91.5302 79.714 98.5346C79.6815 102.039 80.1065 105.212 81.2237 107.605C82.3295 109.973 84.1077 111.569 86.8216 111.988C96.3157 111.999 104.247 111.993 107.217 111.988C107.86 110.997 108.732 109.458 109.366 107.854C109.7 107.012 109.965 106.161 110.099 105.368C110.233 104.572 110.232 103.858 110.056 103.276L110.047 103.247L109.536 98.7509L110.06 98.9809C112.575 100.085 116.136 100.261 119.773 99.97C123.399 99.6797 127.049 98.9299 129.711 98.2237C130.567 97.9964 131.113 97.1635 131.009 96.2668L130.548 92.2985C130.443 91.3992 129.697 90.6997 128.78 90.6221C122.962 90.1298 119.26 88.9085 116.665 87.3205C114.068 85.7312 112.608 83.7905 111.257 81.9325C110.378 80.724 109.258 79.0702 108.067 77.3105C107.334 76.2267 106.573 75.1028 105.825 74.018C104.84 72.5907 103.875 71.2281 103.013 70.1022C102.146 68.9696 101.401 68.0985 100.855 67.6365C100.823 67.6097 100.791 67.5826 100.759 67.5552C99.6094 66.5819 98.0898 65.2955 96.417 64.5636ZM101.164 67.0354C101.203 67.0688 101.242 67.1017 101.28 67.1342C101.886 67.6469 102.669 68.5699 103.536 69.7022C104.407 70.8412 105.38 72.2143 106.367 73.6443C107.124 74.7423 107.889 75.8722 108.623 76.9578C109.808 78.7086 110.915 80.3444 111.789 81.5454C113.134 83.3953 114.531 85.2426 117.009 86.7592C119.49 88.2772 123.082 89.4796 128.835 89.9664C130.049 90.0692 131.059 90.9976 131.201 92.2225L131.663 96.1908C131.803 97.3957 131.068 98.5444 129.88 98.8597C127.191 99.5731 123.5 100.332 119.826 100.626C116.396 100.901 112.936 100.775 110.317 99.795L110.694 103.115C110.902 103.824 110.889 104.64 110.747 105.478C110.603 106.331 110.322 107.228 109.978 108.097C109.291 109.834 108.338 111.489 107.669 112.499L107.571 112.646L107.395 112.646C104.571 112.651 96.4974 112.658 86.796 112.646L86.7715 112.646L86.7472 112.642C83.7662 112.191 81.8132 110.422 80.6274 107.883C79.4496 105.361 79.0231 102.074 79.0559 98.5285C79.1217 91.4334 81.0308 83.1712 82.66 77.5853C83.3242 75.3078 84.5919 72.6105 86.0647 70.1995C87.5342 67.7942 89.2304 65.6367 90.7675 64.4656C92.7537 62.9522 94.8396 63.1552 96.6807 63.9607C98.4438 64.732 100.027 66.073 101.164 67.0354Z" fill="#032068"/>
<path d="M96.2832 85.8164C99.6855 92.621 105.498 97.3347 110.105 99.4611L110.282 102.828C100.359 96.874 96.8148 89.0061 96.2832 85.8164Z" fill="#032068"/>
<path d="M111.877 99.9905C110.873 97.805 107.341 93.3276 101.245 92.9023C103.076 94.9697 107.766 99.2817 111.877 99.9905Z" fill="#032068"/>
<path d="M76.9697 101.517C78.9575 110.878 83.5365 112.319 86.5537 112.319H108.561C112.466 112.319 111.934 111.091 111.934 110.027C110.691 104.708 107.674 102.58 98.6224 99.9209C89.5709 97.2614 87.6186 86.6233 84.6014 79.7086C81.5842 72.7939 73.42 72.6166 72.3552 74.035C71.2903 75.4534 74.4849 89.8147 76.9697 101.517Z" fill="white"/>
<path fill-rule="evenodd" clip-rule="evenodd" d="M73.1733 73.899C72.8685 74.0071 72.695 74.1312 72.6182 74.2335C72.5973 74.2613 72.559 74.3408 72.5276 74.5098C72.4977 74.6712 72.4794 74.8841 72.4747 75.1498C72.4654 75.6809 72.5108 76.3881 72.6045 77.2471C72.7917 78.963 73.167 81.2469 73.6547 83.86C74.4605 88.1775 75.5689 93.372 76.631 98.349C76.8543 99.3954 77.0755 100.432 77.2915 101.449C78.276 106.086 79.8919 108.712 81.5908 110.18C83.2853 111.645 85.0999 111.991 86.5536 111.991H108.561C109.524 111.991 110.191 111.915 110.652 111.793C111.111 111.672 111.337 111.513 111.456 111.366C111.571 111.223 111.617 111.049 111.627 110.821C111.632 110.705 111.627 110.584 111.62 110.449C111.619 110.43 111.618 110.411 111.617 110.392C111.612 110.289 111.606 110.177 111.605 110.067C110.996 107.486 109.967 105.708 108.009 104.241C106.019 102.75 103.053 101.567 98.5296 100.237C93.8816 98.8718 91.0734 95.4575 89.0567 91.5626C88.0487 89.6158 87.2332 87.539 86.4837 85.5256C86.3184 85.0816 86.1565 84.6411 85.9964 84.2058C85.4284 82.6607 84.8845 81.1812 84.2997 79.8411C82.8384 76.4922 80.1336 74.7745 77.6554 74.0641C76.4148 73.7085 75.2395 73.6082 74.319 73.6797C73.8584 73.7155 73.4702 73.7937 73.1733 73.899ZM77.8368 73.4315C80.4611 74.1838 83.347 76.0122 84.9029 79.5779C85.4962 80.9377 86.0492 82.4419 86.6183 83.9901C86.7774 84.4227 86.9377 84.8588 87.1005 85.296C87.8484 87.3052 88.6525 89.3506 89.6411 91.2601C91.6178 95.0777 94.3115 98.3122 98.7151 99.6061C103.243 100.937 106.311 102.146 108.404 103.714C110.519 105.299 111.619 107.234 112.254 109.953L112.263 109.99V110.028C112.263 110.132 112.268 110.238 112.274 110.355C112.275 110.374 112.276 110.394 112.277 110.415C112.284 110.551 112.291 110.699 112.284 110.849C112.272 111.15 112.207 111.483 111.968 111.779C111.731 112.073 111.358 112.287 110.819 112.43C110.282 112.572 109.551 112.649 108.561 112.649H86.5536C84.9902 112.649 83.0066 112.274 81.1604 110.678C79.3185 109.086 77.651 106.311 76.6478 101.586C76.4322 100.571 76.2112 99.5351 75.9881 98.4895C74.926 93.5125 73.8153 88.3074 73.0078 83.9808C72.5193 81.3636 72.1403 79.0599 71.9503 77.3184C71.8555 76.4487 71.8067 75.7098 71.8167 75.1383C71.8218 74.8527 71.8416 74.6002 71.8806 74.3897C71.9182 74.1868 71.9797 73.9878 72.092 73.8384C72.2814 73.5861 72.596 73.4055 72.9533 73.2788C73.3185 73.1493 73.7664 73.0626 74.268 73.0236C75.2721 72.9456 76.5261 73.0558 77.8368 73.4315Z" fill="#032068"/>
</svg>
