<svg width="270" height="138" viewBox="0 0 270 138" fill="none" xmlns="http://www.w3.org/2000/svg">
<path d="M0 5C0 2.23858 2.23858 0 5 0H265C267.761 0 270 2.23858 270 5V138H0V5Z" fill="#FFE798"/>
<path d="M157.988 118.931H126.464H94.5308C87.6206 118.931 80.9643 116.325 75.8893 111.633L69.0255 105.287C59.5437 96.5201 60.8681 81.086 71.5537 73.8367C78.7459 68.9574 81.964 59.8355 79.3231 51.5526C74.5797 36.6755 88.2857 22.4536 103.299 26.7233C107.456 27.9056 111.887 27.6776 115.901 26.0751L135.58 18.2183C154.275 10.7544 174.276 25.6142 172.539 45.6775L172.433 46.8948C171.746 54.8315 174.931 62.6119 180.985 67.7863C189.61 75.1582 192.097 87.4656 187.012 97.6107L184.545 102.532C179.506 112.584 169.228 118.931 157.988 118.931Z" fill="#466FDB"/>
<path fill-rule="evenodd" clip-rule="evenodd" d="M120.039 86.8972C120.18 86.6621 120.481 86.5848 120.712 86.7245L122.079 87.5535C122.309 87.6933 122.382 87.9971 122.241 88.2322C122.126 88.4248 122.153 88.6687 122.293 88.8406C122.685 89.3224 122.978 89.871 123.165 90.454C123.233 90.6665 123.421 90.8204 123.642 90.8232C123.913 90.8267 124.127 91.0516 124.12 91.3256L124.079 92.9469C124.072 93.2206 123.848 93.4396 123.578 93.4362C123.357 93.4334 123.162 93.582 123.083 93.7922C122.975 94.0786 122.84 94.3593 122.678 94.6311C122.515 94.9028 122.331 95.1537 122.129 95.383C121.981 95.5513 121.942 95.7942 122.047 95.9896C122.177 96.2283 122.089 96.5303 121.851 96.6642L120.445 97.4571C120.207 97.5911 119.91 97.506 119.78 97.267C119.674 97.0713 119.451 96.9761 119.233 97.0147C118.633 97.1205 118.014 97.1158 117.407 96.9925C117.191 96.9484 116.963 97.0376 116.848 97.2302C116.707 97.4653 116.406 97.5427 116.176 97.4029L114.808 96.5739C114.578 96.4342 114.505 96.1303 114.646 95.8952C114.762 95.7026 114.734 95.4587 114.594 95.2868C114.203 94.805 113.91 94.2565 113.723 93.6736C113.654 93.461 113.467 93.3071 113.245 93.3043C112.974 93.3008 112.761 93.0759 112.768 92.8019L112.808 91.1806C112.815 90.9069 113.039 90.6879 113.31 90.6913C113.531 90.6941 113.726 90.5454 113.805 90.3352C113.912 90.0489 114.047 89.7681 114.21 89.4964C114.373 89.2247 114.557 88.9738 114.758 88.7445C114.906 88.5761 114.946 88.3332 114.84 88.1379C114.711 87.8992 114.799 87.5971 115.036 87.4633L116.443 86.6704C116.68 86.5363 116.978 86.6215 117.107 86.8605C117.213 87.0562 117.436 87.1514 117.655 87.1128C118.255 87.007 118.874 87.0117 119.48 87.135C119.697 87.179 119.924 87.0898 120.039 86.8972ZM120.838 93.5157C120.029 94.8649 118.302 95.3087 116.979 94.5068C115.657 93.705 115.241 91.9612 116.049 90.6119C116.858 89.2627 118.586 88.8189 119.908 89.6208C121.23 90.4226 121.647 92.1664 120.838 93.5157Z" fill="white"/>
<path fill-rule="evenodd" clip-rule="evenodd" d="M106.846 93.0279C107.121 92.5734 107.71 92.4239 108.16 92.694L110.832 94.2968C111.283 94.5669 111.425 95.1544 111.149 95.6089C110.924 95.9812 110.978 96.4527 111.251 96.7851C112.016 97.7166 112.589 98.7771 112.955 99.9042C113.088 100.315 113.455 100.613 113.888 100.618C114.417 100.625 114.835 101.06 114.821 101.589L114.742 104.724C114.729 105.253 114.29 105.677 113.762 105.67C113.33 105.664 112.949 105.952 112.794 106.358C112.584 106.912 112.321 107.455 112.003 107.98C111.684 108.505 111.325 108.99 110.931 109.434C110.642 109.759 110.564 110.229 110.771 110.606C111.023 111.068 110.852 111.652 110.388 111.911L107.639 113.444C107.174 113.703 106.592 113.538 106.34 113.076C106.133 112.698 105.697 112.514 105.269 112.588C104.097 112.793 102.886 112.784 101.701 112.545C101.278 112.46 100.834 112.633 100.608 113.005C100.333 113.46 99.7444 113.609 99.294 113.339L96.6219 111.736C96.1715 111.466 96.0296 110.879 96.3051 110.424C96.5307 110.052 96.4765 109.58 96.2034 109.248C95.4382 108.316 94.8652 107.256 94.4995 106.129C94.3662 105.718 93.9992 105.42 93.5662 105.415C93.0375 105.408 92.6196 104.973 92.633 104.443L92.712 101.309C92.7254 100.78 93.1643 100.356 93.6925 100.363C94.1247 100.369 94.5058 100.081 94.6601 99.6747C94.8702 99.1211 95.1336 98.5783 95.4519 98.053C95.7702 97.5277 96.1297 97.0425 96.5236 96.5992C96.8128 96.2738 96.8904 95.8042 96.6838 95.4265C96.4313 94.9649 96.6027 94.381 97.0668 94.1223L99.8159 92.5893C100.281 92.3302 100.862 92.4948 101.115 92.9569C101.322 93.3352 101.758 93.5192 102.185 93.4446C103.358 93.2402 104.568 93.2492 105.753 93.4876C106.176 93.5727 106.62 93.4003 106.846 93.0279ZM108.407 105.824C106.827 108.432 103.45 109.29 100.865 107.74C98.2808 106.19 97.4668 102.818 99.0475 100.21C100.628 97.6011 104.005 96.7431 106.589 98.2934C109.174 99.8436 109.988 103.215 108.407 105.824Z" fill="white"/>
<path d="M178.074 42.9549L179.181 41.969C179.379 41.7935 179.683 41.9738 179.624 42.2311L179.301 43.6425C179.282 43.7279 179.304 43.8173 179.362 43.8827L180.407 45.0643C180.575 45.2547 180.412 45.5527 180.161 45.513L178.586 45.2634C178.51 45.2512 178.431 45.2727 178.371 45.3222L177.015 46.4422C176.814 46.6085 176.518 46.4225 176.581 46.1688L176.977 44.5674C176.997 44.4894 176.981 44.4069 176.933 44.3423L175.88 42.8982C175.725 42.6858 175.934 42.3977 176.184 42.4793L177.81 43.0104C177.902 43.0402 178.002 43.0191 178.074 42.9549Z" fill="#032068"/>
<path d="M183.12 60.4982L183.578 60.3641C183.831 60.2902 184.028 60.5846 183.865 60.7921L183.577 61.1574C183.523 61.2263 183.505 61.3169 183.529 61.401L183.689 61.9579C183.759 62.2026 183.484 62.4019 183.275 62.2577L182.785 61.9202C182.722 61.8762 182.642 61.8619 182.567 61.8809L181.92 62.0439C181.667 62.1077 181.481 61.812 181.646 61.6095L182.026 61.1435C182.077 61.0812 182.098 60.9997 182.083 60.9208L181.958 60.2567C181.91 59.9978 182.221 59.827 182.411 60.0084L182.858 60.4347C182.928 60.5011 183.027 60.5253 183.12 60.4982Z" fill="#032068"/>
<path d="M87.9839 31.5451C87.9839 30.284 89.0062 29.2617 90.2672 29.2617H166.219C167.48 29.2617 168.502 30.284 168.502 31.5451V85.8944C168.502 87.1554 167.48 88.1777 166.219 88.1777H90.2672C89.0062 88.1777 87.9839 87.1554 87.9839 85.8944V31.5451Z" fill="white"/>
<path fill-rule="evenodd" clip-rule="evenodd" d="M87.6416 31.5436C87.6416 30.0935 88.8171 28.918 90.2672 28.918H166.219C167.669 28.918 168.845 30.0935 168.845 31.5436V85.8928C168.845 87.3429 167.669 88.5184 166.219 88.5184H90.2672C88.8171 88.5184 87.6416 87.3429 87.6416 85.8928V31.5436ZM90.2672 29.6025C89.1951 29.6025 88.3261 30.4715 88.3261 31.5436V85.8928C88.3261 86.9649 89.1951 87.8339 90.2672 87.8339H166.219C167.291 87.8339 168.16 86.9649 168.16 85.8928V31.5436C168.16 30.4715 167.291 29.6025 166.219 29.6025H90.2672Z" fill="#032068"/>
<path d="M87.9839 31.5451C87.9839 30.284 89.0062 29.2617 90.2672 29.2617H166.219C167.48 29.2617 168.502 30.284 168.502 31.5451V35.7144H87.9839V31.5451Z" fill="#032068"/>
<path d="M93.905 32.5313C93.905 33.3059 93.2771 33.9338 92.5025 33.9338C91.728 33.9338 91.1001 33.3059 91.1001 32.5313C91.1001 31.7568 91.728 31.1289 92.5025 31.1289C93.2771 31.1289 93.905 31.7568 93.905 32.5313Z" fill="white"/>
<path d="M98.5798 32.5313C98.5798 33.3059 97.9519 33.9338 97.1773 33.9338C96.4028 33.9338 95.7749 33.3059 95.7749 32.5313C95.7749 31.7568 96.4028 31.1289 97.1773 31.1289C97.9519 31.1289 98.5798 31.7568 98.5798 32.5313Z" fill="white"/>
<path d="M103.255 32.5313C103.255 33.3059 102.627 33.9338 101.852 33.9338C101.078 33.9338 100.45 33.3059 100.45 32.5313C100.45 31.7568 101.078 31.1289 101.852 31.1289C102.627 31.1289 103.255 31.7568 103.255 32.5313Z" fill="white"/>
<path d="M94.9553 41.8104C94.9553 41.4254 95.2674 41.1133 95.6525 41.1133H102.275C102.66 41.1133 102.972 41.4254 102.972 41.8104C102.972 42.1954 102.66 42.5075 102.275 42.5075H95.6525C95.2674 42.5075 94.9553 42.1954 94.9553 41.8104Z" fill="#032068"/>
<path d="M94.9553 79.4549C94.9553 79.0699 95.2674 78.7578 95.6525 78.7578H102.275C102.66 78.7578 102.972 79.0699 102.972 79.4549C102.972 79.84 102.66 80.1521 102.275 80.1521H95.6525C95.2674 80.1521 94.9553 79.84 94.9553 79.4549Z" fill="#032068"/>
<path d="M109.246 79.4549C109.246 79.0699 109.558 78.7578 109.943 78.7578H116.566C116.951 78.7578 117.263 79.0699 117.263 79.4549C117.263 79.84 116.951 80.1521 116.566 80.1521H109.943C109.558 80.1521 109.246 79.84 109.246 79.4549Z" fill="#032068"/>
<path d="M123.537 79.4549C123.537 79.0699 123.849 78.7578 124.234 78.7578H130.857C131.242 78.7578 131.554 79.0699 131.554 79.4549C131.554 79.84 131.242 80.1521 130.857 80.1521H124.234C123.849 80.1521 123.537 79.84 123.537 79.4549Z" fill="#032068"/>
<path d="M137.829 79.4549C137.829 79.0699 138.141 78.7578 138.526 78.7578H145.149C145.534 78.7578 145.846 79.0699 145.846 79.4549C145.846 79.84 145.534 80.1521 145.149 80.1521H138.526C138.141 80.1521 137.829 79.84 137.829 79.4549Z" fill="#032068"/>
<path d="M94.9553 51.3651C94.9553 50.9003 95.3321 50.5234 95.797 50.5234H107.58C108.045 50.5234 108.422 50.9003 108.422 51.3651C108.422 51.8299 108.045 52.2068 107.58 52.2068H95.797C95.3321 52.2068 94.9553 51.8299 94.9553 51.3651Z" fill="#032068"/>
<path d="M94.9553 57.8189C94.9553 57.509 95.2065 57.2578 95.5164 57.2578H124.694C125.004 57.2578 125.255 57.509 125.255 57.8189C125.255 58.1288 125.004 58.38 124.694 58.38H95.5164C95.2065 58.38 94.9553 58.1288 94.9553 57.8189Z" fill="#E7E8FF"/>
<path d="M94.9553 63.9908C94.9553 63.6809 95.2065 63.4297 95.5164 63.4297H124.694C125.004 63.4297 125.255 63.6809 125.255 63.9908C125.255 64.3007 125.004 64.5519 124.694 64.5519H95.5164C95.2065 64.5519 94.9553 64.3007 94.9553 63.9908Z" fill="#E7E8FF"/>
<path d="M94.9553 70.1627C94.9553 69.8528 95.2065 69.6016 95.5164 69.6016H124.694C125.004 69.6016 125.255 69.8528 125.255 70.1627C125.255 70.4726 125.004 70.7238 124.694 70.7238H95.5164C95.2065 70.7238 94.9553 70.4726 94.9553 70.1627Z" fill="#E7E8FF"/>
<path d="M135.04 61.3173C135.04 60.9393 135.346 60.6328 135.724 60.6328H138.19C138.568 60.6328 138.874 60.9393 138.874 61.3173V68.6624C138.874 69.0405 138.568 69.3469 138.19 69.3469H135.724C135.346 69.3469 135.04 69.0405 135.04 68.6624V61.3173Z" fill="#E7E8FF"/>
<path d="M141.314 59.2275C141.314 58.8494 141.621 58.543 141.999 58.543H144.464C144.842 58.543 145.148 58.8494 145.148 59.2275V68.664C145.148 69.042 144.842 69.3485 144.464 69.3485H141.999C141.621 69.3485 141.314 69.042 141.314 68.664V59.2275Z" fill="#E7E8FF"/>
<path d="M147.589 56.4384C147.589 56.0604 147.895 55.7539 148.273 55.7539H150.739C151.117 55.7539 151.423 56.0604 151.423 56.4384V68.6635C151.423 69.0415 151.117 69.3479 150.739 69.3479H148.273C147.895 69.3479 147.589 69.0415 147.589 68.6635V56.4384Z" fill="#E7E8FF"/>
<path d="M153.863 53.997C153.863 53.619 154.169 53.3125 154.547 53.3125H157.012C157.39 53.3125 157.697 53.619 157.697 53.997V68.662C157.697 69.04 157.39 69.3465 157.012 69.3465H154.547C154.169 69.3465 153.863 69.04 153.863 68.662V53.997Z" fill="#032068"/>
<path fill-rule="evenodd" clip-rule="evenodd" d="M131.038 71.6329V52.6172H131.723V71.6329C131.723 72.011 132.029 72.3174 132.407 72.3174H160.834V73.0019H132.407C131.651 73.0019 131.038 72.389 131.038 71.6329Z" fill="#032068"/>
<path fill-rule="evenodd" clip-rule="evenodd" d="M150.024 52.6857C149.289 52.7926 148.682 52.9075 148.253 53.1024C147.827 53.2962 147.35 53.6768 146.81 54.1619C146.616 54.3366 146.412 54.5264 146.202 54.7218C145.849 55.0502 145.479 55.3943 145.109 55.7092C143.941 56.7046 142.538 57.6258 141.032 57.1241C140.085 56.8083 138.758 56.9453 137.434 57.2835C136.125 57.6179 134.885 58.1313 134.148 58.4998L133.842 57.8875C134.615 57.5007 135.902 56.9685 137.265 56.6203C138.614 56.2758 140.105 56.0933 141.249 56.4747C142.358 56.8443 143.481 56.197 144.666 55.1882C145.028 54.8798 145.373 54.5584 145.715 54.2397C145.927 54.0418 146.139 53.8449 146.353 53.6529C146.891 53.1685 147.438 52.7213 147.97 52.4793C148.5 52.2385 149.2 52.1139 149.925 52.0083C150.11 51.9814 150.298 51.9555 150.488 51.9295C151.059 51.851 151.646 51.7703 152.225 51.6498C153.771 51.3275 155.093 50.751 155.635 49.3555L156.273 49.6036C155.596 51.3451 153.955 51.9885 152.364 52.3199C151.76 52.4457 151.14 52.5309 150.563 52.6101C150.378 52.6355 150.198 52.6604 150.024 52.6857Z" fill="#032068"/>
<path d="M137.829 56.7987C137.829 57.1837 137.516 57.4958 137.131 57.4958C136.746 57.4958 136.434 57.1837 136.434 56.7987C136.434 56.4137 136.746 56.1016 137.131 56.1016C137.516 56.1016 137.829 56.4137 137.829 56.7987Z" fill="#032068"/>
<path d="M144.103 56.451C144.103 56.8361 143.791 57.1482 143.406 57.1482C143.021 57.1482 142.709 56.8361 142.709 56.451C142.709 56.066 143.021 55.7539 143.406 55.7539C143.791 55.7539 144.103 56.066 144.103 56.451Z" fill="#032068"/>
<path d="M150.377 52.2674C150.377 52.6525 150.065 52.9646 149.68 52.9646C149.295 52.9646 148.983 52.6525 148.983 52.2674C148.983 51.8824 149.295 51.5703 149.68 51.5703C150.065 51.5703 150.377 51.8824 150.377 52.2674Z" fill="#032068"/>
<path d="M156.652 49.4784C156.652 49.8634 156.339 50.1755 155.954 50.1755C155.569 50.1755 155.257 49.8634 155.257 49.4784C155.257 49.0934 155.569 48.7812 155.954 48.7812C156.339 48.7812 156.652 49.0934 156.652 49.4784Z" fill="#032068"/>
<path d="M170.022 85.6316L170.555 88.4281L170.022 91.3577C168.644 91.5353 165.836 91.8904 165.622 91.8904C165.409 91.8904 163.845 90.5587 163.09 89.8929L163.889 85.6316C161.65 84.8858 160.912 81.5922 160.823 80.0386C160.29 73.6467 164.556 72.8477 165.356 72.8477C166.156 72.8477 171.221 72.8477 171.888 78.1743C172.421 82.4356 170.866 84.9214 170.022 85.6316Z" fill="white"/>
<path fill-rule="evenodd" clip-rule="evenodd" d="M168.564 73.7461C169.943 74.3793 171.312 75.6405 171.633 78.2053C172.157 82.3972 170.621 84.7902 169.856 85.4342L169.741 85.531L170.293 88.4283L169.802 91.126C169.12 91.2136 168.176 91.3334 167.354 91.4347C166.904 91.4902 166.49 91.54 166.177 91.576C166.02 91.5939 165.889 91.6084 165.79 91.6182C165.741 91.6232 165.701 91.6269 165.671 91.6294C165.664 91.6299 165.658 91.6304 165.653 91.6308C165.643 91.6258 165.63 91.6188 165.613 91.6091C165.559 91.5773 165.485 91.5281 165.393 91.4624C165.211 91.3316 164.976 91.1481 164.722 90.9411C164.26 90.5662 163.742 90.1223 163.369 89.7956L164.184 85.4578L163.971 85.3869C162.954 85.0483 162.25 84.12 161.786 83.0362C161.325 81.9581 161.123 80.7766 161.08 80.0231L161.08 80.0197L161.08 80.0164C160.818 76.8835 161.733 75.1702 162.763 74.2354C163.806 73.2879 165.006 73.1037 165.356 73.1037C165.75 73.1037 167.169 73.105 168.564 73.7461ZM165.674 91.6401C165.674 91.6401 165.672 91.6396 165.67 91.6388C165.672 91.6398 165.674 91.6402 165.674 91.6401ZM165.358 72.5898H165.356C164.905 72.5898 163.573 72.8052 162.417 73.8552C161.247 74.9175 160.296 76.7988 160.567 80.0558C160.613 80.856 160.824 82.0962 161.313 83.2382C161.772 84.3091 162.494 85.3388 163.597 85.7956L162.81 89.9881L162.919 90.0847C163.299 90.419 163.881 90.9207 164.397 91.3398C164.654 91.5489 164.898 91.74 165.093 91.8797C165.19 91.9492 165.279 92.0092 165.354 92.0529C165.391 92.0746 165.429 92.0951 165.466 92.1109C165.496 92.1235 165.555 92.1465 165.622 92.1465C165.695 92.1465 165.931 92.1214 166.235 92.0865C166.551 92.0503 166.966 92.0003 167.417 91.9448C168.318 91.8337 169.365 91.7005 170.055 91.6117L170.241 91.5876L170.816 88.4261L170.301 85.725C171.233 84.8409 172.663 82.2984 172.143 78.1416C171.798 75.3797 170.3 73.9776 168.779 73.2792C167.278 72.5898 165.767 72.5898 165.358 72.5898Z" fill="#032068"/>
<path d="M182.953 118.658H162.023L135.495 118.525C133.853 117.455 133.394 115.73 133.39 114.266C133.386 113.067 134.251 112.103 135.332 111.582C139.628 109.513 146.148 106.312 147.359 105.474C149.092 104.276 150.692 97.7507 153.892 92.6904C156.451 88.6421 161.268 87.7188 163.223 87.7632C163.401 88.5622 164.156 90.1602 166.822 90.1602C169.489 90.1602 170.6 88.5622 170.955 87.7632C172.333 87.7632 176.154 88.5089 179.353 91.4919C183.35 95.2179 185.083 103.731 186.682 111.584L186.685 111.6C187.965 117.885 184.73 118.835 182.953 118.658Z" fill="white"/>
<path fill-rule="evenodd" clip-rule="evenodd" d="M163.024 88.0181C163.149 88.4387 163.408 88.9837 163.916 89.4497C164.514 89.9984 165.434 90.4163 166.822 90.4163C169.459 90.4163 170.665 88.9166 171.116 88.0225C172.561 88.0778 176.152 88.8577 179.178 91.6788C181.125 93.4945 182.542 96.5002 183.672 100.067C184.8 103.627 185.63 107.705 186.43 111.634L186.433 111.65C187.066 114.757 186.567 116.469 185.771 117.383C184.974 118.299 183.818 118.485 182.978 118.401L182.966 118.4H162.023L135.573 118.267C134.082 117.26 133.651 115.662 133.647 114.265C133.643 113.2 134.414 112.308 135.444 111.812C137.593 110.778 140.298 109.46 142.618 108.295C144.928 107.136 146.882 106.116 147.506 105.685C147.997 105.345 148.447 104.658 148.89 103.8C149.339 102.93 149.805 101.834 150.313 100.629C150.347 100.548 150.382 100.466 150.416 100.383C151.412 98.0174 152.576 95.2509 154.109 92.8267C155.353 90.8584 157.149 89.6452 158.882 88.9286C160.505 88.2577 162.059 88.0278 163.024 88.0181ZM158.686 88.4538C156.881 89.1998 154.989 90.4723 153.674 92.5523C152.118 95.0133 150.939 97.8146 149.947 100.172C149.911 100.259 149.874 100.345 149.838 100.43C149.329 101.639 148.871 102.715 148.433 103.564C147.988 104.425 147.588 105.003 147.213 105.262C146.626 105.668 144.714 106.668 142.387 107.836C140.071 108.999 137.368 110.315 135.221 111.35C134.088 111.895 133.128 112.932 133.132 114.266C133.137 115.777 133.612 117.604 135.354 118.739L135.418 118.78L162.022 118.914L162.023 118.914H182.94C183.877 119.004 185.219 118.801 186.16 117.72C187.106 116.632 187.585 114.726 186.938 111.548L186.933 111.523C186.134 107.603 185.299 103.501 184.162 99.912C183.027 96.3275 181.578 93.2136 179.529 91.3032C176.276 88.27 172.389 87.5054 170.955 87.5054H170.788L170.72 87.658C170.393 88.3939 169.358 89.9024 166.822 89.9024C165.545 89.9024 164.754 89.5213 164.264 89.0712C163.768 88.6167 163.555 88.07 163.474 87.7066L163.43 87.51L163.229 87.5055C162.215 87.4825 160.487 87.7089 158.686 88.4538Z" fill="#032068"/>
<path d="M174.021 108.4L172.021 100.277L172.421 108.4L163.316 110.619C162.147 110.904 161.053 111.63 160.832 112.812C160.438 114.919 161.225 117.161 162.157 117.988C161.357 116.845 161.357 112.529 162.29 111.863C163.036 111.33 172.288 109.599 176.821 108.8L174.021 108.4Z" fill="#032068"/>
<path d="M154.158 98.1484L149.226 118.656H147.093L154.158 98.1484Z" fill="#032068"/>
<path d="M168.556 82.9675C169.089 86.057 169.844 86.3855 170.156 86.1635C173.888 83.7665 173.798 76.1082 171.489 73.5128C169.356 71.1158 167.756 72.048 163.357 70.9826C158.958 69.9173 157.491 71.7816 158.291 74.1786C159.442 77.6291 163.09 75.7766 164.023 76.1761C164.956 76.5756 166.156 77.6409 166.689 79.7716C167.223 81.9022 167.489 81.5027 167.889 80.3042C168.289 79.1057 169.356 77.3746 170.156 79.5052C170.795 81.2098 169.356 82.5237 168.556 82.9675Z" fill="#032068"/>
<path d="M152.825 118.657C152.825 115.035 158.202 113.952 160.824 113.863C160.824 115.674 161.935 117.814 162.557 118.657H152.825Z" fill="white"/>
<path fill-rule="evenodd" clip-rule="evenodd" d="M161.081 113.598L160.815 113.607C159.483 113.652 157.449 113.948 155.738 114.7C154.034 115.449 152.568 116.691 152.568 118.657V118.914H163.066L162.764 118.505C162.467 118.103 162.043 117.376 161.695 116.526C161.346 115.674 161.081 114.722 161.081 113.863V113.598ZM160.574 114.132C160.621 115.006 160.891 115.921 161.219 116.721C161.486 117.373 161.798 117.96 162.073 118.4H153.092C153.212 116.886 154.391 115.853 155.945 115.171C157.472 114.5 159.29 114.203 160.574 114.132Z" fill="#032068"/>
<path d="M126.915 118.412C126.915 115.193 131.176 114.509 133.474 114.43C133.474 116.04 134.901 117.663 135.447 118.412H126.915Z" fill="white"/>
<path fill-rule="evenodd" clip-rule="evenodd" d="M133.731 114.164L133.465 114.173C132.303 114.213 130.626 114.406 129.23 115.008C127.831 115.611 126.657 116.657 126.657 118.413V118.67H135.951L135.655 118.262C135.578 118.156 135.488 118.038 135.389 117.909C135.118 117.555 134.781 117.115 134.476 116.611C134.059 115.924 133.731 115.164 133.731 114.43V114.164ZM133.229 114.698C133.296 115.479 133.647 116.236 134.036 116.877C134.332 117.366 134.666 117.81 134.93 118.156H127.182C127.288 116.842 128.207 116.009 129.434 115.48C130.649 114.956 132.116 114.755 133.229 114.698Z" fill="#032068"/>
<path fill-rule="evenodd" clip-rule="evenodd" d="M186.971 113.85C187.034 116.421 186.131 118.657 183.378 118.657H180.953C181.593 114.396 184.977 111.821 186.577 111.066C186.612 111.239 186.647 111.411 186.682 111.583L186.686 111.599C186.856 112.436 186.946 113.184 186.971 113.85Z" fill="#032068"/>
<path d="M166.448 85.5898C165.207 86.0033 164.346 85.7621 163.915 85.5898L163.515 87.4542C165.171 87.2475 166.103 86.0635 166.448 85.5898Z" fill="#032068"/>
<path d="M140.68 102.65L146.611 116.201C146.909 116.881 146.414 117.645 145.675 117.645H127.575C127.159 117.645 126.785 117.392 126.628 117.004L121.129 103.453C120.854 102.776 121.349 102.035 122.076 102.035H139.743C140.149 102.035 140.516 102.276 140.68 102.65Z" fill="white"/>
<path fill-rule="evenodd" clip-rule="evenodd" d="M139.744 102.248C140.065 102.248 140.356 102.439 140.485 102.735L146.417 116.286C146.653 116.825 146.261 117.43 145.675 117.43H127.575C127.246 117.43 126.949 117.229 126.825 116.923L121.326 103.372C121.108 102.835 121.5 102.248 122.076 102.248H139.744ZM140.874 102.562C140.677 102.111 140.233 101.82 139.744 101.82H122.076C121.198 101.82 120.6 102.716 120.932 103.533L126.431 117.084C126.621 117.552 127.073 117.857 127.575 117.857H145.675C146.567 117.857 147.166 116.935 146.806 116.113L140.874 102.562Z" fill="#032068"/>
<path d="M135.151 108.755C134.819 107.979 134.059 107.477 133.219 107.477C131.706 107.477 130.687 109.035 131.286 110.432L131.436 110.78C131.768 111.557 132.528 112.059 133.368 112.059C134.881 112.059 135.9 110.501 135.301 109.104L135.151 108.755Z" fill="#032068"/>
<path d="M127.859 118.932H159.272C159.783 118.932 160.197 118.515 160.197 118.001C160.197 117.487 159.783 117.07 159.272 117.07H127.859C127.196 117.07 126.748 117.751 127.008 118.365C127.153 118.709 127.488 118.932 127.859 118.932Z" fill="#032068"/>
<path d="M68.8184 119.617C68.8184 119.05 69.1778 118.59 69.6213 118.59H180.956C181.399 118.59 181.759 119.05 181.759 119.617V120.986C181.759 121.553 181.399 122.012 180.956 122.012H69.6213C69.1778 122.012 68.8184 121.553 68.8184 120.986V119.617Z" fill="white"/>
<path fill-rule="evenodd" clip-rule="evenodd" d="M68.5508 119.615C68.5508 118.859 69.0301 118.246 69.6213 118.246H180.956C181.547 118.246 182.026 118.859 182.026 119.615V120.984C182.026 121.74 181.547 122.353 180.956 122.353H69.6213C69.0301 122.353 68.5508 121.74 68.5508 120.984V119.615ZM69.6213 118.931C69.3257 118.931 69.086 119.237 69.086 119.615V120.984C69.086 121.362 69.3257 121.669 69.6213 121.669H180.956C181.252 121.669 181.491 121.362 181.491 120.984V119.615C181.491 119.237 181.252 118.931 180.956 118.931H69.6213Z" fill="#032068"/>
<path d="M87.2793 58.6386L87.9601 61.8753V63.9195L86.4283 65.2823L81.8328 64.7713V61.7049L82.003 58.1275C80.1308 55.7425 79.4499 51.143 81.4924 48.7581C83.5348 46.3731 88.8111 46.0324 89.8323 51.6541C90.6493 56.1514 88.4707 58.1843 87.2793 58.6386Z" fill="white"/>
<path fill-rule="evenodd" clip-rule="evenodd" d="M85.987 47.5144C87.5438 47.8065 89.031 49.0114 89.5213 51.7105C90.314 56.0744 88.2008 57.9486 87.1667 58.3429L86.9143 58.4391L87.6439 61.9081V63.7773L86.3233 64.9523L82.1487 64.488V61.7123L82.3242 58.0246L82.2514 57.9319C81.3594 56.7957 80.7391 55.111 80.5945 53.4157C80.4496 51.7172 80.7863 50.0683 81.7322 48.9638C82.6794 47.8578 84.3951 47.2156 85.987 47.5144ZM86.1035 46.8926C84.2912 46.5525 82.3476 47.2731 81.2523 48.5521C80.1558 49.8325 79.8117 51.6759 79.9647 53.4696C80.1141 55.2217 80.7417 56.9839 81.6817 58.2284L81.5166 61.6973V65.0543L86.5331 65.6121L88.276 64.0614V61.8423L87.6412 58.8242C88.9966 58.1503 90.9343 55.9525 90.1432 51.5974C89.6123 48.6749 87.9507 47.2392 86.1035 46.8926Z" fill="#032068"/>
<path d="M98.3425 121.669L96.599 102.59H72.1892L69.7482 121.669H98.3425Z" fill="#032068"/>
<path d="M114.682 66.9887C114.682 67.5339 114.115 68.4651 113.831 68.8626L114.171 70.9069L116.724 71.2476C117.405 70.3958 119.448 70.0551 119.958 68.6923C120.367 67.602 119.221 66.4209 118.597 66.137L120.712 63.1726C120.96 62.8256 120.902 62.3468 120.578 62.0693C120.235 61.7749 119.719 61.8128 119.423 62.1541L116.554 65.4555C116.554 65.5691 116.452 65.5578 116.044 64.6038C115.533 63.4113 115.022 63.9224 114.682 64.0927C114.342 64.2631 114.682 66.3073 114.682 66.9887Z" fill="white"/>
<path fill-rule="evenodd" clip-rule="evenodd" d="M120.784 61.829C120.309 61.4215 119.595 61.474 119.184 61.9464L116.557 64.9704C116.499 64.8514 116.425 64.6914 116.334 64.4791C116.067 63.855 115.734 63.5208 115.299 63.5208C115.108 63.5208 114.942 63.5899 114.822 63.6515C114.762 63.6825 114.705 63.7159 114.659 63.7431L114.657 63.744C114.607 63.7734 114.572 63.7941 114.541 63.8097C114.379 63.8906 114.313 64.0483 114.283 64.1425C114.249 64.2506 114.232 64.3754 114.223 64.4989C114.206 64.7484 114.218 65.0595 114.239 65.3708C114.257 65.6261 114.282 65.8925 114.304 66.1377C114.31 66.1935 114.315 66.2483 114.32 66.3015C114.347 66.5957 114.366 66.8357 114.366 66.9886C114.366 67.1793 114.257 67.4891 114.081 67.8381C113.912 68.1722 113.708 68.4907 113.574 68.6787L113.498 68.7853L113.898 71.1894L116.86 71.5847L116.971 71.4451C117.104 71.2791 117.318 71.1219 117.605 70.9535C117.78 70.8508 117.961 70.7557 118.153 70.6549C118.282 70.5869 118.416 70.5162 118.557 70.4388C119.216 70.0776 119.954 69.6043 120.254 68.8033C120.51 68.1215 120.268 67.4432 119.927 66.9358C119.68 66.5675 119.357 66.2507 119.055 66.0396L120.97 63.3563C121.312 62.876 121.232 62.2132 120.784 61.829ZM116.238 65.4555V65.4528C116.238 65.4541 116.238 65.4551 116.238 65.4555ZM119.661 62.3616C119.844 62.1514 120.161 62.1281 120.373 62.3093C120.572 62.4802 120.608 62.775 120.455 62.9886L118.116 66.2658L118.466 66.4248C118.716 66.5386 119.116 66.8615 119.403 67.2885C119.689 67.7153 119.816 68.1726 119.663 68.5811C119.452 69.1429 118.914 69.5214 118.253 69.8841C118.135 69.9492 118.009 70.0157 117.881 70.0827C117.677 70.1907 117.469 70.3002 117.286 70.4076C117.038 70.5525 116.795 70.7156 116.601 70.9119L114.445 70.6241L114.164 68.9375C114.307 68.7272 114.489 68.4331 114.645 68.1238C114.823 67.7715 114.998 67.3431 114.998 66.9886C114.998 66.8009 114.975 66.5299 114.949 66.2437C114.944 66.1886 114.939 66.1326 114.933 66.076C114.911 65.8311 114.887 65.5742 114.87 65.3272C114.849 65.0209 114.839 64.7465 114.854 64.5435C114.86 64.4495 114.871 64.3846 114.882 64.3443C114.914 64.3267 114.945 64.3087 114.972 64.2927L114.978 64.2895C115.026 64.261 115.068 64.2362 115.111 64.2144C115.198 64.1695 115.257 64.1534 115.299 64.1534C115.333 64.1534 115.51 64.1599 115.753 64.7283C115.957 65.2044 116.096 65.4745 116.195 65.6131C116.22 65.6489 116.251 65.6884 116.289 65.7222C116.314 65.7448 116.4 65.8208 116.532 65.8208C116.717 65.8208 116.811 65.685 116.841 65.6114C116.842 65.6089 116.843 65.6063 116.844 65.6038L119.661 62.3616ZM114.894 64.3121C114.894 64.3119 114.893 64.3135 114.892 64.3172C114.893 64.3141 114.894 64.3122 114.894 64.3121Z" fill="#032068"/>
<path d="M85.2367 63.5811C87.5515 63.5811 88.1302 61.764 88.1302 60.8555C89.7641 60.8555 90.8343 61.6539 91.1748 61.8811L93.9171 69.7139L94.4277 102.763C88.7089 104.534 81.4922 103.501 78.5988 102.763L76.7265 62.0479C77.8516 61.3314 79.4953 61.0185 80.6764 60.9071C81.2544 60.8526 81.7517 61.2622 82.047 61.7624C82.5603 62.6318 83.5636 63.5811 85.2367 63.5811Z" fill="white"/>
<path fill-rule="evenodd" clip-rule="evenodd" d="M90.911 62.0844L93.6018 69.77L94.108 102.529C88.6509 104.137 81.8681 103.228 78.9035 102.512L77.0508 62.2209C78.105 61.6111 79.5922 61.327 80.706 61.222C81.1069 61.1842 81.5075 61.4705 81.7748 61.9232C82.3282 62.8604 83.4222 63.8974 85.2366 63.8974C86.4892 63.8974 87.3067 63.3997 87.8024 62.7511C88.1916 62.242 88.3709 61.6558 88.4264 61.1811C89.6782 61.2609 90.5328 61.8277 90.911 62.0844ZM91.2812 61.5712C90.8738 61.2937 89.7661 60.5391 88.1301 60.5391H87.8141V60.8554C87.8141 61.255 87.6841 61.8648 87.3004 62.3667C86.9281 62.8538 86.2989 63.2647 85.2366 63.2647C83.7048 63.2647 82.7923 62.403 82.319 61.6014C81.9956 61.0537 81.4017 60.5209 80.6467 60.5921C79.4538 60.7046 77.7475 61.0226 76.5568 61.781L76.4023 61.8794L78.2937 103.011L78.5206 103.069C81.4372 103.813 88.7209 104.861 94.5211 103.065L94.7473 102.995L94.2322 69.6576L91.438 61.6765L91.35 61.6178C91.3299 61.6044 91.3069 61.5888 91.2812 61.5712Z" fill="#032068"/>
<path d="M91.194 78.569C90.9559 74.3984 89.6595 66.8851 88.8065 62.406C88.6449 61.557 89.3596 60.7939 90.1895 61.0326C98.2629 63.3549 100.217 73.9802 102.768 74.1398C104.584 74.2534 108.97 71.2185 111.826 69.0211C112.685 68.3603 113.904 68.4205 114.67 69.1872L116.495 71.014C117.054 71.5735 117.262 72.3993 116.952 73.127C114.843 78.0751 108.914 85.885 105.151 87.7681C101.883 89.4035 99.2504 87.0867 98.3426 85.7239C98.3993 90.0963 98.4788 99.4203 98.3426 101.737C98.1724 104.633 98.3426 107.018 96.3002 107.359C94.2577 107.7 90.343 107.018 90.343 106.337C90.343 105.655 91.5344 84.5314 91.194 78.569Z" fill="white"/>
<path fill-rule="evenodd" clip-rule="evenodd" d="M90.2769 60.7304C89.1793 60.4147 88.2988 61.4302 88.4962 62.467C89.3497 66.949 90.6419 74.4423 90.8786 78.5889C91.0477 81.5508 90.8361 88.3041 90.5805 94.4218C90.4222 98.2122 90.2468 101.761 90.1367 103.988C90.0698 105.342 90.0271 106.207 90.0271 106.338C90.0271 106.58 90.195 106.747 90.3259 106.845C90.4703 106.953 90.6616 107.047 90.8727 107.129C91.2988 107.294 91.8746 107.436 92.5021 107.545C93.7533 107.76 95.2818 107.851 96.3522 107.673C96.9285 107.576 97.3695 107.33 97.6961 106.953C98.0164 106.582 98.2081 106.107 98.3313 105.58C98.516 104.79 98.5608 103.805 98.6085 102.754C98.6233 102.427 98.6385 102.094 98.6582 101.758C98.7862 99.5794 98.7249 91.2838 98.6701 86.6431C99.1822 87.196 99.8825 87.7682 100.729 88.1594C101.985 88.7392 103.561 88.9191 105.292 88.0529C107.241 87.0776 109.701 84.6047 111.92 81.7949C114.147 78.9749 116.174 75.761 117.243 73.2529C117.61 72.392 117.357 71.4313 116.719 70.7921L116.495 71.0158L116.719 70.7921L114.893 68.9653C114.012 68.0827 112.614 68.0177 111.633 68.7722C110.21 69.8673 108.41 71.1677 106.743 72.1784C105.91 72.684 105.116 73.113 104.424 73.4077C103.721 73.7071 103.164 73.8495 102.788 73.8259C102.58 73.8129 102.338 73.6902 102.049 73.403C101.761 73.1182 101.459 72.7052 101.129 72.1835C100.799 71.6638 100.453 71.0533 100.071 70.3804L100.057 70.3565C99.6801 69.6925 99.271 68.9717 98.8191 68.2338C96.9947 65.2542 94.4342 61.9263 90.2769 60.7304ZM89.1171 62.3486C88.9912 61.6874 89.5402 61.1768 90.1024 61.3385C94.0185 62.4649 96.4716 65.6108 98.2802 68.5643C98.7266 69.2933 99.1313 70.0064 99.5093 70.6724L99.521 70.6929C99.9009 71.3623 100.256 71.9871 100.595 72.5222C100.932 73.0554 101.265 73.5168 101.604 73.8527C101.941 74.1863 102.319 74.4305 102.748 74.4573C103.28 74.4906 103.952 74.2962 104.672 73.9898C105.402 73.6788 106.224 73.233 107.071 72.7194C108.765 71.6917 110.586 70.3759 112.018 69.2737C112.756 68.7065 113.796 68.7621 114.447 69.4127L116.272 71.2395C116.751 71.7192 116.915 72.4102 116.661 73.0047C115.621 75.4447 113.629 78.6098 111.424 81.4026C109.21 84.2056 106.824 86.5792 105.01 87.487C103.473 88.2562 102.099 88.0953 100.994 87.5849C99.8767 87.0687 99.0336 86.1927 98.6057 85.5502L98.0128 84.6602L98.0267 85.7298C98.0835 90.1096 98.1625 99.4181 98.0272 101.72C98.0058 102.085 97.9897 102.437 97.9743 102.775C97.9271 103.808 97.886 104.708 97.7159 105.436C97.605 105.91 97.4457 106.276 97.2182 106.539C96.9969 106.795 96.6932 106.974 96.2483 107.049C95.2762 107.211 93.8262 107.131 92.6095 106.921C92.0029 106.816 91.4724 106.682 91.1007 106.539C90.9129 106.466 90.7824 106.397 90.7047 106.339C90.6825 106.322 90.6684 106.309 90.6598 106.301C90.6652 106.093 90.7046 105.297 90.7643 104.092C90.8736 101.885 91.0509 98.3045 91.212 94.4482C91.4671 88.343 91.681 81.5532 91.5097 78.5528C91.2702 74.3582 89.9695 66.825 89.1171 62.3486ZM90.6478 106.286C90.6477 106.286 90.648 106.287 90.6489 106.288C90.6482 106.287 90.6478 106.286 90.6478 106.286Z" fill="#032068"/>
<path d="M83.0242 78.4018C82.899 75.2694 81.3256 66.8092 80.3672 62.0234C80.2355 61.3657 79.6101 60.9231 78.9643 61.1027C70.1427 63.5561 63.1388 78.6657 63.7911 84.7049C64.3358 89.7474 68.3299 97.7086 70.2589 101.059C70.1454 103.103 70.1227 107.26 70.9397 107.532C71.9609 107.873 80.8115 107.532 81.3222 106.51C81.8328 105.488 83.1944 82.6607 83.0242 78.4018Z" fill="white"/>
<path fill-rule="evenodd" clip-rule="evenodd" d="M79.0488 61.4042C79.4941 61.2804 79.9567 61.5798 80.0573 62.0824C81.0178 66.879 82.5844 75.3099 82.7084 78.4112C82.7927 80.5212 82.4963 87.2743 82.113 93.6475C81.9216 96.8296 81.709 99.9093 81.5125 102.256C81.4142 103.43 81.3201 104.418 81.2349 105.143C81.1923 105.506 81.1523 105.8 81.1156 106.017C81.0973 106.125 81.0803 106.211 81.0651 106.275C81.0518 106.33 81.0427 106.356 81.0401 106.364C81.0364 106.368 81.0179 106.389 80.9644 106.423C80.8972 106.465 80.7982 106.512 80.6634 106.561C80.3942 106.659 80.0221 106.751 79.5704 106.835C78.6696 107.002 77.4968 107.129 76.3 107.214C75.1048 107.298 73.8942 107.341 72.9209 107.341C72.434 107.341 72.0096 107.33 71.6777 107.309C71.3352 107.288 71.1259 107.257 71.0416 107.23C71.0418 107.229 71.0052 107.21 70.9494 107.107C70.8903 106.997 70.8324 106.833 70.7799 106.616C70.6753 106.183 70.6065 105.595 70.5658 104.937C70.4845 103.625 70.5181 102.088 70.5744 101.073L70.5796 100.979L70.5327 100.898C69.5736 99.232 68.0985 96.4151 66.7961 93.3881C65.4906 90.3538 64.3723 87.1393 64.1053 84.6677C63.9489 83.2197 64.2509 81.1906 64.9484 78.9034C65.6439 76.6232 66.7241 74.1134 68.0991 71.7133C70.8599 66.8942 74.7618 62.5965 79.0488 61.4042ZM80.6771 61.9581C80.5143 61.145 79.726 60.5593 78.8796 60.7947C74.3451 62.0558 70.3343 66.5397 67.5508 71.3986C66.1536 73.8374 65.0539 76.3907 64.3439 78.7187C63.636 81.0397 63.3071 83.1641 63.4769 84.7357C63.7546 87.3065 64.9056 90.5938 66.2156 93.6383C67.5077 96.6415 68.9677 99.4383 69.9382 101.132C69.8842 102.161 69.8541 103.671 69.9349 104.976C69.9764 105.647 70.048 106.278 70.1654 106.764C70.2239 107.007 70.2973 107.229 70.3929 107.407C70.4845 107.577 70.6239 107.757 70.8397 107.829C71.0121 107.887 71.3022 107.92 71.6383 107.941C71.9879 107.962 72.4265 107.973 72.9209 107.973C73.9103 107.973 75.1358 107.93 76.3447 107.845C77.552 107.759 78.7515 107.63 79.6857 107.457C80.1515 107.37 80.5625 107.271 80.8792 107.156C81.0372 107.098 81.1817 107.033 81.3007 106.958C81.4149 106.887 81.5354 106.787 81.6048 106.648C81.6381 106.582 81.6615 106.498 81.6797 106.422C81.6996 106.339 81.7192 106.238 81.7388 106.122C81.7781 105.89 81.8196 105.585 81.8627 105.217C81.9491 104.482 82.0438 103.486 82.1423 102.309C82.3394 99.9554 82.5523 96.8704 82.7439 93.6856C83.1265 87.3248 83.4258 80.5349 83.3399 78.3859C83.2135 75.2225 81.6332 66.7329 80.6771 61.9581Z" fill="#032068"/>
<path d="M81.0886 101.442C82.1576 100.98 82.6498 99.7381 82.188 98.6681L78.8351 90.9001C78.3733 89.8301 77.1323 89.3374 76.0633 89.7997L64.6669 94.7272C63.5979 95.1894 63.1057 96.4315 63.5675 97.5015L66.9203 105.27C67.3821 106.34 68.6231 106.832 69.6921 106.37L81.0886 101.442Z" fill="white"/>
<path fill-rule="evenodd" clip-rule="evenodd" d="M81.2137 101.732C82.443 101.2 83.009 99.7722 82.4779 98.5418L79.1251 90.7737C78.594 89.5434 77.1671 88.9769 75.9378 89.5084L64.5414 94.436C63.3122 94.9675 62.7461 96.3957 63.2772 97.626L66.63 105.394C67.1611 106.624 68.5881 107.191 69.8173 106.659L81.2137 101.732ZM81.8977 98.7927C82.2903 99.7023 81.8718 100.758 80.963 101.151L69.5666 106.079C68.6578 106.472 67.6029 106.053 67.2103 105.143L63.8574 97.3752C63.4648 96.4656 63.8833 95.4097 64.7921 95.0167L76.1885 90.0892C77.0973 89.6962 78.1522 90.1151 78.5448 91.0246L81.8977 98.7927Z" fill="#032068"/>
<path d="M64.642 78.5703C65.72 80.2739 67.3653 84.9756 65.3228 90.1544C64.3016 88.2237 62.7357 83.2039 64.642 78.5703Z" fill="#032068"/>
<path d="M108.385 85.2146C106.739 84.8171 102.598 84.5673 99.1935 86.7478C100.555 88.281 104.3 90.1209 108.385 85.2146Z" fill="#032068"/>
<path d="M97.4916 76.1875C97.8321 79.2539 98.1725 83.172 98.3427 86.068C99.1596 87.022 101.179 87.9419 102.087 88.2826C99.7724 85.6932 98.5129 79.9353 97.4916 76.1875Z" fill="#032068"/>
<path d="M77.8964 102.298C77.7602 101.889 76.3645 100.538 75.6837 99.9132C74.2653 99.7429 71.5306 99.9132 71.9391 101.957C72.4497 104.513 72.9604 106.557 75.6837 105.705C77.8624 105.024 77.6127 103.604 77.2155 102.98C77.4992 102.923 78.0325 102.707 77.8964 102.298Z" fill="white"/>
<path fill-rule="evenodd" clip-rule="evenodd" d="M71.8977 100.564C71.6165 100.947 71.5122 101.434 71.6291 102.019C71.7566 102.658 71.8869 103.278 72.054 103.832C72.2207 104.385 72.4302 104.892 72.7269 105.296C73.0284 105.707 73.422 106.012 73.9434 106.145C74.4576 106.276 75.0628 106.231 75.7779 106.007C76.9297 105.647 77.5165 105.064 77.7174 104.415C77.8585 103.958 77.7943 103.514 77.66 103.165C77.7427 103.127 77.8254 103.081 77.901 103.025C78.0039 102.949 78.1108 102.843 78.1755 102.699C78.2439 102.546 78.2547 102.374 78.1961 102.198C78.1649 102.105 78.1082 102.01 78.0513 101.926C77.9912 101.837 77.916 101.74 77.8321 101.639C77.6642 101.436 77.4494 101.203 77.2214 100.967C76.7647 100.494 76.2407 99.9952 75.8971 99.68L75.8222 99.6112L75.7212 99.5991C74.9896 99.5112 73.8976 99.5069 73.0241 99.8054C72.5852 99.9554 72.1711 100.192 71.8977 100.564ZM75.5457 100.216C74.8658 100.146 73.939 100.161 73.2284 100.404C72.8573 100.531 72.5757 100.709 72.4069 100.939C72.2459 101.158 72.1616 101.458 72.2489 101.895C72.3767 102.535 72.5018 103.128 72.6591 103.649C72.8168 104.172 73.001 104.601 73.2361 104.922C73.4665 105.235 73.7431 105.441 74.0993 105.532C74.4629 105.624 74.9427 105.605 75.5893 105.403C76.6162 105.082 76.9939 104.614 77.1135 104.227C77.2387 103.823 77.1134 103.408 76.9488 103.149L76.7012 102.76L77.1534 102.669C77.2689 102.646 77.4242 102.591 77.5256 102.516C77.5744 102.48 77.593 102.453 77.5989 102.439C77.599 102.439 77.5991 102.439 77.5992 102.439C77.6015 102.434 77.6055 102.425 77.5964 102.398C77.5964 102.398 77.5961 102.397 77.5955 102.396C77.5948 102.394 77.5938 102.392 77.5924 102.389C77.5895 102.382 77.5854 102.374 77.5795 102.363C77.5677 102.342 77.551 102.315 77.5287 102.282C77.4838 102.216 77.4222 102.135 77.3455 102.043C77.1922 101.858 76.9899 101.637 76.7669 101.406C76.3537 100.978 75.8811 100.526 75.5457 100.216Z" fill="#032068"/>
<path d="M84.4301 121.666L86.0256 112.41V121.666H84.4301Z" fill="white"/>
<path d="M82.1729 54.7213L82.0027 57.7877L81.8326 60.854C78.701 60.7177 76.1024 62.16 75.1946 62.8982C74.0032 57.958 78.0881 54.7213 78.0881 52.8474C78.0881 50.9735 78.9391 45.1815 84.7261 45.0112C89.0668 44.8834 90.2552 48.4396 90.3398 50.9901C90.3484 51.2495 90.1115 51.4403 89.8682 51.3504C88.7025 50.9198 87.2125 49.7219 86.3261 48.7805C86.0795 48.5187 85.5711 48.6024 85.4106 48.9243C85.001 49.7459 84.4016 50.5066 83.9723 51.0265C83.9094 51.1026 83.8753 51.1972 83.8734 51.2959C83.8643 51.779 83.814 52.4343 83.7364 53.0816C83.682 53.5356 83.0516 53.5339 82.909 53.0995C82.7488 52.6111 82.5554 52.144 82.3431 51.8253C81.6623 50.8032 80.6411 51.6549 80.6411 52.8474C80.6411 53.8014 81.6623 54.4942 82.1729 54.7213Z" fill="#032068"/>
<path d="M91.364 61.5355C90.6832 60.8541 89.9456 57.5038 89.662 55.9138C89.3896 57.2767 87.9599 58.2988 87.2791 58.6394L87.7897 60.6837C89.1514 60.6837 90.7399 61.2516 91.364 61.5355Z" fill="#032068"/>
<path d="M72.6282 101.48L75.0939 100.507C76.04 100.134 76.5851 99.1392 76.3935 98.1396C75.8618 95.3667 75.1826 91.725 74.6842 88.8086L66.174 92.5385C67.1272 95.1279 68.954 98.728 69.7483 100.204L70.1501 100.757C70.7153 101.535 71.7342 101.832 72.6282 101.48Z" fill="white"/>
<path d="M74.0035 84.0216C74.0035 82.5225 76.6701 78.116 77.9182 75.5039C75.1765 83.6631 75.0169 85.5794 76.2933 97.716C75.4956 93.7237 74.0035 84.7369 74.0035 84.0216Z" fill="#032068"/>
<path d="M84.5896 58.5938C85.7384 59.1048 86.8765 58.8067 87.302 58.5938L87.6211 60.1907C86.0894 60.1907 84.9619 59.1261 84.5896 58.5938Z" fill="#032068"/>
</svg>
