<svg width="40" height="40" viewBox="0 0 40 40" fill="none" xmlns="http://www.w3.org/2000/svg">
<circle cx="20" cy="20" r="20" fill="#4C4C4C"/>
<path d="M25.0449 24.4453L24.4844 28H12.8359L13.3281 24.8281L19.4121 18.252C19.7493 17.86 20.0911 17.4271 20.4375 16.9531C20.7839 16.4701 21.0892 15.9688 21.3535 15.4492C21.627 14.9206 21.7956 14.3919 21.8594 13.8633C21.9049 13.5807 21.9414 13.2435 21.9688 12.8516C21.9961 12.4505 21.946 12.0996 21.8184 11.7988C21.6999 11.4889 21.4219 11.3294 20.9844 11.3203C20.4831 11.293 20.1003 11.4707 19.8359 11.8535C19.5807 12.2363 19.403 12.6829 19.3027 13.1934C19.2116 13.6947 19.1478 14.123 19.1113 14.4785L14.7363 14.5059C14.791 13.3118 15.11 12.2044 15.6934 11.1836C16.2858 10.1536 17.0697 9.32878 18.0449 8.70898C19.0202 8.08008 20.1367 7.77474 21.3945 7.79297C22.5339 7.8112 23.4909 8.06185 24.2656 8.54492C25.0495 9.02799 25.6283 9.69336 26.002 10.541C26.3757 11.3887 26.5169 12.373 26.4258 13.4941C26.3438 14.3327 26.1387 15.1165 25.8105 15.8457C25.4824 16.5749 25.0723 17.2585 24.5801 17.8965C24.0879 18.5345 23.5592 19.1497 22.9941 19.7422C22.429 20.3346 21.8822 20.918 21.3535 21.4922L19.2207 24.418L25.0449 24.4453Z" fill="#F9CB36"/>
</svg>
