<svg width="40" height="40" viewBox="0 0 40 40" fill="none" xmlns="http://www.w3.org/2000/svg">
<circle cx="20" cy="20" r="20" fill="#4C4C4C"/>
<path d="M18.2227 17.1328L19.9727 17.1465C20.474 17.1283 20.8704 16.9915 21.1621 16.7363C21.4629 16.472 21.6816 16.1393 21.8184 15.7383C21.9642 15.3281 22.0599 14.9043 22.1055 14.4668C22.1328 14.2116 22.1283 13.9154 22.0918 13.5781C22.0553 13.2409 21.9551 12.9492 21.791 12.7031C21.627 12.457 21.3672 12.334 21.0117 12.334C20.6654 12.3158 20.3874 12.4115 20.1777 12.6211C19.9681 12.8307 19.804 13.0814 19.6855 13.373C19.5671 13.6647 19.4805 13.9427 19.4258 14.207L15.0234 14.2344C15.069 13.1497 15.3743 12.1973 15.9395 11.377C16.5137 10.5566 17.2474 9.91862 18.1406 9.46289C19.043 9.00716 20.0273 8.78385 21.0938 8.79297C22.2057 8.82031 23.181 9.06641 24.0195 9.53125C24.8581 9.98698 25.5052 10.6341 25.9609 11.4727C26.4258 12.3021 26.6263 13.2773 26.5625 14.3984C26.526 15.1641 26.3438 15.8613 26.0156 16.4902C25.6875 17.1191 25.25 17.6523 24.7031 18.0898C24.1654 18.5273 23.5592 18.8691 22.8848 19.1152C22.2103 19.3613 21.4993 19.4844 20.752 19.4844L17.8398 19.4707L18.2227 17.1328ZM17.6621 20.5508L18.0312 18.2539L20.4922 18.2676C21.2578 18.2949 21.9505 18.4225 22.5703 18.6504C23.1901 18.8783 23.7188 19.2064 24.1562 19.6348C24.5938 20.0632 24.9173 20.5872 25.127 21.207C25.3366 21.8177 25.4232 22.515 25.3867 23.2988C25.3411 24.2194 25.1224 25.0534 24.7305 25.8008C24.3385 26.5391 23.819 27.1725 23.1719 27.7012C22.5339 28.2207 21.8092 28.6172 20.998 28.8906C20.1868 29.1641 19.3438 29.2962 18.4688 29.2871C17.612 29.2689 16.8555 29.1094 16.1992 28.8086C15.543 28.4987 14.9915 28.0794 14.5449 27.5508C14.0983 27.0221 13.7611 26.4115 13.5332 25.7188C13.3053 25.0169 13.1914 24.265 13.1914 23.4629L17.5664 23.4492C17.5846 23.7318 17.6211 24.0508 17.6758 24.4062C17.7305 24.7526 17.849 25.0534 18.0312 25.3086C18.2135 25.5638 18.4915 25.696 18.8652 25.7051C19.3118 25.7233 19.6855 25.6003 19.9863 25.3359C20.2962 25.0716 20.5423 24.7435 20.7246 24.3516C20.9069 23.9596 21.0254 23.5768 21.0801 23.2031C21.1348 22.8112 21.1576 22.4193 21.1484 22.0273C21.1484 21.6263 21.0527 21.2891 20.8613 21.0156C20.6699 20.7422 20.3281 20.5918 19.8359 20.5645L17.6621 20.5508Z" fill="#F9CB36"/>
</svg>
