<svg width="18" height="18" viewBox="0 0 18 18" fill="none" xmlns="http://www.w3.org/2000/svg">
<g id="Arhives_alt_light">
<path id="Rectangle 1" d="M14.7779 0.740753V0.740753C15.3428 0.740753 15.6252 0.740753 15.8568 0.803601C16.4734 0.970961 16.9551 1.45265 17.1225 2.06926C17.1853 2.30082 17.1853 2.58327 17.1853 3.14816V14.2311C17.1853 15.2392 17.1853 15.7433 16.9891 16.1283C16.8166 16.467 16.5412 16.7424 16.2025 16.9149C15.8175 17.1111 15.3134 17.1111 14.3053 17.1111H3.69494C2.68685 17.1111 2.1828 17.1111 1.79776 16.9149C1.45907 16.7424 1.1837 16.467 1.01113 16.1283C0.814941 15.7433 0.814941 15.2392 0.814941 14.2311V3.14816C0.814941 2.58327 0.814941 2.30082 0.87779 2.06926C1.04515 1.45265 1.52684 0.970961 2.14345 0.803601C2.37501 0.740753 2.65745 0.740753 3.22235 0.740753V0.740753" stroke="#374761"/>
<path id="Rectangle 2" d="M17.1853 10.3704H14.775C14.0793 10.3704 13.7314 10.3704 13.4695 10.5591C13.2076 10.7479 13.0976 11.0779 12.8776 11.7379L12.8263 11.8917C12.6063 12.5517 12.4963 12.8817 12.2344 13.0705C11.9726 13.2593 11.6247 13.2593 10.929 13.2593H7.07128C6.37555 13.2593 6.02769 13.2593 5.76581 13.0705C5.50392 12.8817 5.39391 12.5517 5.17391 11.8917L5.12264 11.7379C4.90264 11.0779 4.79263 10.7479 4.53074 10.5591C4.26886 10.3704 3.921 10.3704 3.22527 10.3704H0.814941M13.0125 11.3333H4.98778" stroke="#374761"/>
<path id="Rectangle 3" d="M17.1853 5.55554H14.775C14.0793 5.55554 13.7314 5.55554 13.4695 5.7443C13.2076 5.93306 13.0976 6.26307 12.8776 6.92309L12.8263 7.07689C12.6063 7.73691 12.4963 8.06692 12.2344 8.25567C11.9726 8.44443 11.6247 8.44443 10.929 8.44443H7.07128C6.37555 8.44443 6.02769 8.44443 5.76581 8.25567C5.50392 8.06692 5.39391 7.73691 5.17391 7.07689L5.12264 6.92309C4.90264 6.26307 4.79263 5.93306 4.53074 5.7443C4.26886 5.55554 3.921 5.55554 3.22527 5.55554H0.814941M13.0125 6.5185H4.98778" stroke="#374761"/>
<path id="Rectangle 4" d="M15.2592 0.740753H14.7748C14.0791 0.740753 13.7313 0.740753 13.4694 0.929511C13.2075 1.11827 13.0975 1.44828 12.8775 2.1083L12.8262 2.2621C12.6062 2.92212 12.4962 3.25213 12.2343 3.44088C11.9724 3.62964 11.6246 3.62964 10.9288 3.62964H7.07113C6.37541 3.62964 6.02755 3.62964 5.76566 3.44088C5.50377 3.25213 5.39377 2.92212 5.17376 2.2621L5.1225 2.1083C4.90249 1.44828 4.79249 1.11827 4.5306 0.929511C4.26871 0.740753 3.92085 0.740753 3.22513 0.740753H2.74072M13.0123 1.70372H4.98764" stroke="#374761"/>
</g>
</svg>
