<svg width="20" height="22" viewBox="0 0 20 22" fill="none" xmlns="http://www.w3.org/2000/svg">
<g id="Book_duotone_line">
<path id="Vector 57" d="M15 15.7383H5.94816C4.41663 15.7383 3.65086 15.7383 3.0037 16.0721C2.93764 16.1062 2.87286 16.1427 2.80951 16.1816C2.18893 16.5626 1.79262 17.2179 1 18.5283V5.23016C1 3.34455 1 2.40174 1.58579 1.81595C2.17157 1.23016 3.11438 1.23016 5 1.23016H15C16.8856 1.23016 17.8284 1.23016 18.4142 1.81595C19 2.40174 19 3.34454 19 5.23016V11.7383C19 13.6239 19 14.5667 18.4142 15.1525C17.8284 15.7383 16.8856 15.7383 15 15.7383Z" fill="#7E869E" fill-opacity="0.25"/>
<path id="Vector 58" d="M19 11.2743V17.3184C19 19.204 19 20.1468 18.4142 20.7326C17.8284 21.3184 16.8856 21.3184 15 21.3184H3.79003C2.24914 21.3184 1 20.0692 1 18.5283V18.5283C1 16.9874 2.24914 15.7383 3.79003 15.7383H15C16.8856 15.7383 17.8284 15.7383 18.4142 15.1525C19 14.5667 19 13.6239 19 11.7383V5.23016C19 3.34454 19 2.40174 18.4142 1.81595C17.8284 1.23016 16.8856 1.23016 15 1.23016H5C3.11438 1.23016 2.17157 1.23016 1.58579 1.81595C1 2.40174 1 3.34455 1 5.23016V18.5283" stroke="#374761" stroke-width="1.2"/>
<path id="Vector 55" d="M6.625 6.81021L13.375 6.81021" stroke="#374761" stroke-width="1.2" stroke-linecap="round"/>
</g>
</svg>
