<svg width="20" height="20" viewBox="0 0 20 20" fill="none" xmlns="http://www.w3.org/2000/svg">
<g id="Play Square">
<g id="Vector">
<path d="M11.4211 7.27915C12.8719 8.17204 13.5973 8.61848 13.8407 9.20133C14.0531 9.70972 14.0531 10.2903 13.8407 10.7987C13.5973 11.3815 12.8719 11.828 11.4211 12.7208C9.97022 13.6137 9.24481 14.0602 8.64955 13.9935C8.13034 13.9353 7.65868 13.645 7.35181 13.1948C7 12.6786 7 11.7858 7 10C7 8.21423 7 7.32135 7.35181 6.80519C7.65868 6.35497 8.13034 6.06469 8.64955 6.00652C9.24481 5.93983 9.97022 6.38627 11.4211 7.27915Z" stroke="#2D264B" stroke-width="1.5"/>
<path d="M1 10C1 6.25027 1 4.3754 1.95491 3.06107C2.26331 2.6366 2.6366 2.26331 3.06107 1.95491C4.3754 1 6.25027 1 10 1C13.7497 1 15.6246 1 16.9389 1.95491C17.3634 2.26331 17.7367 2.6366 18.0451 3.06107C19 4.3754 19 6.25027 19 10C19 13.7497 19 15.6246 18.0451 16.9389C17.7367 17.3634 17.3634 17.7367 16.9389 18.0451C15.6246 19 13.7497 19 10 19C6.25027 19 4.3754 19 3.06107 18.0451C2.6366 17.7367 2.26331 17.3634 1.95491 16.9389C1 15.6246 1 13.7497 1 10Z" stroke="#2D264B" stroke-width="1.5"/>
</g>
</g>
</svg>
