<svg width="20" height="21" viewBox="0 0 20 21" fill="none" xmlns="http://www.w3.org/2000/svg">
    <path fill-rule="evenodd" clip-rule="evenodd" d="M14.6385 0C17.1792 0 19.2479 2.06771 19.2479 4.60938V16.2125C19.2479 18.7604 17.174 20.8333 14.6271 20.8333H9.53854C6.99792 20.8333 4.93021 18.7656 4.93021 16.224V15.2427C4.93021 14.8115 5.28021 14.4615 5.71146 14.4615C6.14271 14.4615 6.49271 14.8115 6.49271 15.2427V16.224C6.49271 17.9031 7.85937 19.2708 9.53854 19.2708H14.6271C16.3135 19.2708 17.6854 17.9 17.6854 16.2125V4.60938C17.6854 2.93021 16.3177 1.5625 14.6385 1.5625H9.55C7.86458 1.5625 6.49271 2.93333 6.49271 4.61875V5.59063C6.49271 6.02188 6.14271 6.37188 5.71146 6.37188C5.28021 6.37188 4.93021 6.02188 4.93021 5.59063V4.61875C4.93021 2.07188 7.00313 0 9.55 0H14.6385ZM10.8253 6.82604L13.8763 9.86432C13.901 9.88907 13.9241 9.91547 13.9454 9.94333L13.8764 9.86354C13.9179 9.90455 13.9543 9.94984 13.9852 9.99837C13.9915 10.0105 13.9986 10.0224 14.0054 10.0345C14.0173 10.0531 14.0274 10.073 14.0365 10.0932C14.0417 10.1075 14.0477 10.1218 14.0533 10.1362C14.0622 10.156 14.0691 10.1764 14.0751 10.197C14.0786 10.2132 14.0828 10.2294 14.0864 10.2458C14.0921 10.2657 14.0958 10.2857 14.0987 10.3058C14.0987 10.315 14.0999 10.3246 14.1009 10.3343C14.1051 10.3618 14.1066 10.3891 14.1066 10.4167L14.099 10.499L14.0981 10.5226C14.0978 10.5244 14.0976 10.5262 14.0973 10.5279L14.1066 10.4167C14.1066 10.4745 14.1002 10.5317 14.0877 10.5874C14.0828 10.6039 14.0786 10.6201 14.0739 10.6361C14.0691 10.657 14.0622 10.6773 14.0545 10.6973C14.0477 10.7116 14.0417 10.7258 14.0353 10.7399C14.0274 10.7604 14.0173 10.7802 14.0064 10.7996C13.9986 10.8109 13.9915 10.8228 13.9841 10.8345C13.9729 10.8543 13.9597 10.8732 13.9456 10.8915C13.936 10.9023 13.927 10.9134 13.9178 10.9242C13.9053 10.9401 13.8911 10.9552 13.8764 10.9698L10.8253 14.0063C10.6732 14.1583 10.4732 14.2344 10.2743 14.2344C10.0743 14.2344 9.87323 14.1583 9.72115 14.0042C9.41594 13.6979 9.41802 13.2042 9.72323 12.9L11.4323 11.1979H0.78125C0.35 11.1979 0 10.8479 0 10.4167C0 9.98542 0.35 9.63542 0.78125 9.63542H11.4323L9.72323 7.93229C9.41802 7.62813 9.41594 7.13438 9.72115 6.82813C10.0264 6.52188 10.5201 6.52188 10.8253 6.82604Z" fill="#F24822"/>
    </svg>
    