<svg width="23" height="23" viewBox="0 0 23 23" fill="none" xmlns="http://www.w3.org/2000/svg">
    <path d="M7.66667 5.7508L20.125 5.75149M7.66667 11.5008L20.125 11.5016M7.66667 17.2508L20.125 17.2516M3.35417 5.75016H3.36375M3.35417 11.5002H3.36375M3.35417 17.2502H3.36375M3.83333 5.75016C3.83333 6.0148 3.6188 6.22933 3.35417 6.22933C3.08953 6.22933 2.875 6.0148 2.875 5.75016C2.875 5.48553 3.08953 5.271 3.35417 5.271C3.6188 5.271 3.83333 5.48553 3.83333 5.75016ZM3.83333 11.5002C3.83333 11.7648 3.6188 11.9793 3.35417 11.9793C3.08953 11.9793 2.875 11.7648 2.875 11.5002C2.875 11.2356 3.08953 11.021 3.35417 11.021C3.6188 11.021 3.83333 11.2356 3.83333 11.5002ZM3.83333 17.2502C3.83333 17.5148 3.6188 17.7293 3.35417 17.7293C3.08953 17.7293 2.875 17.5148 2.875 17.2502C2.875 16.9856 3.08953 16.771 3.35417 16.771C3.6188 16.771 3.83333 16.9856 3.83333 17.2502Z" stroke="#C4C4C4" stroke-width="1.91667" stroke-linecap="round" stroke-linejoin="round"/>
    </svg>
    