<svg width="98" height="98" viewBox="0 0 98 98" fill="none" xmlns="http://www.w3.org/2000/svg">
<mask id="mask0_1156_3305" style="mask-type:alpha" maskUnits="userSpaceOnUse" x="8" y="20" width="82" height="58">
<path fill-rule="evenodd" clip-rule="evenodd" d="M48.9592 32.668C48.9592 39.4463 43.5284 44.918 36.7501 44.918C29.9717 44.918 24.5001 39.4463 24.5001 32.668C24.5001 25.8896 29.9717 20.418 36.7501 20.418C43.5284 20.418 48.9592 25.8896 48.9592 32.668ZM77.5426 38.793C77.5426 44.428 73.0101 49.0013 67.3751 49.0013C61.7401 49.0013 57.1668 44.428 57.1668 38.793C57.1668 33.158 61.7401 28.5846 67.3751 28.5846C73.0101 28.5846 77.5426 33.158 77.5426 38.793ZM67.3751 57.168C59.9026 57.168 44.9168 60.9246 44.9168 68.3971V73.5013C44.9168 75.7471 46.7543 77.5846 49.0001 77.5846H85.7501C87.9959 77.5846 89.8334 75.7471 89.8334 73.5013V68.3971C89.8334 60.9246 74.8476 57.168 67.3751 57.168ZM8.16675 67.3763C8.16675 57.8621 27.2359 53.0846 36.7501 53.0846C39.4451 53.0846 42.8751 53.493 46.4276 54.228C38.0976 58.8421 36.7501 64.9263 36.7501 68.3971V77.5846H12.2501C10.0042 77.5846 8.16675 75.7471 8.16675 73.5013V67.3763Z" fill="black"/>
</mask>
<g mask="url(#mask0_1156_3305)">
<rect width="98" height="98" fill="#4E85D8"/>
</g>
</svg>
