<svg width="98" height="100" viewBox="0 0 98 100" fill="none" xmlns="http://www.w3.org/2000/svg">
<g id="Group 35720">
<rect id="Rectangle 155" width="69.2599" height="1.41042" rx="0.705208" transform="matrix(0.701644 -0.712528 0.700795 0.713363 0 49.4531)" fill="#4E85D8"/>
<rect id="Rectangle 158" width="69.4802" height="1.41042" rx="0.705208" transform="matrix(0.700795 0.713363 0.701644 -0.712528 0.00927734 49.4727)" fill="#4E85D8"/>
<rect id="Rectangle 157" width="69.4898" height="1.41042" rx="0.705208" transform="matrix(-0.700795 -0.713363 -0.701644 0.712528 97.4099 49.5703)" fill="#4E85D8"/>
<rect id="Rectangle 159" width="69.3385" height="1.41042" rx="0.705208" transform="matrix(-0.701644 0.712528 -0.700795 -0.713363 97.4084 49.5703)" fill="#4E85D8"/>
<rect id="Rectangle 161" x="14.5693" y="14.7617" width="68.3307" height="1.47816" rx="0.739078" transform="rotate(0.0341166 14.5693 14.7617)" fill="#4E85D8"/>
<rect id="Rectangle 162" x="14.5273" y="84.2383" width="68.3307" height="1.47816" rx="0.739078" transform="rotate(0.0341166 14.5273 84.2383)" fill="#4E85D8"/>
<rect id="Rectangle 163" x="14.5266" y="85.7188" width="70.9515" height="1.45385" rx="0.726923" transform="rotate(-89.9659 14.5266 85.7188)" fill="#4E85D8"/>
<rect id="Rectangle 165" width="96.0563" height="1.41042" rx="0.705208" transform="matrix(0.701644 -0.712528 0.700795 0.713363 14.3135 83.6367)" fill="url(#paint0_linear_1156_3380)"/>
<rect id="Rectangle 166" width="96.0563" height="1.41042" rx="0.705208" transform="matrix(-0.700795 -0.713363 0.701644 -0.712528 82.3606 84.7852)" fill="url(#paint1_linear_1156_3380)"/>
<rect id="Rectangle 167" x="95.9639" y="50.2852" width="94.5" height="1.47816" rx="0.739078" transform="rotate(-179.966 95.9639 50.2852)" fill="url(#paint2_linear_1156_3380)"/>
<rect id="Rectangle 168" x="49.4697" y="1.48047" width="96.0801" height="1.45385" rx="0.726923" transform="rotate(90.0341 49.4697 1.48047)" fill="url(#paint3_linear_1156_3380)"/>
<rect id="Rectangle 164" x="81.4038" y="85.7539" width="70.9515" height="1.45385" rx="0.726923" transform="rotate(-89.9659 81.4038 85.7539)" fill="#4E85D8"/>
</g>
<defs>
<linearGradient id="paint0_linear_1156_3380" x1="48.1852" y1="0.526109" x2="85.0859" y2="0.526108" gradientUnits="userSpaceOnUse">
<stop stop-color="#4E85D8"/>
<stop offset="1" stop-color="#37C7F4" stop-opacity="0"/>
</linearGradient>
<linearGradient id="paint1_linear_1156_3380" x1="48.1852" y1="0.526109" x2="85.0859" y2="0.526108" gradientUnits="userSpaceOnUse">
<stop stop-color="#4E85D8"/>
<stop offset="1" stop-color="#37C7F4" stop-opacity="0"/>
</linearGradient>
<linearGradient id="paint2_linear_1156_3380" x1="143.368" y1="50.8365" x2="187.69" y2="51.219" gradientUnits="userSpaceOnUse">
<stop stop-color="#4E85D8"/>
<stop offset="1" stop-color="#37C7F4" stop-opacity="0"/>
</linearGradient>
<linearGradient id="paint3_linear_1156_3380" x1="97.6669" y1="2.02274" x2="139.994" y2="1.96841" gradientUnits="userSpaceOnUse">
<stop stop-color="#4E85D8"/>
<stop offset="1" stop-color="#37C7F4" stop-opacity="0"/>
</linearGradient>
</defs>
</svg>
