<svg width="89" height="89" viewBox="0 0 89 89" fill="none" xmlns="http://www.w3.org/2000/svg">
<mask id="mask0_1156_3304" style="mask-type:alpha" maskUnits="userSpaceOnUse" x="9" y="6" width="71" height="77">
<path fill-rule="evenodd" clip-rule="evenodd" d="M11.7553 22.3279L41.0512 6.90125C43.202 5.75167 45.7978 5.75167 47.9487 6.90125L77.2445 22.3279C78.7649 23.1067 79.7291 24.7012 79.7291 26.4071C79.7291 28.9658 77.6524 31.0425 75.1307 31.0425H13.9062C11.3474 31.0425 9.27075 28.9658 9.27075 26.4071C9.27075 24.7012 10.2349 23.1067 11.7553 22.3279ZM16.6874 44.0217V58.855C16.6874 61.9329 19.172 64.4175 22.2499 64.4175C25.3278 64.4175 27.8124 61.9329 27.8124 58.855V44.0217C27.8124 40.9438 25.3278 38.4592 22.2499 38.4592C19.172 38.4592 16.6874 40.9438 16.6874 44.0217ZM38.9374 44.0217V58.855C38.9374 61.9329 41.422 64.4175 44.4999 64.4175C47.5778 64.4175 50.0624 61.9329 50.0624 58.855V44.0217C50.0624 40.9438 47.5778 38.4592 44.4999 38.4592C41.422 38.4592 38.9374 40.9438 38.9374 44.0217ZM79.7291 77.3967C79.7291 80.4746 77.2445 82.9592 74.1666 82.9592H14.8333C11.7553 82.9592 9.27075 80.4746 9.27075 77.3967C9.27075 74.3187 11.7553 71.8342 14.8333 71.8342H74.1666C77.2445 71.8342 79.7291 74.3187 79.7291 77.3967ZM61.1874 44.0217V58.855C61.1874 61.9329 63.672 64.4175 66.7499 64.4175C69.8278 64.4175 72.3124 61.9329 72.3124 58.855V44.0217C72.3124 40.9438 69.8278 38.4592 66.7499 38.4592C63.672 38.4592 61.1874 40.9438 61.1874 44.0217Z" fill="black"/>
</mask>
<g mask="url(#mask0_1156_3304)">
<rect width="89" height="89" fill="#4E85D8"/>
</g>
</svg>
