<svg width="46" height="35" viewBox="0 0 46 35" fill="none" xmlns="http://www.w3.org/2000/svg">
<g clip-path="url(#clip0_2069_567)">
<path d="M0.310547 0.474152H15.4182V34.4717H0.310547V0.474152Z" fill="#007A5E"/>
<path d="M15.4182 0.474152H30.5329V34.4717H15.4182V0.474152Z" fill="#CE1126"/>
<path d="M30.533 0.474152H45.6406V34.4717H30.533V0.474152Z" fill="#FCD116"/>
<path d="M22.9757 13.4436L21.7166 17.2714L23.6305 17.9262L22.9757 13.4436Z" fill="#FCD116"/>
<path d="M22.9757 13.4436L24.2349 17.2714L22.3209 17.9262L22.9757 13.4436Z" fill="#FCD116"/>
<path d="M26.8078 16.2278L22.7782 16.2131L22.7469 18.2357L26.8078 16.2278Z" fill="#FCD116"/>
<path d="M26.8079 16.2278L23.5565 18.6082L22.3424 16.9903L26.8079 16.2278Z" fill="#FCD116"/>
<path d="M25.3441 20.7327L24.1128 16.8958L22.1796 17.491L25.3441 20.7327Z" fill="#FCD116"/>
<path d="M25.3441 20.7327L22.0755 18.376L23.239 16.7213L25.3441 20.7327Z" fill="#FCD116"/>
<path d="M20.6073 20.7327L23.8759 18.376L22.7124 16.7213L20.6073 20.7327Z" fill="#FCD116"/>
<path d="M20.6073 20.7327L21.8386 16.8958L23.7718 17.491L20.6073 20.7327Z" fill="#FCD116"/>
<path d="M19.1435 16.2278L22.3949 18.6082L23.6091 16.9902L19.1435 16.2278Z" fill="#FCD116"/>
<path d="M19.1436 16.2277L23.1732 16.2131L23.2045 18.2357L19.1436 16.2277Z" fill="#FCD116"/>
</g>
<defs>
<clipPath id="clip0_2069_567">
<rect width="45.33" height="33.9975" fill="white" transform="translate(0.310547 0.474152)"/>
</clipPath>
</defs>
</svg>
