<svg width="46" height="35" viewBox="0 0 46 35" fill="none" xmlns="http://www.w3.org/2000/svg">
<g clip-path="url(#clip0_2072_686)">
<path d="M0.310547 0.474152H45.6405V34.4717H0.310547V0.474152Z" fill="#D21034"/>
<path d="M0.310547 0.474152H45.6405V17.4729H0.310547V0.474152Z" fill="#00209F"/>
<path d="M17.6138 13.202H28.3371V21.7368H17.6138V13.202Z" fill="white"/>
<path d="M25.1357 19.3711L22.94 19.4419L20.7656 19.4632C20.7656 19.4632 19.6465 19.874 19.1862 19.9661C18.7329 20.0581 18.7895 20.2069 18.4425 20.2919C18.1591 20.3556 18.1237 20.3698 17.9608 20.3839C17.8546 20.3839 17.7342 20.4689 17.6067 20.5539V21.7368H28.3372V20.6106C28.2238 20.5468 28.1105 20.5043 27.9972 20.4689C27.8414 20.4123 27.7351 20.3556 27.4518 20.2919C27.0977 20.2139 27.1543 20.0581 26.701 19.9661C26.2406 19.874 25.1357 19.3711 25.1357 19.3711Z" fill="#016A16" stroke="#016A16" stroke-width="0.0375"/>
<path d="M22.3523 16.7363H22.5109L22.8056 17.9489L22.7376 18.3342L22.3523 16.7363Z" fill="#F1B517" stroke="black" stroke-width="0.04"/>
<path d="M22.1821 15.9203L22.2955 16.8609H22.4088L22.1821 15.9317V15.9203Z" fill="white" stroke="black" stroke-width="0.04"/>
<path d="M22.4883 17.9942L22.001 16.691L22.1823 16.6796L22.7489 18.2662L22.4883 17.9942Z" fill="#F1B517" stroke="black" stroke-width="0.04"/>
<path d="M21.7742 15.943L21.9782 16.8496H22.1368L21.7742 15.943Z" fill="white" stroke="black" stroke-width="0.04"/>
<path d="M22.0575 17.5409L21.7742 16.9176L21.8875 16.8949L22.4201 17.9149L22.0575 17.5409Z" fill="#F1B517" stroke="black" stroke-width="0.04"/>
<path d="M21.3889 16.2037L21.7176 17.0649H21.8762L21.4002 16.2037H21.3889Z" fill="white" stroke="black" stroke-width="0.04"/>
<path d="M22.1029 17.6316L20.7997 16.215C20.3917 16.5323 20.4711 17.1216 20.4711 17.1216L21.9443 18.2775L22.1029 17.6316Z" fill="#0A328C" stroke="black" stroke-width="0.04"/>
<path d="M22.8508 18.4022L21.8876 17.4276C21.4796 17.4502 21.7969 18.0509 21.8196 18.1302L22.8395 19.0028L22.8508 18.4022Z" fill="#D20014" stroke="black" stroke-width="0.04"/>
<path d="M22.7603 18.2435L20.7771 16.113L20.6977 16.1697L22.8056 18.5042L22.7603 18.2435ZM20.6637 15.977L20.6184 15.9203V15.8184L20.2104 15.5577L20.3918 15.977L20.5391 15.9997L20.5731 16.045L20.6637 15.977Z" fill="#F1B517" stroke="black" stroke-width="0.04"/>
<path d="M20.4482 16.1243C20.5317 16.0208 20.6359 15.9358 20.7542 15.875L20.8675 16.045L20.6182 16.249L20.4482 16.1357V16.1243Z" fill="#F1B517" stroke="black" stroke-width="0.04"/>
<path d="M20.2329 16.487L20.3009 16.6003C20.3462 16.589 20.7542 16.2037 20.7542 16.2037H21.0602L21.1395 16.1017C20.9129 15.875 20.7202 16.1357 20.7202 16.1357L20.2329 16.487Z" fill="#0A328C" stroke="#0A328C" stroke-width="0.04"/>
<path d="M20.4823 16.6796C20.4823 16.5663 20.6863 16.317 20.709 16.3056C20.8563 16.351 20.9923 16.4416 21.151 16.1017C21.015 16.2603 20.7543 16.1017 20.7543 16.1017L20.641 16.1923V16.2376L20.301 16.555L20.4823 16.6796Z" fill="#D20014" stroke="#D20014" stroke-width="0.04"/>
<path d="M21.5361 18.0055L19.9042 16.7136C19.6209 16.9969 19.8589 17.8695 19.8589 17.8695L21.4454 18.7308L21.5248 18.0055H21.5361Z" fill="#0A328C" stroke="black" stroke-width="0.04"/>
<path d="M22.8849 19.0594L21.5363 17.9715C21.083 18.0395 21.4456 18.7081 21.4683 18.7875L22.8849 19.5581V19.0594Z" fill="#D20014" stroke="black" stroke-width="0.04"/>
<path d="M22.8282 18.8328L19.9271 16.657L19.8704 16.725L22.9075 19.1048L22.8282 18.8328ZM19.7911 16.5436L19.7457 16.4983L19.7231 16.4077L19.2698 16.215L19.5304 16.589H19.6777L19.7231 16.6343L19.7911 16.5436Z" fill="#F1B517" stroke="black" stroke-width="0.04"/>
<path d="M19.6096 16.7249C19.6745 16.6093 19.7634 16.5088 19.8703 16.4303L20.0063 16.5776L19.8023 16.8156L19.6096 16.7249Z" fill="#F1B517" stroke="black" stroke-width="0.04"/>
<path d="M19.4624 17.0876V17.2123C19.5077 17.1896 19.8817 16.793 19.8817 16.793L20.165 16.7363L20.233 16.6456C20.029 16.4077 19.8137 16.725 19.8137 16.725L19.4624 17.0876Z" fill="#0A328C" stroke="#0A328C" stroke-width="0.04"/>
<path d="M19.6889 17.3029C19.6663 17.1896 19.8249 16.8723 19.8476 16.8496C20.0289 16.9063 20.1876 16.9856 20.2442 16.623C20.1309 16.8043 19.8476 16.6683 19.8476 16.6683L19.7569 16.7816V16.8383L19.4736 17.2122L19.6889 17.3029Z" fill="#D20014" stroke="#D20014" stroke-width="0.04"/>
<path d="M21.4115 18.7988C20.7111 18.4048 20.0123 18.0082 19.3149 17.6089C19.1676 17.8695 19.3036 18.2322 19.3716 18.2888C19.3716 18.4588 19.3036 18.5495 19.4509 18.9121C19.4963 19.1388 19.5983 19.3541 19.7569 19.4787C19.9382 20.204 20.6862 20.2607 20.9695 19.6601L21.4115 18.7988Z" fill="#0A328C" stroke="black" stroke-width="0.04"/>
<path d="M22.7828 19.5694L21.3662 18.7421C20.9129 18.7988 21.3662 19.6487 21.4002 19.7281L22.7828 20.2154V19.5694Z" fill="#D20014" stroke="black" stroke-width="0.04"/>
<path d="M22.5448 19.2634L19.3377 17.5636L19.2811 17.6316L22.6808 19.5241L22.5448 19.2634ZM19.1791 17.4729L19.1224 17.4389L19.0884 17.3482L18.6238 17.2349L18.9298 17.5636L19.0657 17.5409L19.1337 17.5749L19.1791 17.4729Z" fill="#F1B517" stroke="black" stroke-width="0.04"/>
<path d="M19.0317 17.6769C19.0771 17.5636 19.1224 17.4616 19.2357 17.3369L19.3944 17.4616L19.2357 17.7336L19.0317 17.6769Z" fill="#F1B517" stroke="black" stroke-width="0.04"/>
<path d="M18.907 18.0622L18.975 18.1982L19.315 17.6769L19.5983 17.5749L19.6549 17.4616C19.4283 17.2576 19.2583 17.6202 19.2583 17.6202L18.907 18.0622Z" fill="#0A328C" stroke="#0A328C" stroke-width="0.04"/>
<path d="M19.213 18.2435C19.1903 18.1302 19.2696 17.7676 19.2923 17.7562C19.4623 17.8129 19.6096 17.8242 19.6549 17.4616C19.5416 17.6316 19.281 17.5749 19.281 17.5749L19.2016 17.6882L19.213 17.7336L18.9863 18.1869L19.213 18.2435Z" fill="#D20014" stroke="#D20014" stroke-width="0.04"/>
<path d="M23.5876 16.7363H23.429L23.1343 17.9489L23.2023 18.3342L23.5876 16.7363Z" fill="#F1B517" stroke="black" stroke-width="0.04"/>
<path d="M23.7576 15.9203L23.6442 16.8609H23.5309L23.7576 15.9317V15.9203Z" fill="white" stroke="black" stroke-width="0.04"/>
<path d="M23.4514 17.9942L23.9387 16.691L23.7574 16.6796L23.1908 18.2662L23.4514 17.9942Z" fill="#F1B517" stroke="black" stroke-width="0.04"/>
<path d="M24.1655 15.943L23.9615 16.8496H23.8029L24.1655 15.943Z" fill="white" stroke="black" stroke-width="0.04"/>
<path d="M23.8822 17.5409L24.1655 16.9176L24.0522 16.8949L23.5196 17.9149L23.8822 17.5409Z" fill="#F1B517" stroke="black" stroke-width="0.04"/>
<path d="M24.5508 16.2037L24.2221 17.0649H24.0635L24.5394 16.2037H24.5508Z" fill="white" stroke="black" stroke-width="0.04"/>
<path d="M23.8368 17.6316L25.14 16.215C25.548 16.5323 25.4686 17.1216 25.4686 17.1216L23.9954 18.2775L23.8368 17.6316Z" fill="#0A328C" stroke="black" stroke-width="0.04"/>
<path d="M23.0889 18.4022L24.0521 17.4276C24.4601 17.4502 24.1428 18.0509 24.1201 18.1302L23.1002 19.0028L23.0889 18.4022Z" fill="#D20014" stroke="black" stroke-width="0.04"/>
<path d="M23.1794 18.2435L25.1626 16.113L25.242 16.1697L23.1341 18.5042L23.1794 18.2435ZM25.2759 15.977L25.3213 15.9203V15.8184L25.7292 15.5577L25.5479 15.977L25.4006 15.9997L25.3666 16.045L25.2759 15.977Z" fill="#F1B517" stroke="black" stroke-width="0.04"/>
<path d="M25.4915 16.1243C25.408 16.0208 25.3038 15.9358 25.1855 15.875L25.0722 16.045L25.3215 16.249L25.4915 16.1357V16.1243Z" fill="#F1B517" stroke="black" stroke-width="0.04"/>
<path d="M25.7068 16.487L25.6388 16.6003C25.5935 16.589 25.1855 16.2037 25.1855 16.2037H24.8795L24.8002 16.1017C25.0268 15.875 25.2195 16.1357 25.2195 16.1357L25.7068 16.487Z" fill="#0A328C" stroke="#0A328C" stroke-width="0.04"/>
<path d="M25.4574 16.6796C25.4574 16.5663 25.2534 16.317 25.2307 16.3056C25.0834 16.351 24.9474 16.4416 24.7887 16.1017C24.9247 16.2603 25.1854 16.1017 25.1854 16.1017L25.2987 16.1923V16.2376L25.6387 16.555L25.4574 16.6796Z" fill="#D20014" stroke="#D20014" stroke-width="0.04"/>
<path d="M24.4036 18.0055L26.0355 16.7136C26.3188 16.9969 26.0808 17.8695 26.0808 17.8695L24.4942 18.7308L24.4149 18.0055H24.4036Z" fill="#0A328C" stroke="black" stroke-width="0.04"/>
<path d="M23.0548 19.0594L24.4034 17.9715C24.8567 18.0395 24.4941 18.7081 24.4714 18.7875L23.0548 19.5581V19.0594Z" fill="#D20014" stroke="black" stroke-width="0.04"/>
<path d="M23.1115 18.8328L26.0126 16.657L26.0693 16.725L23.0322 19.1048L23.1115 18.8328ZM26.1486 16.5436L26.194 16.4983L26.2166 16.4077L26.6699 16.215L26.4093 16.589H26.262L26.2166 16.6343L26.1486 16.5436Z" fill="#F1B517" stroke="black" stroke-width="0.04"/>
<path d="M26.3301 16.7249C26.2652 16.6093 26.1763 16.5088 26.0694 16.4303L25.9334 16.5776L26.1374 16.8156L26.3301 16.7249Z" fill="#F1B517" stroke="black" stroke-width="0.04"/>
<path d="M26.4773 17.0876V17.2123C26.432 17.1896 26.058 16.793 26.058 16.793L25.7747 16.7363L25.7067 16.6456C25.9107 16.4077 26.126 16.725 26.126 16.725L26.4773 17.0876Z" fill="#0A328C" stroke="#0A328C" stroke-width="0.04"/>
<path d="M26.2507 17.3029C26.2734 17.1896 26.1148 16.8723 26.0921 16.8496C25.9108 16.9063 25.7521 16.9856 25.6955 16.623C25.8088 16.8043 26.0921 16.6683 26.0921 16.6683L26.1828 16.7816V16.8383L26.4661 17.2122L26.2507 17.3029Z" fill="#D20014" stroke="#D20014" stroke-width="0.04"/>
<path d="M24.5282 18.7988C25.2286 18.4048 25.9274 18.0082 26.6247 17.6089C26.7721 17.8695 26.6361 18.2322 26.5681 18.2888C26.5681 18.4588 26.6361 18.5495 26.4888 18.9121C26.4434 19.1388 26.3414 19.3541 26.1828 19.4787C26.0015 20.204 25.2535 20.2607 24.9702 19.6601L24.5282 18.7988Z" fill="#0A328C" stroke="black" stroke-width="0.04"/>
<path d="M23.1569 19.5694L24.5735 18.7421C25.0268 18.7988 24.5735 19.6487 24.5395 19.7281L23.1569 20.2154V19.5694Z" fill="#D20014" stroke="black" stroke-width="0.04"/>
<path d="M23.3949 19.2634L26.602 17.5636L26.6586 17.6316L23.2589 19.5241L23.3949 19.2634ZM26.7606 17.4729L26.8173 17.4389L26.8513 17.3482L27.3159 17.2349L27.0099 17.5636L26.874 17.5409L26.806 17.5749L26.7606 17.4729Z" fill="#F1B517" stroke="black" stroke-width="0.04"/>
<path d="M26.908 17.6769C26.8626 17.5636 26.8173 17.4616 26.704 17.3369L26.5453 17.4616L26.704 17.7336L26.908 17.6769Z" fill="#F1B517" stroke="black" stroke-width="0.04"/>
<path d="M27.0327 18.0622L26.9647 18.1982L26.6247 17.6769L26.3414 17.5749L26.2848 17.4616C26.5114 17.2576 26.6814 17.6202 26.6814 17.6202L27.0327 18.0622Z" fill="#0A328C" stroke="#0A328C" stroke-width="0.04"/>
<path d="M26.7267 18.2435C26.7494 18.1302 26.6701 17.7676 26.6474 17.7562C26.4774 17.8129 26.3301 17.8242 26.2848 17.4616C26.3981 17.6316 26.6587 17.5749 26.6587 17.5749L26.7381 17.6882L26.7267 17.7336L26.9534 18.1869L26.7267 18.2435Z" fill="#D20014" stroke="#D20014" stroke-width="0.04"/>
<path d="M22.8395 14.7078L22.7829 15.7277H23.1115L23.0662 14.7078L23.4062 14.6738L23.3722 14.2658L22.5222 14.2998V14.6624L22.8395 14.7078Z" fill="#016A16" stroke="#016A16" stroke-width="0.04"/>
<path d="M22.9529 14.2885C22.0689 13.4045 21.3776 13.8352 21.219 13.9598C21.3323 13.9825 21.423 13.9145 21.4796 13.9032L21.3663 14.0392C21.3663 14.0392 21.6496 13.9258 21.6836 13.9258C21.6383 13.9598 21.593 14.0392 21.593 14.0392C21.6156 14.0392 21.7743 13.9145 21.797 13.9145C21.7516 13.9598 21.7403 14.0845 21.7403 14.0845L21.8763 14.0278C21.9103 14.0505 21.8649 14.0958 21.8876 14.0958C22.1143 14.0732 22.4202 14.2885 22.4542 14.3565" fill="#016A16"/>
<path d="M22.9529 14.2885C22.0689 13.4045 21.3776 13.8352 21.219 13.9598C21.3323 13.9825 21.423 13.9145 21.4796 13.9032L21.3663 14.0392C21.3663 14.0392 21.6496 13.9258 21.6836 13.9258C21.6383 13.9598 21.593 14.0392 21.593 14.0392C21.6156 14.0392 21.7743 13.9145 21.797 13.9145C21.7516 13.9598 21.7403 14.0845 21.7403 14.0845L21.8763 14.0278C21.9103 14.0505 21.8649 14.0958 21.8876 14.0958C22.1143 14.0732 22.4202 14.2885 22.4542 14.3565" stroke="black" stroke-width="0.04"/>
<path d="M22.7375 14.4471C22.6468 14.2432 20.9696 13.8805 20.6296 14.4811C20.7656 14.5151 20.8903 14.3678 20.8903 14.3678V14.5038L21.1056 14.3225L21.0263 14.5038L21.1963 14.3565V14.5038L21.4229 14.2771L21.3889 14.4018L21.5816 14.3225L21.5589 14.4358" fill="#016A16"/>
<path d="M22.7375 14.4471C22.6468 14.2432 20.9696 13.8805 20.6296 14.4811C20.7656 14.5151 20.8903 14.3678 20.8903 14.3678V14.5038L21.1056 14.3225L21.0263 14.5038L21.1963 14.3565V14.5038L21.4229 14.2771L21.3889 14.4018L21.5816 14.3225L21.5589 14.4358" stroke="black" stroke-width="0.04"/>
<path d="M22.6582 14.4811C22.2276 14.1978 21.5703 14.3905 21.5703 14.3905C21.1397 14.6171 20.913 14.5831 20.8677 15.0251C20.9017 15.0138 21.015 14.8665 21.015 14.8665L21.1057 15.0364L21.1283 14.7985L21.1963 14.9911L21.3096 14.6738L21.3323 14.8891L21.491 14.6738L21.559 14.7418L21.627 14.5718L21.6949 14.6851C21.6949 14.6851 21.8083 14.6171 21.8649 14.6511L21.9783 14.5151L22.0123 14.6171L22.1256 14.5038L22.1596 14.5831L22.2616 14.4925V14.5605H22.6015" fill="#016A16"/>
<path d="M22.6582 14.4811C22.2276 14.1978 21.5703 14.3905 21.5703 14.3905C21.1397 14.6171 20.913 14.5831 20.8677 15.0251C20.9017 15.0138 21.015 14.8665 21.015 14.8665L21.1057 15.0364L21.1283 14.7985L21.1963 14.9911L21.3096 14.6738L21.3323 14.8891L21.491 14.6738L21.559 14.7418L21.627 14.5718L21.6949 14.6851C21.6949 14.6851 21.8083 14.6171 21.8649 14.6511L21.9783 14.5151L22.0123 14.6171L22.1256 14.5038L22.1596 14.5831L22.2616 14.4925V14.5605H22.6015" stroke="black" stroke-width="0.04"/>
<path d="M22.5674 14.5265C22.2614 14.5265 21.4001 14.8551 21.1848 15.1837C21.2326 15.1584 21.2818 15.1357 21.3321 15.1157L21.3661 15.2517L21.4228 15.1157L21.4341 15.2291C21.4681 15.1384 21.5021 15.1384 21.5701 15.2177L21.5928 15.0931L21.6268 15.2064L21.6834 15.0818C21.6834 15.0818 21.7174 15.2177 21.7401 15.2177C21.7401 15.2177 21.8308 14.9684 21.8761 14.9571L21.8874 15.1157L21.9441 14.9571L22.0008 15.0704V14.9118L22.0687 15.0251C22.0687 15.0251 22.0914 14.9118 22.1367 14.8891L22.2274 14.9684L22.6127 14.6851" fill="#016A16"/>
<path d="M22.5674 14.5265C22.2614 14.5265 21.4001 14.8551 21.1848 15.1837C21.2326 15.1584 21.2818 15.1357 21.3321 15.1157L21.3661 15.2517L21.4228 15.1157L21.4341 15.2291C21.4681 15.1384 21.5021 15.1384 21.5701 15.2177L21.5928 15.0931L21.6268 15.2064L21.6834 15.0818C21.6834 15.0818 21.7174 15.2177 21.7401 15.2177C21.7401 15.2177 21.8308 14.9684 21.8761 14.9571L21.8874 15.1157L21.9441 14.9571L22.0008 15.0704V14.9118L22.0687 15.0251C22.0687 15.0251 22.0914 14.9118 22.1367 14.8891L22.2274 14.9684L22.6127 14.6851" stroke="black" stroke-width="0.04"/>
<path d="M22.6242 14.6058C22.2276 14.7531 21.8649 15.3084 21.8989 15.5351C22.0689 15.3084 22.0349 15.3424 22.1143 15.6031C22.1143 15.6031 22.1369 15.3764 22.1709 15.3538L22.2276 15.5124L22.2389 15.2971H22.2956L22.2842 15.1724L22.3636 15.2291C22.3409 15.1498 22.3296 15.1271 22.4089 15.0591C22.4089 15.0591 22.2956 15.0704 22.3862 14.8891L22.4656 14.9571C22.4656 14.9571 22.4429 14.8778 22.4656 14.8438L22.7602 14.7531" fill="#016A16"/>
<path d="M22.6242 14.6058C22.2276 14.7531 21.8649 15.3084 21.8989 15.5351C22.0689 15.3084 22.0349 15.3424 22.1143 15.6031C22.1143 15.6031 22.1369 15.3764 22.1709 15.3538L22.2276 15.5124L22.2389 15.2971H22.2956L22.2842 15.1724L22.3636 15.2291C22.3409 15.1498 22.3296 15.1271 22.4089 15.0591C22.4089 15.0591 22.2956 15.0704 22.3862 14.8891L22.4656 14.9571C22.4656 14.9571 22.4429 14.8778 22.4656 14.8438L22.7602 14.7531" stroke="black" stroke-width="0.04"/>
<path d="M22.6582 14.6398L22.5109 14.9344L22.5902 14.9571L22.4089 15.0818L22.5562 15.0704C22.5562 15.0704 22.3295 15.1498 22.3069 15.3764L22.5335 15.2631C22.5335 15.2631 22.3409 15.4671 22.3069 15.5917L22.4542 15.4784C22.4542 15.4784 22.3182 15.6144 22.3409 15.8184L22.4429 15.7051C22.4202 15.9657 22.4202 15.9884 22.5335 16.181C22.5335 16.181 22.5109 15.8864 22.5335 15.841L22.7942 16.113L22.6582 15.7391C22.6582 15.7391 22.8168 15.9657 22.9075 15.9544L22.7035 15.6484L22.9075 15.807L22.6809 15.4671L22.8848 15.5351C22.8848 15.5351 22.7375 15.3424 22.7489 15.2178L22.8962 15.3764C22.8962 15.3764 22.8395 15.2064 22.8508 15.1498L22.9302 15.1611L22.7828 15.0024L22.8848 14.9798L22.8735 14.8665L22.9415 14.8551V14.7305M22.8168 14.7305C22.5675 15.0704 22.6922 15.5804 22.5449 15.8524Z" fill="#016A16"/>
<path d="M22.6582 14.6398L22.5109 14.9344L22.5902 14.9571L22.4089 15.0818L22.5562 15.0704C22.5562 15.0704 22.3295 15.1498 22.3069 15.3764L22.5335 15.2631C22.5335 15.2631 22.3409 15.4671 22.3069 15.5917L22.4542 15.4784C22.4542 15.4784 22.3182 15.6144 22.3409 15.8184L22.4429 15.7051C22.4202 15.9657 22.4202 15.9884 22.5335 16.181C22.5335 16.181 22.5109 15.8864 22.5335 15.841L22.7942 16.113L22.6582 15.7391C22.6582 15.7391 22.8168 15.9657 22.9075 15.9544L22.7035 15.6484L22.9075 15.807L22.6809 15.4671L22.8848 15.5351C22.8848 15.5351 22.7375 15.3424 22.7489 15.2178L22.8962 15.3764C22.8962 15.3764 22.8395 15.2064 22.8508 15.1498L22.9302 15.1611L22.7828 15.0024L22.8848 14.9798L22.8735 14.8665L22.9415 14.8551V14.7305M22.8168 14.7305C22.5675 15.0704 22.6922 15.5804 22.5449 15.8524" stroke="black" stroke-width="0.04"/>
<path d="M22.9868 14.2885C23.8708 13.4045 24.562 13.8352 24.7207 13.9598C24.6074 13.9825 24.5167 13.9145 24.4601 13.9032L24.5734 14.0392C24.5734 14.0392 24.2901 13.9258 24.2561 13.9258C24.3014 13.9598 24.3467 14.0392 24.3467 14.0392C24.3241 14.0392 24.1654 13.9145 24.1427 13.9145C24.1881 13.9598 24.1994 14.0845 24.1994 14.0845L24.0634 14.0278C24.0294 14.0505 24.0748 14.0958 24.0521 14.0958C23.8254 14.0732 23.5195 14.2885 23.4855 14.3565" fill="#016A16"/>
<path d="M22.9868 14.2885C23.8708 13.4045 24.562 13.8352 24.7207 13.9598C24.6074 13.9825 24.5167 13.9145 24.4601 13.9032L24.5734 14.0392C24.5734 14.0392 24.2901 13.9258 24.2561 13.9258C24.3014 13.9598 24.3467 14.0392 24.3467 14.0392C24.3241 14.0392 24.1654 13.9145 24.1427 13.9145C24.1881 13.9598 24.1994 14.0845 24.1994 14.0845L24.0634 14.0278C24.0294 14.0505 24.0748 14.0958 24.0521 14.0958C23.8254 14.0732 23.5195 14.2885 23.4855 14.3565" stroke="black" stroke-width="0.04"/>
<path d="M23.2022 14.4471C23.2929 14.2432 24.9701 13.8805 25.3101 14.4811C25.1741 14.5151 25.0494 14.3678 25.0494 14.3678V14.5038L24.8341 14.3225L24.9134 14.5038L24.7434 14.3565V14.5038L24.5168 14.2771L24.5508 14.4018L24.3581 14.3225L24.3808 14.4358" fill="#016A16"/>
<path d="M23.2022 14.4471C23.2929 14.2432 24.9701 13.8805 25.3101 14.4811C25.1741 14.5151 25.0494 14.3678 25.0494 14.3678V14.5038L24.8341 14.3225L24.9134 14.5038L24.7434 14.3565V14.5038L24.5168 14.2771L24.5508 14.4018L24.3581 14.3225L24.3808 14.4358" stroke="black" stroke-width="0.04"/>
<path d="M23.2815 14.4811C23.7121 14.1978 24.3694 14.3905 24.3694 14.3905C24.8 14.6171 25.0267 14.5831 25.072 15.0251C25.038 15.0138 24.9247 14.8665 24.9247 14.8665L24.834 15.0364L24.8114 14.7985L24.7434 14.9911L24.6301 14.6738L24.6074 14.8891L24.4487 14.6738L24.3807 14.7418L24.3127 14.5718L24.2447 14.6851C24.2447 14.6851 24.1314 14.6171 24.0748 14.6511L23.9614 14.5151L23.9274 14.6171L23.8141 14.5038L23.7801 14.5831L23.6781 14.4925V14.5605H23.3381" fill="#016A16"/>
<path d="M23.2815 14.4811C23.7121 14.1978 24.3694 14.3905 24.3694 14.3905C24.8 14.6171 25.0267 14.5831 25.072 15.0251C25.038 15.0138 24.9247 14.8665 24.9247 14.8665L24.834 15.0364L24.8114 14.7985L24.7434 14.9911L24.6301 14.6738L24.6074 14.8891L24.4487 14.6738L24.3807 14.7418L24.3127 14.5718L24.2447 14.6851C24.2447 14.6851 24.1314 14.6171 24.0748 14.6511L23.9614 14.5151L23.9274 14.6171L23.8141 14.5038L23.7801 14.5831L23.6781 14.4925V14.5605H23.3381" stroke="black" stroke-width="0.04"/>
<path d="M23.3723 14.5265C23.6783 14.5265 24.5396 14.8551 24.7549 15.1837C24.7071 15.1584 24.6579 15.1357 24.6076 15.1157L24.5736 15.2517L24.5169 15.1157L24.5056 15.2291C24.4716 15.1384 24.4376 15.1384 24.3696 15.2177L24.3469 15.0931L24.3129 15.2064L24.2563 15.0818C24.2563 15.0818 24.2223 15.2177 24.1996 15.2177C24.1996 15.2177 24.1089 14.9684 24.0636 14.9571L24.0523 15.1157L23.9956 14.9571L23.9389 15.0704V14.9118L23.8709 15.0251C23.8709 15.0251 23.8483 14.9118 23.803 14.8891L23.7123 14.9684L23.327 14.6851" fill="#016A16"/>
<path d="M23.3723 14.5265C23.6783 14.5265 24.5396 14.8551 24.7549 15.1837C24.7071 15.1584 24.6579 15.1357 24.6076 15.1157L24.5736 15.2517L24.5169 15.1157L24.5056 15.2291C24.4716 15.1384 24.4376 15.1384 24.3696 15.2177L24.3469 15.0931L24.3129 15.2064L24.2563 15.0818C24.2563 15.0818 24.2223 15.2177 24.1996 15.2177C24.1996 15.2177 24.1089 14.9684 24.0636 14.9571L24.0523 15.1157L23.9956 14.9571L23.9389 15.0704V14.9118L23.8709 15.0251C23.8709 15.0251 23.8483 14.9118 23.803 14.8891L23.7123 14.9684L23.327 14.6851" stroke="black" stroke-width="0.04"/>
<path d="M23.3155 14.6058C23.7121 14.7531 24.0748 15.3084 24.0408 15.5351C23.8708 15.3084 23.9048 15.3424 23.8254 15.6031C23.8254 15.6031 23.8028 15.3764 23.7688 15.3538L23.7121 15.5124L23.7008 15.2971H23.6441L23.6554 15.1724L23.5761 15.2291C23.5988 15.1498 23.6101 15.1271 23.5308 15.0591C23.5308 15.0591 23.6441 15.0704 23.5535 14.8891L23.4741 14.9571C23.4741 14.9571 23.4968 14.8778 23.4741 14.8438L23.1795 14.7531" fill="#016A16"/>
<path d="M23.3155 14.6058C23.7121 14.7531 24.0748 15.3084 24.0408 15.5351C23.8708 15.3084 23.9048 15.3424 23.8254 15.6031C23.8254 15.6031 23.8028 15.3764 23.7688 15.3538L23.7121 15.5124L23.7008 15.2971H23.6441L23.6554 15.1724L23.5761 15.2291C23.5988 15.1498 23.6101 15.1271 23.5308 15.0591C23.5308 15.0591 23.6441 15.0704 23.5535 14.8891L23.4741 14.9571C23.4741 14.9571 23.4968 14.8778 23.4741 14.8438L23.1795 14.7531" stroke="black" stroke-width="0.04"/>
<path d="M23.2815 14.6398L23.4288 14.9344L23.3495 14.9571L23.5308 15.0818L23.3835 15.0704C23.3835 15.0704 23.6101 15.1498 23.6328 15.3764L23.4062 15.2631C23.4062 15.2631 23.5988 15.4671 23.6328 15.5917L23.4855 15.4784C23.4855 15.4784 23.6215 15.6144 23.5988 15.8184L23.4968 15.7051C23.5195 15.9657 23.5195 15.9884 23.4062 16.181C23.4062 16.181 23.4288 15.8864 23.4062 15.841L23.1455 16.113L23.2815 15.7391C23.2815 15.7391 23.1229 15.9657 23.0322 15.9544L23.2362 15.6484L23.0322 15.807L23.2588 15.4671L23.0549 15.5351C23.0549 15.5351 23.2022 15.3424 23.1908 15.2178L23.0435 15.3764C23.0435 15.3764 23.1002 15.2064 23.0889 15.1498L23.0095 15.1611L23.1568 15.0024L23.0549 14.9798L23.0662 14.8665L22.9982 14.8551V14.7305M23.1228 14.7305C23.3722 15.0704 23.2475 15.5804 23.3948 15.8524Z" fill="#016A16"/>
<path d="M23.2815 14.6398L23.4288 14.9344L23.3495 14.9571L23.5308 15.0818L23.3835 15.0704C23.3835 15.0704 23.6101 15.1498 23.6328 15.3764L23.4062 15.2631C23.4062 15.2631 23.5988 15.4671 23.6328 15.5917L23.4855 15.4784C23.4855 15.4784 23.6215 15.6144 23.5988 15.8184L23.4968 15.7051C23.5195 15.9657 23.5195 15.9884 23.4062 16.181C23.4062 16.181 23.4288 15.8864 23.4062 15.841L23.1455 16.113L23.2815 15.7391C23.2815 15.7391 23.1229 15.9657 23.0322 15.9544L23.2362 15.6484L23.0322 15.807L23.2588 15.4671L23.0549 15.5351C23.0549 15.5351 23.2022 15.3424 23.1908 15.2178L23.0435 15.3764C23.0435 15.3764 23.1002 15.2064 23.0889 15.1498L23.0095 15.1611L23.1568 15.0024L23.0549 14.9798L23.0662 14.8665L22.9982 14.8551V14.7305M23.1228 14.7305C23.3722 15.0704 23.2475 15.5804 23.3948 15.8524" stroke="black" stroke-width="0.04"/>
<path d="M23.0887 19.3428C23.0887 19.3428 23.2134 18.2095 23.2134 17.7336C23.2134 17.3482 23.1227 16.5096 23.1227 16.5096H22.7487C22.7487 16.5096 22.6921 17.3482 22.7034 17.7336C22.7034 18.2095 22.8281 19.3428 22.8281 19.3428H23.0887Z" fill="#F1B517" stroke="black" stroke-width="0.04"/>
<path d="M22.7148 16.5663H23.1681L23.1115 16.2603H22.7828L22.7148 16.5663Z" fill="#F1B517" stroke="black" stroke-width="0.04"/>
<path d="M22.7488 16.317H23.1454L23.0661 16.011H22.8168L22.7488 16.317Z" fill="#F1B517" stroke="black" stroke-width="0.04"/>
<path d="M22.7715 16.079H23.1115L23.0435 15.773H22.8281L22.7715 16.079Z" fill="#F1B517" stroke="black" stroke-width="0.04"/>
<path d="M23.0549 15.739H22.8282L22.7942 15.8524H23.0775L23.0549 15.739ZM23.1002 19.1048H22.8056ZM23.1229 18.8781H22.7829ZM23.1682 18.6515H22.7376ZM23.1909 18.4135H22.7376ZM23.1909 18.1642H22.7262ZM23.2022 17.9376H22.7036ZM23.2022 17.7449H22.6809ZM23.2022 17.4956H22.6809ZM23.1909 17.2576H22.6809ZM23.1682 17.0083H22.7036ZM23.1455 16.7816H22.7262Z" fill="#F1B517"/>
<path d="M23.1002 19.1048H22.8056M23.1229 18.8781H22.7829M23.1682 18.6515H22.7376M23.1909 18.4135H22.7376M23.1909 18.1642H22.7262M23.2022 17.9376H22.7036M23.2022 17.7449H22.6809M23.2022 17.4956H22.6809M23.1909 17.2576H22.6809M23.1682 17.0083H22.7036M23.1455 16.7816H22.7262M23.0549 15.739H22.8282L22.7942 15.8524H23.0775L23.0549 15.739Z" stroke="black" stroke-width="0.04"/>
<path d="M22.9755 13.9598C22.8849 13.9258 22.7149 13.8125 22.7602 13.7445L22.8396 13.6085C22.9529 13.3592 22.8396 13.4499 22.8396 13.3819C22.8169 13.2912 23.2702 13.3592 23.2702 13.5292C23.2702 13.5859 23.2362 13.5519 23.2475 13.8238L23.1569 13.9938C23.0918 14.0023 23.0256 13.9945 22.9642 13.9712L22.9755 13.9598Z" fill="#0A328C" stroke="#0A328C" stroke-width="0.04"/>
<path d="M23.0208 14.6398L22.9075 14.5378L22.9415 13.7332L23.0548 13.7672L23.0208 14.6285V14.6398Z" fill="#F1B517" stroke="black" stroke-width="0.04"/>
<path d="M23.1682 13.9938C23.2362 13.9485 23.2815 13.8238 23.2362 13.7559C23.1229 13.6085 23.0435 13.6652 22.8509 13.5972C22.8169 13.6425 22.7376 13.7105 22.7489 13.7785C23.0095 13.8918 22.9076 13.8012 22.9982 13.8125C23.0435 13.8125 23.0662 13.8692 23.1682 13.9825V13.9938Z" fill="#D20014" stroke="#D20014" stroke-width="0.04"/>
<path d="M21.6722 18.6401C21.6496 18.5835 21.5589 18.5381 21.4456 18.5381C21.3323 18.5381 21.2529 18.5835 21.2189 18.6401C21.2151 18.6253 21.2151 18.6097 21.2189 18.5948C21.2189 18.5155 21.3209 18.4588 21.4456 18.4588C21.5816 18.4588 21.6836 18.5155 21.6836 18.5948C21.6874 18.6097 21.6874 18.6253 21.6836 18.6401H21.6722Z" fill="#016A16" stroke="white" stroke-width="0.04" stroke-linecap="round"/>
<path d="M21.6608 18.8101C21.6608 18.9461 21.5588 19.0708 21.4454 19.0708C21.3321 19.0708 21.2415 18.9575 21.2415 18.7988V18.6628H21.6608V18.8101Z" fill="#016A16" stroke="white" stroke-width="0.04" stroke-linecap="round"/>
<path d="M21.4454 18.7195C21.5581 18.7195 21.6494 18.6738 21.6494 18.6175C21.6494 18.5612 21.5581 18.5155 21.4454 18.5155C21.3328 18.5155 21.2415 18.5612 21.2415 18.6175C21.2415 18.6738 21.3328 18.7195 21.4454 18.7195Z" fill="white"/>
<path d="M21.4002 18.7195L21.3662 18.3568H21.5249L21.5022 18.7308H21.4002V18.7195Z" fill="#016A16" stroke="#F1B517" stroke-width="0.04"/>
<path d="M21.6722 18.6175C21.6496 18.6742 21.5589 18.7195 21.4456 18.7195C21.3323 18.7195 21.2529 18.6742 21.2189 18.6175C21.2151 18.6324 21.2151 18.648 21.2189 18.6628C21.2189 18.7421 21.3209 18.7988 21.4456 18.7988C21.5816 18.7988 21.6836 18.7421 21.6836 18.6628C21.6874 18.648 21.6874 18.6324 21.6836 18.6175H21.6722Z" fill="#016A16" stroke="white" stroke-width="0.04" stroke-linecap="round"/>
<path d="M22.5222 20.0567L21.7289 19.8074L21.3776 19.2068L20.1423 19.1501L20.1877 19.6034L21.2416 19.7961L21.3322 19.9774L22.5448 20.3174L22.5222 20.0567Z" fill="#F1B517" stroke="black" stroke-width="0.04"/>
<path d="M21.6948 20.2267L20.4256 18.3568L20.3689 18.4135L21.6155 20.272L21.6948 20.2267Z" fill="#503200" stroke="black" stroke-width="0.04"/>
<path d="M20.5502 18.4362L20.4142 18.2095C20.3802 18.1642 20.3462 18.1529 20.2895 18.1869C20.2329 18.2095 20.2442 18.2662 20.2669 18.3115L20.3802 18.5268L20.5502 18.4362Z" fill="white" stroke="black" stroke-width="0.04"/>
<path d="M21.8422 19.0708L19.2924 18.8102L19.2244 19.1841L21.7628 19.4448L21.8422 19.0708Z" fill="#F1B517" stroke="black" stroke-width="0.04"/>
<path d="M19.2356 18.7195L19.179 19.2294H19.2923L19.3603 18.7648L19.2356 18.7195ZM19.6663 18.7988L19.6436 19.2634H19.7116L19.7682 18.8668L19.6663 18.7988ZM21.4001 19.0028L21.3321 19.4334H21.4568L21.5135 19.0028H21.4001ZM21.7741 19.0141L21.6948 19.5128L21.8308 19.5354L21.8761 19.2748C21.8761 19.3314 21.9328 19.3654 21.9894 19.3654C22.0574 19.3654 22.1027 19.3088 22.1027 19.2521C22.1027 19.1841 22.0574 19.1388 21.9894 19.1388C21.9658 19.1368 21.9421 19.1424 21.9218 19.1546C21.9015 19.1668 21.8855 19.185 21.8761 19.2068L21.9101 19.0255L21.7741 19.0141ZM20.8675 19.0935L20.5049 19.4901L20.5502 19.5354L21.0035 19.2294L20.8675 19.0935ZM20.0289 20.0794L20.3802 19.6827L20.3462 19.6374L19.8929 19.9434L20.0289 20.0794ZM20.9468 19.9774L20.5275 19.6487L20.4822 19.6827L20.8222 20.1134L20.9468 19.9774ZM19.8929 19.2181L20.3349 19.5354L20.3802 19.5014L20.0402 19.0708L19.8929 19.2181ZM20.3689 18.9575L20.4142 19.4788H20.4709L20.6069 18.9688L20.3689 18.9575ZM20.5049 20.204L20.4709 19.6941H20.4029L20.3235 20.2154L20.5049 20.204ZM21.0828 19.5241L20.5389 19.5694V19.6261L21.0828 19.6941V19.5241ZM19.7909 19.6941L20.3235 19.6147V19.5694L19.7796 19.5128V19.6941H19.7909Z" fill="#F1B517" stroke="black" stroke-width="0.04"/>
<path d="M20.4483 19.7167C20.5297 19.7167 20.5957 19.6559 20.5957 19.5808C20.5957 19.5056 20.5297 19.4448 20.4483 19.4448C20.367 19.4448 20.301 19.5056 20.301 19.5808C20.301 19.6559 20.367 19.7167 20.4483 19.7167Z" fill="#F1B517" stroke="black" stroke-width="0.04"/>
<path fill-rule="evenodd" clip-rule="evenodd" d="M21.2075 19.5808C21.2075 19.9774 20.8675 20.3174 20.4482 20.3174C20.35 20.3189 20.2525 20.301 20.1611 20.2648C20.0698 20.2286 19.9865 20.1747 19.916 20.1063C19.8455 20.0379 19.7892 19.9563 19.7502 19.8661C19.7113 19.776 19.6904 19.679 19.689 19.5808C19.689 19.1728 20.0289 18.8441 20.4482 18.8441C20.5465 18.8426 20.644 18.8605 20.7353 18.8967C20.8267 18.9329 20.91 18.9868 20.9805 19.0552C21.051 19.1236 21.1073 19.2052 21.1463 19.2954C21.1852 19.3856 21.206 19.4825 21.2075 19.5808ZM21.0602 19.5808C21.0587 19.6596 21.0417 19.7374 21.0102 19.8098C20.9786 19.8821 20.9331 19.9474 20.8763 20.0022C20.8195 20.0569 20.7524 20.0999 20.679 20.1287C20.6055 20.1575 20.5271 20.1715 20.4482 20.17C20.3684 20.1716 20.2891 20.1571 20.2149 20.1276C20.1407 20.0981 20.0732 20.0541 20.0162 19.9982C19.9592 19.9423 19.914 19.8755 19.8831 19.8019C19.8522 19.7283 19.8363 19.6493 19.8363 19.5694C19.8422 19.4121 19.9096 19.2634 20.0241 19.1553C20.1385 19.0472 20.2908 18.9884 20.4482 18.9915C20.5271 18.99 20.6055 19.004 20.679 19.0328C20.7524 19.0616 20.8195 19.1046 20.8763 19.1593C20.9331 19.2141 20.9786 19.2794 21.0102 19.3518C21.0417 19.4241 21.0587 19.5019 21.0602 19.5808Z" fill="#F1B517" stroke="black" stroke-width="0.04" stroke-linecap="round"/>
<path d="M19.9722 19.2068L19.8589 19.1161ZM20.8221 19.1161L20.9355 19.0028ZM21.0488 20.0454L20.9241 19.9434ZM19.9722 20.1587L20.0855 20.0454ZM22.5447 18.8441L22.6693 19.5241L22.5674 19.5694L22.454 18.8555L22.5447 18.8441Z" fill="#F1B517"/>
<path d="M19.9722 19.2068L19.8589 19.1161M20.8221 19.1161L20.9355 19.0028M21.0488 20.0454L20.9241 19.9434M19.9722 20.1587L20.0855 20.0454M22.5447 18.8441L22.6693 19.5241L22.5674 19.5694L22.454 18.8555L22.5447 18.8441Z" stroke="black" stroke-width="0.04"/>
<path d="M22.4767 18.7648C22.4201 18.7308 22.3407 18.7761 22.2047 18.6175C21.9894 18.8101 22.2047 18.8441 22.2274 19.0368C22.2841 19.0595 22.3294 18.8781 22.4881 18.8668L22.7487 18.8441L22.692 18.7648H22.4767Z" fill="white" stroke="black" stroke-width="0.04"/>
<path d="M22.5674 18.8895L22.5447 18.6968C22.5107 18.6175 22.4314 18.6855 22.4314 18.7195L22.4541 18.9121L22.5674 18.8895Z" fill="white" stroke="black" stroke-width="0.04"/>
<path fill-rule="evenodd" clip-rule="evenodd" d="M21.9328 19.4448V19.6261C21.8648 19.6487 21.8761 19.6941 21.8761 19.7621V20.2947C21.8648 20.34 21.7968 20.34 21.7628 20.3627C21.7288 20.3967 21.7401 20.4534 21.8761 20.476L21.9895 20.4874C22.1594 20.4534 22.1934 20.3967 22.1028 20.374C22.0688 20.3514 22.0008 20.3287 21.9895 20.306V20.17H22.1028C22.1254 20.17 22.1821 20.102 22.1821 20.0454V19.7621C22.1821 19.6034 22.0688 19.5808 22.0234 19.5921V19.4448H21.9328ZM22.1141 19.7507C22.1141 19.7054 22.0461 19.6601 22.0234 19.6601C22.0008 19.6601 21.9441 19.7167 21.9441 19.7621V19.8754C21.9441 19.9207 21.9781 20.0567 22.0461 20.0681C22.0688 20.0681 22.1141 20.0227 22.1141 19.9774V19.7507Z" fill="#F1B517" stroke="black" stroke-width="0.04"/>
<path d="M21.1963 20C21.1169 19.9774 21.1169 20.136 21.1169 20.136H21.2303C21.2869 20.1587 21.3209 20.2267 21.2982 20.272C21.2642 20.2947 21.0489 20.2154 21.0376 20.272C21.0716 20.4873 21.3662 20.5667 21.4682 20.476C21.5702 20.374 21.5929 20.136 21.2642 20.0567L21.1963 20ZM21.2642 20.068L21.2303 20.136Z" fill="white"/>
<path d="M21.2303 20.136H21.1169C21.1169 20.136 21.1169 19.9774 21.1963 20L21.2642 20.0567C21.5929 20.136 21.5702 20.374 21.4682 20.476C21.3662 20.5667 21.0716 20.4873 21.0376 20.272C21.0489 20.2154 21.2642 20.2947 21.2982 20.272C21.3209 20.2267 21.2869 20.1587 21.2303 20.136ZM21.2303 20.136L21.2642 20.068" stroke="black" stroke-width="0.04"/>
<path d="M19.0089 20.0794L18.8956 19.6261ZM19.1336 20.0567L18.9636 19.7054ZM19.4169 19.9661L19.0429 19.7621ZM19.5869 19.9207L18.8843 19.6147Z" fill="#F1B517"/>
<path d="M19.0089 20.0794L18.8956 19.6261M19.1336 20.0567L18.9636 19.7054M19.4169 19.9661L19.0429 19.7621M19.5869 19.9207L18.8843 19.6147" stroke="black" stroke-width="0.04"/>
<path d="M18.4651 19.2861L18.1704 19.2974C18.1478 19.3088 18.2271 19.3994 18.2157 19.4221C18.1478 19.5467 17.7171 19.5354 17.6831 19.5127C17.6265 19.4561 18.0798 19.4221 18.0911 19.3994C18.0911 19.3541 18.0231 19.2634 18.0344 19.2068C18.0344 19.1274 18.2271 19.0934 18.2271 19.0934L18.4651 19.2861Z" fill="#D20014" stroke="#D20014" stroke-width="0.04"/>
<path d="M18.805 19.5127L18.2384 19.0368C18.2384 19.0368 18.2044 19.0141 18.1817 19.0368C18.159 19.0594 18.1817 19.0821 18.1817 19.0821L18.7937 19.5807L18.805 19.5241V19.5127Z" fill="#503200" stroke="black" stroke-width="0.04"/>
<path d="M19.3717 19.9887L18.8958 19.5808L18.8618 19.4674L18.7711 19.5354C18.7371 19.5581 18.7031 19.6261 18.7031 19.6261H18.8278L19.2358 20.0114L19.3604 19.9887H19.3717Z" fill="#F1B517" stroke="black" stroke-width="0.04"/>
<path d="M20.9922 20.6233C21.036 20.6233 21.0715 20.5878 21.0715 20.544C21.0715 20.5002 21.036 20.4647 20.9922 20.4647C20.9484 20.4647 20.9128 20.5002 20.9128 20.544C20.9128 20.5878 20.9484 20.6233 20.9922 20.6233Z" fill="#F1B517" stroke="black" stroke-width="0.04"/>
<path d="M20.7768 20.4647C20.8207 20.4647 20.8562 20.4292 20.8562 20.3854C20.8562 20.3415 20.8207 20.306 20.7768 20.306C20.733 20.306 20.6975 20.3415 20.6975 20.3854C20.6975 20.4292 20.733 20.4647 20.7768 20.4647Z" fill="#F1B517" stroke="black" stroke-width="0.04"/>
<path d="M20.4936 20.5667C20.5374 20.5667 20.573 20.5312 20.573 20.4873C20.573 20.4435 20.5374 20.408 20.4936 20.408C20.4498 20.408 20.4143 20.4435 20.4143 20.4873C20.4143 20.5312 20.4498 20.5667 20.4936 20.5667Z" fill="#F1B517" stroke="black" stroke-width="0.04"/>
<path d="M20.0515 20.6573C20.0953 20.6573 20.1308 20.6218 20.1308 20.578C20.1308 20.5342 20.0953 20.4987 20.0515 20.4987C20.0077 20.4987 19.9722 20.5342 19.9722 20.578C19.9722 20.6218 20.0077 20.6573 20.0515 20.6573Z" fill="#F1B517" stroke="black" stroke-width="0.04"/>
<path d="M19.8589 20.68C19.9027 20.68 19.9382 20.6445 19.9382 20.6007C19.9382 20.5568 19.9027 20.5213 19.8589 20.5213C19.8151 20.5213 19.7795 20.5568 19.7795 20.6007C19.7795 20.6445 19.8151 20.68 19.8589 20.68Z" fill="#F1B517" stroke="black" stroke-width="0.04"/>
<path d="M19.6662 20.68C19.7101 20.68 19.7456 20.6445 19.7456 20.6007C19.7456 20.5568 19.7101 20.5213 19.6662 20.5213C19.6224 20.5213 19.5869 20.5568 19.5869 20.6007C19.5869 20.6445 19.6224 20.68 19.6662 20.68Z" fill="#F1B517" stroke="black" stroke-width="0.04"/>
<path d="M19.4851 20.68C19.5289 20.68 19.5644 20.6445 19.5644 20.6007C19.5644 20.5568 19.5289 20.5213 19.4851 20.5213C19.4413 20.5213 19.4058 20.5568 19.4058 20.6007C19.4058 20.6445 19.4413 20.68 19.4851 20.68Z" fill="#F1B517" stroke="black" stroke-width="0.04"/>
<path d="M19.5757 20.5327C19.6195 20.5327 19.655 20.4972 19.655 20.4534C19.655 20.4095 19.6195 20.374 19.5757 20.374C19.5319 20.374 19.4963 20.4095 19.4963 20.4534C19.4963 20.4972 19.5319 20.5327 19.5757 20.5327Z" fill="#F1B517" stroke="black" stroke-width="0.04"/>
<path d="M19.7571 20.544C19.8009 20.544 19.8364 20.5085 19.8364 20.4647C19.8364 20.4209 19.8009 20.3853 19.7571 20.3853C19.7133 20.3853 19.6777 20.4209 19.6777 20.4647C19.6777 20.5085 19.7133 20.544 19.7571 20.544Z" fill="#F1B517" stroke="black" stroke-width="0.04"/>
<path d="M19.927 20.5214C19.9708 20.5214 20.0063 20.4858 20.0063 20.442C20.0063 20.3982 19.9708 20.3627 19.927 20.3627C19.8832 20.3627 19.8477 20.3982 19.8477 20.442C19.8477 20.4858 19.8832 20.5214 19.927 20.5214Z" fill="#F1B517" stroke="black" stroke-width="0.04"/>
<path d="M19.8476 20.3854C19.8914 20.3854 19.927 20.3499 19.927 20.306C19.927 20.2622 19.8914 20.2267 19.8476 20.2267C19.8038 20.2267 19.7683 20.2622 19.7683 20.306C19.7683 20.3499 19.8038 20.3854 19.8476 20.3854Z" fill="#F1B517" stroke="black" stroke-width="0.04"/>
<path d="M19.6662 20.374C19.7101 20.374 19.7456 20.3385 19.7456 20.2947C19.7456 20.2509 19.7101 20.2154 19.6662 20.2154C19.6224 20.2154 19.5869 20.2509 19.5869 20.2947C19.5869 20.3385 19.6224 20.374 19.6662 20.374Z" fill="#F1B517" stroke="black" stroke-width="0.04"/>
<path fill-rule="evenodd" clip-rule="evenodd" d="M21.4454 20.646C21.4454 20.612 21.3547 20.6233 21.3547 20.578C21.3547 20.5327 21.4907 20.578 21.5021 20.612C21.5814 20.544 21.6154 20.5893 21.6607 20.612C21.7287 20.5213 21.808 20.5213 21.8874 20.5893C21.9327 20.544 22.046 20.5553 22.08 20.612C22.1593 20.544 22.2273 20.5553 22.2727 20.612C22.2953 20.578 22.3293 20.578 22.352 20.612C22.386 20.5327 22.488 20.5553 22.5333 20.612C22.5673 20.5667 22.6126 20.6007 22.658 20.6233C22.692 20.6007 22.7486 20.6007 22.7486 20.6233C22.7486 20.6687 22.6806 20.6573 22.6806 20.6913C22.6806 20.714 22.726 20.6913 22.726 20.7367C22.726 20.7707 22.658 20.782 22.6466 20.7367C22.6126 20.782 22.522 20.7593 22.5107 20.714C22.5021 20.7236 22.4917 20.7314 22.48 20.7367C22.4682 20.7419 22.4555 20.7447 22.4427 20.7447C22.4298 20.7447 22.4171 20.7419 22.4054 20.7367C22.3936 20.7314 22.3832 20.7236 22.3747 20.714C22.3407 20.7367 22.2953 20.7367 22.284 20.714C22.2273 20.7707 22.1253 20.7593 22.0913 20.6913H22.0574C22.0467 20.7034 22.0336 20.713 22.019 20.7197C22.0043 20.7263 21.9884 20.7297 21.9724 20.7297C21.9563 20.7297 21.9404 20.7263 21.9257 20.7197C21.9111 20.713 21.898 20.7034 21.8874 20.6913C21.7854 20.7593 21.7287 20.7367 21.672 20.6913C21.6154 20.7707 21.5134 20.7707 21.5021 20.6913C21.4567 20.7253 21.3661 20.7367 21.3661 20.6913C21.3661 20.6687 21.4454 20.68 21.4454 20.646ZM21.6267 20.6573C21.6267 20.68 21.6041 20.6913 21.5814 20.6913C21.5587 20.6913 21.5361 20.68 21.5361 20.6573C21.5361 20.6347 21.5474 20.6347 21.5814 20.6347C21.6154 20.6347 21.6267 20.646 21.6267 20.6573ZM21.842 20.6347C21.842 20.6573 21.808 20.6687 21.774 20.6687C21.74 20.6687 21.7174 20.6573 21.7174 20.6347C21.7174 20.6233 21.74 20.6007 21.774 20.6007C21.808 20.6007 21.8307 20.6233 21.8307 20.6347H21.842ZM22.2387 20.6573C22.2387 20.68 22.216 20.6913 22.182 20.6913C22.148 20.6913 22.1367 20.68 22.1367 20.6573C22.1367 20.646 22.1593 20.6233 22.182 20.6233C22.2047 20.6233 22.2387 20.6347 22.2387 20.6573ZM22.0234 20.6573C22.0234 20.68 22.0007 20.6913 21.9667 20.6913C21.9327 20.6913 21.9214 20.68 21.9214 20.646C21.9214 20.6233 21.944 20.6007 21.9667 20.6007C21.9894 20.6007 22.0234 20.6233 22.0234 20.646V20.6573ZM22.4767 20.6573C22.4767 20.6687 22.4653 20.6913 22.4427 20.6913C22.4087 20.6913 22.386 20.6687 22.386 20.646C22.386 20.6233 22.4087 20.612 22.4427 20.612C22.4653 20.612 22.488 20.6233 22.488 20.646L22.4767 20.6573ZM22.3407 20.6573C22.3407 20.68 22.3407 20.6913 22.318 20.6913C22.2953 20.6913 22.284 20.68 22.284 20.6573C22.284 20.6347 22.2953 20.6347 22.318 20.6347L22.3407 20.6573ZM22.6126 20.6687C22.6126 20.6913 22.6126 20.714 22.5786 20.714C22.5673 20.714 22.5446 20.6913 22.5446 20.6687C22.5446 20.646 22.5673 20.6347 22.5786 20.6347C22.6013 20.6347 22.6126 20.646 22.6126 20.6687Z" fill="#F1B517" stroke="black" stroke-width="0.04"/>
<path d="M23.4173 20.0567L24.2106 19.8074L24.5619 19.2068L25.7971 19.1501L25.7518 19.6034L24.6979 19.7961L24.6072 19.9774L23.3946 20.3174L23.4173 20.0567Z" fill="#F1B517" stroke="black" stroke-width="0.04"/>
<path d="M24.2447 20.2267L25.5139 18.3568L25.5706 18.4135L24.324 20.272L24.2447 20.2267Z" fill="#503200" stroke="black" stroke-width="0.04"/>
<path d="M25.3893 18.4362L25.5253 18.2095C25.5593 18.1642 25.5933 18.1529 25.6499 18.1869C25.7066 18.2095 25.6953 18.2662 25.6726 18.3115L25.5593 18.5268L25.3893 18.4362Z" fill="white" stroke="black" stroke-width="0.04"/>
<path d="M24.0973 19.0708L26.6471 18.8102L26.7151 19.1841L24.1766 19.4448L24.0973 19.0708Z" fill="#F1B517" stroke="black" stroke-width="0.04"/>
<path d="M26.7038 18.7195L26.7605 19.2294H26.6472L26.5792 18.7648L26.7038 18.7195ZM26.2732 18.7988L26.2959 19.2634H26.2279L26.1712 18.8668L26.2732 18.7988ZM24.5393 19.0028L24.6073 19.4334H24.4827L24.426 19.0028H24.5393ZM24.1654 19.0141L24.2447 19.5128L24.1087 19.5354L24.0634 19.2748C24.0634 19.3314 24.0067 19.3654 23.95 19.3654C23.882 19.3654 23.8367 19.3088 23.8367 19.2521C23.8367 19.1841 23.882 19.1388 23.95 19.1388C23.9737 19.1368 23.9973 19.1424 24.0176 19.1546C24.038 19.1668 24.054 19.185 24.0634 19.2068L24.0294 19.0255L24.1654 19.0141ZM25.072 19.0935L25.4346 19.4901L25.3893 19.5354L24.936 19.2294L25.072 19.0935ZM25.9106 20.0794L25.5593 19.6827L25.5933 19.6374L26.0466 19.9434L25.9106 20.0794ZM24.9926 19.9774L25.4119 19.6487L25.4573 19.6827L25.1173 20.1134L24.9926 19.9774ZM26.0466 19.2181L25.6046 19.5354L25.5593 19.5014L25.8992 19.0708L26.0466 19.2181ZM25.5706 18.9575L25.5253 19.4788H25.4686L25.3326 18.9688L25.5706 18.9575ZM25.4346 20.204L25.4686 19.6941H25.5366L25.6159 20.2154L25.4346 20.204ZM24.8566 19.5241L25.4006 19.5694V19.6261L24.8566 19.6941V19.5241ZM26.1485 19.6941L25.6159 19.6147V19.5694L26.1599 19.5128V19.6941H26.1485Z" fill="#F1B517" stroke="black" stroke-width="0.04"/>
<path d="M25.4911 19.7167C25.4097 19.7167 25.3438 19.6559 25.3438 19.5808C25.3438 19.5056 25.4097 19.4448 25.4911 19.4448C25.5725 19.4448 25.6384 19.5056 25.6384 19.5808C25.6384 19.6559 25.5725 19.7167 25.4911 19.7167Z" fill="#F1B517" stroke="black" stroke-width="0.04"/>
<path fill-rule="evenodd" clip-rule="evenodd" d="M24.7319 19.5808C24.7319 19.9774 25.0719 20.3174 25.4912 20.3174C25.5894 20.3189 25.687 20.301 25.7783 20.2648C25.8696 20.2286 25.9529 20.1747 26.0234 20.1063C26.0939 20.0379 26.1503 19.9563 26.1892 19.8661C26.2282 19.776 26.249 19.679 26.2505 19.5808C26.2505 19.1728 25.9105 18.8441 25.4912 18.8441C25.393 18.8426 25.2954 18.8605 25.2041 18.8967C25.1128 18.9329 25.0295 18.9868 24.959 19.0552C24.8885 19.1236 24.8321 19.2052 24.7932 19.2954C24.7542 19.3856 24.7334 19.4825 24.7319 19.5808ZM24.8793 19.5808C24.8807 19.6596 24.8977 19.7374 24.9293 19.8098C24.9608 19.8821 25.0063 19.9474 25.0632 20.0022C25.12 20.0569 25.187 20.0999 25.2605 20.1287C25.3339 20.1575 25.4123 20.1715 25.4912 20.17C25.571 20.1716 25.6504 20.1571 25.7245 20.1276C25.7987 20.0981 25.8663 20.0541 25.9233 19.9982C25.9802 19.9423 26.0255 19.8755 26.0564 19.8019C26.0873 19.7283 26.1032 19.6493 26.1032 19.5694C26.0973 19.4121 26.0298 19.2634 25.9154 19.1553C25.8009 19.0472 25.6486 18.9884 25.4912 18.9915C25.4123 18.99 25.3339 19.004 25.2605 19.0328C25.187 19.0616 25.12 19.1046 25.0632 19.1593C25.0063 19.2141 24.9608 19.2794 24.9293 19.3518C24.8977 19.4241 24.8807 19.5019 24.8793 19.5808Z" fill="#F1B517" stroke="black" stroke-width="0.04" stroke-linecap="round"/>
<path d="M25.9672 19.2068L26.0806 19.1161ZM25.1173 19.1161L25.004 19.0028ZM24.8907 20.0454L25.0153 19.9434ZM25.9672 20.1587L25.8539 20.0454ZM23.3948 18.8441L23.2701 19.5241L23.3721 19.5694L23.4854 18.8555L23.3948 18.8441Z" fill="#F1B517"/>
<path d="M25.9672 19.2068L26.0806 19.1161M25.1173 19.1161L25.004 19.0028M24.8907 20.0454L25.0153 19.9434M25.9672 20.1587L25.8539 20.0454M23.3948 18.8441L23.2701 19.5241L23.3721 19.5694L23.4854 18.8555L23.3948 18.8441Z" stroke="black" stroke-width="0.04"/>
<path d="M23.4627 18.7648C23.5194 18.7308 23.5987 18.7761 23.7347 18.6175C23.95 18.8101 23.7347 18.8441 23.712 19.0368C23.6554 19.0595 23.6101 18.8781 23.4514 18.8668L23.1908 18.8441L23.2474 18.7648H23.4627Z" fill="white" stroke="black" stroke-width="0.04"/>
<path d="M23.3721 18.8895L23.3947 18.6968C23.4287 18.6175 23.5081 18.6855 23.5081 18.7195L23.4854 18.9121L23.3721 18.8895Z" fill="white" stroke="black" stroke-width="0.04"/>
<path fill-rule="evenodd" clip-rule="evenodd" d="M24.0067 19.4448V19.6261C24.0747 19.6487 24.0633 19.6941 24.0633 19.7621V20.2947C24.0747 20.34 24.1427 20.34 24.1767 20.3627C24.2107 20.3967 24.1993 20.4534 24.0633 20.476L23.95 20.4874C23.78 20.4534 23.746 20.3967 23.8367 20.374C23.8707 20.3514 23.9387 20.3287 23.95 20.306V20.17H23.8367C23.814 20.17 23.7574 20.102 23.7574 20.0454V19.7621C23.7574 19.6034 23.8707 19.5808 23.916 19.5921V19.4448H24.0067ZM23.8253 19.7507C23.8253 19.7054 23.8933 19.6601 23.916 19.6601C23.9387 19.6601 23.9953 19.7167 23.9953 19.7621V19.8754C23.9953 19.9207 23.9613 20.0567 23.8933 20.0681C23.8707 20.0681 23.8253 20.0227 23.8253 19.9774V19.7507Z" fill="#F1B517" stroke="black" stroke-width="0.04"/>
<path d="M24.7432 20C24.8225 19.9774 24.8225 20.136 24.8225 20.136H24.7092C24.6525 20.1587 24.6185 20.2267 24.6412 20.272C24.6752 20.2947 24.8905 20.2154 24.9019 20.272C24.8679 20.4873 24.5732 20.5667 24.4712 20.476C24.3692 20.374 24.3466 20.136 24.6752 20.0567L24.7432 20ZM24.6752 20.068L24.7092 20.136Z" fill="white"/>
<path d="M24.7092 20.136H24.8225C24.8225 20.136 24.8225 19.9774 24.7432 20L24.6752 20.0567C24.3466 20.136 24.3692 20.374 24.4712 20.476C24.5732 20.5667 24.8679 20.4873 24.9019 20.272C24.8905 20.2154 24.6752 20.2947 24.6412 20.272C24.6185 20.2267 24.6525 20.1587 24.7092 20.136ZM24.7092 20.136L24.6752 20.068" stroke="black" stroke-width="0.04"/>
<path d="M26.9305 20.0794L27.0438 19.6261ZM26.8059 20.0567L26.9758 19.7054ZM26.5225 19.9661L26.8965 19.7621ZM26.3526 19.9207L27.0552 19.6147Z" fill="#F1B517"/>
<path d="M26.9305 20.0794L27.0438 19.6261M26.8059 20.0567L26.9758 19.7054M26.5225 19.9661L26.8965 19.7621M26.3526 19.9207L27.0552 19.6147" stroke="black" stroke-width="0.04"/>
<path d="M27.4744 19.2861L27.769 19.2974C27.7917 19.3088 27.7124 19.3994 27.7237 19.4221C27.7917 19.5467 28.2223 19.5354 28.2563 19.5127C28.313 19.4561 27.8597 19.4221 27.8484 19.3994C27.8484 19.3541 27.9164 19.2634 27.905 19.2068C27.905 19.1274 27.7124 19.0934 27.7124 19.0934L27.4744 19.2861Z" fill="#D20014" stroke="#D20014" stroke-width="0.04"/>
<path d="M27.1345 19.5127L27.7011 19.0368C27.7011 19.0368 27.7351 19.0141 27.7577 19.0368C27.7804 19.0594 27.7577 19.0821 27.7577 19.0821L27.1458 19.5807L27.1345 19.5241V19.5127Z" fill="#503200" stroke="black" stroke-width="0.04"/>
<path d="M26.5677 19.9887L27.0437 19.5808L27.0777 19.4674L27.1683 19.5354C27.2023 19.5581 27.2363 19.6261 27.2363 19.6261H27.1117L26.7037 20.0114L26.579 19.9887H26.5677Z" fill="#F1B517" stroke="black" stroke-width="0.04"/>
<path d="M24.9473 20.6233C24.9035 20.6233 24.868 20.5878 24.868 20.544C24.868 20.5002 24.9035 20.4647 24.9473 20.4647C24.9911 20.4647 25.0266 20.5002 25.0266 20.544C25.0266 20.5878 24.9911 20.6233 24.9473 20.6233Z" fill="#F1B517" stroke="black" stroke-width="0.04"/>
<path d="M25.1626 20.4647C25.1188 20.4647 25.0833 20.4292 25.0833 20.3854C25.0833 20.3415 25.1188 20.306 25.1626 20.306C25.2064 20.306 25.2419 20.3415 25.2419 20.3854C25.2419 20.4292 25.2064 20.4647 25.1626 20.4647Z" fill="#F1B517" stroke="black" stroke-width="0.04"/>
<path d="M25.4458 20.5667C25.402 20.5667 25.3665 20.5312 25.3665 20.4873C25.3665 20.4435 25.402 20.408 25.4458 20.408C25.4896 20.408 25.5251 20.4435 25.5251 20.4873C25.5251 20.5312 25.4896 20.5667 25.4458 20.5667Z" fill="#F1B517" stroke="black" stroke-width="0.04"/>
<path d="M25.888 20.6573C25.8441 20.6573 25.8086 20.6218 25.8086 20.578C25.8086 20.5342 25.8441 20.4987 25.888 20.4987C25.9318 20.4987 25.9673 20.5342 25.9673 20.578C25.9673 20.6218 25.9318 20.6573 25.888 20.6573Z" fill="#F1B517" stroke="black" stroke-width="0.04"/>
<path d="M26.0806 20.68C26.0368 20.68 26.0013 20.6445 26.0013 20.6007C26.0013 20.5568 26.0368 20.5213 26.0806 20.5213C26.1244 20.5213 26.1599 20.5568 26.1599 20.6007C26.1599 20.6445 26.1244 20.68 26.0806 20.68Z" fill="#F1B517" stroke="black" stroke-width="0.04"/>
<path d="M26.2732 20.68C26.2294 20.68 26.1939 20.6445 26.1939 20.6007C26.1939 20.5568 26.2294 20.5213 26.2732 20.5213C26.317 20.5213 26.3525 20.5568 26.3525 20.6007C26.3525 20.6445 26.317 20.68 26.2732 20.68Z" fill="#F1B517" stroke="black" stroke-width="0.04"/>
<path d="M26.4544 20.68C26.4106 20.68 26.375 20.6445 26.375 20.6007C26.375 20.5568 26.4106 20.5213 26.4544 20.5213C26.4982 20.5213 26.5337 20.5568 26.5337 20.6007C26.5337 20.6445 26.4982 20.68 26.4544 20.68Z" fill="#F1B517" stroke="black" stroke-width="0.04"/>
<path d="M26.3638 20.5327C26.32 20.5327 26.2845 20.4972 26.2845 20.4534C26.2845 20.4095 26.32 20.374 26.3638 20.374C26.4076 20.374 26.4431 20.4095 26.4431 20.4534C26.4431 20.4972 26.4076 20.5327 26.3638 20.5327Z" fill="#F1B517" stroke="black" stroke-width="0.04"/>
<path d="M26.1824 20.544C26.1386 20.544 26.1031 20.5085 26.1031 20.4647C26.1031 20.4209 26.1386 20.3853 26.1824 20.3853C26.2262 20.3853 26.2617 20.4209 26.2617 20.4647C26.2617 20.5085 26.2262 20.544 26.1824 20.544Z" fill="#F1B517" stroke="black" stroke-width="0.04"/>
<path d="M26.0125 20.5214C25.9687 20.5214 25.9331 20.4858 25.9331 20.442C25.9331 20.3982 25.9687 20.3627 26.0125 20.3627C26.0563 20.3627 26.0918 20.3982 26.0918 20.442C26.0918 20.4858 26.0563 20.5214 26.0125 20.5214Z" fill="#F1B517" stroke="black" stroke-width="0.04"/>
<path d="M26.0918 20.3854C26.048 20.3854 26.0125 20.3499 26.0125 20.306C26.0125 20.2622 26.048 20.2267 26.0918 20.2267C26.1356 20.2267 26.1711 20.2622 26.1711 20.306C26.1711 20.3499 26.1356 20.3854 26.0918 20.3854Z" fill="#F1B517" stroke="black" stroke-width="0.04"/>
<path d="M26.2732 20.374C26.2294 20.374 26.1939 20.3385 26.1939 20.2947C26.1939 20.2509 26.2294 20.2154 26.2732 20.2154C26.317 20.2154 26.3525 20.2509 26.3525 20.2947C26.3525 20.3385 26.317 20.374 26.2732 20.374Z" fill="#F1B517" stroke="black" stroke-width="0.04"/>
<path fill-rule="evenodd" clip-rule="evenodd" d="M24.4941 20.646C24.4941 20.612 24.5847 20.6233 24.5847 20.578C24.5847 20.5327 24.4487 20.578 24.4374 20.612C24.3581 20.544 24.3241 20.5893 24.2787 20.612C24.2107 20.5213 24.1314 20.5213 24.0521 20.5893C24.0068 20.544 23.8934 20.5553 23.8594 20.612C23.7801 20.544 23.7121 20.5553 23.6668 20.612C23.6441 20.578 23.6101 20.578 23.5875 20.612C23.5535 20.5327 23.4515 20.5553 23.4061 20.612C23.3721 20.5667 23.3268 20.6007 23.2815 20.6233C23.2475 20.6007 23.1908 20.6007 23.1908 20.6233C23.1908 20.6687 23.2588 20.6573 23.2588 20.6913C23.2588 20.714 23.2135 20.6913 23.2135 20.7367C23.2135 20.7707 23.2815 20.782 23.2928 20.7367C23.3268 20.782 23.4175 20.7593 23.4288 20.714C23.4373 20.7236 23.4478 20.7314 23.4595 20.7367C23.4712 20.7419 23.4839 20.7447 23.4968 20.7447C23.5097 20.7447 23.5224 20.7419 23.5341 20.7367C23.5458 20.7314 23.5563 20.7236 23.5648 20.714C23.5988 20.7367 23.6441 20.7367 23.6555 20.714C23.7121 20.7707 23.8141 20.7593 23.8481 20.6913H23.8821C23.8927 20.7034 23.9058 20.713 23.9205 20.7197C23.9351 20.7263 23.951 20.7297 23.9671 20.7297C23.9832 20.7297 23.9991 20.7263 24.0137 20.7197C24.0284 20.713 24.0415 20.7034 24.0521 20.6913C24.1541 20.7593 24.2107 20.7367 24.2674 20.6913C24.3241 20.7707 24.4261 20.7707 24.4374 20.6913C24.4827 20.7253 24.5734 20.7367 24.5734 20.6913C24.5734 20.6687 24.4941 20.68 24.4941 20.646ZM24.3127 20.6573C24.3127 20.68 24.3354 20.6913 24.3581 20.6913C24.3807 20.6913 24.4034 20.68 24.4034 20.6573C24.4034 20.6347 24.3921 20.6347 24.3581 20.6347C24.3241 20.6347 24.3127 20.646 24.3127 20.6573ZM24.0974 20.6347C24.0974 20.6573 24.1314 20.6687 24.1654 20.6687C24.1994 20.6687 24.2221 20.6573 24.2221 20.6347C24.2221 20.6233 24.1994 20.6007 24.1654 20.6007C24.1314 20.6007 24.1088 20.6233 24.1088 20.6347H24.0974ZM23.7008 20.6573C23.7008 20.68 23.7234 20.6913 23.7574 20.6913C23.7914 20.6913 23.8028 20.68 23.8028 20.6573C23.8028 20.646 23.7801 20.6233 23.7574 20.6233C23.7348 20.6233 23.7008 20.6347 23.7008 20.6573ZM23.9161 20.6573C23.9161 20.68 23.9388 20.6913 23.9728 20.6913C24.0068 20.6913 24.0181 20.68 24.0181 20.646C24.0181 20.6233 23.9954 20.6007 23.9728 20.6007C23.9501 20.6007 23.9161 20.6233 23.9161 20.646V20.6573ZM23.4628 20.6573C23.4628 20.6687 23.4741 20.6913 23.4968 20.6913C23.5308 20.6913 23.5535 20.6687 23.5535 20.646C23.5535 20.6233 23.5308 20.612 23.4968 20.612C23.4741 20.612 23.4515 20.6233 23.4515 20.646L23.4628 20.6573ZM23.5988 20.6573C23.5988 20.68 23.5988 20.6913 23.6215 20.6913C23.6441 20.6913 23.6555 20.68 23.6555 20.6573C23.6555 20.6347 23.6441 20.6347 23.6215 20.6347L23.5988 20.6573ZM23.3268 20.6687C23.3268 20.6913 23.3268 20.714 23.3608 20.714C23.3721 20.714 23.3948 20.6913 23.3948 20.6687C23.3948 20.646 23.3721 20.6347 23.3608 20.6347C23.3381 20.6347 23.3268 20.646 23.3268 20.6687Z" fill="#F1B517" stroke="black" stroke-width="0.04"/>
<path d="M22.9528 19.2521C22.6695 19.2521 22.4429 19.3654 22.4429 19.4901C22.4429 19.5128 22.4429 19.5354 22.4655 19.5581C22.5222 19.6261 22.7262 19.6714 22.9642 19.6714C23.1908 19.6714 23.3721 19.6374 23.4401 19.5694C23.4628 19.5468 23.4741 19.5241 23.4741 19.4901C23.4741 19.3654 23.2475 19.2634 22.9528 19.2634V19.2521Z" fill="#0A328C" stroke="#0A328C" stroke-width="0.04"/>
<path d="M23.4741 19.5128V20.306C23.4741 20.408 23.2475 20.476 22.9642 20.476C22.6809 20.476 22.4429 20.408 22.4429 20.306V19.5128C22.4429 19.6034 22.6695 19.6827 22.9528 19.6827C23.2475 19.6827 23.4741 19.6034 23.4741 19.5128Z" fill="#F1B517" stroke="black" stroke-width="0.04"/>
<path d="M22.4429 19.5128V19.6261L22.6922 20.4194L22.8962 19.8074L23.1228 20.4307L23.2701 19.8414L23.4741 20.238V20.0227L23.2928 19.6374C23.2705 19.6459 23.2478 19.6534 23.2248 19.6601L23.1115 20.0907L22.9415 19.6827C22.9151 19.6834 22.8886 19.6834 22.8622 19.6827L22.6922 20.0907L22.5109 19.5921C22.4655 19.5694 22.4429 19.5354 22.4429 19.5128Z" fill="#D20014" stroke="#D20014" stroke-width="0.04"/>
<path d="M23.4741 20.1587V20.306C23.4741 20.408 23.2475 20.476 22.9642 20.476C22.6809 20.476 22.4429 20.408 22.4429 20.306V20.1587C22.4429 20.2607 22.6695 20.3287 22.9528 20.3287C23.2475 20.3287 23.4741 20.2607 23.4741 20.1587Z" fill="#0A328C" stroke="#0A328C" stroke-width="0.04"/>
<path d="M23.1682 20.306L23.0435 20.3287V20.476L23.1795 20.4647L23.1682 20.306ZM22.6242 20.2947V20.442L22.7488 20.4647V20.3173C22.7069 20.3124 22.6652 20.3048 22.6242 20.2947ZM22.4429 20.1587V20.306C22.4429 20.34 22.4655 20.3627 22.4995 20.3853V20.238C22.4655 20.2154 22.4429 20.1927 22.4429 20.1587ZM23.4741 20.1814C23.4741 20.204 23.4288 20.238 23.3835 20.2607V20.408C23.4401 20.3853 23.4741 20.3513 23.4741 20.306V20.1814Z" fill="#F1B517" stroke="black" stroke-width="0.04"/>
<path d="M23.4741 19.5128V20.306C23.4741 20.408 23.2475 20.476 22.9642 20.476C22.6809 20.476 22.4429 20.408 22.4429 20.306V19.5128" stroke="black" stroke-width="0.04"/>
<path d="M23.3608 19.4561C23.3608 19.5127 23.1794 19.5694 22.9641 19.5694C22.7375 19.5694 22.5562 19.5127 22.5562 19.4561C22.5562 19.3994 22.7375 19.3541 22.9528 19.3541C23.1794 19.3541 23.3608 19.3994 23.3608 19.4674V19.4561Z" fill="white" stroke="white" stroke-width="0.04"/>
<path d="M22.828 19.5354L22.8507 19.6714H22.964L22.9754 19.5354H22.828ZM23.2927 19.5014L23.1793 19.5241L23.1907 19.6601L23.304 19.6374L23.2927 19.5014ZM22.6807 19.2748L22.6014 19.3088L22.6127 19.4221L22.6807 19.3994V19.2748ZM22.9527 19.2408H22.9187L22.9414 19.3768H23.0094L23.032 19.2408C23.0056 19.2398 22.9791 19.2398 22.9527 19.2408ZM23.2587 19.2861L23.2473 19.3994L23.3267 19.4334V19.3201C23.3048 19.3072 23.2821 19.2959 23.2587 19.2861ZM22.5221 19.6034L22.5447 19.4561L22.4314 19.3994V19.5694L22.5221 19.6034ZM23.474 19.5694V19.4221L23.3833 19.4561L23.474 19.5694ZM24.5279 18.6061C24.6186 18.6061 24.7546 18.7195 24.7659 18.8895C24.7659 19.0028 24.5732 19.0028 24.5732 19.0028C24.5732 19.0594 24.4599 19.1048 24.3693 19.1161C24.2786 19.1161 24.3919 18.9461 24.3919 18.9461C24.3353 18.7988 24.4146 18.6401 24.4146 18.6401L24.5279 18.6061Z" fill="#F1B517" stroke="black" stroke-width="0.04"/>
<path d="M24.3918 18.9461H24.4825C24.4825 18.9461 24.4825 18.9801 24.5052 18.9801C24.5278 18.9801 24.5392 18.9348 24.5392 18.9348H24.6752" fill="#F1B517"/>
<path d="M24.3918 18.9461H24.4825C24.4825 18.9461 24.4825 18.9801 24.5052 18.9801C24.5278 18.9801 24.5392 18.9348 24.5392 18.9348H24.6752" stroke="black" stroke-width="0.04"/>
<path d="M24.5733 18.7081C24.6526 18.6515 24.5846 18.5381 24.528 18.5381H24.4146C24.3467 18.5381 24.256 18.6061 24.2673 18.6515C24.2673 18.7081 24.3127 18.7308 24.358 18.7195C24.3807 18.7195 24.426 18.6515 24.4486 18.6515C24.4826 18.6515 24.562 18.7195 24.5733 18.7081Z" fill="#D20014" stroke="#F1B517" stroke-width="0.04"/>
<path fill-rule="evenodd" clip-rule="evenodd" d="M18.9185 20.2834C18.8505 20.2947 18.8392 20.374 18.8618 20.4533C18.5672 20.5327 18.2952 20.646 18.0232 20.7253C18.0119 20.6687 18.1592 20.5213 18.1592 20.5213C18.1932 20.5327 18.2272 20.6233 18.2272 20.6233C18.2272 20.442 18.4085 20.3287 18.4085 20.3287C18.2952 20.306 17.9892 20.442 17.9552 20.4873C17.9552 20.4873 18.0685 20.4647 18.0912 20.4873C18.0912 20.4873 17.8419 20.748 17.8306 20.8273C17.8759 20.9066 18.2839 20.9746 18.2839 20.9746C18.2839 20.9973 18.1705 21.088 18.1705 21.088C18.3405 21.1106 18.5898 20.9973 18.6578 20.9293C18.6578 20.9293 18.4652 20.9066 18.3179 20.782C18.3179 20.782 18.3405 20.8613 18.3179 20.8953C18.3179 20.8953 18.0912 20.8273 18.0572 20.782C18.0572 20.782 18.6238 20.646 18.8958 20.5553C18.9072 20.612 18.9638 20.7027 19.0318 20.68C19.0658 20.6687 19.0545 20.5893 19.0318 20.5213C19.041 20.5295 19.0518 20.5358 19.0635 20.5397C19.0752 20.5436 19.0875 20.545 19.0998 20.544C19.1451 20.544 19.1791 20.51 19.1791 20.4647C19.1791 20.4193 19.1451 20.3853 19.0998 20.3853C19.0826 20.3863 19.0659 20.3921 19.0519 20.4021C19.0378 20.4121 19.0269 20.426 19.0205 20.442C19.0091 20.3853 18.9751 20.2834 18.9298 20.2947L18.9185 20.2834ZM19.1451 20.4647C19.1451 20.4873 19.1225 20.4987 19.0998 20.4987C19.0945 20.5006 19.0889 20.5011 19.0833 20.5003C19.0778 20.4994 19.0725 20.4972 19.068 20.4938C19.0635 20.4905 19.0599 20.486 19.0576 20.481C19.0552 20.4759 19.0542 20.4703 19.0545 20.4647C19.0545 20.442 19.0771 20.4193 19.0998 20.4193C19.1225 20.4193 19.1338 20.442 19.1338 20.4647H19.1451Z" fill="#F1B517" stroke="black" stroke-width="0.04"/>
<path d="M27.8484 20.6347C27.8711 20.5893 27.8484 20.3854 27.8484 20.3854C27.7917 20.3854 27.7351 20.4647 27.7351 20.4647C27.7917 20.2834 27.6444 20.0114 27.6444 20.0114C27.7464 20.0227 28.0864 20.3514 28.0977 20.4194C28.0977 20.4194 27.9504 20.3627 27.9277 20.374C27.9617 20.544 28.075 20.6233 28.1204 20.714C28.1204 20.714 27.9277 20.748 27.9391 20.918H27.8144C27.7691 20.8613 27.8257 20.7707 27.8257 20.7707L26.9531 20.408C26.8965 20.3854 26.7718 20.3174 26.7945 20.2494C26.8058 20.1927 27.0211 20.2834 27.0664 20.306L27.8484 20.6347Z" fill="#F1B517" stroke="black" stroke-width="0.04"/>
<path d="M27.0098 20.476L27.1231 20.2947C27.1571 20.238 27.0778 20.1814 27.0211 20.2494L26.9078 20.4194C26.8625 20.5213 26.9644 20.544 27.0211 20.476H27.0098Z" fill="#F1B517" stroke="black" stroke-width="0.04"/>
<path d="M20.8649 20.9152L20.8578 20.7027L20.6099 20.7239L20.5957 20.9435L20.8649 20.9152Z" fill="white" stroke="black" stroke-width="0.0375"/>
<path d="M19.0375 21.2055L18.7046 21.0143C20.0787 21.1418 20.362 20.6602 20.6949 20.6389C20.9073 20.6177 20.9286 20.8656 20.532 20.7451L20.6382 21.0001C20.6382 21.0001 19.6608 21.5526 18.6975 21.3259L19.0375 21.2055ZM25.0437 20.9151L25.0508 20.7026L25.3554 20.7168L25.3695 20.9364L25.0437 20.9151Z" fill="white" stroke="black" stroke-width="0.0375"/>
<path d="M26.9349 21.156L27.2536 20.9789C25.6671 21.0285 26.0283 20.7239 25.2421 20.6389C25.0296 20.6106 24.888 20.8797 25.3979 20.7452L25.2988 21.0001H25.5467C26.085 21.3543 26.8074 21.3897 27.289 21.2764L26.9349 21.156Z" fill="white" stroke="black" stroke-width="0.0375"/>
<path d="M20.532 20.7522V21.1064C20.532 21.1064 21.4032 21.4322 22.9685 21.4322C24.5409 21.4322 25.405 21.1064 25.405 21.1064V20.7522C25.405 20.7522 24.7463 21.0568 22.9685 21.0568C21.1978 21.0568 20.532 20.7522 20.532 20.7522Z" fill="white" stroke="black" stroke-width="0.0375"/>
<path d="M20.6594 21.1064L20.7373 20.8443L20.7727 20.8585L20.7019 21.0851L20.8436 21.1206L20.8294 21.156L20.6594 21.1064ZM20.9144 20.9931V20.9435L20.9286 20.8939L20.9711 20.9081L20.9569 20.9506L20.9357 21.0002L20.9144 20.9931ZM21.2898 20.9718L21.3252 20.986L21.2969 21.1347L21.2685 21.2056C21.2595 21.218 21.2473 21.2278 21.2331 21.2339H21.1623C21.139 21.2299 21.1171 21.2202 21.0986 21.2056C21.0842 21.1954 21.0741 21.1803 21.0702 21.1631L21.0773 21.0922L21.1127 20.9364L21.1481 20.9435L21.1127 21.0993C21.1091 21.118 21.1091 21.1373 21.1127 21.156C21.1142 21.1667 21.1192 21.1767 21.1269 21.1843L21.1623 21.1985H21.2331L21.2615 21.1276L21.2898 20.9718ZM21.3323 21.2551L21.3748 20.9931H21.4173L21.5235 21.2339L21.5589 21.0214H21.5944L21.5519 21.2976L21.5164 21.2905L21.4031 21.0568L21.3677 21.2693L21.3323 21.2551ZM21.6156 21.3047L21.6581 21.0356H21.6935L21.6581 21.3047H21.6227H21.6156ZM21.7289 21.1843C21.7289 21.1418 21.7502 21.1064 21.7785 21.0851C21.8068 21.0636 21.8422 21.0535 21.8777 21.0568C21.906 21.0568 21.9272 21.0639 21.9485 21.0781L21.9839 21.1347C21.9981 21.156 21.9981 21.1843 21.991 21.2056C21.9897 21.2305 21.9824 21.2548 21.9697 21.2764C21.9566 21.2985 21.9368 21.3159 21.9131 21.326C21.8905 21.3343 21.8661 21.3367 21.8423 21.333C21.8172 21.3324 21.7927 21.325 21.7714 21.3118C21.7545 21.2966 21.7422 21.277 21.736 21.2551C21.728 21.2324 21.7255 21.2081 21.7289 21.1843ZM21.7643 21.1843C21.7643 21.2197 21.7643 21.2551 21.7856 21.2693C21.7998 21.2905 21.821 21.3047 21.8493 21.3047C21.8777 21.3047 21.8989 21.3047 21.9202 21.2835C21.9414 21.2693 21.9485 21.241 21.9556 21.2126C21.9619 21.1894 21.9619 21.165 21.9556 21.1418C21.9476 21.1267 21.9353 21.1144 21.9202 21.1064C21.9061 21.0945 21.8889 21.0871 21.8706 21.0851C21.8493 21.0851 21.821 21.0851 21.7998 21.1064C21.7856 21.1206 21.7714 21.1489 21.7643 21.1914V21.1843ZM22.0264 21.3472L22.0477 21.0781H22.0902L22.2176 21.3047L22.2318 21.0922H22.2672L22.246 21.3685H22.2106L22.076 21.1418L22.0618 21.3543L22.0264 21.3472ZM22.423 21.3755L22.4301 21.1064L22.6214 21.1135V21.1489L22.4726 21.1418L22.4655 21.2197L22.6001 21.2268V21.2622L22.4585 21.2551V21.3826L22.423 21.3755ZM22.6355 21.3826L22.7418 21.1135H22.7843L22.8905 21.3968H22.848L22.8197 21.3047H22.6993L22.6709 21.3897L22.6355 21.3826ZM22.7064 21.2764H22.8055L22.7772 21.2056C22.7715 21.1845 22.7668 21.1633 22.763 21.1418L22.7489 21.1985L22.7134 21.2764H22.7064ZM22.9259 21.3897V21.1206H22.9684V21.3897H22.9259ZM23.103 21.3897V21.156H23.0109V21.1276H23.2305V21.156H23.1384V21.3968L23.103 21.3897ZM23.3863 21.3897L23.3651 21.1064H23.4076L23.4146 21.3472H23.5563V21.3755L23.3863 21.3897ZM23.5705 21.3755L23.6555 21.0922H23.698L23.8396 21.3543H23.79L23.7546 21.2835H23.6342L23.613 21.3755H23.5705ZM23.6413 21.2551H23.7404L23.705 21.1843L23.6767 21.1206C23.6759 21.1396 23.6735 21.1586 23.6696 21.1772L23.6413 21.2551ZM23.9742 21.3401L23.9459 21.071L24.13 21.0497L24.1371 21.0851L23.9883 21.0993V21.1843L24.13 21.1701V21.2056L23.9954 21.2197L24.0096 21.3401H23.9742ZM24.1867 21.1914C24.181 21.1725 24.1794 21.1527 24.1818 21.1332C24.1843 21.1137 24.1907 21.0949 24.2008 21.0781C24.2241 21.0504 24.257 21.0327 24.2929 21.0285L24.3637 21.0356C24.3921 21.0426 24.4062 21.0568 24.4204 21.0781L24.4487 21.1489L24.4416 21.2197C24.4339 21.2427 24.419 21.2625 24.3992 21.2764C24.3806 21.291 24.3587 21.3007 24.3354 21.3047C24.3116 21.3084 24.2872 21.306 24.2646 21.2976C24.2419 21.2895 24.2221 21.2747 24.2079 21.2551C24.1925 21.2344 24.1827 21.21 24.1796 21.1843L24.1867 21.1914ZM24.2221 21.1843C24.2221 21.2126 24.2362 21.241 24.2575 21.2551C24.2787 21.2764 24.3 21.2764 24.3283 21.2764C24.3567 21.2764 24.3779 21.2622 24.3992 21.241C24.4133 21.2197 24.4133 21.1914 24.4133 21.156C24.4104 21.1358 24.4031 21.1164 24.3921 21.0993C24.3819 21.0834 24.367 21.0711 24.3496 21.0639C24.3333 21.0597 24.3163 21.0597 24.3 21.0639C24.2717 21.0639 24.2504 21.071 24.2292 21.0922C24.2221 21.1135 24.215 21.1418 24.2221 21.1843ZM24.5125 21.2764L24.47 21.0072L24.5904 20.986H24.647C24.6612 20.986 24.6754 20.986 24.6825 21.0002L24.7037 21.0426C24.7037 21.0639 24.7037 21.0781 24.6895 21.0922C24.6825 21.1064 24.6612 21.1206 24.64 21.1276C24.6473 21.1292 24.6544 21.1316 24.6612 21.1347L24.6966 21.1701L24.7675 21.2339H24.7179L24.6683 21.1914C24.6571 21.179 24.6453 21.1672 24.6329 21.156C24.6266 21.1502 24.6194 21.1454 24.6116 21.1418C24.6046 21.1405 24.5974 21.1405 24.5904 21.1418H24.5691L24.5266 21.1489L24.555 21.2693L24.5125 21.2764ZM24.5266 21.1206L24.5975 21.1064C24.6124 21.1044 24.6268 21.0996 24.64 21.0922C24.6473 21.0881 24.6533 21.0818 24.6571 21.0742C24.6609 21.0667 24.6623 21.0581 24.6612 21.0497C24.6603 21.0388 24.6552 21.0287 24.647 21.0214H24.5975L24.5054 21.0285L24.5266 21.1206ZM24.9729 21.0922H25.0083C25.0083 21.1206 25.0012 21.1489 24.987 21.1631C24.9682 21.1839 24.9435 21.1987 24.9162 21.2056C24.893 21.2116 24.8686 21.2116 24.8454 21.2056C24.8224 21.1978 24.8026 21.1829 24.7887 21.1631C24.7719 21.1423 24.7598 21.1181 24.7533 21.0922C24.7479 21.0689 24.7479 21.0447 24.7533 21.0214C24.7533 20.9931 24.7745 20.9718 24.7887 20.9577L24.8524 20.9293H24.9233C24.9516 20.9435 24.9658 20.9577 24.9799 20.986L24.9445 21.0002C24.9365 20.9851 24.9242 20.9727 24.9091 20.9647C24.893 20.9593 24.8756 20.9593 24.8595 20.9647C24.8409 20.965 24.823 20.9726 24.81 20.986C24.7972 20.9995 24.7897 21.017 24.7887 21.0356V21.0851C24.7943 21.1057 24.804 21.125 24.817 21.1418C24.8241 21.156 24.8383 21.1701 24.8595 21.1701H24.9091C24.9251 21.1677 24.94 21.1602 24.9516 21.1489C24.9658 21.1347 24.9729 21.1135 24.9729 21.0922ZM25.072 21.1631L25.0012 20.901L25.1924 20.8514L25.2066 20.8797L25.0437 20.9222L25.0649 21.0002L25.2137 20.9647L25.2278 20.9931L25.072 21.0356L25.1003 21.1206L25.2703 21.0781V21.1064L25.072 21.1631Z" fill="#000001"/>
</g>
<defs>
<clipPath id="clip0_2072_686">
<rect width="45.33" height="33.9975" fill="white" transform="translate(0.310547 0.474152)"/>
</clipPath>
</defs>
</svg>
