<svg width="46" height="35" viewBox="0 0 46 35" fill="none" xmlns="http://www.w3.org/2000/svg">
<mask id="mask0_2069_515" style="mask-type:luminance" maskUnits="userSpaceOnUse" x="0" y="0" width="46" height="35">
<path d="M0.630371 0.97821H45.9704V34.9782H0.630371V0.97821Z" fill="white"/>
</mask>
<g mask="url(#mask0_2069_515)">
<path fill-rule="evenodd" clip-rule="evenodd" d="M-6.45581 0.97821H53.05V34.9782H-6.45581V0.97821Z" fill="white"/>
<path fill-rule="evenodd" clip-rule="evenodd" d="M-6.45581 23.8087H53.05V34.9782H-6.45581V23.8087Z" fill="#DA0000"/>
<path fill-rule="evenodd" clip-rule="evenodd" d="M4.86084 24.2868H8.11507V24.5059H4.86084V24.2868ZM5.34565 25.4024H5.57146V25.6216H5.34565V25.4024ZM8.12835 25.4024V25.6216H7.4775V25.3958L8.12835 25.4024ZM8.47369 24.2868H8.6995V25.6149H8.47369V24.2868Z" fill="white"/>
<path fill-rule="evenodd" clip-rule="evenodd" d="M9.77547 25.3958V25.6216H8.54019V25.3958H9.77547ZM7.47759 24.8712H7.69011V25.6216H7.47095L7.47759 24.8712Z" fill="white"/>
<path fill-rule="evenodd" clip-rule="evenodd" d="M9.58943 24.2868H9.81523V25.6149H9.58943V24.2868ZM9.03156 24.2868H9.25072V25.6149H9.03156V24.2868ZM6.05627 24.8181V25.0438H4.86084V24.8181H6.05627ZM8.66629 24.8181V25.0438H7.47086V24.8181H8.66629Z" fill="white"/>
<path fill-rule="evenodd" clip-rule="evenodd" d="M7.47759 24.8778H7.69011V25.6149H7.47095L7.47759 24.8778Z" fill="white"/>
<path fill-rule="evenodd" clip-rule="evenodd" d="M7.47759 24.8778H7.69011V25.6149H7.47095L7.47759 24.8778Z" fill="white"/>
<path fill-rule="evenodd" clip-rule="evenodd" d="M7.47745 24.8778H7.68997V25.6149H7.47081L7.47745 24.8778ZM4.86743 24.8778H5.08659V25.6149H4.86743V24.8778ZM6.78012 24.8778H7.00592V25.6149H6.78012V24.8778ZM5.83042 24.8778H6.05622V25.6149H5.83042V24.8778Z" fill="white"/>
<path fill-rule="evenodd" clip-rule="evenodd" d="M6.93301 25.3958V25.6216H5.93018V25.3958H6.93301ZM6.99942 24.8181V25.0438H6.36186V24.8181H6.99942Z" fill="white"/>
<path fill-rule="evenodd" clip-rule="evenodd" d="M-0.491943 24.2868H2.76228V24.5059H-0.491943V24.2868ZM-0.00713039 25.4024H0.218673V25.6216H-0.0137716L-0.00713039 25.4024ZM2.77557 25.4024V25.6216H2.12472V25.3958L2.77557 25.4024ZM3.12091 24.2868H3.34671V25.6149H3.12091V24.2868Z" fill="white"/>
<path fill-rule="evenodd" clip-rule="evenodd" d="M4.42264 25.3958V25.6216H3.18736V25.3958H4.42264ZM2.12476 24.8712H2.34392V25.6216H2.12476V24.8712Z" fill="white"/>
<path fill-rule="evenodd" clip-rule="evenodd" d="M4.23665 24.2868H4.46245V25.6149H4.23665V24.2868ZM3.67878 24.2868H3.89794V25.6149H3.67878V24.2868ZM0.703487 24.8181V25.0438H-0.491943V24.8181H0.703487ZM3.31351 24.8181V25.0438H2.11808V24.8181H3.31351Z" fill="white"/>
<path fill-rule="evenodd" clip-rule="evenodd" d="M2.12476 24.8778H2.34392V25.6149H2.12476V24.8778Z" fill="white"/>
<path fill-rule="evenodd" clip-rule="evenodd" d="M2.12476 24.8778H2.34392V25.6149H2.12476V24.8778Z" fill="white"/>
<path fill-rule="evenodd" clip-rule="evenodd" d="M2.12467 24.8778H2.34383V25.6149H2.12467V24.8778ZM-0.485352 24.8778H-0.26619V25.6149H-0.485352V24.8778ZM1.42734 24.8778H1.6465V25.6149H1.42734V24.8778ZM0.477634 24.8778H0.703437V25.6149H0.477634V24.8778Z" fill="white"/>
<path fill-rule="evenodd" clip-rule="evenodd" d="M1.58018 25.3958V25.6216H0.583984V25.3958H1.58018ZM1.64659 24.8181V25.0438H1.00903V24.8181H1.64659Z" fill="white"/>
<path fill-rule="evenodd" clip-rule="evenodd" d="M10.1672 24.2868H13.4215V24.5059H10.1672V24.2868ZM10.652 25.4024H10.8779V25.6216H10.652V25.4024ZM13.4347 25.4024V25.6216H12.7839V25.3958L13.4347 25.4024ZM13.7867 24.2868H14.0125V25.6149H13.7867V24.2868Z" fill="white"/>
<path fill-rule="evenodd" clip-rule="evenodd" d="M15.0818 25.3958V25.6216H13.8465V25.3958H15.0818ZM12.7839 24.8712H13.0097V25.6216H12.7839V24.8712Z" fill="white"/>
<path fill-rule="evenodd" clip-rule="evenodd" d="M14.8958 24.2868H15.1216V25.6149H14.8958V24.2868ZM14.338 24.2868H14.5638V25.6149H14.3313L14.338 24.2868ZM11.3627 24.8181V25.0438H10.1672V24.8181H11.3627ZM13.9727 24.8181V25.0438H12.7773V24.8181H13.9727Z" fill="white"/>
<path fill-rule="evenodd" clip-rule="evenodd" d="M12.7839 24.8778H13.0097V25.6149H12.7839V24.8778Z" fill="white"/>
<path fill-rule="evenodd" clip-rule="evenodd" d="M12.7839 24.8778H13.0097V25.6149H12.7839V24.8778Z" fill="white"/>
<path fill-rule="evenodd" clip-rule="evenodd" d="M12.7838 24.8778H13.0097V25.6149H12.7838V24.8778ZM10.1738 24.8778H10.3996V25.6149H10.1738V24.8778ZM12.0865 24.8778H12.3123V25.6149H12.0865V24.8778ZM11.1368 24.8778H11.3626V25.6149H11.1368V24.8778Z" fill="white"/>
<path fill-rule="evenodd" clip-rule="evenodd" d="M12.246 25.3958V25.6216H11.2366V25.3958H12.246ZM12.3125 24.8181V25.0438H11.6749V24.8181H12.3125Z" fill="white"/>
<path fill-rule="evenodd" clip-rule="evenodd" d="M15.5068 24.2868H18.7677V24.5059H15.5135L15.5068 24.2868ZM15.9983 25.4024H16.2175V25.6216H15.9983V25.4024ZM18.7743 25.4024V25.6216H18.1235V25.3958L18.7743 25.4024ZM19.1263 24.2868H19.3521V25.6149H19.1263V24.2868Z" fill="white"/>
<path fill-rule="evenodd" clip-rule="evenodd" d="M20.4281 25.3958V25.6216H19.1928V25.3958H20.4281ZM18.1235 24.8712H18.3493V25.6216H18.1235V24.8712Z" fill="white"/>
<path fill-rule="evenodd" clip-rule="evenodd" d="M20.242 24.2868H20.4678V25.6149H20.242V24.2868ZM19.6775 24.2868H19.9033V25.6149H19.6775V24.2868ZM16.7022 24.8181V25.0438H15.5134V24.8181H16.7022ZM19.3122 24.8181V25.0438H18.1235V24.8181H19.3122Z" fill="white"/>
<path fill-rule="evenodd" clip-rule="evenodd" d="M18.1235 24.8778H18.3493V25.6149H18.1235V24.8778Z" fill="white"/>
<path fill-rule="evenodd" clip-rule="evenodd" d="M18.1235 24.8778H18.3493V25.6149H18.1235V24.8778Z" fill="white"/>
<path fill-rule="evenodd" clip-rule="evenodd" d="M18.1235 24.8778H18.3493V25.6149H18.1235V24.8778ZM15.5134 24.8778H15.7392V25.6149H15.5134V24.8778ZM17.4261 24.8778H17.6519V25.6149H17.4261V24.8778ZM16.4831 24.8778H16.7022V25.6149H16.4831V24.8778Z" fill="white"/>
<path fill-rule="evenodd" clip-rule="evenodd" d="M17.5856 25.3958V25.6216H16.5828V25.3958H17.5856ZM17.652 24.8181V25.0438H17.0144V24.8181H17.652Z" fill="white"/>
<path fill-rule="evenodd" clip-rule="evenodd" d="M20.873 24.2868H24.1273V24.5059H20.873V24.2868ZM21.3579 25.4024H21.5837V25.6216H21.3579V25.4024ZM24.1406 25.4024V25.6216H23.4897V25.3958L24.1406 25.4024ZM24.4925 24.2868H24.7117V25.6149H24.4925V24.2868Z" fill="white"/>
<path fill-rule="evenodd" clip-rule="evenodd" d="M25.7876 25.3958V25.6216H24.5524V25.3958H25.7876ZM23.4897 24.8712H23.7155V25.6216H23.4897V24.8712Z" fill="white"/>
<path fill-rule="evenodd" clip-rule="evenodd" d="M25.6016 24.2868H25.8274V25.6149H25.6016V24.2868ZM25.0438 24.2868H25.2696V25.6149H25.0438V24.2868ZM22.0685 24.8181V25.0438H20.873V24.8181H22.0685ZM24.6785 24.8181V25.0438H23.4831V24.8181H24.6785Z" fill="white"/>
<path fill-rule="evenodd" clip-rule="evenodd" d="M23.4897 24.8778H23.7155V25.6149H23.4897V24.8778Z" fill="white"/>
<path fill-rule="evenodd" clip-rule="evenodd" d="M23.4897 24.8778H23.7155V25.6149H23.4897V24.8778Z" fill="white"/>
<path fill-rule="evenodd" clip-rule="evenodd" d="M23.4897 24.8778H23.7155V25.6149H23.4897V24.8778ZM20.8796 24.8778H21.0988V25.6149H20.8796V24.8778ZM22.7923 24.8778H23.0181V25.6149H22.7923V24.8778ZM21.8426 24.8778H22.0684V25.6149H21.836L21.8426 24.8778Z" fill="white"/>
<path fill-rule="evenodd" clip-rule="evenodd" d="M22.9516 25.3958V25.6216H21.9421V25.3958H22.9516ZM23.018 24.8181V25.0438H22.3672V24.8181H23.018Z" fill="white"/>
<path fill-rule="evenodd" clip-rule="evenodd" d="M-6.45581 0.97821H53.05V12.1477H-6.45581V0.97821Z" fill="#239F40"/>
<path fill-rule="evenodd" clip-rule="evenodd" d="M26.2656 24.2868H29.5199V24.5059H26.2656V24.2868ZM26.7504 25.4024H26.9762V25.6216H26.7504V25.4024ZM29.5331 25.4024V25.6216H28.8756V25.3958L29.5331 25.4024ZM29.8851 24.2868H30.1043V25.6149H29.8851V24.2868Z" fill="white"/>
<path fill-rule="evenodd" clip-rule="evenodd" d="M31.1803 25.3958V25.6216H29.945V25.3958H31.1803ZM28.8824 24.8712H29.1082V25.6216H28.8757L28.8824 24.8712Z" fill="white"/>
<path fill-rule="evenodd" clip-rule="evenodd" d="M31.0009 24.2868H31.22V25.6149H31.0009V24.2868ZM30.4363 24.2868H30.6621V25.6149H30.4363V24.2868ZM27.4611 24.8181V25.0438H26.2656V24.8181H27.4611ZM30.0711 24.8181V25.0438H28.8756V24.8181H30.0711Z" fill="white"/>
<path fill-rule="evenodd" clip-rule="evenodd" d="M28.8757 24.8778H29.1082V25.6149H28.8757V24.8778Z" fill="white"/>
<path fill-rule="evenodd" clip-rule="evenodd" d="M28.8757 24.8778H29.1082V25.6149H28.8757V24.8778Z" fill="white"/>
<path fill-rule="evenodd" clip-rule="evenodd" d="M28.8758 24.8778H29.1083V25.6149H28.8758V24.8778ZM26.2725 24.8778H26.4983V25.6149H26.2725V24.8778ZM28.1851 24.8778H28.411V25.6149H28.1851V24.8778ZM27.2354 24.8778H27.4613V25.6149H27.2354V24.8778Z" fill="white"/>
<path fill-rule="evenodd" clip-rule="evenodd" d="M28.3444 25.3958V25.6216H27.335V25.3958H28.3444ZM28.4108 24.8181V25.0438H27.7733V24.8181H28.4108Z" fill="white"/>
<path fill-rule="evenodd" clip-rule="evenodd" d="M31.6252 24.2868H34.8795V24.5059H31.6252V24.2868ZM32.1101 25.4024H32.3359V25.6216H32.1101V25.4024ZM34.8994 25.4024V25.6216H34.2419V25.3958L34.8994 25.4024ZM35.2447 24.2868H35.4705V25.6149H35.2447V24.2868Z" fill="white"/>
<path fill-rule="evenodd" clip-rule="evenodd" d="M36.5398 25.3958V25.6216H35.3045V25.3958H36.5398ZM34.2419 24.8712H34.4677V25.6216H34.2419V24.8712Z" fill="white"/>
<path fill-rule="evenodd" clip-rule="evenodd" d="M36.3604 24.2868H36.5796V25.6149H36.3604V24.2868ZM35.7959 24.2868H36.0217V25.6149H35.7959V24.2868ZM32.8206 24.8181V25.0438H31.6318V24.8181H32.8206ZM35.4306 24.8181V25.0438H34.2419V24.8181H35.4306Z" fill="white"/>
<path fill-rule="evenodd" clip-rule="evenodd" d="M34.2419 24.8778H34.4677V25.6149H34.2419V24.8778Z" fill="white"/>
<path fill-rule="evenodd" clip-rule="evenodd" d="M34.2419 24.8778H34.4677V25.6149H34.2419V24.8778Z" fill="white"/>
<path fill-rule="evenodd" clip-rule="evenodd" d="M34.2419 24.8778H34.4677V25.6149H34.2419V24.8778ZM31.6318 24.8778H31.8576V25.6149H31.6318V24.8778ZM33.5445 24.8778H33.7703V25.6149H33.5445V24.8778ZM32.5948 24.8778H32.8206V25.6149H32.6015L32.5948 24.8778Z" fill="white"/>
<path fill-rule="evenodd" clip-rule="evenodd" d="M33.704 25.3958V25.6216H32.7012V25.3958H33.704ZM33.7704 24.8181V25.0438H33.1262V24.8181H33.7704Z" fill="white"/>
<path fill-rule="evenodd" clip-rule="evenodd" d="M36.9915 24.2868H40.2457V24.5059H36.9915V24.2868ZM37.4763 25.4024H37.7021V25.6216H37.4763V25.4024ZM40.259 25.4024V25.6216H39.6081V25.3958L40.259 25.4024ZM40.6043 24.2868H40.8301V25.6149H40.6043V24.2868Z" fill="white"/>
<path fill-rule="evenodd" clip-rule="evenodd" d="M41.9058 25.3958V25.6216H40.6706V25.3958H41.9058ZM39.6013 24.8712H39.8271V25.6216H39.6013V24.8712Z" fill="white"/>
<path fill-rule="evenodd" clip-rule="evenodd" d="M41.72 24.2868H41.9458V25.6149H41.72V24.2868ZM41.1622 24.2868H41.3813V25.6149H41.1622V24.2868ZM38.1869 24.8181V25.0438H36.9915V24.8181H38.1869ZM40.7969 24.8181V25.0438H39.6015V24.8181H40.7969Z" fill="white"/>
<path fill-rule="evenodd" clip-rule="evenodd" d="M39.6079 24.8778H39.8271V25.6149H39.6079V24.8778Z" fill="white"/>
<path fill-rule="evenodd" clip-rule="evenodd" d="M39.6079 24.8778H39.8271V25.6149H39.6079V24.8778Z" fill="white"/>
<path fill-rule="evenodd" clip-rule="evenodd" d="M39.6081 24.8778H39.8273V25.6149H39.6081V24.8778ZM36.9915 24.8778H37.2173V25.6149H36.9915V24.8778ZM38.9108 24.8778H39.1299V25.6149H38.9108V24.8778ZM37.9611 24.8778H38.1869V25.6149H37.9611V24.8778Z" fill="white"/>
<path fill-rule="evenodd" clip-rule="evenodd" d="M39.0634 25.3958V25.6216H38.0605V25.3958H39.0634ZM39.1298 24.8181V25.0438H38.4922V24.8181H39.1298Z" fill="white"/>
<path fill-rule="evenodd" clip-rule="evenodd" d="M42.384 24.2868H45.6383V24.5059H42.384V24.2868ZM42.8688 25.4024H43.0946V25.6216H42.8688V25.4024ZM45.6515 25.4024V25.6216H45.0007V25.3958L45.6515 25.4024ZM45.9969 24.2868H46.2227V25.6149H45.9969V24.2868Z" fill="white"/>
<path fill-rule="evenodd" clip-rule="evenodd" d="M47.2986 25.3958V25.6216H46.0633V25.3958H47.2986ZM45.0007 24.8712H45.2199V25.6216H45.0007V24.8712Z" fill="white"/>
<path fill-rule="evenodd" clip-rule="evenodd" d="M47.1126 24.2868H47.3384V25.6149H47.1126V24.2868ZM46.5548 24.2868H46.7739V25.6149H46.5548V24.2868ZM43.5795 24.8181V25.0438H42.384V24.8181H43.5795ZM46.1895 24.8181V25.0438H44.9941V24.8181H46.1895Z" fill="white"/>
<path fill-rule="evenodd" clip-rule="evenodd" d="M45.0007 24.8778H45.2199V25.6149H45.0007V24.8778Z" fill="white"/>
<path fill-rule="evenodd" clip-rule="evenodd" d="M45.0007 24.8778H45.2199V25.6149H45.0007V24.8778Z" fill="white"/>
<path fill-rule="evenodd" clip-rule="evenodd" d="M45.0006 24.8778H45.2198V25.6149H45.0006V24.8778ZM42.3906 24.8778H42.6098V25.6149H42.3906V24.8778ZM44.3033 24.8778H44.5291V25.6149H44.3033V24.8778ZM43.3536 24.8778H43.5794V25.6149H43.3536V24.8778Z" fill="white"/>
<path fill-rule="evenodd" clip-rule="evenodd" d="M44.4562 25.3958V25.6216H43.4534V25.3958H44.4562ZM44.5226 24.8181V25.0438H43.8851V24.8181H44.5226Z" fill="white"/>
<path fill-rule="evenodd" clip-rule="evenodd" d="M4.86084 10.5009H8.11507V10.7267H4.86084V10.5009ZM5.34565 11.6298H5.57146V11.8423H5.34565V11.6298ZM8.12835 11.6165V11.8423H7.4775V11.6165H8.12835ZM8.47369 10.5009H8.6995V11.8423H8.47369V10.5009Z" fill="white"/>
<path fill-rule="evenodd" clip-rule="evenodd" d="M9.77547 11.6165V11.8423H8.54019V11.6165H9.77547ZM7.47759 11.0919H7.69011V11.8423H7.47095L7.47759 11.0919Z" fill="white"/>
<path fill-rule="evenodd" clip-rule="evenodd" d="M9.58943 10.5009H9.81523V11.8423H9.58943V10.5009ZM9.03156 10.5009H9.25072V11.8423H9.03156V10.5009ZM6.05627 11.0321V11.2579H4.86084V11.0388L6.05627 11.0321ZM8.66629 11.0321V11.2579H7.47086V11.0388L8.66629 11.0321Z" fill="white"/>
<path fill-rule="evenodd" clip-rule="evenodd" d="M7.47759 11.0919H7.69011V11.8423H7.47095L7.47759 11.0919Z" fill="white"/>
<path fill-rule="evenodd" clip-rule="evenodd" d="M7.47759 11.0919H7.69011V11.8423H7.47095L7.47759 11.0919Z" fill="white"/>
<path fill-rule="evenodd" clip-rule="evenodd" d="M7.47745 11.0919H7.68997V11.8423H7.47081L7.47745 11.0919ZM4.86743 11.0919H5.08659V11.8423H4.86743V11.0919ZM6.78012 11.0919H7.00592V11.8423H6.78012V11.0919ZM5.83042 11.0919H6.05622V11.8423H5.83042V11.0919Z" fill="white"/>
<path fill-rule="evenodd" clip-rule="evenodd" d="M6.93301 11.6165V11.8423H5.93018V11.6165H6.93301ZM6.99942 11.0388V11.2579H6.36186V11.0388H6.99942Z" fill="white"/>
<path fill-rule="evenodd" clip-rule="evenodd" d="M-0.491943 10.5009H2.76228V10.7267H-0.491943V10.5009ZM-0.00713039 11.6298H0.218673V11.8423H-0.0137716L-0.00713039 11.6298ZM2.77557 11.6165V11.8423H2.12472V11.6165H2.77557ZM3.12091 10.5009H3.34671V11.8423H3.12091V10.5009Z" fill="white"/>
<path fill-rule="evenodd" clip-rule="evenodd" d="M4.42264 11.6165V11.8423H3.18736V11.6165H4.42264ZM2.12476 11.0919H2.34392V11.8423H2.12476V11.0919Z" fill="white"/>
<path fill-rule="evenodd" clip-rule="evenodd" d="M4.23665 10.5009H4.46245V11.8423H4.23665V10.5009ZM3.67878 10.5009H3.89794V11.8423H3.67878V10.5009ZM0.703487 11.0321V11.2579H-0.491943V11.0388L0.703487 11.0321ZM3.31351 11.0321V11.2579H2.11808V11.0388L3.31351 11.0321Z" fill="white"/>
<path fill-rule="evenodd" clip-rule="evenodd" d="M2.12476 11.0919H2.34392V11.8423H2.12476V11.0919Z" fill="white"/>
<path fill-rule="evenodd" clip-rule="evenodd" d="M2.12476 11.0919H2.34392V11.8423H2.12476V11.0919Z" fill="white"/>
<path fill-rule="evenodd" clip-rule="evenodd" d="M2.12467 11.0919H2.34383V11.8423H2.12467V11.0919ZM-0.485352 11.0919H-0.26619V11.8423H-0.485352V11.0919ZM1.42734 11.0919H1.6465V11.8423H1.42734V11.0919ZM0.477634 11.0919H0.703437V11.8423H0.477634V11.0919Z" fill="white"/>
<path fill-rule="evenodd" clip-rule="evenodd" d="M1.58018 11.6165V11.8423H0.583984V11.6165H1.58018ZM1.64659 11.0388V11.2579H1.00903V11.0388H1.64659Z" fill="white"/>
<path fill-rule="evenodd" clip-rule="evenodd" d="M10.1672 10.5009H13.4215V10.7267H10.1672V10.5009ZM10.652 11.6298H10.8779V11.8423H10.652V11.6298ZM13.4347 11.6165V11.8423H12.7839V11.6165H13.4347ZM13.7867 10.5009H14.0125V11.8423H13.7867V10.5009Z" fill="white"/>
<path fill-rule="evenodd" clip-rule="evenodd" d="M15.0818 11.6165V11.8423H13.8465V11.6165H15.0818ZM12.7839 11.0919H13.0097V11.8423H12.7839V11.0919Z" fill="white"/>
<path fill-rule="evenodd" clip-rule="evenodd" d="M14.8958 10.5009H15.1216V11.8423H14.8958V10.5009ZM14.338 10.5009H14.5638V11.8423H14.3313L14.338 10.5009ZM11.3627 11.0321V11.2579H10.1672V11.0388L11.3627 11.0321ZM13.9727 11.0321V11.2579H12.7773V11.0388L13.9727 11.0321Z" fill="white"/>
<path fill-rule="evenodd" clip-rule="evenodd" d="M12.7839 11.0919H13.0097V11.8423H12.7839V11.0919Z" fill="white"/>
<path fill-rule="evenodd" clip-rule="evenodd" d="M12.7839 11.0919H13.0097V11.8423H12.7839V11.0919Z" fill="white"/>
<path fill-rule="evenodd" clip-rule="evenodd" d="M12.7838 11.0919H13.0097V11.8423H12.7838V11.0919ZM10.1738 11.0919H10.3996V11.8423H10.1738V11.0919ZM12.0865 11.0919H12.3123V11.8423H12.0865V11.0919ZM11.1368 11.0919H11.3626V11.8423H11.1368V11.0919Z" fill="white"/>
<path fill-rule="evenodd" clip-rule="evenodd" d="M12.246 11.6165V11.8423H11.2366V11.6165H12.246ZM12.3125 11.0388V11.2579H11.6749V11.0388H12.3125Z" fill="white"/>
<path fill-rule="evenodd" clip-rule="evenodd" d="M15.5068 10.5009H18.7677V10.7267H15.5135L15.5068 10.5009ZM15.9983 11.6298H16.2175V11.8423H15.9983V11.6298ZM18.7743 11.6165V11.8423H18.1235V11.6165H18.7743ZM19.1263 10.5009H19.3521V11.8423H19.1263V10.5009Z" fill="white"/>
<path fill-rule="evenodd" clip-rule="evenodd" d="M20.4281 11.6165V11.8423H19.1928V11.6165H20.4281ZM18.1235 11.0919H18.3493V11.8423H18.1235V11.0919Z" fill="white"/>
<path fill-rule="evenodd" clip-rule="evenodd" d="M20.242 10.5009H20.4678V11.8423H20.242V10.5009ZM19.6775 10.5009H19.9033V11.8423H19.6775V10.5009ZM16.7022 11.0321V11.2579H15.5134V11.0388L16.7022 11.0321ZM19.3122 11.0321V11.2579H18.1235V11.0388L19.3122 11.0321Z" fill="white"/>
<path fill-rule="evenodd" clip-rule="evenodd" d="M18.1235 11.0919H18.3493V11.8423H18.1235V11.0919Z" fill="white"/>
<path fill-rule="evenodd" clip-rule="evenodd" d="M18.1235 11.0919H18.3493V11.8423H18.1235V11.0919Z" fill="white"/>
<path fill-rule="evenodd" clip-rule="evenodd" d="M18.1235 11.0919H18.3493V11.8423H18.1235V11.0919ZM15.5134 11.0919H15.7392V11.8423H15.5134V11.0919ZM17.4261 11.0919H17.6519V11.8423H17.4261V11.0919ZM16.4831 11.0919H16.7022V11.8423H16.4831V11.0919Z" fill="white"/>
<path fill-rule="evenodd" clip-rule="evenodd" d="M17.5856 11.6165V11.8423H16.5828V11.6165H17.5856ZM17.652 11.0388V11.2579H17.0144V11.0388H17.652Z" fill="white"/>
<path fill-rule="evenodd" clip-rule="evenodd" d="M20.873 10.5009H24.1273V10.7267H20.873V10.5009ZM21.3579 11.6298H21.5837V11.8423H21.3579V11.6298ZM24.1406 11.6165V11.8423H23.4897V11.6165H24.1406ZM24.4925 10.5009H24.7117V11.8423H24.4925V10.5009Z" fill="white"/>
<path fill-rule="evenodd" clip-rule="evenodd" d="M25.7876 11.6165V11.8423H24.5524V11.6165H25.7876ZM23.4897 11.0919H23.7155V11.8423H23.4897V11.0919Z" fill="white"/>
<path fill-rule="evenodd" clip-rule="evenodd" d="M25.6016 10.5009H25.8274V11.8423H25.6016V10.5009ZM25.0438 10.5009H25.2696V11.8423H25.0438V10.5009ZM22.0685 11.0321V11.2579H20.873V11.0388L22.0685 11.0321ZM24.6785 11.0321V11.2579H23.4831V11.0388L24.6785 11.0321Z" fill="white"/>
<path fill-rule="evenodd" clip-rule="evenodd" d="M23.4897 11.0919H23.7155V11.8423H23.4897V11.0919Z" fill="white"/>
<path fill-rule="evenodd" clip-rule="evenodd" d="M23.4897 11.0919H23.7155V11.8423H23.4897V11.0919Z" fill="white"/>
<path fill-rule="evenodd" clip-rule="evenodd" d="M23.4897 11.0919H23.7155V11.8423H23.4897V11.0919ZM20.8796 11.0919H21.0988V11.8423H20.8796V11.0919ZM22.7923 11.0919H23.0181V11.8423H22.7923V11.0919ZM21.8426 11.0919H22.0684V11.8423H21.836L21.8426 11.0919Z" fill="white"/>
<path fill-rule="evenodd" clip-rule="evenodd" d="M22.9516 11.6165V11.8423H21.9421V11.6165H22.9516ZM23.018 11.0388V11.2579H22.3672V11.0388H23.018Z" fill="white"/>
<path fill-rule="evenodd" clip-rule="evenodd" d="M26.2656 10.5009H29.5199V10.7267H26.2656V10.5009ZM26.7504 11.6298H26.9762V11.8423H26.7504V11.6298ZM29.5331 11.6165V11.8423H28.8756V11.6165H29.5331ZM29.8851 10.5009H30.1043V11.8423H29.8851V10.5009Z" fill="white"/>
<path fill-rule="evenodd" clip-rule="evenodd" d="M31.1803 11.6165V11.8423H29.945V11.6165H31.1803ZM28.8824 11.0919H29.1082V11.8423H28.8757L28.8824 11.0919Z" fill="white"/>
<path fill-rule="evenodd" clip-rule="evenodd" d="M31.0009 10.5009H31.22V11.8423H31.0009V10.5009ZM30.4363 10.5009H30.6621V11.8423H30.4363V10.5009ZM27.4611 11.0321V11.2579H26.2656V11.0388L27.4611 11.0321ZM30.0711 11.0321V11.2579H28.8756V11.0388L30.0711 11.0321Z" fill="white"/>
<path fill-rule="evenodd" clip-rule="evenodd" d="M28.8757 11.0919H29.1082V11.8423H28.8757V11.0919Z" fill="white"/>
<path fill-rule="evenodd" clip-rule="evenodd" d="M28.8757 11.0919H29.1082V11.8423H28.8757V11.0919Z" fill="white"/>
<path fill-rule="evenodd" clip-rule="evenodd" d="M28.8758 11.0919H29.1083V11.8423H28.8758V11.0919ZM26.2725 11.0919H26.4983V11.8423H26.2725V11.0919ZM28.1851 11.0919H28.411V11.8423H28.1851V11.0919ZM27.2354 11.0919H27.4613V11.8423H27.2354V11.0919Z" fill="white"/>
<path fill-rule="evenodd" clip-rule="evenodd" d="M28.3444 11.6165V11.8423H27.335V11.6165H28.3444ZM28.4108 11.0388V11.2579H27.7733V11.0388H28.4108Z" fill="white"/>
<path fill-rule="evenodd" clip-rule="evenodd" d="M31.6252 10.5009H34.8795V10.7267H31.6252V10.5009ZM32.1101 11.6298H32.3359V11.8423H32.1101V11.6298ZM34.8994 11.6165V11.8423H34.2419V11.6165H34.8994ZM35.2447 10.5009H35.4705V11.8423H35.2447V10.5009Z" fill="white"/>
<path fill-rule="evenodd" clip-rule="evenodd" d="M36.5398 11.6165V11.8423H35.3045V11.6165H36.5398ZM34.2419 11.0919H34.4677V11.8423H34.2419V11.0919Z" fill="white"/>
<path fill-rule="evenodd" clip-rule="evenodd" d="M36.3604 10.5009H36.5796V11.8423H36.3604V10.5009ZM35.7959 10.5009H36.0217V11.8423H35.7959V10.5009ZM32.8206 11.0321V11.2579H31.6318V11.0388L32.8206 11.0321ZM35.4306 11.0321V11.2579H34.2419V11.0388L35.4306 11.0321Z" fill="white"/>
<path fill-rule="evenodd" clip-rule="evenodd" d="M34.2419 11.0919H34.4677V11.8423H34.2419V11.0919Z" fill="white"/>
<path fill-rule="evenodd" clip-rule="evenodd" d="M34.2419 11.0919H34.4677V11.8423H34.2419V11.0919Z" fill="white"/>
<path fill-rule="evenodd" clip-rule="evenodd" d="M34.2419 11.0919H34.4677V11.8423H34.2419V11.0919ZM31.6318 11.0919H31.8576V11.8423H31.6318V11.0919ZM33.5445 11.0919H33.7703V11.8423H33.5445V11.0919ZM32.5948 11.0919H32.8206V11.8423H32.6015L32.5948 11.0919Z" fill="white"/>
<path fill-rule="evenodd" clip-rule="evenodd" d="M33.704 11.6165V11.8423H32.7012V11.6165H33.704ZM33.7704 11.0388V11.2579H33.1262V11.0388H33.7704Z" fill="white"/>
<path fill-rule="evenodd" clip-rule="evenodd" d="M36.9915 10.5009H40.2457V10.7267H36.9915V10.5009ZM37.4763 11.6298H37.7021V11.8423H37.4763V11.6298ZM40.259 11.6165V11.8423H39.6081V11.6165H40.259ZM40.6043 10.5009H40.8301V11.8423H40.6043V10.5009Z" fill="white"/>
<path fill-rule="evenodd" clip-rule="evenodd" d="M41.9058 11.6165V11.8423H40.6706V11.6165H41.9058ZM39.6013 11.0919H39.8271V11.8423H39.6013V11.0919Z" fill="white"/>
<path fill-rule="evenodd" clip-rule="evenodd" d="M41.72 10.5009H41.9458V11.8423H41.72V10.5009ZM41.1622 10.5009H41.3813V11.8423H41.1622V10.5009ZM38.1869 11.0321V11.2579H36.9915V11.0388L38.1869 11.0321ZM40.7969 11.0321V11.2579H39.6015V11.0388L40.7969 11.0321Z" fill="white"/>
<path fill-rule="evenodd" clip-rule="evenodd" d="M39.6079 11.0919H39.8271V11.8423H39.6079V11.0919Z" fill="white"/>
<path fill-rule="evenodd" clip-rule="evenodd" d="M39.6079 11.0919H39.8271V11.8423H39.6079V11.0919Z" fill="white"/>
<path fill-rule="evenodd" clip-rule="evenodd" d="M39.6081 11.0919H39.8273V11.8423H39.6081V11.0919ZM36.9915 11.0919H37.2173V11.8423H36.9915V11.0919ZM38.9108 11.0919H39.1299V11.8423H38.9108V11.0919ZM37.9611 11.0919H38.1869V11.8423H37.9611V11.0919Z" fill="white"/>
<path fill-rule="evenodd" clip-rule="evenodd" d="M39.0634 11.6165V11.8423H38.0605V11.6165H39.0634ZM39.1298 11.0388V11.2579H38.4922V11.0388H39.1298Z" fill="white"/>
<path fill-rule="evenodd" clip-rule="evenodd" d="M42.384 10.5009H45.6383V10.7267H42.384V10.5009ZM42.8688 11.6298H43.0946V11.8423H42.8688V11.6298ZM45.6515 11.6165V11.8423H45.0007V11.6165H45.6515ZM45.9969 10.5009H46.2227V11.8423H45.9969V10.5009Z" fill="white"/>
<path fill-rule="evenodd" clip-rule="evenodd" d="M47.2986 11.6165V11.8423H46.0633V11.6165H47.2986ZM45.0007 11.0919H45.2199V11.8423H45.0007V11.0919Z" fill="white"/>
<path fill-rule="evenodd" clip-rule="evenodd" d="M47.1126 10.5009H47.3384V11.8423H47.1126V10.5009ZM46.5548 10.5009H46.7739V11.8423H46.5548V10.5009ZM43.5795 11.0321V11.2579H42.384V11.0388L43.5795 11.0321ZM46.1895 11.0321V11.2579H44.9941V11.0388L46.1895 11.0321Z" fill="white"/>
<path fill-rule="evenodd" clip-rule="evenodd" d="M45.0007 11.0919H45.2199V11.8423H45.0007V11.0919Z" fill="white"/>
<path fill-rule="evenodd" clip-rule="evenodd" d="M45.0007 11.0919H45.2199V11.8423H45.0007V11.0919Z" fill="white"/>
<path fill-rule="evenodd" clip-rule="evenodd" d="M45.0006 11.0919H45.2198V11.8423H45.0006V11.0919ZM42.3906 11.0919H42.6098V11.8423H42.3906V11.0919ZM44.3033 11.0919H44.5291V11.8423H44.3033V11.0919ZM43.3536 11.0919H43.5794V11.8423H43.3536V11.0919Z" fill="white"/>
<path fill-rule="evenodd" clip-rule="evenodd" d="M44.4562 11.6165V11.8423H43.4534V11.6165H44.4562ZM44.5226 11.0388V11.2579H43.8851V11.0388H44.5226Z" fill="white"/>
<path fill-rule="evenodd" clip-rule="evenodd" d="M1.72624 23.5231H2.12472V24.2204H1.72624V23.5231ZM12.3855 23.5231H12.784V24.2204H12.3855V23.5231ZM-6.45581 23.5231H-6.05733V24.2204H-6.45581V23.5231ZM-1.04317 23.5231H-0.644693V24.2204H-1.04317V23.5231ZM4.32962 23.5231H4.7281V24.2204H4.32962V23.5231ZM6.98614 23.5231H7.38461V24.2204H6.98614V23.5231ZM9.70242 23.5231H10.1009V24.2204H9.70242V23.5231ZM15.042 23.5231H15.4405V24.2204H15.042V23.5231ZM28.5238 23.5231H28.9289V24.2204H28.5304L28.5238 23.5231ZM17.7583 23.5231H18.1568V24.2204H17.7583V23.5231ZM20.4148 23.5231H20.8133V24.2204H20.4148V23.5231ZM23.1045 23.5231H23.503V24.2204H23.1045V23.5231ZM25.7876 23.5231H26.1861V24.2204H25.7876V23.5231ZM47.2522 23.5231H47.6507V24.2204H47.2522V23.5231ZM31.1338 23.5231H31.5323V24.2204H31.1338V23.5231ZM33.8435 23.5231H34.2419V24.2204H33.8435V23.5231ZM36.5863 23.5231H36.9848V24.2204H36.5863V23.5231ZM39.1631 23.5231H39.5616V24.2204H39.1631V23.5231ZM41.906 23.5231H42.3045V24.2204H41.906V23.5231ZM44.589 23.5231H44.9875V24.2204H44.589V23.5231ZM52.5387 23.5231H52.9371V24.2204H52.5387V23.5231ZM49.9618 23.5231H50.3603V24.2204H49.9618V23.5231ZM-3.75945 23.5231H-3.36097V24.2204H-3.75945V23.5231Z" fill="#D90000"/>
<path fill-rule="evenodd" clip-rule="evenodd" d="M1.72624 11.7759H2.12472V12.4731H1.72624V11.7759ZM12.3855 11.7759H12.784V12.4731H12.3855V11.7759ZM-6.45581 11.7759H-6.05733V12.4731H-6.45581V11.7759ZM-1.04317 11.7759H-0.644693V12.4731H-1.04317V11.7759ZM4.32962 11.7759H4.7281V12.4731H4.32962V11.7759ZM6.98614 11.7759H7.38461V12.4731H6.98614V11.7759ZM9.70242 11.7759H10.1009V12.4731H9.70242V11.7759ZM15.042 11.7759H15.4405V12.4731H15.042V11.7759ZM28.5238 11.7759H28.9289V12.4731H28.5304L28.5238 11.7759ZM17.7583 11.7759H18.1568V12.4731H17.7583V11.7759ZM20.4148 11.7759H20.8133V12.4731H20.4148V11.7759ZM23.1045 11.7759H23.503V12.4731H23.1045V11.7759ZM25.7876 11.7759H26.1861V12.4731H25.7876V11.7759ZM47.2522 11.7759H47.6507V12.4731H47.2522V11.7759ZM31.1338 11.7759H31.5323V12.4731H31.1338V11.7759ZM33.8435 11.7759H34.2419V12.4731H33.8435V11.7759ZM36.5863 11.7759H36.9848V12.4731H36.5863V11.7759ZM39.1631 11.7759H39.5616V12.4731H39.1631V11.7759ZM41.906 11.7759H42.3045V12.4731H41.906V11.7759ZM44.589 11.7759H44.9875V12.4731H44.589V11.7759ZM52.5387 11.7759H52.9371V12.4731H52.5387V11.7759ZM49.9618 11.7759H50.3603V12.4731H49.9618V11.7759ZM-3.75945 11.7759H-3.36097V12.4731H-3.75945V11.7759Z" fill="#239E3F"/>
<path fill-rule="evenodd" clip-rule="evenodd" d="M24.8777 14.0934C25.4356 14.7841 27.169 18.5825 23.8351 21.0794C22.2611 22.2614 23.2373 22.3145 23.2838 22.5138C25.8075 21.179 26.6244 19.3595 26.6045 17.7325C26.5912 16.1122 25.7278 14.6778 24.8777 14.0934Z" fill="#DA0000"/>
<path fill-rule="evenodd" clip-rule="evenodd" d="M25.2098 13.9142C25.826 14.2891 26.3511 14.7962 26.7473 15.3989C27.1435 16.0016 27.4008 16.6848 27.5005 17.3991C27.6003 18.1133 27.5401 18.8409 27.3243 19.5291C27.1084 20.2172 26.7423 20.8488 26.2525 21.3782C28.0589 20.9798 30.37 15.6407 25.2098 13.9142ZM21.3844 13.9142C20.7687 14.2896 20.2441 14.7972 19.8486 15.4002C19.4531 16.0031 19.1964 16.6864 19.0973 17.4007C18.9982 18.1149 19.059 18.8423 19.2753 19.5302C19.4917 20.2181 19.8582 20.8493 20.3484 21.3782C18.5353 20.9798 16.2308 15.6407 21.3844 13.9142Z" fill="#DA0000"/>
<path fill-rule="evenodd" clip-rule="evenodd" d="M21.7166 14.0934C21.1587 14.7841 19.4253 18.5825 22.7593 21.0794C24.3266 22.2614 23.357 22.3145 23.3105 22.5138C20.7868 21.179 19.9699 19.3595 19.9899 17.7325C20.0031 16.1122 20.8665 14.6778 21.7166 14.0934Z" fill="#DA0000"/>
<path fill-rule="evenodd" clip-rule="evenodd" d="M26.4982 22.1684C25.5086 22.1817 24.2667 22.0356 23.3436 21.5509C23.4963 21.8497 23.6225 22.0356 23.7753 22.3278C24.6519 22.4142 25.8673 22.5138 26.4982 22.1684ZM20.189 22.1684C21.1785 22.1817 22.4204 22.0356 23.3436 21.5509C23.1908 21.8497 23.0646 22.0356 22.9119 22.3278C22.0352 22.4142 20.8199 22.5138 20.189 22.1684ZM22.002 12.9579C22.2013 13.4892 22.7259 13.5688 23.2838 13.2567C23.6956 13.4958 24.3265 13.5157 24.5456 12.9845C24.7117 14.2993 23.3303 13.9806 23.2838 13.7282C22.7658 14.2263 21.8094 13.9407 22.002 12.9579Z" fill="#DA0000"/>
<path fill-rule="evenodd" clip-rule="evenodd" d="M23.3236 22.9985L23.8417 22.4009L23.9147 14.4255L23.2971 13.881L22.6794 14.3989L22.8056 22.4341L23.3236 22.9985Z" fill="#DA0000"/>
</g>
</svg>
