<svg width="46" height="34" viewBox="0 0 46 34" fill="none" xmlns="http://www.w3.org/2000/svg">
<g clip-path="url(#clip0_2072_605)">
<path d="M0 0H45.33V33.9975H0V0Z" fill="white"/>
<path d="M0 0H45.33V10.1992H0V0Z" fill="#000001"/>
<path d="M0 23.7982H45.33V33.9975H0V23.7982Z" fill="#006600"/>
<path d="M16.5879 27.0918L16.9704 27.3043L26.8934 10.093C27.4671 9.96553 27.7858 9.41307 28.1045 8.86061C28.317 8.47814 29.167 7.012 29.5282 5.09964C28.5201 5.99545 27.6659 7.05065 26.9996 8.22316C26.6809 8.77562 26.3622 9.32808 26.5109 9.90179L16.5879 27.0918Z" fill="black" stroke="black" stroke-width="0.375"/>
<path d="M16.5879 27.0918L16.9704 27.3043L26.8934 10.093C27.4671 9.96553 27.7858 9.41307 28.1045 8.86061C28.317 8.47814 29.167 7.012 29.5282 5.09964C28.5201 5.99545 27.6659 7.05065 26.9996 8.22316C26.6809 8.77562 26.3622 9.32808 26.5109 9.90179L16.5879 27.0918Z" fill="white"/>
<path d="M28.7419 27.0918L28.3595 27.3043L18.4365 10.093C17.8627 9.96553 17.544 9.41307 17.2253 8.86061C17.0128 8.47814 16.1629 7.012 15.8016 5.09964C16.8097 5.99545 17.6639 7.05065 18.3302 8.22316C18.6489 8.77562 18.9677 9.32808 18.8189 9.90179L28.7419 27.0918Z" fill="black" stroke="black" stroke-width="0.375"/>
<path d="M28.7419 27.0918L28.3595 27.3043L18.4365 10.093C17.8627 9.96553 17.544 9.41307 17.2253 8.86061C17.0128 8.47814 16.1629 7.012 15.8016 5.09964C16.8097 5.99545 17.6639 7.05065 18.3302 8.22316C18.6489 8.77562 18.9677 9.32808 18.8189 9.90179L28.7419 27.0918Z" fill="white"/>
<path d="M45.3654 11.8991H26.7022C26.0648 10.1992 23.9399 6.7995 22.665 6.7995C21.3901 6.7995 19.2653 10.1992 18.6278 11.8991H-0.0141602V22.0984H18.6278C19.2653 23.7982 21.3901 27.198 22.665 27.198C23.9399 27.198 26.0648 23.7982 26.7022 22.0984H45.3654V11.8991Z" fill="#BB0000"/>
<path d="M26.7023 22.0984C27.3398 20.3985 27.7647 18.6986 27.7647 16.9988C27.7647 15.2989 27.3398 13.599 26.7023 11.8991C26.0649 13.599 25.6399 15.2989 25.6399 16.9988C25.6399 18.6986 26.0649 20.3985 26.7023 22.0984Z" fill="black"/>
<path d="M18.6278 22.0984C17.9903 20.3985 17.5653 18.6986 17.5653 16.9988C17.5653 15.2989 17.9903 13.599 18.6278 11.8991C19.2652 13.599 19.6902 15.2989 19.6902 16.9988C19.6902 18.6986 19.2652 20.3985 18.6278 22.0984Z" fill="black"/>
<path d="M22.6649 18.2737C23.1343 18.2737 23.5148 17.7029 23.5148 16.9988C23.5148 16.2946 23.1343 15.7238 22.6649 15.7238C22.1955 15.7238 21.8149 16.2946 21.8149 16.9988C21.8149 17.7029 22.1955 18.2737 22.6649 18.2737Z" fill="white"/>
<path d="M22.8774 18.2312C22.8774 18.2312 23.7274 19.931 23.7274 22.6933C23.7274 25.4556 22.8774 27.1555 22.8774 27.1555V18.2312Z" fill="white"/>
<path d="M22.4524 15.7664C22.4524 15.7664 21.6025 14.0665 21.6025 11.3042C21.6025 8.54189 22.4524 6.84201 22.4524 6.84201V15.7664Z" fill="white"/>
<path d="M22.4524 18.2312C22.4524 18.2312 21.6025 19.931 21.6025 22.6933C21.6025 25.4556 22.4524 27.1555 22.4524 27.1555V18.2312Z" fill="white"/>
<path d="M22.8774 15.7664C22.8774 15.7664 23.7274 14.0665 23.7274 11.3042C23.7274 8.54189 22.8774 6.84201 22.8774 6.84201V15.7664Z" fill="white"/>
</g>
<defs>
<clipPath id="clip0_2072_605">
<rect width="45.33" height="33.9975" fill="white"/>
</clipPath>
</defs>
</svg>
