<svg width="46" height="34" viewBox="0 0 46 34" fill="none" xmlns="http://www.w3.org/2000/svg">
<mask id="mask0_1975_953" style="mask-type:luminance" maskUnits="userSpaceOnUse" x="0" y="0" width="46" height="34">
<path d="M0 0H45.3378V34H0.00664192L0 0Z" fill="white"/>
</mask>
<g mask="url(#mask0_1975_953)">
<path fill-rule="evenodd" clip-rule="evenodd" d="M51.2093 33.9668H-5.37988V0.0266113H51.2093V33.9668Z" fill="white" stroke="black" stroke-width="0.11721"/>
<path fill-rule="evenodd" clip-rule="evenodd" d="M51.2093 27.823H-5.37988V33.9668H51.2093V27.823Z" fill="#3E5698"/>
<path fill-rule="evenodd" clip-rule="evenodd" d="M51.2093 26.4016H-5.37988V7.59167H51.2093V26.4016Z" fill="#C60000"/>
<path fill-rule="evenodd" clip-rule="evenodd" d="M51.2093 0.0332031H-5.37988V6.17034H51.2093V0.0332031Z" fill="#3E5698"/>
<path fill-rule="evenodd" clip-rule="evenodd" d="M21.4866 16.9966C21.4866 21.2143 17.9664 24.6348 13.6093 24.6348C9.25215 24.6348 5.73193 21.2143 5.73193 16.9966C5.73193 12.779 9.25215 9.3717 13.6093 9.3717C17.9597 9.3717 21.4866 12.7857 21.4866 17.0033V16.9966Z" fill="white"/>
<path fill-rule="evenodd" clip-rule="evenodd" d="M11.3445 17.9664L7.55859 15.2631L12.2744 15.2498L13.7821 10.8396L15.1835 15.2299L19.8993 15.2033L16.0536 17.9398L17.4683 22.3301L13.6824 19.6269L9.83013 22.37L11.3445 17.9664Z" fill="#C40000"/>
</g>
</svg>
