<svg width="46" height="35" viewBox="0 0 46 35" fill="none" xmlns="http://www.w3.org/2000/svg">
<g clip-path="url(#clip0_2072_656)">
<mask id="mask0_2072_656" style="mask-type:luminance" maskUnits="userSpaceOnUse" x="0" y="0" width="46" height="35">
<path d="M0.310547 0.474152H45.6428V34.4717H0.310547V0.474152Z" fill="white"/>
</mask>
<g mask="url(#mask0_2072_656)">
<path fill-rule="evenodd" clip-rule="evenodd" d="M0.310547 0.474152H51.3068V11.0984H0.310547V0.474152Z" fill="#009A00"/>
<path fill-rule="evenodd" clip-rule="evenodd" d="M0.310547 11.0984H51.3068V12.1608H0.310547V11.0984Z" fill="white"/>
<path fill-rule="evenodd" clip-rule="evenodd" d="M0.310547 12.1608H51.3068V22.785H0.310547V12.1608Z" fill="#000001"/>
<path fill-rule="evenodd" clip-rule="evenodd" d="M0.310547 22.785H51.3068V23.8474H0.310547V22.785Z" fill="white"/>
<path fill-rule="evenodd" clip-rule="evenodd" d="M0.310547 23.8474H51.3068V34.4717H0.310547V23.8474Z" fill="#FFCA00"/>
<path fill-rule="evenodd" clip-rule="evenodd" d="M0.310547 0.474152V34.4717L22.6214 17.4729L0.310547 0.474152Z" fill="#FF0000"/>
<path fill-rule="evenodd" clip-rule="evenodd" d="M13.4913 22.5858L10.0915 20.0957L6.69179 22.5858L8.01318 18.5818L4.59351 16.1183L8.80999 16.1316L10.0915 12.1209L11.3797 16.1382L15.5962 16.1183L12.1765 18.5818L13.4913 22.5858Z" fill="#FFCA00"/>
<path fill-rule="evenodd" clip-rule="evenodd" d="M7.13672 19.7903H9.59357C9.79277 20.0094 10.2244 20.1024 10.6427 19.7903C11.413 19.3653 12.9004 19.7903 12.9004 19.7903L13.1925 19.4782L12.482 17.1409L12.2231 16.862C12.2231 16.862 11.6719 16.53 10.6294 16.6429C9.58693 16.7558 9.22172 16.6097 9.22172 16.6097C9.22172 16.6097 8.31202 16.7159 8.05306 16.8487L7.76089 17.1409L7.13672 19.7903Z" fill="white" stroke="black" stroke-width="0.128906" stroke-linecap="round" stroke-linejoin="round"/>
<path d="M7.63452 19.1861C7.63452 19.1861 9.97185 18.8939 10.6491 19.7903C10.2707 20.0559 9.93201 20.0758 9.57344 19.8102C9.62656 19.7106 10.4101 18.8939 12.4088 19.1661" stroke="black" stroke-width="0.128906" stroke-linecap="round" stroke-linejoin="round"/>
<path d="M10.1378 16.8487L10.1179 19.4245M12.2224 16.8819L12.6605 18.9333" stroke="black" stroke-width="0.140625"/>
<path d="M8.07937 16.8487L7.83374 17.9109" stroke="black" stroke-width="0.128906" stroke-linecap="round" stroke-linejoin="round"/>
<path fill-rule="evenodd" clip-rule="evenodd" d="M5.54956 20.0692L6.12061 20.7465C6.18701 20.7863 6.25342 20.7863 6.31318 20.7465L7.16311 19.7239L7.52168 19.279C7.58144 19.2126 7.59472 19.1396 7.58808 19.0798L8.27866 18.4623L8.42474 18.4756C8.35834 18.4623 8.31186 18.4291 8.35834 18.356L8.5177 18.2365L8.63722 18.3892C8.63722 18.3892 8.46458 18.615 8.44466 18.615H8.25874L7.90017 18.9404L8.05953 19.0732L8.29194 19.7239L8.5841 19.5181L8.39818 18.854L8.80323 18.4092L8.6505 18.1701L8.75675 18.0373C8.75675 18.0373 10.1711 18.9271 10.7222 18.688C10.7355 18.688 10.7554 18.0506 10.7554 18.0506C10.7554 18.0506 9.28132 17.8979 9.24812 17.6057C9.21492 17.3135 9.58012 17.2737 9.58012 17.2737L9.42076 17.0612L9.45396 16.9417L9.71293 17.2604L10.2906 16.769L13.7103 20.6602C13.8962 20.5871 13.9361 20.5406 13.9493 20.3547L10.6027 16.5101L10.855 16.2378C10.9082 16.1781 10.9214 16.1582 10.9214 16.0652L11.3198 15.7265C11.4242 15.7623 11.5132 15.8326 11.5722 15.9257L12.6611 15.016C12.6877 15.0426 12.774 15.0692 12.8338 15.0426L14.62 13.3228L12.6744 14.6973L12.608 14.6508C12.608 14.5911 12.6744 14.5844 12.608 14.4782C12.5283 14.3852 12.4155 14.5645 12.4022 14.5645C12.3823 14.5645 12.1167 14.4716 12.0569 14.352L12.0436 14.6641L11.5456 15.1289L11.1671 15.109L10.6226 15.6402L10.5562 15.8394L10.6425 16.0187C10.6425 16.0187 10.3504 16.271 10.3504 16.2578C10.3504 16.2378 10.2906 16.1781 10.284 16.1714L10.5363 15.9457L10.5695 15.7929L10.4898 15.6601C10.4633 15.6801 10.1445 16.0187 10.1246 15.9789L9.195 14.9496L9.24812 14.7571L8.67042 14.1263C8.45794 14.0532 8.11929 14.0399 8.05289 14.5048C7.99977 14.611 7.56152 14.518 7.56152 14.518L7.32248 14.5712L5.96789 16.4769L6.71822 17.3799L8.25874 15.4344L8.30522 14.8832L8.62394 15.2418C8.73683 15.2551 8.83643 15.2617 8.93603 15.2086L9.84573 16.2246L9.69301 16.3773L9.82581 16.5234L9.98517 16.4171L10.0449 16.5034C9.97189 16.5433 9.91213 16.603 9.83909 16.6429C9.71957 16.5632 9.60004 16.4636 9.60668 16.3109L9.09539 16.7358L9.07547 16.8155L7.55488 18.0772L7.42208 18.0971L7.38888 18.4955L8.37826 17.6721V17.5526L8.47786 17.6389L9.24812 17.0214C9.24812 17.0214 9.30124 17.0878 9.28132 17.0878C9.2614 17.0878 8.59738 17.7053 8.59738 17.7053L8.5841 17.7717L8.46458 17.8779L8.39818 17.8248L7.46856 18.6482H7.33576L6.82447 19.1595C6.69166 19.1728 6.57878 19.1861 6.4659 19.2591L5.54956 20.0692Z" fill="black" stroke="black" stroke-width="0.128906" stroke-linecap="round" stroke-linejoin="round"/>
</g>
</g>
<defs>
<clipPath id="clip0_2072_656">
<rect width="45.33" height="33.9975" fill="white" transform="translate(0.310547 0.474152)"/>
</clipPath>
</defs>
</svg>
