<svg width="46" height="35" viewBox="0 0 46 35" fill="none" xmlns="http://www.w3.org/2000/svg">
<g clip-path="url(#clip0_2072_858)">
<path d="M0.310547 0.474152H45.6405V34.4717H0.310547V0.474152Z" fill="#FECB00"/>
<path d="M0.310547 11.8066H45.6405V34.4716H0.310547V11.8066Z" fill="#34B233"/>
<path d="M0.310547 23.1392H45.6405V34.4717H0.310547V23.1392Z" fill="#EA2839"/>
<path d="M22.9755 6.14182L26.7339 18.6699H19.217L22.9755 6.14182Z" fill="white"/>
<path d="M15.6117 28.8053L19.9349 16.4607L26.0162 20.879L15.6117 28.8053Z" fill="white"/>
<path d="M11.0606 14.7985L24.1369 15.0954L21.8141 22.2444L11.0606 14.7985Z" fill="white"/>
<path d="M34.8904 14.7985L24.1369 22.2444L21.8141 15.0954L34.8904 14.7985Z" fill="white"/>
<path d="M30.3393 28.8053L19.9348 20.8791L26.0161 16.4608L30.3393 28.8053Z" fill="white"/>
</g>
<defs>
<clipPath id="clip0_2072_858">
<rect width="45.33" height="33.9975" fill="white" transform="translate(0.310547 0.474152)"/>
</clipPath>
</defs>
</svg>
