<svg width="46" height="35" viewBox="0 0 46 35" fill="none" xmlns="http://www.w3.org/2000/svg">
<g clip-path="url(#clip0_2069_588)">
<mask id="mask0_2069_588" style="mask-type:luminance" maskUnits="userSpaceOnUse" x="0" y="0" width="46" height="35">
<path d="M0.310547 0.474152H45.6405V34.4717H0.310547V0.474152Z" fill="white"/>
</mask>
<g mask="url(#mask0_2069_588)">
<path fill-rule="evenodd" clip-rule="evenodd" d="M0.310547 0.474152H45.6405V34.4717H0.310547V0.474152Z" fill="white"/>
<path fill-rule="evenodd" clip-rule="evenodd" d="M-1.55933 0.488317L-1.50266 24.9665L36.61 0.474152L-1.55933 0.488317Z" fill="#3662A2"/>
<path fill-rule="evenodd" clip-rule="evenodd" d="M47.5105 34.4433L47.4113 8.99478L8.9729 34.4575L47.5034 34.4433H47.5105Z" fill="#38A100"/>
<path fill-rule="evenodd" clip-rule="evenodd" d="M-1.53101 26.808L-1.50267 34.4716L6.81963 34.4646L47.4396 7.23115L47.39 0.56622L39.1739 0.495392L-1.53101 26.801V26.808Z" fill="#C70000"/>
<path fill-rule="evenodd" clip-rule="evenodd" d="M15.8644 12.6566L14.3203 11.7216L13.4279 13.2869L12.5638 11.7146L11.0056 12.6282L11.0481 10.8292L9.24902 10.8434L10.184 9.29932L8.61865 8.41397L10.191 7.54279L9.28444 5.98457L11.0835 6.02706L11.0764 4.22095L12.6134 5.15588L13.5058 3.59058L14.3699 5.16296L15.9281 4.24928L15.8856 6.04831L17.6847 6.03415L16.7497 7.5782L18.315 8.46355L16.7426 9.33474L17.6492 10.893L15.8502 10.8505L15.8644 12.6566Z" fill="#FFE700"/>
<path fill-rule="evenodd" clip-rule="evenodd" d="M16.7711 8.43522C16.7711 10.2484 15.2908 11.7146 13.4705 11.7146C11.6502 11.7146 10.1699 10.2484 10.1699 8.43522C10.1699 6.62202 11.6431 5.16296 13.4705 5.16296C15.2979 5.16296 16.7711 6.62911 16.7711 8.43522Z" fill="#3662A2"/>
<path fill-rule="evenodd" clip-rule="evenodd" d="M16.0557 8.43523C16.0557 9.12088 15.7833 9.77844 15.2985 10.2633C14.8137 10.7481 14.1561 11.0205 13.4705 11.0205C12.7848 11.0205 12.1273 10.7481 11.6424 10.2633C11.1576 9.77844 10.8853 9.12088 10.8853 8.43523C10.8853 7.74959 11.1576 7.09203 11.6424 6.6072C12.1273 6.12238 12.7848 5.85001 13.4705 5.85001C14.1561 5.85001 14.8137 6.12238 15.2985 6.6072C15.7833 7.09203 16.0557 7.74959 16.0557 8.43523Z" fill="#FFE700"/>
</g>
</g>
<defs>
<clipPath id="clip0_2069_588">
<rect width="45.33" height="33.9975" fill="white" transform="translate(0.310547 0.474152)"/>
</clipPath>
</defs>
</svg>
