<svg width="46" height="35" viewBox="0 0 46 35" fill="none" xmlns="http://www.w3.org/2000/svg">
<g clip-path="url(#clip0_2072_674)">
<path d="M0.310547 0.474152H45.6405V17.4729H0.310547V0.474152Z" fill="#0038A8"/>
<path d="M0.310547 17.4729H45.6405V34.4717H0.310547V17.4729Z" fill="#CE1126"/>
<path d="M29.7538 17.4729L0.310547 34.4717V0.474152" fill="white"/>
<path d="M2.20176 3.47726L3.21461 4.3697L4.39035 3.71808L3.86622 4.95757L4.85782 5.87834L3.51208 5.76501L2.93838 6.98326L2.63381 5.67294L1.30225 5.50295L2.45674 4.79467L2.20176 3.47726ZM25.1359 15.6809L25.1642 17.0267L26.4391 17.4729L25.1642 17.912L25.1359 19.2578L24.3214 18.1883L23.0323 18.5778L23.7973 17.4729L23.0323 16.368L24.3214 16.7575L25.1359 15.6809ZM2.94546 27.9625L3.51208 29.1808L4.85782 29.0675L3.87331 29.9882L4.39744 31.2277L3.22169 30.5832L2.20176 31.4615L2.45674 30.137L1.30225 29.4429L2.6409 29.2729L2.94546 27.9625ZM11.034 10.3263L10.5949 10.7655L10.8145 14.0944L10.602 14.1156L10.1983 11.0771L9.83704 11.4313L10.3753 14.1511C9.94007 14.2367 9.52604 14.4076 9.15709 14.6539L7.62011 12.3591H7.11015L8.98001 14.7885C8.92183 14.8339 8.86514 14.8811 8.81003 14.9302L6.60727 12.4158H5.98399V13.0391L8.4913 15.2347L8.34964 15.4118L5.92024 13.549V14.0519L8.22215 15.5889C7.98134 15.9572 7.80427 16.368 7.71927 16.8071L5.00656 16.2688L4.64533 16.623L7.68386 17.0267C7.66969 17.0975 7.66261 17.1754 7.66261 17.2463L4.33369 17.0338L3.89456 17.4729L4.33369 17.912L7.66261 17.6925L7.68386 17.912L4.64533 18.3158L4.99947 18.6699L7.71927 18.1316C7.80494 18.5669 7.97585 18.9809 8.22215 19.3498L5.92024 20.8868V21.3968L8.34964 19.534C8.39501 19.5922 8.44225 19.6489 8.4913 19.704L5.98399 21.8997V22.5229H6.61436L8.81003 20.0156L8.9871 20.1573L7.11015 22.5867H7.62011L9.15709 20.2848C9.51831 20.5256 9.93619 20.7027 10.3753 20.7877L9.83704 23.5075L10.1912 23.8616L10.5949 20.8231C10.6657 20.8372 10.7366 20.8443 10.8145 20.8443L10.602 24.1732L11.034 24.6124L11.4802 24.1732L11.2607 20.8443L11.4732 20.8231L11.8769 23.8687L12.2381 23.5075L11.6998 20.7877C12.1351 20.702 12.5491 20.5311 12.9181 20.2848L14.455 22.5867H14.965L13.0951 20.1573C13.1533 20.1119 13.21 20.0647 13.2651 20.0156L15.4679 22.5229H16.0912V21.8997L13.5838 19.704L13.7255 19.534L16.1549 21.3968V20.8868L13.853 19.3498C14.0938 18.9886 14.2709 18.5707 14.3559 18.1316L17.0686 18.6699L17.4298 18.3158L14.3913 17.912C14.4054 17.8412 14.4125 17.7704 14.4125 17.6925L17.7415 17.905L18.1806 17.4729L17.7415 17.0338L14.4125 17.2463L14.3913 17.0338L17.4298 16.63L17.0757 16.2759L14.3559 16.8071C14.2702 16.3719 14.0993 15.9578 13.853 15.5889L16.1549 14.0519V13.549L13.7255 15.4118C13.6801 15.3536 13.6329 15.2969 13.5838 15.2418L16.0912 13.0461V12.4158H15.4679L13.2722 14.9302C13.2148 14.881 13.1557 14.8338 13.0951 14.7885L14.965 12.3591H14.455L12.9181 14.6539C12.5568 14.4131 12.1389 14.2361 11.6998 14.1511L12.2381 11.4383L11.884 11.0842L11.4802 14.1156L11.2607 14.0944L11.4732 10.7655L11.034 10.3263Z" fill="#FCD116"/>
</g>
<defs>
<clipPath id="clip0_2072_674">
<rect width="45.33" height="33.9975" fill="white" transform="translate(0.310547 0.474152)"/>
</clipPath>
</defs>
</svg>
