<svg width="46" height="35" viewBox="0 0 46 35" fill="none" xmlns="http://www.w3.org/2000/svg">
<g clip-path="url(#clip0_2072_642)">
<mask id="mask0_2072_642" style="mask-type:luminance" maskUnits="userSpaceOnUse" x="0" y="0" width="46" height="35">
<path d="M0.310303 0.474152H45.6415V34.4709H0.310303V0.474152Z" fill="white"/>
</mask>
<g mask="url(#mask0_2072_642)">
<path fill-rule="evenodd" clip-rule="evenodd" d="M0.310303 27.5521V7.40631L15.3101 17.4792L0.310303 27.5521Z" fill="#000001"/>
<path fill-rule="evenodd" clip-rule="evenodd" d="M10.5425 34.4776L27.3815 23.1497H51.2988V34.4709H10.5425V34.4776Z" fill="#000C8A"/>
<path fill-rule="evenodd" clip-rule="evenodd" d="M9.4668 0.474157H51.2988V11.8153H27.3749C27.3749 11.8153 9.68592 0.361277 9.4668 0.474157Z" fill="#E1392D"/>
<path fill-rule="evenodd" clip-rule="evenodd" d="M0.310351 4.72375V7.40631L15.3101 17.4725L0.303711 27.5521V30.228L19.1945 17.4792L0.310351 4.72375Z" fill="#FFB915"/>
<path fill-rule="evenodd" clip-rule="evenodd" d="M0.310303 4.72375V0.474152H6.6183L26.618 14.0197H51.3055V20.9386H26.618L6.61166 34.4709H0.310303V30.228L19.1944 17.4792L0.316943 4.72375H0.310303Z" fill="#007847"/>
<path fill-rule="evenodd" clip-rule="evenodd" d="M6.61182 0.474152H10.5427L27.3817 11.8086H51.299V14.0197H26.6181L6.61182 0.474152ZM6.61182 34.4776H10.5427L27.3817 23.1497H51.299V20.9453H26.6181L6.61182 34.4709V34.4776Z" fill="white"/>
</g>
</g>
<defs>
<clipPath id="clip0_2072_642">
<rect width="45.33" height="33.9975" fill="white" transform="translate(0.310547 0.474152)"/>
</clipPath>
</defs>
</svg>
