<svg width="46" height="34" viewBox="0 0 46 34" fill="none" xmlns="http://www.w3.org/2000/svg">
<g clip-path="url(#clip0_2069_169)">
<path d="M0 0H45.34V34.005H0V0Z" fill="#CF142B"/>
<path d="M0 0H45.34V22.67H0V0Z" fill="#00247D"/>
<path d="M0 0H45.34V11.335H0V0Z" fill="#FFCC00"/>
<path d="M24.6874 12.3616L24.0326 13.6273L24.7697 14.0163L24.6874 12.3616Z" fill="white"/>
<path d="M24.6874 12.3616L24.8698 13.775L24.0441 13.8883L24.6874 12.3616Z" fill="white"/>
<path d="M25.8446 13.5598L24.4384 13.3282L24.2963 14.1494L25.8446 13.5598Z" fill="white"/>
<path d="M25.8447 13.5598L24.5568 14.17L24.1939 13.4198L25.8447 13.5598Z" fill="white"/>
<path d="M23.1903 13.0918L24.1917 14.1057L24.7894 13.5248L23.1903 13.0918Z" fill="white"/>
<path d="M23.1903 13.0918L24.5909 13.3551L24.4436 14.1754L23.1903 13.0918Z" fill="white"/>
<path d="M25.0625 15.0305L24.8483 13.6216L24.0234 13.7402L25.0625 15.0305Z" fill="white"/>
<path d="M25.0625 15.0305L24.0841 13.9943L24.6855 13.4172L25.0625 15.0305Z" fill="white"/>
<path d="M23.4223 14.7412L24.696 14.1021L24.3283 13.3542L23.4223 14.7412Z" fill="white"/>
<path d="M23.4222 14.7412L24.1054 13.4906L24.84 13.8841L23.4222 14.7412Z" fill="white"/>
<path d="M28.4792 13.7417L27.431 14.7071L27.9906 15.3247L28.4792 13.7417Z" fill="white"/>
<path d="M28.4793 13.7417L28.1673 15.1322L27.3526 14.9563L28.4793 13.7417Z" fill="white"/>
<path d="M29.1567 15.2633L27.9146 14.5648L27.5002 15.2878L29.1567 15.2633Z" fill="white"/>
<path d="M29.1567 15.2633L27.7379 15.3963L27.6534 14.5672L29.1567 15.2633Z" fill="white"/>
<path d="M26.8227 13.9158L27.417 15.2111L28.1773 14.8697L26.8227 13.9158Z" fill="white"/>
<path d="M26.8228 13.9158L28.0488 14.6422L27.6298 15.3627L26.8228 13.9158Z" fill="white"/>
<path d="M27.9188 16.3779L28.1994 14.9807L27.3836 14.81L27.9188 16.3779Z" fill="white"/>
<path d="M27.9188 16.3779L27.3539 15.0696L28.1164 14.733L27.9188 16.3779Z" fill="white"/>
<path d="M26.4763 15.545L27.8918 15.3801L27.802 14.5515L26.4763 15.545Z" fill="white"/>
<path d="M26.4764 15.545L27.5461 14.6035L28.1018 15.2246L26.4764 15.545Z" fill="white"/>
<path d="M31.5701 16.3354L30.2549 16.8841L30.5696 17.6558L31.5701 16.3354Z" fill="white"/>
<path d="M31.57 16.3354L30.8013 17.5353L30.0959 17.0914L31.57 16.3354Z" fill="white"/>
<path d="M31.6864 17.9969L30.7581 16.9156L30.1214 17.4534L31.6864 17.9969Z" fill="white"/>
<path d="M31.6864 17.9969L30.3077 17.6366L30.5118 16.8286L31.6864 17.9969Z" fill="white"/>
<path d="M29.9539 15.9324L30.0694 17.3528L30.9006 17.292L29.9539 15.9324Z" fill="white"/>
<path d="M29.954 15.9324L30.8577 17.0343L30.2175 17.568L29.954 15.9324Z" fill="white"/>
<path d="M30.1418 18.6209L30.8833 17.4039L30.1751 16.9645L30.1418 18.6209Z" fill="white"/>
<path d="M30.1417 18.6209L30.0583 17.1983L30.8899 17.1428L30.1417 18.6209Z" fill="white"/>
<path d="M29.0712 17.345L30.4577 17.6741L30.6568 16.8648L29.0712 17.345Z" fill="white"/>
<path d="M29.0712 17.345L30.3984 16.826L30.7082 17.5998L29.0712 17.345Z" fill="white"/>
<path d="M33.5875 19.8298L32.164 19.8956L32.1957 20.7284L33.5875 19.8298Z" fill="white"/>
<path d="M33.5875 19.8298L32.4547 20.6944L31.9437 20.0361L33.5875 19.8298Z" fill="white"/>
<path d="M33.1284 21.4309L32.626 20.0973L31.8437 20.3849L33.1284 21.4309Z" fill="white"/>
<path d="M33.1284 21.4309L31.956 20.6207L32.4243 19.9312L33.1284 21.4309Z" fill="white"/>
<path d="M32.2068 18.8984L31.8295 20.2726L32.6313 20.4998L32.2068 18.8984Z" fill="white"/>
<path d="M32.2068 18.8984L32.6791 20.2429L31.895 20.5255L32.2068 18.8984Z" fill="white"/>
<path d="M31.4638 21.489L32.5768 20.5991L32.0616 19.9439L31.4638 21.489Z" fill="white"/>
<path d="M31.4637 21.489L31.8719 20.1237L32.6724 20.3559L31.4637 21.489Z" fill="white"/>
<path d="M30.894 19.9238L32.0844 20.7073L32.5482 20.0149L30.894 19.9238Z" fill="white"/>
<path d="M30.8941 19.9238L32.3187 19.8902L32.3452 20.7232L30.8941 19.9238Z" fill="white"/>
<path d="M11.7523 19.8298L12.8851 20.6944L13.3961 20.0361L11.7523 19.8298Z" fill="white"/>
<path d="M11.7523 19.8298L13.1759 19.8956L13.1442 20.7284L11.7523 19.8298Z" fill="white"/>
<path d="M13.1333 18.8984L12.661 20.2429L13.4451 20.5255L13.1333 18.8984Z" fill="white"/>
<path d="M13.1333 18.8984L13.5106 20.2726L12.7088 20.4998L13.1333 18.8984Z" fill="white"/>
<path d="M12.2114 21.4309L13.3838 20.6207L12.9156 19.9313L12.2114 21.4309Z" fill="white"/>
<path d="M12.2114 21.4309L12.7139 20.0974L13.4962 20.3849L12.2114 21.4309Z" fill="white"/>
<path d="M14.4458 19.9239L13.0211 19.8902L12.9947 20.7232L14.4458 19.9239Z" fill="white"/>
<path d="M14.4458 19.9239L13.2555 20.7074L12.7916 20.015L14.4458 19.9239Z" fill="white"/>
<path d="M13.8761 21.489L13.4679 20.1237L12.6675 20.3559L13.8761 21.489Z" fill="white"/>
<path d="M13.8761 21.489L12.7631 20.5991L13.2783 19.9439L13.8761 21.489Z" fill="white"/>
<path d="M13.7701 16.3354L14.5388 17.5353L15.2442 17.0914L13.7701 16.3354Z" fill="white"/>
<path d="M13.77 16.3354L15.0852 16.8841L14.7705 17.6558L13.77 16.3354Z" fill="white"/>
<path d="M15.3863 15.9324L14.4826 17.0343L15.1228 17.568L15.3863 15.9324Z" fill="white"/>
<path d="M15.3864 15.9324L15.271 17.3528L14.4398 17.292L15.3864 15.9324Z" fill="white"/>
<path d="M13.6537 17.9969L15.0324 17.6366L14.8282 16.8286L13.6537 17.9969Z" fill="white"/>
<path d="M13.6537 17.9969L14.582 16.9157L15.2187 17.4534L13.6537 17.9969Z" fill="white"/>
<path d="M16.2687 17.345L14.9415 16.826L14.6317 17.5998L16.2687 17.345Z" fill="white"/>
<path d="M16.2687 17.345L14.8821 17.6741L14.6831 16.8648L16.2687 17.345Z" fill="white"/>
<path d="M15.1982 18.6209L15.2815 17.1983L14.45 17.1428L15.1982 18.6209Z" fill="white"/>
<path d="M15.1981 18.6209L14.4566 17.4039L15.1648 16.9645L15.1981 18.6209Z" fill="white"/>
<path d="M16.8608 13.7417L17.1728 15.1322L17.9874 14.9563L16.8608 13.7417Z" fill="white"/>
<path d="M16.8609 13.7417L17.9091 14.7071L17.3495 15.3247L16.8609 13.7417Z" fill="white"/>
<path d="M18.5173 13.9158L17.2913 14.6422L17.7103 15.3627L18.5173 13.9158Z" fill="white"/>
<path d="M18.5174 13.9158L17.9231 15.2111L17.1628 14.8697L18.5174 13.9158Z" fill="white"/>
<path d="M16.1834 15.2633L17.6022 15.3963L17.6867 14.5672L16.1834 15.2633Z" fill="white"/>
<path d="M16.1833 15.2633L17.4254 14.5648L17.8399 15.2878L16.1833 15.2633Z" fill="white"/>
<path d="M18.8637 15.5451L17.794 14.6035L17.2383 15.2246L18.8637 15.5451Z" fill="white"/>
<path d="M18.8638 15.5451L17.4483 15.3801L17.5381 14.5516L18.8638 15.5451Z" fill="white"/>
<path d="M17.4213 16.3779L17.9862 15.0696L17.2237 14.733L17.4213 16.3779Z" fill="white"/>
<path d="M17.4213 16.3779L17.1407 14.9807L17.9565 14.81L17.4213 16.3779Z" fill="white"/>
<path d="M20.6525 12.3616L20.4701 13.775L21.2958 13.8884L20.6525 12.3616Z" fill="white"/>
<path d="M20.6524 12.3617L21.3072 13.6274L20.5701 14.0163L20.6524 12.3617Z" fill="white"/>
<path d="M22.1495 13.0918L20.749 13.3551L20.8963 14.1754L22.1495 13.0918Z" fill="white"/>
<path d="M22.1496 13.0918L21.1481 14.1057L20.5504 13.5248L22.1496 13.0918Z" fill="white"/>
<path d="M19.4954 13.5598L20.7832 14.17L21.1462 13.4198L19.4954 13.5598Z" fill="white"/>
<path d="M19.4955 13.5598L20.9017 13.3282L21.0438 14.1494L19.4955 13.5598Z" fill="white"/>
<path d="M21.9176 14.7412L21.2344 13.4906L20.4998 13.8842L21.9176 14.7412Z" fill="white"/>
<path d="M21.9176 14.7412L20.6439 14.1021L21.0116 13.3542L21.9176 14.7412Z" fill="white"/>
<path d="M20.2774 15.0305L21.2557 13.9943L20.6543 13.4172L20.2774 15.0305Z" fill="white"/>
<path d="M20.2773 15.0305L20.4915 13.6216L21.3165 13.7402L20.2773 15.0305Z" fill="white"/>
</g>
<defs>
<clipPath id="clip0_2069_169">
<rect width="45.34" height="34.005" fill="white"/>
</clipPath>
</defs>
</svg>
