<svg width="31" height="31" viewBox="0 0 31 31" fill="none" xmlns="http://www.w3.org/2000/svg">
<circle cx="15.0498" cy="15.25" r="15" fill="#F0DE7E"/>
<path d="M13.32 9.31249C12.1909 8.77343 10.6128 8.50937 8.5 8.49999C8.30074 8.49729 8.10539 8.55539 7.94 8.66655C7.80425 8.75831 7.69312 8.88203 7.6164 9.02681C7.53967 9.17159 7.4997 9.33301 7.5 9.49687V18.4375C7.5 19.0419 7.93 19.4978 8.5 19.4978C10.7209 19.4978 12.9488 19.7053 14.2831 20.9666C14.3014 20.9839 14.3243 20.9955 14.3491 20.9999C14.3739 21.0043 14.3994 21.0013 14.4225 20.9913C14.4456 20.9813 14.4653 20.9648 14.4791 20.9437C14.4928 20.9226 14.5001 20.898 14.5 20.8728V10.3381C14.5001 10.267 14.4849 10.1968 14.4554 10.1321C14.426 10.0674 14.383 10.0098 14.3294 9.96312C14.0237 9.70182 13.6842 9.48296 13.32 9.31249ZM22.06 8.66562C21.8945 8.55473 21.6992 8.49695 21.5 8.49999C19.3872 8.50937 17.8091 8.77218 16.68 9.31249C16.3158 9.48266 15.9762 9.70108 15.6703 9.96187C15.6168 10.0086 15.5739 10.0662 15.5446 10.1309C15.5152 10.1956 15.5 10.2658 15.5 10.3369V20.8722C15.5 20.8964 15.5071 20.92 15.5205 20.9402C15.5339 20.9603 15.5529 20.9761 15.5752 20.9855C15.5975 20.9948 15.6221 20.9974 15.6458 20.9929C15.6696 20.9884 15.6915 20.9769 15.7088 20.96C16.5109 20.1631 17.9188 19.4969 21.5013 19.4972C21.7665 19.4972 22.0208 19.3918 22.2084 19.2043C22.3959 19.0168 22.5013 18.7624 22.5013 18.4972V9.49718C22.5016 9.333 22.4616 9.17126 22.3846 9.02623C22.3076 8.8812 22.1962 8.75735 22.06 8.66562Z" fill="#195A94"/>
</svg>
