<svg width="46" height="46" viewBox="0 0 46 46" fill="none" xmlns="http://www.w3.org/2000/svg">
<path d="M23.0002 3.83398C33.5859 3.83398 42.1668 12.4149 42.1668 23.0007C42.1668 33.5864 33.5859 42.1673 23.0002 42.1673C12.4144 42.1673 3.8335 33.5864 3.8335 23.0007C3.8335 12.4149 12.4144 3.83398 23.0002 3.83398ZM30.6745 24.6835C30.0132 23.6772 29.536 22.9527 27.719 23.2402C24.2882 23.7846 23.9067 24.3845 23.7438 25.3735L23.6978 25.6725L23.6499 25.9907C23.464 27.2997 23.4697 27.7942 24.0716 28.4248C26.4962 30.9702 27.949 32.8044 28.3898 33.8777C28.6045 34.401 29.1565 35.9861 28.777 37.5539C31.1035 36.6272 33.1743 35.1571 34.8164 33.2663C35.0272 32.5495 35.1806 31.6563 35.1806 30.5753V30.3741C35.1806 28.6069 35.1806 27.8 33.9309 27.0851C33.5293 26.8573 33.1167 26.6494 32.6947 26.4622C31.9912 26.1421 31.5255 25.9332 30.8968 25.0132C30.821 24.9045 30.7468 24.7946 30.6745 24.6835ZM23.0002 7.34723C18.5592 7.34723 14.5477 9.19873 11.6995 12.1696C12.0387 12.4053 12.3339 12.7369 12.5371 13.1931C12.9281 14.069 12.9281 14.9717 12.9281 15.771C12.9281 16.3997 12.9281 16.9977 13.1293 17.4289C13.4053 18.0192 14.5975 18.2722 15.6497 18.4907C16.0273 18.5712 16.4145 18.6517 16.7672 18.7495C17.737 19.0178 18.4883 19.8899 19.0882 20.5895C19.3374 20.8789 19.7073 21.3063 19.8932 21.4137C19.9891 21.3447 20.2977 21.0092 20.4491 20.4592C20.5679 20.0375 20.5334 19.6657 20.3628 19.4625C19.2895 18.1975 19.3489 15.7633 19.6805 14.8644C20.2018 13.448 21.831 13.5534 23.0232 13.6301C23.4678 13.6588 23.8857 13.6876 24.2 13.6473C25.3922 13.4978 25.7602 11.6827 26.0189 11.3282C26.5786 10.5615 28.2921 9.40573 29.3539 8.69273C27.3539 7.80339 25.189 7.34495 23.0002 7.34723Z" fill="#F9CB36"/>
</svg>
