<svg width="42" height="42" viewBox="0 0 42 42" fill="none" xmlns="http://www.w3.org/2000/svg">
<path d="M6.5625 18.3748C6.2144 18.3748 5.88056 18.2365 5.63442 17.9904C5.38828 17.7443 5.25 17.4104 5.25 17.0623V6.56494C5.25 6.21684 5.38828 5.88301 5.63442 5.63686C5.88056 5.39072 6.2144 5.25244 6.5625 5.25244H17.0625C17.4106 5.25244 17.7444 5.39072 17.9906 5.63686C18.2367 5.88301 18.375 6.21684 18.375 6.56494V17.0623C18.375 17.4104 18.2367 17.7443 17.9906 17.9904C17.7444 18.2365 17.4106 18.3748 17.0625 18.3748H6.5625ZM24.9375 18.3748C24.5894 18.3748 24.2556 18.2365 24.0094 17.9904C23.7633 17.7443 23.625 17.4104 23.625 17.0623V6.56494C23.625 6.21684 23.7633 5.88301 24.0094 5.63686C24.2556 5.39072 24.5894 5.25244 24.9375 5.25244H35.4349C35.783 5.25244 36.1168 5.39072 36.363 5.63686C36.6091 5.88301 36.7474 6.21684 36.7474 6.56494V17.0623C36.7474 17.4104 36.6091 17.7443 36.363 17.9904C36.1168 18.2365 35.783 18.3748 35.4349 18.3748H24.9375ZM6.5625 36.7498C6.2144 36.7498 5.88056 36.6115 5.63442 36.3654C5.38828 36.1193 5.25 35.7854 5.25 35.4373V24.9373C5.25 24.5892 5.38828 24.2554 5.63442 24.0092C5.88056 23.7631 6.2144 23.6248 6.5625 23.6248H17.0625C17.4106 23.6248 17.7444 23.7631 17.9906 24.0092C18.2367 24.2554 18.375 24.5892 18.375 24.9373V35.4373C18.375 35.7854 18.2367 36.1193 17.9906 36.3654C17.7444 36.6115 17.4106 36.7498 17.0625 36.7498H6.5625ZM24.9375 36.7498C24.5894 36.7498 24.2556 36.6115 24.0094 36.3654C23.7633 36.1193 23.625 35.7854 23.625 35.4373V24.9373C23.625 24.5892 23.7633 24.2554 24.0094 24.0092C24.2556 23.7631 24.5894 23.6248 24.9375 23.6248H35.4349C35.783 23.6248 36.1168 23.7631 36.363 24.0092C36.6091 24.2554 36.7474 24.5892 36.7474 24.9373V35.4373C36.7474 35.7854 36.6091 36.1193 36.363 36.3654C36.1168 36.6115 35.783 36.7498 35.4349 36.7498H24.9375Z" fill="white"/>
</svg>
