<svg xmlns="http://www.w3.org/2000/svg" width="45" height="48" viewBox="0 0 45 48" fill="none">
  <path fill-rule="evenodd" clip-rule="evenodd" d="M0 8.18461C0 6.10353 0.790177 4.10769 2.1967 2.63614C3.60322 1.1646 5.51088 0.337891 7.5 0.337891H37.5C39.4891 0.337891 41.3968 1.1646 42.8033 2.63614C44.2098 4.10769 45 6.10353 45 8.18461V39.5715C45 41.6526 44.2098 43.6484 42.8033 45.12C41.3968 46.5915 39.4891 47.4182 37.5 47.4182H7.5C5.51088 47.4182 3.60322 46.5915 2.1967 45.12C0.790177 43.6484 0 41.6526 0 39.5715V8.18461ZM25 13.4158C25 12.7221 24.7366 12.0568 24.2678 11.5663C23.7989 11.0758 23.163 10.8002 22.5 10.8002C21.837 10.8002 21.2011 11.0758 20.7322 11.5663C20.2634 12.0568 20 12.7221 20 13.4158V34.3403C20 35.034 20.2634 35.6993 20.7322 36.1898C21.2011 36.6804 21.837 36.9559 22.5 36.9559C23.163 36.9559 23.7989 36.6804 24.2678 36.1898C24.7366 35.6993 25 35.034 25 34.3403V13.4158ZM15 21.2625C15 20.5688 14.7366 19.9035 14.2678 19.413C13.7989 18.9225 13.163 18.6469 12.5 18.6469C11.837 18.6469 11.2011 18.9225 10.7322 19.413C10.2634 19.9035 10 20.5688 10 21.2625V34.3403C10 35.034 10.2634 35.6993 10.7322 36.1898C11.2011 36.6804 11.837 36.9559 12.5 36.9559C13.163 36.9559 13.7989 36.6804 14.2678 36.1898C14.7366 35.6993 15 35.034 15 34.3403V21.2625ZM35 29.1092C35 28.4155 34.7366 27.7502 34.2678 27.2597C33.7989 26.7692 33.163 26.4936 32.5 26.4936C31.837 26.4936 31.2011 26.7692 30.7322 27.2597C30.2634 27.7502 30 28.4155 30 29.1092V34.3403C30 35.034 30.2634 35.6993 30.7322 36.1898C31.2011 36.6804 31.837 36.9559 32.5 36.9559C33.163 36.9559 33.7989 36.6804 34.2678 36.1898C34.7366 35.6993 35 35.034 35 34.3403V29.1092Z" fill="#F9CB36"/>
</svg>