<svg width="46" height="46" viewBox="0 0 46 46" fill="none" xmlns="http://www.w3.org/2000/svg">
<path d="M4.3125 5.03125V38.8125H43.8438C44.4156 38.8125 44.9641 39.0397 45.3684 39.4441C45.7728 39.8484 46 40.3969 46 40.9688C46 41.5406 45.7728 42.0891 45.3684 42.4934C44.9641 42.8978 44.4156 43.125 43.8438 43.125H2.15625C1.58438 43.125 1.03593 42.8978 0.631551 42.4934C0.227176 42.0891 0 41.5406 0 40.9688L0 5.03125C0 4.45938 0.227176 3.91093 0.631551 3.50655C1.03593 3.10218 1.58438 2.875 2.15625 2.875C2.72812 2.875 3.27657 3.10218 3.68095 3.50655C4.08532 3.91093 4.3125 4.45938 4.3125 5.03125ZM45.3675 12.305L30.2737 27.3987C29.8695 27.8025 29.3214 28.0294 28.75 28.0294C28.1786 28.0294 27.6305 27.8025 27.2263 27.3987L20.125 20.2975L12.305 28.1175C11.896 28.4982 11.3553 28.7055 10.7967 28.6958C10.238 28.6862 9.70486 28.4603 9.30925 28.0658C8.91468 27.6701 8.68883 27.137 8.67918 26.5783C8.66953 26.0196 8.87683 25.479 9.2575 25.07L18.6012 15.7262C19.0055 15.3225 19.5536 15.0956 20.125 15.0956C20.6964 15.0956 21.2445 15.3225 21.6488 15.7262L28.75 22.8275L42.32 9.2575C42.729 8.87683 43.2696 8.66953 43.8283 8.67918C44.387 8.68883 44.9201 8.91468 45.3158 9.30925C45.7103 9.70486 45.9362 10.238 45.9458 10.7967C45.9555 11.3553 45.7482 11.896 45.3675 12.305Z" fill="#F9CB36"/>
</svg>
