<svg width="46" height="46" viewBox="0 0 46 46" fill="none" xmlns="http://www.w3.org/2000/svg">
<g clip-path="url(#clip0_277_1807)">
<path d="M14.2073 23C11.6198 23.0856 9.50347 24.1808 7.85833 26.2857H4.64792C3.33819 26.2857 2.23611 25.9392 1.34167 25.2461C0.447222 24.553 0 23.5391 0 22.2042C0 16.1633 0.990278 13.1429 2.97083 13.1429C3.06667 13.1429 3.41406 13.3225 4.01302 13.6819C4.61198 14.0413 5.39062 14.4049 6.34896 14.7729C7.30729 15.1408 8.25764 15.3248 9.2 15.3248C10.2701 15.3248 11.3323 15.128 12.3865 14.7344C12.3066 15.3676 12.2667 15.9323 12.2667 16.4286C12.2667 18.8073 12.9135 20.9978 14.2073 23ZM39.8667 39.3516C39.8667 41.4051 39.2837 43.0266 38.1177 44.216C36.9517 45.4053 35.4024 46 33.4698 46H12.5302C10.5976 46 9.04826 45.4053 7.88229 44.216C6.71632 43.0266 6.13333 41.4051 6.13333 39.3516C6.13333 38.4446 6.16128 37.559 6.21719 36.6948C6.27309 35.8305 6.3849 34.8979 6.5526 33.8968C6.72031 32.8956 6.93194 31.9673 7.1875 31.1116C7.44306 30.256 7.78646 29.4217 8.21771 28.6088C8.64896 27.7959 9.1441 27.1029 9.70312 26.5296C10.2622 25.9563 10.945 25.4985 11.7516 25.1562C12.5582 24.814 13.4486 24.6429 14.4229 24.6429C14.5826 24.6429 14.926 24.8268 15.4531 25.1948C15.9802 25.5627 16.5632 25.9734 17.2021 26.4269C17.841 26.8804 18.6955 27.2911 19.7656 27.659C20.8358 28.027 21.9139 28.2109 23 28.2109C24.0861 28.2109 25.1642 28.027 26.2344 27.659C27.3045 27.2911 28.159 26.8804 28.7979 26.4269C29.4368 25.9734 30.0198 25.5627 30.5469 25.1948C31.074 24.8268 31.4174 24.6429 31.5771 24.6429C32.5514 24.6429 33.4418 24.814 34.2484 25.1562C35.055 25.4985 35.7378 25.9563 36.2969 26.5296C36.8559 27.1029 37.351 27.7959 37.7823 28.6088C38.2135 29.4217 38.5569 30.256 38.8125 31.1116C39.0681 31.9673 39.2797 32.8956 39.4474 33.8968C39.6151 34.8979 39.7269 35.8305 39.7828 36.6948C39.8387 37.559 39.8667 38.4446 39.8667 39.3516ZM15.3333 6.57143C15.3333 8.38542 14.7344 9.93415 13.5365 11.2176C12.3385 12.5011 10.8931 13.1429 9.2 13.1429C7.50694 13.1429 6.06146 12.5011 4.86354 11.2176C3.66562 9.93415 3.06667 8.38542 3.06667 6.57143C3.06667 4.75744 3.66562 3.20871 4.86354 1.92522C6.06146 0.641741 7.50694 0 9.2 0C10.8931 0 12.3385 0.641741 13.5365 1.92522C14.7344 3.20871 15.3333 4.75744 15.3333 6.57143ZM32.2 16.4286C32.2 19.1496 31.3016 21.4727 29.5047 23.3979C27.7078 25.3231 25.5396 26.2857 23 26.2857C20.4604 26.2857 18.2922 25.3231 16.4953 23.3979C14.6984 21.4727 13.8 19.1496 13.8 16.4286C13.8 13.7076 14.6984 11.3845 16.4953 9.45926C18.2922 7.53404 20.4604 6.57143 23 6.57143C25.5396 6.57143 27.7078 7.53404 29.5047 9.45926C31.3016 11.3845 32.2 13.7076 32.2 16.4286ZM46 22.2042C46 23.5391 45.5528 24.553 44.6583 25.2461C43.7639 25.9392 42.6618 26.2857 41.3521 26.2857H38.1417C36.4965 24.1808 34.3802 23.0856 31.7927 23C33.0865 20.9978 33.7333 18.8073 33.7333 16.4286C33.7333 15.9323 33.6934 15.3676 33.6135 14.7344C34.6677 15.128 35.7299 15.3248 36.8 15.3248C37.7424 15.3248 38.6927 15.1408 39.651 14.7729C40.6094 14.4049 41.388 14.0413 41.987 13.6819C42.5859 13.3225 42.9333 13.1429 43.0292 13.1429C45.0097 13.1429 46 16.1633 46 22.2042ZM42.9333 6.57143C42.9333 8.38542 42.3344 9.93415 41.1365 11.2176C39.9385 12.5011 38.4931 13.1429 36.8 13.1429C35.1069 13.1429 33.6615 12.5011 32.4635 11.2176C31.2656 9.93415 30.6667 8.38542 30.6667 6.57143C30.6667 4.75744 31.2656 3.20871 32.4635 1.92522C33.6615 0.641741 35.1069 0 36.8 0C38.4931 0 39.9385 0.641741 41.1365 1.92522C42.3344 3.20871 42.9333 4.75744 42.9333 6.57143Z" fill="#F9CB36"/>
</g>
<defs>
<clipPath id="clip0_277_1807">
<rect width="46" height="46" fill="white"/>
</clipPath>
</defs>
</svg>
