<svg width="31" height="31" viewBox="0 0 31 31" fill="none" xmlns="http://www.w3.org/2000/svg">
<circle cx="15.0498" cy="15.25" r="15" fill="#F0DE7E"/>
<g clip-path="url(#clip0_18_79)">
<path d="M8.38311 21.25C8.19423 21.25 8.03578 21.186 7.90778 21.058C7.77978 20.93 7.716 20.7718 7.71645 20.5833C7.71645 20.3944 7.78045 20.236 7.90845 20.108C8.03645 19.98 8.19467 19.9162 8.38311 19.9167H21.7164C21.9053 19.9167 22.0638 19.9807 22.1918 20.1087C22.3198 20.2367 22.3836 20.3949 22.3831 20.5833C22.3831 20.7722 22.3191 20.9307 22.1911 21.0587C22.0631 21.1867 21.9049 21.2504 21.7164 21.25H8.38311ZM9.71645 19.25C9.34978 19.25 9.03578 19.1193 8.77445 18.858C8.51311 18.5967 8.38267 18.2829 8.38311 17.9167V10.5833C8.38311 10.2167 8.51378 9.90267 8.77511 9.64133C9.03645 9.38 9.35023 9.24956 9.71645 9.25H20.3831C20.7498 9.25 21.0638 9.38067 21.3251 9.642C21.5864 9.90333 21.7169 10.2171 21.7164 10.5833V17.9167C21.7164 18.2833 21.5858 18.5973 21.3244 18.8587C21.0631 19.12 20.7493 19.2504 20.3831 19.25H9.71645Z" fill="#195A94"/>
</g>
<defs>
<clipPath id="clip0_18_79">
<rect width="16" height="16" fill="white" transform="translate(7.04977 7.25)"/>
</clipPath>
</defs>
</svg>
