<svg width="42" height="42" viewBox="0 0 42 42" fill="none" xmlns="http://www.w3.org/2000/svg">
<path d="M28.63 24.5C28.77 23.345 28.875 22.19 28.875 21C28.875 19.81 28.77 18.655 28.63 17.5H34.545C34.825 18.62 35 19.7925 35 21C35 22.2075 34.825 23.38 34.545 24.5M25.5325 34.23C26.5825 32.2875 27.3875 30.1875 27.9475 28H33.11C31.4145 30.9195 28.7247 33.131 25.5325 34.23ZM25.095 24.5H16.905C16.73 23.345 16.625 22.19 16.625 21C16.625 19.81 16.73 18.6375 16.905 17.5H25.095C25.2525 18.6375 25.375 19.81 25.375 21C25.375 22.19 25.2525 23.345 25.095 24.5ZM21 34.93C19.5475 32.83 18.375 30.5025 17.6575 28H24.3425C23.625 30.5025 22.4525 32.83 21 34.93ZM14 14H8.89C10.568 11.0726 13.2559 8.8576 16.45 7.77C15.4 9.7125 14.6125 11.8125 14 14ZM8.89 28H14C14.6125 30.1875 15.4 32.2875 16.45 34.23C13.2626 33.1304 10.5785 30.9185 8.89 28ZM7.455 24.5C7.175 23.38 7 22.2075 7 21C7 19.7925 7.175 18.62 7.455 17.5H13.37C13.23 18.655 13.125 19.81 13.125 21C13.125 22.19 13.23 23.345 13.37 24.5M21 7.0525C22.4525 9.1525 23.625 11.4975 24.3425 14H17.6575C18.375 11.4975 19.5475 9.1525 21 7.0525ZM33.11 14H27.9475C27.3998 11.8326 26.5888 9.74032 25.5325 7.77C28.7525 8.8725 31.43 11.095 33.11 14ZM21 3.5C11.3225 3.5 3.5 11.375 3.5 21C3.5 25.6413 5.34374 30.0925 8.62563 33.3744C10.2507 34.9994 12.1798 36.2884 14.303 37.1679C16.4262 38.0474 18.7019 38.5 21 38.5C25.6413 38.5 30.0925 36.6563 33.3744 33.3744C36.6563 30.0925 38.5 25.6413 38.5 21C38.5 18.7019 38.0474 16.4262 37.1679 14.303C36.2884 12.1798 34.9994 10.2507 33.3744 8.62563C31.7493 7.00061 29.8202 5.71157 27.697 4.83211C25.5738 3.95265 23.2981 3.5 21 3.5Z" fill="white"/>
</svg>
