<?xml version="1.0" encoding="iso-8859-1"?>
<!-- Uploaded to: SVG Repo, www.svgrepo.com, Generator: SVG Repo Mixer Tools -->
<svg version="1.1" id="Layer_1" xmlns="http://www.w3.org/2000/svg" xmlns:xlink="http://www.w3.org/1999/xlink" 
	 viewBox="0 0 356.67 356.67" xml:space="preserve">
<g>
	<title>e-learning-online-video-clip-teach-course</title>
	<path style="fill:#F78628;" d="M273.075,228.491h-1.672l-20.954,57.624c-1.05,2.893-4.247,4.387-7.14,3.337
		c-1.552-0.563-2.774-1.785-3.337-3.337l-20.954-57.624h-79.693v11.146h55.73c3.078,0,5.573,2.495,5.573,5.573v50.157h89.167V245.21
		C289.794,235.977,282.309,228.491,273.075,228.491z"/>
	<path style="fill:#9CE7F7;" d="M189.481,250.783h-55.73c-3.078,0-5.573-2.495-5.573-5.573v-16.719h-22.292v-11.146h122.605v-5.573
		c-7.017-5.262-11.146-13.521-11.146-22.292v-31.71c-3.628-5.469-5.566-11.884-5.573-18.446c0-3.078,2.495-5.573,5.573-5.573h16.719
		c18.467,0,33.438,14.971,33.438,33.438l0,0c0,3.078-2.495,5.573-5.573,5.573H245.21c-5.873-0.01-11.639-1.567-16.719-4.514v21.233
		c0.036,5.937,3.218,11.41,8.359,14.378c1.714,0.989,2.775,2.814,2.786,4.793v14.267c0,3.078-2.495,5.573-5.573,5.573h-3.177
		l14.323,39.401l14.323-39.401h-3.177c-3.078,0-5.573-2.495-5.573-5.573v-14.211c0.012-1.979,1.072-3.803,2.786-4.793
		c5.159-2.978,8.343-8.477,8.359-14.434v-11.146c0-3.078,2.495-5.573,5.573-5.573h11.146v11.146h-5.573v5.573
		c0,8.771-4.129,17.029-11.146,22.292v5.573h11.146c15.389,0,27.865,12.475,27.865,27.865v50.157h16.719V83.594H39.011v211.773
		h150.47V250.783z M50.157,183.908v-78.021c0-3.078,2.495-5.573,5.573-5.573h133.751c3.078,0,5.573,2.495,5.573,5.573v78.021
		c0,3.078-2.495,5.573-5.573,5.573H55.73C52.652,189.481,50.157,186.986,50.157,183.908z"/>
	<path style="fill:#9CE7F7;" d="M61.303,178.335h122.605v-66.876H61.303V178.335z M150.47,156.043h-50.157v-11.146h50.157V156.043z
		 M122.605,122.605h50.157v11.146h-50.157C122.605,133.751,122.605,122.605,122.605,122.605z M72.448,122.605h39.011v11.146H72.448
		V122.605z M72.448,144.897h16.719v11.146H72.448V144.897z"/>
	<path style="fill:#9CE7F7;" d="M11.146,328.805c0,9.234,7.485,16.719,16.719,16.719h300.94c9.234,0,16.719-7.485,16.719-16.719
		V55.73H11.146V328.805z M27.865,78.021c0-3.078,2.495-5.573,5.573-5.573h289.794c3.078,0,5.573,2.495,5.573,5.573V300.94
		c0,3.078-2.495,5.573-5.573,5.573H33.438c-3.078,0-5.573-2.495-5.573-5.573V78.021z M27.865,317.659h22.292v-5.573h11.146v5.573
		h267.502v11.146H61.303v5.573H50.157v-5.573H27.865V317.659z"/>
	<path style="fill:#F78628;" d="M245.21,161.616h10.421c-2.54-9.836-11.409-16.711-21.567-16.719h-10.421
		C226.183,154.733,235.051,161.608,245.21,161.616z"/>
	<path style="fill:#9CE7F7;" d="M11.146,44.584h334.378V11.146H11.146V44.584z M66.876,22.292h11.146v11.146H66.876V22.292z
		 M44.584,22.292H55.73v11.146H44.584V22.292z M22.292,22.292h11.146v11.146H22.292V22.292z"/>
	<path style="fill:#414A52;" d="M323.232,72.448H33.438c-3.078,0-5.573,2.495-5.573,5.573V300.94c0,3.078,2.495,5.573,5.573,5.573
		h289.794c3.078,0,5.573-2.495,5.573-5.573V78.021C328.805,74.944,326.31,72.448,323.232,72.448z M200.627,295.367V245.21
		c0-3.078-2.495-5.573-5.573-5.573h-55.73v-11.146h79.693l20.954,57.624c1.05,2.893,4.247,4.387,7.14,3.337
		c1.552-0.563,2.774-1.785,3.337-3.337l20.954-57.624h1.672c9.234,0,16.719,7.485,16.719,16.719v50.157L200.627,295.367
		L200.627,295.367z M317.659,295.367H300.94V245.21c0-15.389-12.476-27.865-27.865-27.865h-11.146v-5.573
		c7.017-5.262,11.146-13.521,11.146-22.292v-5.573h5.573v-11.146h-11.146c-3.078,0-5.573,2.495-5.573,5.573v11.146
		c-0.036,5.937-3.218,11.41-8.359,14.378c-1.714,0.989-2.775,2.814-2.786,4.793v14.267c0,3.078,2.495,5.573,5.573,5.573h3.177
		l-14.323,39.401l-14.323-39.401h3.177c3.078,0,5.573-2.495,5.573-5.573v-14.211c-0.012-1.979-1.072-3.803-2.786-4.793
		c-5.159-2.978-8.343-8.477-8.359-14.434v-21.233c5.08,2.947,10.846,4.504,16.719,4.514h16.719c3.078,0,5.573-2.495,5.573-5.573
		c0-18.467-14.971-33.438-33.438-33.438l0,0h-16.719c-3.078,0-5.573,2.495-5.573,5.573c0.007,6.562,1.945,12.978,5.573,18.446v31.71
		c0,8.771,4.129,17.029,11.146,22.292v5.573H105.886v11.146h22.292v16.719c0,3.078,2.495,5.573,5.573,5.573h55.73v44.584H39.011
		V83.594h278.648V295.367z M223.643,144.897h10.421c10.159,0.008,19.027,6.883,21.567,16.719H245.21
		C235.051,161.608,226.183,154.733,223.643,144.897z"/>
	<path style="fill:#414A52;" d="M351.096,0H5.573C2.495,0,0,2.495,0,5.573v323.232c0,15.389,12.476,27.865,27.865,27.865h300.94
		c15.389,0,27.865-12.475,27.865-27.865V5.573C356.669,2.495,354.174,0,351.096,0z M11.146,11.146h334.378v33.438H11.146V11.146z
		 M328.805,345.524H27.865c-9.234,0-16.719-7.485-16.719-16.719V55.73h334.378v273.075
		C345.524,338.038,338.038,345.524,328.805,345.524z"/>
	<polygon style="fill:#414A52;" points="61.303,312.086 50.157,312.086 50.157,317.659 27.865,317.659 27.865,328.805 
		50.157,328.805 50.157,334.378 61.303,334.378 61.303,328.805 328.805,328.805 328.805,317.659 61.303,317.659 	"/>
	<rect x="22.292" y="22.292" style="fill:#414A52;" width="11.146" height="11.146"/>
	<rect x="44.584" y="22.292" style="fill:#414A52;" width="11.146" height="11.146"/>
	<rect x="66.876" y="22.292" style="fill:#414A52;" width="11.146" height="11.146"/>
	<path style="fill:#414A52;" d="M55.73,189.481h133.751c3.078,0,5.573-2.495,5.573-5.573v-78.021c0-3.078-2.495-5.573-5.573-5.573
		H55.73c-3.078,0-5.573,2.495-5.573,5.573v78.021C50.157,186.986,52.652,189.481,55.73,189.481z M61.303,111.459h122.605v66.876
		H61.303V111.459z"/>
	<rect x="72.448" y="122.605" style="fill:#414A52;" width="39.011" height="11.146"/>
	<rect x="122.605" y="122.605" style="fill:#414A52;" width="50.157" height="11.146"/>
	<rect x="72.448" y="144.897" style="fill:#414A52;" width="16.719" height="11.146"/>
	<rect x="100.313" y="144.897" style="fill:#414A52;" width="50.157" height="11.146"/>
</g>
</svg>