<svg width="31" height="30" viewBox="0 0 31 30" fill="none" xmlns="http://www.w3.org/2000/svg">
<circle cx="15.0498" cy="15" r="15" fill="#F0DE7E"/>
<g clip-path="url(#clip0_18_60)">
<path d="M12.7217 14.3334C13.6701 14.3334 14.5797 13.9822 15.2503 13.357C15.921 12.7319 16.2977 11.8841 16.2977 11C16.2977 10.116 15.921 9.26812 15.2503 8.643C14.5797 8.01788 13.6701 7.66669 12.7217 7.66669C11.7733 7.66669 10.8637 8.01788 10.193 8.643C9.52239 9.26812 9.14563 10.116 9.14563 11C9.14563 11.8841 9.52239 12.7319 10.193 13.357C10.8637 13.9822 11.7733 14.3334 12.7217 14.3334ZM12.7217 14.3334C14.1614 14.3334 15.4195 14.84 16.3142 15.682C16.8448 16.1833 17.2416 16.7937 17.4728 17.464M12.7217 14.3334C9.86084 14.3334 7.71521 16.3334 7.71521 19V22.3334H14.8673M15.5825 19.5494L18.5793 21.6667L23.4498 15.6667" stroke="#195A94" stroke-width="2"/>
</g>
<defs>
<clipPath id="clip0_18_60">
<rect width="17.165" height="16" fill="white" transform="translate(7 7)"/>
</clipPath>
</defs>
</svg>
