<svg width="31" height="31" viewBox="0 0 31 31" fill="none" xmlns="http://www.w3.org/2000/svg">
<circle cx="15.1131" cy="15.25" r="15" fill="#F0DE7E"/>
<path d="M14.4273 12.3636L12.7091 10.4545C12.5455 10.2727 12.4636 10.0606 12.4636 9.81818C12.4636 9.57576 12.5455 9.36364 12.7091 9.18182L14.4273 7.27273C14.5909 7.09091 14.7818 7 15 7C15.2182 7 15.4091 7.09091 15.5727 7.27273L17.2909 9.18182C17.4545 9.36364 17.5364 9.57576 17.5364 9.81818C17.5364 10.0606 17.4545 10.2727 17.2909 10.4545L15.5727 12.3636C15.4091 12.5455 15.2182 12.6364 15 12.6364C14.7818 12.6364 14.5909 12.5455 14.4273 12.3636ZM6.81818 23C6.58637 23 6.39191 22.9127 6.23482 22.7382C6.07773 22.5636 5.99946 22.3479 6 22.0909V19.3636C6 18.8485 6.16037 18.4167 6.48109 18.0682C6.80182 17.7197 7.18691 17.5455 7.63637 17.5455H10.3159C10.5886 17.5455 10.8477 17.6212 11.0932 17.7727C11.3386 17.9242 11.5364 18.1288 11.6864 18.3864C12.0818 18.9773 12.5695 19.4394 13.1493 19.7727C13.7291 20.1061 14.346 20.2727 15 20.2727C15.6682 20.2727 16.2922 20.1061 16.872 19.7727C17.4518 19.4394 17.9324 18.9773 18.3136 18.3864C18.4909 18.1288 18.699 17.9242 18.9379 17.7727C19.1768 17.6212 19.4255 17.5455 19.6841 17.5455H22.3636C22.8273 17.5455 23.2159 17.7197 23.5295 18.0682C23.8432 18.4167 24 18.8485 24 19.3636V22.0909C24 22.3485 23.9215 22.5645 23.7644 22.7391C23.6073 22.9136 23.4131 23.0006 23.1818 23H19.0909C18.8591 23 18.6646 22.9127 18.5075 22.7382C18.3505 22.5636 18.2722 22.3479 18.2727 22.0909V20.9318C17.7955 21.3106 17.2805 21.5985 16.728 21.7955C16.1755 21.9924 15.5995 22.0909 15 22.0909C14.4136 22.0909 13.8409 21.9885 13.2818 21.7836C12.7227 21.5788 12.2045 21.2873 11.7273 20.9091V22.0909C11.7273 22.3485 11.6487 22.5645 11.4916 22.7391C11.3345 22.9136 11.1404 23.0006 10.9091 23H6.81818ZM8.45455 16.6364C7.77273 16.6364 7.19318 16.3712 6.71591 15.8409C6.23864 15.3106 6 14.6667 6 13.9091C6 13.1364 6.23864 12.4885 6.71591 11.9655C7.19318 11.4424 7.77273 11.1812 8.45455 11.1818C9.15 11.1818 9.73309 11.4433 10.2038 11.9664C10.6745 12.4894 10.9096 13.137 10.9091 13.9091C10.9091 14.6667 10.6737 15.3106 10.203 15.8409C9.73228 16.3712 9.14946 16.6364 8.45455 16.6364ZM21.5455 16.6364C20.8636 16.6364 20.2841 16.3712 19.8068 15.8409C19.3295 15.3106 19.0909 14.6667 19.0909 13.9091C19.0909 13.1364 19.3295 12.4885 19.8068 11.9655C20.2841 11.4424 20.8636 11.1812 21.5455 11.1818C22.2409 11.1818 22.824 11.4433 23.2947 11.9664C23.7655 12.4894 24.0005 13.137 24 13.9091C24 14.6667 23.7646 15.3106 23.2939 15.8409C22.8232 16.3712 22.2404 16.6364 21.5455 16.6364Z" fill="#195A94"/>
</svg>
