<?xml version="1.0" encoding="iso-8859-1"?>
<!-- Uploaded to: SVG Repo, www.svgrepo.com, Generator: SVG Repo Mixer Tools -->
<svg version="1.1" id="Layer_1" xmlns="http://www.w3.org/2000/svg" xmlns:xlink="http://www.w3.org/1999/xlink" 
	 viewBox="0 0 356.67 356.67" xml:space="preserve">
<g>
	<title>media-marketing-announcement-advertisement-online-laptop</title>
	<path style="fill:#F78628;" d="M89.167,161.473c0.872,0.005,1.731,0.215,2.508,0.613l14.211,7.133v-46.757H72.448v46.701
		l14.211-7.133C87.441,161.652,88.299,161.461,89.167,161.473z"/>
	<path style="fill:#9CE7F7;" d="M78.021,11.003c-3.078,0-5.573,2.495-5.573,5.573v66.876c0,3.078,2.495,5.573,5.573,5.573
		c3.078,0,5.573-2.495,5.573-5.573V16.576C83.594,13.498,81.099,11.003,78.021,11.003z"/>
	<rect x="172.762" y="83.452" style="fill:#9CE7F7;" width="11.146" height="27.865"/>
	<path style="fill:#9CE7F7;" d="M278.648,89.024c3.078,0,5.573-2.495,5.573-5.573V16.576c0-3.078-2.495-5.573-5.573-5.573
		s-5.573,2.495-5.573,5.573v66.876C273.075,86.529,275.57,89.024,278.648,89.024z"/>
	<polygon style="fill:#9CE7F7;" points="261.929,23.709 206.2,37.642 206.2,62.386 261.929,76.318 	"/>
	<path style="fill:#9CE7F7;" d="M167.189,27.722h22.292c3.078,0,5.573,2.495,5.573,5.573v33.438c0,3.078-2.495,5.573-5.573,5.573
		h-22.292c-3.078,0-5.573-2.495-5.573-5.573V33.295C161.616,30.217,164.111,27.722,167.189,27.722z"/>
	<polygon style="fill:#9CE7F7;" points="94.74,76.318 150.47,62.386 150.47,37.642 94.74,23.709 	"/>
	<polygon style="fill:#F78628;" points="172.762,209.512 172.762,224.893 188.143,217.203 	"/>
	<path style="fill:#9CE7F7;" d="M39.011,345.381h278.648c13.243,0.003,24.659-9.316,27.307-22.292H11.703
		C14.352,336.064,25.767,345.383,39.011,345.381z"/>
	<path style="fill:#9CE7F7;" d="M61.303,144.754H50.157v144.897h256.356V144.754H117.032v33.438
		c-0.009,3.078-2.512,5.565-5.59,5.556c-0.865-0.003-1.718-0.207-2.491-0.596l-19.784-9.864l-19.784,9.92
		c-2.749,1.385-6.1,0.28-7.485-2.469c-0.398-0.79-0.602-1.663-0.596-2.547L61.303,144.754L61.303,144.754z M178.335,167.046
		c27.701,0,50.157,22.456,50.157,50.157s-22.456,50.157-50.157,50.157s-50.157-22.456-50.157-50.157
		S150.634,167.046,178.335,167.046z"/>
	<path style="fill:#9CE7F7;" d="M178.335,256.213c21.545,0,39.011-17.466,39.011-39.011s-17.466-39.011-39.011-39.011
		s-39.011,17.466-39.011,39.011S156.79,256.213,178.335,256.213z M161.616,200.484c0.009-3.078,2.512-5.565,5.59-5.556
		c0.865,0.003,1.718,0.207,2.491,0.596l33.438,16.719c2.755,1.373,3.875,4.719,2.502,7.474c-0.54,1.084-1.418,1.962-2.502,2.502
		l-33.438,16.719c-2.749,1.385-6.1,0.28-7.485-2.469c-0.398-0.79-0.602-1.663-0.596-2.547V200.484z"/>
	<path style="fill:#9CE7F7;" d="M328.805,139.181c0-9.234-7.485-16.719-16.719-16.719l0,0H117.032v11.146h195.054
		c3.078,0,5.573,2.495,5.573,5.573v156.043c0,3.078-2.495,5.573-5.573,5.573H44.584c-3.078,0-5.573-2.495-5.573-5.573V139.181
		c0-3.078,2.495-5.573,5.573-5.573h16.719v-11.146H44.584c-9.234,0-16.719,7.485-16.719,16.719l0,0v172.762h300.94V139.181z"/>
	<path style="fill:#414A52;" d="M351.096,311.943H339.95V139.181c0-15.389-12.476-27.865-27.865-27.865H195.054V82.448
		c4.316-1.52,7.821-4.743,9.697-8.917l57.903,14.49c2.684,8.835,12.022,13.821,20.857,11.137c6.941-2.109,11.73-8.453,11.856-15.707
		V16.576c-0.189-9.232-7.826-16.562-17.058-16.373c-7.235,0.148-13.553,4.934-15.655,11.859l-57.903,14.49
		c-2.668-6.053-8.655-9.964-15.27-9.976h-22.292c-6.602,0.002-12.585,3.888-15.27,9.92l-57.903-14.49
		C91.332,3.171,81.994-1.815,73.159,0.869c-6.941,2.109-11.73,8.453-11.856,15.707v66.876c0.189,9.232,7.826,16.562,17.058,16.373
		c7.235-0.148,13.553-4.934,15.655-11.859l57.903-14.49c1.876,4.174,5.381,7.397,9.697,8.917v28.924H44.584
		c-15.389,0-27.865,12.475-27.865,27.865v172.762H5.573c-3.078,0-5.573,2.495-5.573,5.573c0,21.545,17.466,39.011,39.011,39.011
		h278.648c21.545,0,39.011-17.466,39.011-39.011C356.669,314.438,354.174,311.943,351.096,311.943z M278.648,11.003
		c3.078,0,5.573,2.495,5.573,5.573v66.876c0,3.078-2.495,5.573-5.573,5.573s-5.573-2.495-5.573-5.573V16.576
		C273.075,13.498,275.57,11.003,278.648,11.003z M261.929,76.318L206.2,62.386V37.642l55.73-13.932v52.608H261.929z M167.189,27.722
		h22.292c3.078,0,5.573,2.495,5.573,5.573v33.438c0,3.078-2.495,5.573-5.573,5.573h-22.292c-3.078,0-5.573-2.495-5.573-5.573V33.295
		C161.616,30.217,164.111,27.722,167.189,27.722z M78.021,89.024c-3.078,0-5.573-2.495-5.573-5.573V16.576
		c0-3.078,2.495-5.573,5.573-5.573c3.078,0,5.573,2.495,5.573,5.573v66.876C83.594,86.529,81.099,89.024,78.021,89.024z
		 M94.74,23.709l55.73,13.932v24.744L94.74,76.318V23.709z M172.762,83.452h11.146v27.865h-11.146V83.452z M63.922,182.929
		c1.724,0.996,3.849,0.996,5.573,0l19.784-9.92l19.784,9.92c2.777,1.328,6.104,0.153,7.432-2.624
		c0.317-0.662,0.499-1.38,0.538-2.113v-33.438h189.481v144.897H50.157V144.754h11.146v33.438
		C61.299,180.117,62.289,181.908,63.922,182.929z M105.886,122.462v46.701l-14.211-7.133c-1.562-0.776-3.398-0.776-4.96,0
		l-14.267,7.133v-46.701C72.448,122.462,105.886,122.462,105.886,122.462z M27.865,139.181c0-9.234,7.485-16.719,16.719-16.719l0,0
		h16.719v11.146H44.584c-3.078,0-5.573,2.495-5.573,5.573v156.043c0,3.078,2.495,5.573,5.573,5.573h267.502
		c3.078,0,5.573-2.495,5.573-5.573V139.181c0-3.078-2.495-5.573-5.573-5.573H117.032v-11.146h195.054
		c9.234,0,16.719,7.485,16.719,16.719l0,0v172.762H27.865V139.181z M317.659,345.381H39.011
		c-13.243,0.003-24.659-9.316-27.307-22.292h333.263C342.318,336.064,330.902,345.383,317.659,345.381z"/>
	<path style="fill:#414A52;" d="M164.235,238.658c1.724,0.996,3.849,0.996,5.573,0l33.438-16.719
		c2.755-1.373,3.875-4.719,2.502-7.474c-0.54-1.084-1.418-1.962-2.502-2.502l-33.438-16.719c-2.714-1.452-6.091-0.429-7.543,2.285
		c-0.485,0.906-0.709,1.928-0.65,2.953v33.438C161.612,235.847,162.602,237.638,164.235,238.658z M172.762,209.512l15.381,7.691
		l-15.381,7.691V209.512z"/>
	<path style="fill:#414A52;" d="M178.335,267.359c27.701,0,50.157-22.456,50.157-50.157s-22.456-50.157-50.157-50.157
		s-50.157,22.456-50.157,50.157S150.634,267.359,178.335,267.359z M178.335,178.192c21.545,0,39.011,17.466,39.011,39.011
		s-17.466,39.011-39.011,39.011s-39.011-17.466-39.011-39.011S156.79,178.192,178.335,178.192z"/>
	<path style="fill:#414A52;" d="M315.318,68.627c11.619-9.882,13.134-27.268,3.399-39.011l-8.527,7.189
		c5.941,7.068,5.028,17.615-2.041,23.556c-0.007,0.006-0.014,0.012-0.021,0.018L315.318,68.627z"/>
	<path style="fill:#414A52;" d="M322.507,77.154l7.189,8.527c21.206-17.821,23.95-49.458,6.13-70.665l-8.582,7.133
		c13.883,16.476,11.781,41.086-4.695,54.969C322.535,77.13,322.521,77.142,322.507,77.154z"/>
	<path style="fill:#414A52;" d="M43.525,70.689l8.527-7.189c-5.941-7.068-5.028-17.615,2.041-23.556
		c0.007-0.006,0.014-0.012,0.021-0.018l-7.19-8.526c-11.787,9.895-13.321,27.471-3.426,39.258
		C43.507,70.668,43.516,70.679,43.525,70.689z"/>
	<path style="fill:#414A52;" d="M34.998,77.879c-13.846-16.499-11.7-41.097,4.793-54.949l-7.189-8.527
		c-21.206,17.821-23.95,49.458-6.13,70.665L34.998,77.879z"/>
</g>
</svg>