<svg width="42" height="42" viewBox="0 0 42 42" fill="none" xmlns="http://www.w3.org/2000/svg">
<path d="M40.6612 11.9435V32.9382C40.6475 33.1925 40.5739 33.44 40.4465 33.6604C40.3191 33.8809 40.1414 34.0682 39.9279 34.207L39.2402 34.6182C35.8084 36.6045 32.7879 38.3527 29.7359 40.1132V17.4087L10.0782 6.04423C13.4802 4.09123 16.8699 2.11898 20.2754 0.174727C20.5025 0.0598544 20.7533 0 21.0078 0C21.2622 0 21.5131 0.0598544 21.7402 0.174727L40.6577 11.1V11.9435H40.6612ZM25.3644 19.927C20.8774 17.3326 16.3893 14.7402 11.8999 12.15C11.6724 12.0368 11.4217 11.978 11.1675 11.978C10.9134 11.978 10.6627 12.0368 10.4352 12.15C7.40241 13.9017 4.36791 15.65 1.33691 17.407L15.5347 25.604V41.9997C18.5657 40.2515 21.5897 38.4892 24.6294 36.7585C24.8424 36.6195 25.0197 36.4325 25.1471 36.2124C25.2744 35.9923 25.3483 35.7454 25.3627 35.4915L25.3644 19.927ZM1.33866 33.8045L11.1614 39.4762V28.1222L1.33866 33.8045Z" fill="white"/>
</svg>
