<svg width="16" height="16" viewBox="0 0 16 16" fill="none" xmlns="http://www.w3.org/2000/svg">
<g clip-path="url(#clip0_18_25)">
<path fill-rule="evenodd" clip-rule="evenodd" d="M13.1847 2.95334C13.3494 2.884 13.5297 2.86009 13.7069 2.88409C13.884 2.90808 14.0514 2.97912 14.1918 3.0898C14.3321 3.20048 14.4403 3.34675 14.5049 3.5134C14.5696 3.68004 14.5883 3.86097 14.5593 4.03734L13.0473 13.2087C12.9007 14.0933 11.93 14.6007 11.1187 14.16C10.44 13.7913 9.432 13.2233 8.52533 12.6307C8.072 12.334 6.68333 11.384 6.854 10.708C7.00067 10.13 9.334 7.95801 10.6673 6.66667C11.1907 6.15934 10.952 5.86667 10.334 6.33334C8.79867 7.49201 6.33533 9.25401 5.52067 9.75001C4.802 10.1873 4.42733 10.262 3.97933 10.1873C3.162 10.0513 2.404 9.84067 1.78533 9.58401C0.949334 9.23734 0.99 8.08801 1.78467 7.75334L13.1847 2.95334Z" fill="white"/>
</g>
<defs>
<clipPath id="clip0_18_25">
<rect width="16" height="16" fill="white"/>
</clipPath>
</defs>
</svg>
