<svg width="46" height="46" viewBox="0 0 46 46" fill="none" xmlns="http://www.w3.org/2000/svg">
<path d="M23 4.3125C12.6796 4.3125 4.3125 12.6796 4.3125 23C4.3125 33.3042 12.6967 41.6875 23 41.6875C33.3195 41.6875 41.6875 33.3195 41.6875 23C41.6875 12.6958 33.3042 4.3125 23 4.3125ZM32.7031 25.875H21.9219C21.8266 25.875 21.7352 25.8371 21.6678 25.7697C21.6004 25.7023 21.5625 25.6109 21.5625 25.5156V10.4219C21.5625 10.3266 21.6004 10.2352 21.6678 10.1678C21.7352 10.1004 21.8266 10.0625 21.9219 10.0625H24.0781C24.1734 10.0625 24.2648 10.1004 24.3322 10.1678C24.3996 10.2352 24.4375 10.3266 24.4375 10.4219V23H32.7031C32.7984 23 32.8898 23.0379 32.9572 23.1053C33.0246 23.1727 33.0625 23.2641 33.0625 23.3594V25.5156C33.0625 25.6109 33.0246 25.7023 32.9572 25.7697C32.8898 25.8371 32.7984 25.875 32.7031 25.875Z" fill="#F9CB36"/>
</svg>
