<svg xmlns="http://www.w3.org/2000/svg" width="34" height="48" viewBox="0 0 34 48" fill="none">
  <path d="M5.66667 0.337891C4.16377 0.337891 2.72243 0.95792 1.65973 2.06158C0.597022 3.16524 0 4.66212 0 6.22293V41.5332C0 43.094 0.597022 44.5909 1.65973 45.6945C2.72243 46.7982 4.16377 47.4182 5.66667 47.4182H32.5833C32.9591 47.4182 33.3194 47.2632 33.5851 46.9873C33.8507 46.7114 34 46.3372 34 45.947C34 45.5568 33.8507 45.1825 33.5851 44.9066C33.3194 44.6307 32.9591 44.4757 32.5833 44.4757H5.66667C4.91522 44.4757 4.19455 44.1657 3.6632 43.6139C3.13184 43.062 2.83333 42.3136 2.83333 41.5332H31.1667C31.9181 41.5332 32.6388 41.2232 33.1701 40.6713C33.7015 40.1195 34 39.3711 34 38.5907V6.22293C34 4.66212 33.403 3.16524 32.3403 2.06158C31.2776 0.95792 29.8362 0.337891 28.3333 0.337891H5.66667ZM21.4937 23.522L25.0863 27.2502C25.3523 27.5264 25.5018 27.9011 25.5018 28.2918C25.5018 28.6825 25.3523 29.0572 25.0863 29.3335C24.8203 29.6098 24.4595 29.765 24.0833 29.765C23.7071 29.765 23.3463 29.6098 23.0803 29.3335L19.4905 25.6024C18.0261 26.6076 16.2545 27.0124 14.5191 26.7382C12.7837 26.4639 11.2081 25.5303 10.0979 24.1182C8.9877 22.7061 8.4219 20.9162 8.51021 19.0955C8.59853 17.2747 9.33466 15.5529 10.5759 14.2639C11.8171 12.9748 13.4751 12.2103 15.2282 12.1186C16.9814 12.0269 18.7049 12.6145 20.0646 13.7675C21.4242 14.9205 22.3233 16.5567 22.5873 18.359C22.8514 20.1613 22.4616 22.0012 21.4937 23.522ZM11.3333 19.4643C11.3333 18.2937 11.7811 17.171 12.5781 16.3433C13.3752 15.5155 14.4562 15.0505 15.5833 15.0505C16.7105 15.0505 17.7915 15.5155 18.5885 16.3433C19.3856 17.171 19.8333 18.2937 19.8333 19.4643C19.8333 20.6349 19.3856 21.7575 18.5885 22.5853C17.7915 23.413 16.7105 23.8781 15.5833 23.8781C14.4562 23.8781 13.3752 23.413 12.5781 22.5853C11.7811 21.7575 11.3333 20.6349 11.3333 19.4643Z" fill="#F9CB36"/>
</svg>
