<svg width="30" height="30" viewBox="0 0 30 30" fill="none" xmlns="http://www.w3.org/2000/svg">
<g id="Edit_duotone_line">
<path id="Rectangle 2" d="M15.625 9.375L7.30319 17.6968C7.09066 17.9093 6.98439 18.0156 6.91453 18.1462C6.84466 18.2767 6.81519 18.4241 6.75624 18.7188L5.77209 23.6396C5.70556 23.9722 5.6723 24.1385 5.76691 24.2331C5.86152 24.3277 6.02783 24.2944 6.36044 24.2279L11.2812 23.2438C11.5759 23.1848 11.7233 23.1553 11.8538 23.0855C11.9844 23.0156 12.0907 22.9093 12.3032 22.6968L20.625 14.375L15.625 9.375Z" fill="#374761"/>
<path id="Rectangle 1" d="M7.20397 24.13L7.05845 23.5479L7.20397 24.13L10.8581 23.2164C10.8743 23.2124 10.8904 23.2084 10.9065 23.2044C11.1253 23.15 11.3356 23.0978 11.5271 22.9894C11.7185 22.881 11.8715 22.7275 12.0307 22.5679C12.0424 22.5561 12.0542 22.5444 12.066 22.5326L21.5101 13.0885L21.5101 13.0885L21.5335 13.065L21.5369 13.0617C21.8472 12.7514 22.1215 12.4772 22.3128 12.2264C22.5202 11.9546 22.6858 11.641 22.6858 11.25C22.6858 10.859 22.5202 10.5454 22.3128 10.2736C22.1215 10.0228 21.8472 9.74864 21.5369 9.43835L21.51 9.41152L20.5885 8.48995L20.5617 8.46314C20.2514 8.1528 19.9772 7.87853 19.7264 7.6872C19.4546 7.47981 19.141 7.31421 18.75 7.31421C18.359 7.31421 18.0454 7.47981 17.7736 7.6872C17.5229 7.87853 17.2486 8.15278 16.9384 8.46311L16.9115 8.48995L7.46745 17.934C7.45565 17.9458 7.44386 17.9576 7.43211 17.9693C7.27249 18.1285 7.11904 18.2815 7.01064 18.4729C6.90225 18.6644 6.84999 18.8747 6.79562 19.0935C6.79162 19.1096 6.78761 19.1257 6.78356 19.1419L5.87003 22.796C5.86762 22.8057 5.86518 22.8154 5.86272 22.8252C5.82411 22.9793 5.78044 23.1535 5.76593 23.3018C5.74978 23.4669 5.75127 23.7662 5.99255 24.0074L6.39257 23.6074L5.99255 24.0075C6.23384 24.2487 6.53307 24.2502 6.6982 24.2341C6.84647 24.2196 7.02075 24.1759 7.17483 24.1373C7.18463 24.1348 7.19435 24.1324 7.20397 24.13Z" stroke="#374761" stroke-width="1.2"/>
<path id="Vector 107" d="M15.625 9.375L20.625 14.375" stroke="#374761" stroke-width="1.2"/>
</g>
</svg>
