<svg width="30" height="30" viewBox="0 0 30 30" fill="none" xmlns="http://www.w3.org/2000/svg">
<g id="View_hide_duotone_line">
<path id="Subtract" fill-rule="evenodd" clip-rule="evenodd" d="M19.7946 16.4231C19.9282 15.9721 20 15.4944 20 15C20 12.2386 17.7614 10 15 10C14.5056 10 14.0279 10.0718 13.5769 10.2054L14.593 11.2215C14.7267 11.2073 14.8625 11.2 15 11.2C17.0987 11.2 18.8 12.9013 18.8 15C18.8 15.1375 18.7927 15.2733 18.7785 15.407L19.7946 16.4231ZM11.9127 12.7839C11.4642 13.4077 11.2 14.173 11.2 15C11.2 17.0987 12.9013 18.8 15 18.8C15.827 18.8 16.5923 18.5358 17.2161 18.0873L18.0732 18.9444C17.2253 19.6059 16.1587 20 15 20C12.2386 20 10 17.7614 10 15C10 13.8413 10.3941 12.7747 11.0556 11.9268L11.9127 12.7839Z" fill="#374761"/>
<path id="Subtract_2" fill-rule="evenodd" clip-rule="evenodd" d="M19.7946 16.4231C19.9282 15.9721 20 15.4944 20 15C20 12.2386 17.7614 10 15 10C14.5056 10 14.0279 10.0718 13.5769 10.2054L14.593 11.2215C14.7267 11.2073 14.8625 11.2 15 11.2C17.0987 11.2 18.8 12.9013 18.8 15C18.8 15.1375 18.7927 15.2733 18.7785 15.407L19.7946 16.4231ZM11.9127 12.7839C11.4642 13.4077 11.2 14.173 11.2 15C11.2 17.0987 12.9013 18.8 15 18.8C15.827 18.8 16.5923 18.5358 17.2161 18.0873L18.0732 18.9444C17.2253 19.6059 16.1587 20 15 20C12.2386 20 10 17.7614 10 15C10 13.8413 10.3941 12.7747 11.0556 11.9268L11.9127 12.7839Z" fill="#374761"/>
<path id="Subtract_3" fill-rule="evenodd" clip-rule="evenodd" d="M20.5062 21.3776L19.6315 20.5029C18.2061 21.3357 16.635 21.9 14.9999 21.9C12.8143 21.9 10.7428 20.8917 8.98131 19.5814C7.2257 18.2755 5.83421 16.7112 5.02136 15.6962C4.81865 15.4431 4.70706 15.3015 4.63799 15.1837C4.58312 15.0902 4.57622 15.0462 4.57622 15C4.57622 14.9538 4.58312 14.9098 4.63799 14.8163C4.70706 14.6985 4.81865 14.5569 5.02136 14.3037C5.83421 13.2888 7.2257 11.7245 8.98131 10.4186C9.0895 10.3381 9.19885 10.2588 9.30933 10.1807L8.4492 9.3206C8.38735 9.36539 8.32599 9.41044 8.26511 9.45572C6.39603 10.846 4.93167 12.4961 4.08471 13.5536L4.02048 13.6335C3.69971 14.0314 3.37622 14.4328 3.37622 15C3.37622 15.5672 3.69971 15.9685 4.02048 16.3665L4.08471 16.4464C4.93166 17.5039 6.39603 19.154 8.26511 20.5443C10.1283 21.9302 12.4503 23.1 14.9999 23.1C17.0157 23.1 18.8892 22.3688 20.5062 21.3776ZM11.1324 7.76116C12.3325 7.23598 13.6335 6.89999 14.9999 6.89999C17.5495 6.89999 19.8715 8.06978 21.7347 9.45572C23.6038 10.846 25.0682 12.4961 25.9151 13.5536L25.9794 13.6335C26.3001 14.0314 26.6236 14.4328 26.6236 15C26.6236 15.5672 26.3001 15.9685 25.9794 16.3665L25.9151 16.4464C25.2601 17.2643 24.2357 18.4367 22.9404 19.5692L22.0899 18.7186C23.3413 17.6334 24.339 16.4948 24.9785 15.6962C25.1812 15.4431 25.2928 15.3015 25.3619 15.1837C25.4167 15.0902 25.4236 15.0462 25.4236 15C25.4236 14.9538 25.4167 14.9098 25.3619 14.8163C25.2928 14.6985 25.1812 14.5569 24.9785 14.3037C24.1657 13.2888 22.7742 11.7245 21.0185 10.4186C19.2571 9.10829 17.1855 8.09999 14.9999 8.09999C13.9861 8.09999 12.9968 8.31696 12.0516 8.68038L11.1324 7.76116Z" fill="#7E869E" fill-opacity="0.25"/>
<path id="Vector 116" d="M6.25 2.5L26.25 22.5" stroke="#374761" stroke-width="1.2"/>
</g>
</svg>
