<svg width="50" height="50" viewBox="0 0 50 50" fill="none" xmlns="http://www.w3.org/2000/svg">
    <path d="M19.75 7.22692C16.2217 5.54235 11.29 4.71715 4.68751 4.68786C4.06482 4.6794 3.45435 4.86097 2.93751 5.20837C2.51327 5.49511 2.16601 5.88171 1.92624 6.33416C1.68648 6.78661 1.56157 7.29104 1.56251 7.80309V35.7425C1.56251 37.6312 2.90626 39.056 4.68751 39.056C11.6279 39.056 18.5898 39.7045 22.7598 43.6459C22.8168 43.7 22.8885 43.7362 22.966 43.75C23.0434 43.7637 23.1232 43.7544 23.1954 43.7232C23.2676 43.692 23.329 43.6403 23.3721 43.5744C23.4151 43.5086 23.4379 43.4316 23.4375 43.3529V10.432C23.4377 10.2099 23.3902 9.99032 23.2982 9.78815C23.2062 9.58598 23.0719 9.40592 22.9043 9.26012C21.9491 8.44356 20.8881 7.75965 19.75 7.22692ZM47.0625 5.20544C46.5454 4.85891 45.9349 4.67835 45.3125 4.68786C38.71 4.71715 33.7783 5.53844 30.25 7.22692C29.1119 7.75868 28.0507 8.44124 27.0947 9.25622C26.9275 9.40226 26.7935 9.5824 26.7017 9.78453C26.6099 9.98666 26.5625 10.2061 26.5625 10.4281V43.3509C26.5625 43.4265 26.5847 43.5005 26.6265 43.5634C26.6683 43.6264 26.7278 43.6756 26.7975 43.7049C26.8672 43.7343 26.9439 43.7423 27.0182 43.7282C27.0924 43.714 27.1608 43.6782 27.2148 43.6254C29.7217 41.1351 34.1211 39.0531 45.3164 39.0541C46.1452 39.0541 46.9401 38.7248 47.5261 38.1388C48.1122 37.5527 48.4414 36.7579 48.4414 35.9291V7.80407C48.4426 7.29101 48.3174 6.78556 48.0769 6.33235C47.8364 5.87914 47.488 5.49211 47.0625 5.20544Z" fill="white"/>
    </svg>
    