<svg width="50" height="50" viewBox="0 0 50 50" fill="none" xmlns="http://www.w3.org/2000/svg">
    <path d="M23.4091 16.7614L18.6364 10.7955C18.1818 10.2273 17.9545 9.56439 17.9545 8.80682C17.9545 8.04924 18.1818 7.38636 18.6364 6.81818L23.4091 0.852272C23.8636 0.284091 24.3939 0 25 0C25.6061 0 26.1364 0.284091 26.5909 0.852272L31.3636 6.81818C31.8182 7.38636 32.0455 8.04924 32.0455 8.80682C32.0455 9.56439 31.8182 10.2273 31.3636 10.7955L26.5909 16.7614C26.1364 17.3295 25.6061 17.6136 25 17.6136C24.3939 17.6136 23.8636 17.3295 23.4091 16.7614ZM2.27273 50C1.6288 50 1.08864 49.7273 0.65228 49.1818C0.215917 48.6364 -0.00150729 47.9621 7.86411e-06 47.1591V38.6364C7.86411e-06 37.0265 0.445462 35.6771 1.33637 34.5881C2.22728 33.499 3.29698 32.9545 4.54546 32.9545H11.9886C12.7462 32.9545 13.4659 33.1913 14.1477 33.6648C14.8296 34.1383 15.3788 34.7775 15.7955 35.5824C16.8939 37.429 18.2485 38.8731 19.8591 39.9148C21.4697 40.9564 23.1833 41.4773 25 41.4773C26.8561 41.4773 28.5894 40.9564 30.2 39.9148C31.8106 38.8731 33.1455 37.429 34.2045 35.5824C34.697 34.7775 35.275 34.1383 35.9386 33.6648C36.6023 33.1913 37.2932 32.9545 38.0114 32.9545H45.4546C46.7424 32.9545 47.822 33.499 48.6932 34.5881C49.5644 35.6771 50 37.0265 50 38.6364V47.1591C50 47.964 49.7818 48.6392 49.3455 49.1847C48.9091 49.7301 48.3697 50.0019 47.7273 50H36.3636C35.7197 50 35.1796 49.7273 34.7432 49.1818C34.3068 48.6364 34.0894 47.9621 34.0909 47.1591V43.5369C32.7652 44.7206 31.3349 45.6203 29.8 46.2358C28.2652 46.8513 26.6652 47.1591 25 47.1591C23.3712 47.1591 21.7803 46.839 20.2273 46.1989C18.6742 45.5587 17.2349 44.6477 15.9091 43.4659V47.1591C15.9091 47.964 15.6909 48.6392 15.2546 49.1847C14.8182 49.7301 14.2788 50.0019 13.6364 50H2.27273ZM6.81819 30.1136C4.92425 30.1136 3.3144 29.285 1.98864 27.6278C0.662887 25.9706 7.86411e-06 23.9583 7.86411e-06 21.5909C7.86411e-06 19.1761 0.662887 17.1515 1.98864 15.517C3.3144 13.8826 4.92425 13.0663 6.81819 13.0682C8.75001 13.0682 10.3697 13.8854 11.6773 15.5199C12.9849 17.1544 13.6379 19.178 13.6364 21.5909C13.6364 23.9583 12.9826 25.9706 11.675 27.6278C10.3674 29.285 8.74849 30.1136 6.81819 30.1136ZM43.1818 30.1136C41.2879 30.1136 39.678 29.285 38.3523 27.6278C37.0265 25.9706 36.3636 23.9583 36.3636 21.5909C36.3636 19.1761 37.0265 17.1515 38.3523 15.517C39.678 13.8826 41.2879 13.0663 43.1818 13.0682C45.1136 13.0682 46.7333 13.8854 48.0409 15.5199C49.3485 17.1544 50.0015 19.178 50 21.5909C50 23.9583 49.3462 25.9706 48.0386 27.6278C46.7311 29.285 45.1121 30.1136 43.1818 30.1136Z" fill="white"/>
    </svg>
    