<svg width="54" height="54" viewBox="0 0 54 54" fill="none" xmlns="http://www.w3.org/2000/svg">
    <path d="M17.9091 24.7273C20.9229 24.7273 23.8133 23.53 25.9444 21.3989C28.0755 19.2678 29.2727 16.3775 29.2727 13.3636C29.2727 10.3498 28.0755 7.45943 25.9444 5.32833C23.8133 3.19724 20.9229 2 17.9091 2C14.8953 2 12.0049 3.19724 9.87379 5.32833C7.74269 7.45943 6.54545 10.3498 6.54545 13.3636C6.54545 16.3775 7.74269 19.2678 9.87379 21.3989C12.0049 23.53 14.8953 24.7273 17.9091 24.7273ZM17.9091 24.7273C22.4841 24.7273 26.4818 26.4545 29.325 29.325C31.011 31.0338 32.2721 33.1147 33.0068 35.4M17.9091 24.7273C8.81818 24.7273 2 31.5455 2 40.6364V52H24.7273M27 42.5091L36.5227 49.7273L52 29.2727" stroke="white" stroke-width="4"/>
    </svg>
    