<svg width="50" height="50" viewBox="0 0 50 50" fill="none" xmlns="http://www.w3.org/2000/svg">
    <path d="M4.16635 43.75C3.57607 43.75 3.08093 43.55 2.68093 43.15C2.28093 42.75 2.08163 42.2556 2.08302 41.6667C2.08302 41.0764 2.28301 40.5813 2.68301 40.1813C3.08301 39.7813 3.57746 39.582 4.16635 39.5833H45.833C46.4233 39.5833 46.9184 39.7833 47.3184 40.1833C47.7184 40.5833 47.9177 41.0778 47.9163 41.6667C47.9163 42.257 47.7163 42.7521 47.3163 43.1521C46.9163 43.5521 46.4219 43.7514 45.833 43.75H4.16635ZM8.33301 37.5C7.18718 37.5 6.20593 37.0917 5.38926 36.275C4.5726 35.4583 4.16496 34.4778 4.16635 33.3333V10.4167C4.16635 9.27084 4.57468 8.28959 5.39135 7.47292C6.20801 6.65625 7.18857 6.24861 8.33301 6.25H41.6663C42.8122 6.25 43.7934 6.65834 44.6101 7.475C45.4268 8.29167 45.8344 9.27223 45.833 10.4167V33.3333C45.833 34.4792 45.4247 35.4604 44.608 36.2771C43.7913 37.0938 42.8108 37.5014 41.6663 37.5H8.33301Z" fill="white"/>
    </svg>
    