<svg width="112" height="112" viewBox="0 0 112 112" fill="none" xmlns="http://www.w3.org/2000/svg">
<g id="Maps / layers">
<mask id="mask0_1225_3461" style="mask-type:alpha" maskUnits="userSpaceOnUse" x="16" y="13" width="80" height="86">
<g id="Icon Mask">
<path id="Round" fill-rule="evenodd" clip-rule="evenodd" d="M93.3103 47.8566L61.7636 72.4032C58.4036 75.0632 53.6436 75.0632 50.2836 72.4499L18.7369 47.9032C16.3569 46.0366 16.3569 42.3966 18.7369 40.5299L50.2836 15.9366C53.6903 13.3232 58.4036 13.3232 61.7636 15.9366L93.3103 40.4832C95.6903 42.3499 95.6903 45.9899 93.3103 47.8566ZM53.0836 86.4966C54.7636 87.8032 57.1436 87.8032 58.8236 86.4966L87.5236 64.1432C89.1965 62.8366 91.5441 62.8366 93.2169 64.1432L93.2636 64.1899C95.6436 66.0566 95.6436 69.6499 93.2636 71.5166L61.7169 96.0632C58.3103 98.6766 53.5969 98.6766 50.2369 96.0632L18.6903 71.5166C16.3103 69.6499 16.3103 66.0566 18.6903 64.1899C20.3632 62.8833 22.7107 62.8833 24.3836 64.1899L53.0836 86.4966Z" fill="black"/>
</g>
</mask>
<g mask="url(#mask0_1225_3461)">
<rect id="Color Fill" width="112" height="112" fill="#CADEFC"/>
</g>
</g>
</svg>
